%TF.GenerationSoftware,KiCad,Pcbnew,7.0.1*%
%TF.CreationDate,2023-04-10T19:00:45+03:00*%
%TF.ProjectId,Attiny_USB_panel,41747469-6e79-45f5-9553-425f70616e65,rev?*%
%TF.SameCoordinates,Original*%
%TF.FileFunction,Paste,Top*%
%TF.FilePolarity,Positive*%
%FSLAX46Y46*%
G04 Gerber Fmt 4.6, Leading zero omitted, Abs format (unit mm)*
G04 Created by KiCad (PCBNEW 7.0.1) date 2023-04-10 19:00:45*
%MOMM*%
%LPD*%
G01*
G04 APERTURE LIST*
G04 Aperture macros list*
%AMRoundRect*
0 Rectangle with rounded corners*
0 $1 Rounding radius*
0 $2 $3 $4 $5 $6 $7 $8 $9 X,Y pos of 4 corners*
0 Add a 4 corners polygon primitive as box body*
4,1,4,$2,$3,$4,$5,$6,$7,$8,$9,$2,$3,0*
0 Add four circle primitives for the rounded corners*
1,1,$1+$1,$2,$3*
1,1,$1+$1,$4,$5*
1,1,$1+$1,$6,$7*
1,1,$1+$1,$8,$9*
0 Add four rect primitives between the rounded corners*
20,1,$1+$1,$2,$3,$4,$5,0*
20,1,$1+$1,$4,$5,$6,$7,0*
20,1,$1+$1,$6,$7,$8,$9,0*
20,1,$1+$1,$8,$9,$2,$3,0*%
G04 Aperture macros list end*
%ADD10RoundRect,0.250000X0.350000X0.450000X-0.350000X0.450000X-0.350000X-0.450000X0.350000X-0.450000X0*%
%ADD11RoundRect,0.225000X-0.375000X0.225000X-0.375000X-0.225000X0.375000X-0.225000X0.375000X0.225000X0*%
%ADD12RoundRect,0.250000X-0.450000X0.350000X-0.450000X-0.350000X0.450000X-0.350000X0.450000X0.350000X0*%
%ADD13RoundRect,0.500000X-3.000000X-0.500000X3.000000X-0.500000X3.000000X0.500000X-3.000000X0.500000X0*%
%ADD14RoundRect,0.375000X-2.625000X-0.375000X2.625000X-0.375000X2.625000X0.375000X-2.625000X0.375000X0*%
%ADD15RoundRect,0.250000X0.450000X-0.350000X0.450000X0.350000X-0.450000X0.350000X-0.450000X-0.350000X0*%
%ADD16RoundRect,0.250000X0.275000X-0.275000X0.275000X0.275000X-0.275000X0.275000X-0.275000X-0.275000X0*%
%ADD17RoundRect,0.062500X0.062500X-0.362500X0.062500X0.362500X-0.062500X0.362500X-0.062500X-0.362500X0*%
%ADD18RoundRect,0.062500X0.362500X-0.062500X0.362500X0.062500X-0.362500X0.062500X-0.362500X-0.062500X0*%
%ADD19RoundRect,0.243750X-0.456250X0.243750X-0.456250X-0.243750X0.456250X-0.243750X0.456250X0.243750X0*%
%ADD20RoundRect,0.250000X-0.650000X0.412500X-0.650000X-0.412500X0.650000X-0.412500X0.650000X0.412500X0*%
G04 APERTURE END LIST*
D10*
%TO.C,R2*%
X133260000Y-46440000D03*
X131260000Y-46440000D03*
%TD*%
D11*
%TO.C,D1*%
X129010000Y-49340000D03*
X129010000Y-52640000D03*
%TD*%
D12*
%TO.C,R4*%
X128860000Y-44090000D03*
X128860000Y-46090000D03*
%TD*%
D13*
%TO.C,U2*%
X159017500Y-59357500D03*
D14*
X159017500Y-62107500D03*
X159017500Y-64107500D03*
D13*
X159017500Y-66857500D03*
%TD*%
D12*
%TO.C,R3*%
X189280000Y-62020000D03*
X189280000Y-64020000D03*
%TD*%
D15*
%TO.C,R1*%
X135460000Y-52990000D03*
X135460000Y-50990000D03*
%TD*%
D16*
%TO.C,U1*%
X183980000Y-64020000D03*
X185280000Y-64020000D03*
X183980000Y-62720000D03*
X185280000Y-62720000D03*
D17*
X183630000Y-65295000D03*
X184130000Y-65295000D03*
X184630000Y-65295000D03*
X185130000Y-65295000D03*
X185630000Y-65295000D03*
D18*
X186555000Y-64370000D03*
X186555000Y-63870000D03*
X186555000Y-63370000D03*
X186555000Y-62870000D03*
X186555000Y-62370000D03*
D17*
X185630000Y-61445000D03*
X185130000Y-61445000D03*
X184630000Y-61445000D03*
X184130000Y-61445000D03*
X183630000Y-61445000D03*
D18*
X182705000Y-62370000D03*
X182705000Y-62870000D03*
X182705000Y-63370000D03*
X182705000Y-63870000D03*
X182705000Y-64370000D03*
%TD*%
D19*
%TO.C,D3*%
X151310000Y-47865000D03*
X151310000Y-49740000D03*
%TD*%
D15*
%TO.C,R1*%
X176030000Y-67270000D03*
X176030000Y-65270000D03*
%TD*%
D13*
%TO.C,U2*%
X158897500Y-45127500D03*
D14*
X158897500Y-47877500D03*
X158897500Y-49877500D03*
D13*
X158897500Y-52627500D03*
%TD*%
D12*
%TO.C,R4*%
X169310000Y-44140000D03*
X169310000Y-46140000D03*
%TD*%
D11*
%TO.C,D1*%
X169580000Y-63620000D03*
X169580000Y-66920000D03*
%TD*%
D12*
%TO.C,R3*%
X189160000Y-47790000D03*
X189160000Y-49790000D03*
%TD*%
D11*
%TO.C,D2*%
X132160000Y-49390000D03*
X132160000Y-52690000D03*
%TD*%
D15*
%TO.C,R1*%
X135580000Y-67220000D03*
X135580000Y-65220000D03*
%TD*%
D10*
%TO.C,R2*%
X133380000Y-60670000D03*
X131380000Y-60670000D03*
%TD*%
D11*
%TO.C,D1*%
X129130000Y-63570000D03*
X129130000Y-66870000D03*
%TD*%
D19*
%TO.C,D3*%
X151430000Y-62095000D03*
X151430000Y-63970000D03*
%TD*%
D16*
%TO.C,U1*%
X143530000Y-63970000D03*
X144830000Y-63970000D03*
X143530000Y-62670000D03*
X144830000Y-62670000D03*
D17*
X143180000Y-65245000D03*
X143680000Y-65245000D03*
X144180000Y-65245000D03*
X144680000Y-65245000D03*
X145180000Y-65245000D03*
D18*
X146105000Y-64320000D03*
X146105000Y-63820000D03*
X146105000Y-63320000D03*
X146105000Y-62820000D03*
X146105000Y-62320000D03*
D17*
X145180000Y-61395000D03*
X144680000Y-61395000D03*
X144180000Y-61395000D03*
X143680000Y-61395000D03*
X143180000Y-61395000D03*
D18*
X142255000Y-62320000D03*
X142255000Y-62820000D03*
X142255000Y-63320000D03*
X142255000Y-63820000D03*
X142255000Y-64320000D03*
%TD*%
D12*
%TO.C,R3*%
X148830000Y-61970000D03*
X148830000Y-63970000D03*
%TD*%
D11*
%TO.C,D2*%
X132280000Y-63620000D03*
X132280000Y-66920000D03*
%TD*%
D12*
%TO.C,R4*%
X128980000Y-58320000D03*
X128980000Y-60320000D03*
%TD*%
D20*
%TO.C,C1*%
X136680000Y-58395000D03*
X136680000Y-61520000D03*
%TD*%
D13*
%TO.C,U2*%
X118567500Y-59307500D03*
D14*
X118567500Y-62057500D03*
X118567500Y-64057500D03*
D13*
X118567500Y-66807500D03*
%TD*%
D20*
%TO.C,C1*%
X177130000Y-58445000D03*
X177130000Y-61570000D03*
%TD*%
D19*
%TO.C,D3*%
X191760000Y-47915000D03*
X191760000Y-49790000D03*
%TD*%
D11*
%TO.C,D1*%
X169460000Y-49390000D03*
X169460000Y-52690000D03*
%TD*%
D16*
%TO.C,U1*%
X183860000Y-49790000D03*
X185160000Y-49790000D03*
X183860000Y-48490000D03*
X185160000Y-48490000D03*
D17*
X183510000Y-51065000D03*
X184010000Y-51065000D03*
X184510000Y-51065000D03*
X185010000Y-51065000D03*
X185510000Y-51065000D03*
D18*
X186435000Y-50140000D03*
X186435000Y-49640000D03*
X186435000Y-49140000D03*
X186435000Y-48640000D03*
X186435000Y-48140000D03*
D17*
X185510000Y-47215000D03*
X185010000Y-47215000D03*
X184510000Y-47215000D03*
X184010000Y-47215000D03*
X183510000Y-47215000D03*
D18*
X182585000Y-48140000D03*
X182585000Y-48640000D03*
X182585000Y-49140000D03*
X182585000Y-49640000D03*
X182585000Y-50140000D03*
%TD*%
D10*
%TO.C,R2*%
X173830000Y-60720000D03*
X171830000Y-60720000D03*
%TD*%
D11*
%TO.C,D2*%
X172730000Y-63670000D03*
X172730000Y-66970000D03*
%TD*%
%TO.C,D2*%
X172610000Y-49440000D03*
X172610000Y-52740000D03*
%TD*%
D10*
%TO.C,R2*%
X173710000Y-46490000D03*
X171710000Y-46490000D03*
%TD*%
D15*
%TO.C,R1*%
X175910000Y-53040000D03*
X175910000Y-51040000D03*
%TD*%
D20*
%TO.C,C1*%
X136560000Y-44165000D03*
X136560000Y-47290000D03*
%TD*%
D13*
%TO.C,U2*%
X118447500Y-45077500D03*
D14*
X118447500Y-47827500D03*
X118447500Y-49827500D03*
D13*
X118447500Y-52577500D03*
%TD*%
D19*
%TO.C,D3*%
X191880000Y-62145000D03*
X191880000Y-64020000D03*
%TD*%
D12*
%TO.C,R4*%
X169430000Y-58370000D03*
X169430000Y-60370000D03*
%TD*%
D20*
%TO.C,C1*%
X177010000Y-44215000D03*
X177010000Y-47340000D03*
%TD*%
D16*
%TO.C,U1*%
X143410000Y-49740000D03*
X144710000Y-49740000D03*
X143410000Y-48440000D03*
X144710000Y-48440000D03*
D17*
X143060000Y-51015000D03*
X143560000Y-51015000D03*
X144060000Y-51015000D03*
X144560000Y-51015000D03*
X145060000Y-51015000D03*
D18*
X145985000Y-50090000D03*
X145985000Y-49590000D03*
X145985000Y-49090000D03*
X145985000Y-48590000D03*
X145985000Y-48090000D03*
D17*
X145060000Y-47165000D03*
X144560000Y-47165000D03*
X144060000Y-47165000D03*
X143560000Y-47165000D03*
X143060000Y-47165000D03*
D18*
X142135000Y-48090000D03*
X142135000Y-48590000D03*
X142135000Y-49090000D03*
X142135000Y-49590000D03*
X142135000Y-50090000D03*
%TD*%
D12*
%TO.C,R3*%
X148710000Y-47740000D03*
X148710000Y-49740000D03*
%TD*%
D10*
%TO.C,R2*%
X133510000Y-74940000D03*
X131510000Y-74940000D03*
%TD*%
D11*
%TO.C,D1*%
X129260000Y-77840000D03*
X129260000Y-81140000D03*
%TD*%
D12*
%TO.C,R4*%
X129110000Y-72590000D03*
X129110000Y-74590000D03*
%TD*%
D13*
%TO.C,U2*%
X159267500Y-87857500D03*
D14*
X159267500Y-90607500D03*
X159267500Y-92607500D03*
D13*
X159267500Y-95357500D03*
%TD*%
D12*
%TO.C,R3*%
X189530000Y-90520000D03*
X189530000Y-92520000D03*
%TD*%
D15*
%TO.C,R1*%
X135710000Y-81490000D03*
X135710000Y-79490000D03*
%TD*%
D16*
%TO.C,U1*%
X184230000Y-92520000D03*
X185530000Y-92520000D03*
X184230000Y-91220000D03*
X185530000Y-91220000D03*
D17*
X183880000Y-93795000D03*
X184380000Y-93795000D03*
X184880000Y-93795000D03*
X185380000Y-93795000D03*
X185880000Y-93795000D03*
D18*
X186805000Y-92870000D03*
X186805000Y-92370000D03*
X186805000Y-91870000D03*
X186805000Y-91370000D03*
X186805000Y-90870000D03*
D17*
X185880000Y-89945000D03*
X185380000Y-89945000D03*
X184880000Y-89945000D03*
X184380000Y-89945000D03*
X183880000Y-89945000D03*
D18*
X182955000Y-90870000D03*
X182955000Y-91370000D03*
X182955000Y-91870000D03*
X182955000Y-92370000D03*
X182955000Y-92870000D03*
%TD*%
D19*
%TO.C,D3*%
X151560000Y-76365000D03*
X151560000Y-78240000D03*
%TD*%
D15*
%TO.C,R1*%
X176280000Y-95770000D03*
X176280000Y-93770000D03*
%TD*%
D13*
%TO.C,U2*%
X159147500Y-73627500D03*
D14*
X159147500Y-76377500D03*
X159147500Y-78377500D03*
D13*
X159147500Y-81127500D03*
%TD*%
D12*
%TO.C,R4*%
X169560000Y-72640000D03*
X169560000Y-74640000D03*
%TD*%
D11*
%TO.C,D1*%
X169830000Y-92120000D03*
X169830000Y-95420000D03*
%TD*%
D12*
%TO.C,R3*%
X189410000Y-76290000D03*
X189410000Y-78290000D03*
%TD*%
D11*
%TO.C,D2*%
X132410000Y-77890000D03*
X132410000Y-81190000D03*
%TD*%
D15*
%TO.C,R1*%
X135830000Y-95720000D03*
X135830000Y-93720000D03*
%TD*%
D10*
%TO.C,R2*%
X133630000Y-89170000D03*
X131630000Y-89170000D03*
%TD*%
D11*
%TO.C,D1*%
X129380000Y-92070000D03*
X129380000Y-95370000D03*
%TD*%
D19*
%TO.C,D3*%
X151680000Y-90595000D03*
X151680000Y-92470000D03*
%TD*%
D16*
%TO.C,U1*%
X143780000Y-92470000D03*
X145080000Y-92470000D03*
X143780000Y-91170000D03*
X145080000Y-91170000D03*
D17*
X143430000Y-93745000D03*
X143930000Y-93745000D03*
X144430000Y-93745000D03*
X144930000Y-93745000D03*
X145430000Y-93745000D03*
D18*
X146355000Y-92820000D03*
X146355000Y-92320000D03*
X146355000Y-91820000D03*
X146355000Y-91320000D03*
X146355000Y-90820000D03*
D17*
X145430000Y-89895000D03*
X144930000Y-89895000D03*
X144430000Y-89895000D03*
X143930000Y-89895000D03*
X143430000Y-89895000D03*
D18*
X142505000Y-90820000D03*
X142505000Y-91320000D03*
X142505000Y-91820000D03*
X142505000Y-92320000D03*
X142505000Y-92820000D03*
%TD*%
D12*
%TO.C,R3*%
X149080000Y-90470000D03*
X149080000Y-92470000D03*
%TD*%
D11*
%TO.C,D2*%
X132530000Y-92120000D03*
X132530000Y-95420000D03*
%TD*%
D12*
%TO.C,R4*%
X129230000Y-86820000D03*
X129230000Y-88820000D03*
%TD*%
D20*
%TO.C,C1*%
X136930000Y-86895000D03*
X136930000Y-90020000D03*
%TD*%
D13*
%TO.C,U2*%
X118817500Y-87807500D03*
D14*
X118817500Y-90557500D03*
X118817500Y-92557500D03*
D13*
X118817500Y-95307500D03*
%TD*%
D20*
%TO.C,C1*%
X177380000Y-86945000D03*
X177380000Y-90070000D03*
%TD*%
D19*
%TO.C,D3*%
X192010000Y-76415000D03*
X192010000Y-78290000D03*
%TD*%
D11*
%TO.C,D1*%
X169710000Y-77890000D03*
X169710000Y-81190000D03*
%TD*%
D16*
%TO.C,U1*%
X184110000Y-78290000D03*
X185410000Y-78290000D03*
X184110000Y-76990000D03*
X185410000Y-76990000D03*
D17*
X183760000Y-79565000D03*
X184260000Y-79565000D03*
X184760000Y-79565000D03*
X185260000Y-79565000D03*
X185760000Y-79565000D03*
D18*
X186685000Y-78640000D03*
X186685000Y-78140000D03*
X186685000Y-77640000D03*
X186685000Y-77140000D03*
X186685000Y-76640000D03*
D17*
X185760000Y-75715000D03*
X185260000Y-75715000D03*
X184760000Y-75715000D03*
X184260000Y-75715000D03*
X183760000Y-75715000D03*
D18*
X182835000Y-76640000D03*
X182835000Y-77140000D03*
X182835000Y-77640000D03*
X182835000Y-78140000D03*
X182835000Y-78640000D03*
%TD*%
D10*
%TO.C,R2*%
X174080000Y-89220000D03*
X172080000Y-89220000D03*
%TD*%
D11*
%TO.C,D2*%
X172980000Y-92170000D03*
X172980000Y-95470000D03*
%TD*%
%TO.C,D2*%
X172860000Y-77940000D03*
X172860000Y-81240000D03*
%TD*%
D10*
%TO.C,R2*%
X173960000Y-74990000D03*
X171960000Y-74990000D03*
%TD*%
D15*
%TO.C,R1*%
X176160000Y-81540000D03*
X176160000Y-79540000D03*
%TD*%
D20*
%TO.C,C1*%
X136810000Y-72665000D03*
X136810000Y-75790000D03*
%TD*%
D13*
%TO.C,U2*%
X118697500Y-73577500D03*
D14*
X118697500Y-76327500D03*
X118697500Y-78327500D03*
D13*
X118697500Y-81077500D03*
%TD*%
D19*
%TO.C,D3*%
X192130000Y-90645000D03*
X192130000Y-92520000D03*
%TD*%
D12*
%TO.C,R4*%
X169680000Y-86870000D03*
X169680000Y-88870000D03*
%TD*%
D20*
%TO.C,C1*%
X177260000Y-72715000D03*
X177260000Y-75840000D03*
%TD*%
D16*
%TO.C,U1*%
X143660000Y-78240000D03*
X144960000Y-78240000D03*
X143660000Y-76940000D03*
X144960000Y-76940000D03*
D17*
X143310000Y-79515000D03*
X143810000Y-79515000D03*
X144310000Y-79515000D03*
X144810000Y-79515000D03*
X145310000Y-79515000D03*
D18*
X146235000Y-78590000D03*
X146235000Y-78090000D03*
X146235000Y-77590000D03*
X146235000Y-77090000D03*
X146235000Y-76590000D03*
D17*
X145310000Y-75665000D03*
X144810000Y-75665000D03*
X144310000Y-75665000D03*
X143810000Y-75665000D03*
X143310000Y-75665000D03*
D18*
X142385000Y-76590000D03*
X142385000Y-77090000D03*
X142385000Y-77590000D03*
X142385000Y-78090000D03*
X142385000Y-78590000D03*
%TD*%
D12*
%TO.C,R3*%
X148960000Y-76240000D03*
X148960000Y-78240000D03*
%TD*%
D13*
%TO.C,U2*%
X159267500Y-102207500D03*
D14*
X159267500Y-104957500D03*
X159267500Y-106957500D03*
D13*
X159267500Y-109707500D03*
%TD*%
D12*
%TO.C,R3*%
X189530000Y-104870000D03*
X189530000Y-106870000D03*
%TD*%
D16*
%TO.C,U1*%
X184230000Y-106870000D03*
X185530000Y-106870000D03*
X184230000Y-105570000D03*
X185530000Y-105570000D03*
D17*
X183880000Y-108145000D03*
X184380000Y-108145000D03*
X184880000Y-108145000D03*
X185380000Y-108145000D03*
X185880000Y-108145000D03*
D18*
X186805000Y-107220000D03*
X186805000Y-106720000D03*
X186805000Y-106220000D03*
X186805000Y-105720000D03*
X186805000Y-105220000D03*
D17*
X185880000Y-104295000D03*
X185380000Y-104295000D03*
X184880000Y-104295000D03*
X184380000Y-104295000D03*
X183880000Y-104295000D03*
D18*
X182955000Y-105220000D03*
X182955000Y-105720000D03*
X182955000Y-106220000D03*
X182955000Y-106720000D03*
X182955000Y-107220000D03*
%TD*%
D15*
%TO.C,R1*%
X176280000Y-110120000D03*
X176280000Y-108120000D03*
%TD*%
D11*
%TO.C,D1*%
X169830000Y-106470000D03*
X169830000Y-109770000D03*
%TD*%
D15*
%TO.C,R1*%
X135830000Y-110070000D03*
X135830000Y-108070000D03*
%TD*%
D10*
%TO.C,R2*%
X133630000Y-103520000D03*
X131630000Y-103520000D03*
%TD*%
D11*
%TO.C,D1*%
X129380000Y-106420000D03*
X129380000Y-109720000D03*
%TD*%
D19*
%TO.C,D3*%
X151680000Y-104945000D03*
X151680000Y-106820000D03*
%TD*%
D16*
%TO.C,U1*%
X143780000Y-106820000D03*
X145080000Y-106820000D03*
X143780000Y-105520000D03*
X145080000Y-105520000D03*
D17*
X143430000Y-108095000D03*
X143930000Y-108095000D03*
X144430000Y-108095000D03*
X144930000Y-108095000D03*
X145430000Y-108095000D03*
D18*
X146355000Y-107170000D03*
X146355000Y-106670000D03*
X146355000Y-106170000D03*
X146355000Y-105670000D03*
X146355000Y-105170000D03*
D17*
X145430000Y-104245000D03*
X144930000Y-104245000D03*
X144430000Y-104245000D03*
X143930000Y-104245000D03*
X143430000Y-104245000D03*
D18*
X142505000Y-105170000D03*
X142505000Y-105670000D03*
X142505000Y-106170000D03*
X142505000Y-106670000D03*
X142505000Y-107170000D03*
%TD*%
D12*
%TO.C,R3*%
X149080000Y-104820000D03*
X149080000Y-106820000D03*
%TD*%
D11*
%TO.C,D2*%
X132530000Y-106470000D03*
X132530000Y-109770000D03*
%TD*%
D12*
%TO.C,R4*%
X129230000Y-101170000D03*
X129230000Y-103170000D03*
%TD*%
D20*
%TO.C,C1*%
X136930000Y-101245000D03*
X136930000Y-104370000D03*
%TD*%
D13*
%TO.C,U2*%
X118817500Y-102157500D03*
D14*
X118817500Y-104907500D03*
X118817500Y-106907500D03*
D13*
X118817500Y-109657500D03*
%TD*%
D20*
%TO.C,C1*%
X177380000Y-101295000D03*
X177380000Y-104420000D03*
%TD*%
D10*
%TO.C,R2*%
X174080000Y-103570000D03*
X172080000Y-103570000D03*
%TD*%
D11*
%TO.C,D2*%
X172980000Y-106520000D03*
X172980000Y-109820000D03*
%TD*%
D19*
%TO.C,D3*%
X192130000Y-104995000D03*
X192130000Y-106870000D03*
%TD*%
D12*
%TO.C,R4*%
X169680000Y-101220000D03*
X169680000Y-103220000D03*
%TD*%
D15*
%TO.C,R1*%
X176400000Y-124350000D03*
X176400000Y-122350000D03*
%TD*%
D10*
%TO.C,R2*%
X174200000Y-117800000D03*
X172200000Y-117800000D03*
%TD*%
D11*
%TO.C,D1*%
X169950000Y-120700000D03*
X169950000Y-124000000D03*
%TD*%
D19*
%TO.C,D3*%
X192250000Y-119225000D03*
X192250000Y-121100000D03*
%TD*%
D16*
%TO.C,U1*%
X184350000Y-121100000D03*
X185650000Y-121100000D03*
X184350000Y-119800000D03*
X185650000Y-119800000D03*
D17*
X184000000Y-122375000D03*
X184500000Y-122375000D03*
X185000000Y-122375000D03*
X185500000Y-122375000D03*
X186000000Y-122375000D03*
D18*
X186925000Y-121450000D03*
X186925000Y-120950000D03*
X186925000Y-120450000D03*
X186925000Y-119950000D03*
X186925000Y-119450000D03*
D17*
X186000000Y-118525000D03*
X185500000Y-118525000D03*
X185000000Y-118525000D03*
X184500000Y-118525000D03*
X184000000Y-118525000D03*
D18*
X183075000Y-119450000D03*
X183075000Y-119950000D03*
X183075000Y-120450000D03*
X183075000Y-120950000D03*
X183075000Y-121450000D03*
%TD*%
D12*
%TO.C,R3*%
X189650000Y-119100000D03*
X189650000Y-121100000D03*
%TD*%
D11*
%TO.C,D2*%
X173100000Y-120750000D03*
X173100000Y-124050000D03*
%TD*%
D12*
%TO.C,R4*%
X169800000Y-115450000D03*
X169800000Y-117450000D03*
%TD*%
D20*
%TO.C,C1*%
X177500000Y-115525000D03*
X177500000Y-118650000D03*
%TD*%
D13*
%TO.C,U2*%
X159387500Y-116437500D03*
D14*
X159387500Y-119187500D03*
X159387500Y-121187500D03*
D13*
X159387500Y-123937500D03*
%TD*%
%TO.C,U2*%
X118937500Y-116387500D03*
D14*
X118937500Y-119137500D03*
X118937500Y-121137500D03*
D13*
X118937500Y-123887500D03*
%TD*%
D20*
%TO.C,C1*%
X137050000Y-115475000D03*
X137050000Y-118600000D03*
%TD*%
D12*
%TO.C,R4*%
X129350000Y-115400000D03*
X129350000Y-117400000D03*
%TD*%
D11*
%TO.C,D2*%
X132650000Y-120700000D03*
X132650000Y-124000000D03*
%TD*%
D12*
%TO.C,R3*%
X149200000Y-119050000D03*
X149200000Y-121050000D03*
%TD*%
D16*
%TO.C,U1*%
X143900000Y-121050000D03*
X145200000Y-121050000D03*
X143900000Y-119750000D03*
X145200000Y-119750000D03*
D17*
X143550000Y-122325000D03*
X144050000Y-122325000D03*
X144550000Y-122325000D03*
X145050000Y-122325000D03*
X145550000Y-122325000D03*
D18*
X146475000Y-121400000D03*
X146475000Y-120900000D03*
X146475000Y-120400000D03*
X146475000Y-119900000D03*
X146475000Y-119400000D03*
D17*
X145550000Y-118475000D03*
X145050000Y-118475000D03*
X144550000Y-118475000D03*
X144050000Y-118475000D03*
X143550000Y-118475000D03*
D18*
X142625000Y-119400000D03*
X142625000Y-119900000D03*
X142625000Y-120400000D03*
X142625000Y-120900000D03*
X142625000Y-121400000D03*
%TD*%
D19*
%TO.C,D3*%
X151800000Y-119175000D03*
X151800000Y-121050000D03*
%TD*%
D11*
%TO.C,D1*%
X129500000Y-120650000D03*
X129500000Y-123950000D03*
%TD*%
D10*
%TO.C,R2*%
X133750000Y-117750000D03*
X131750000Y-117750000D03*
%TD*%
D15*
%TO.C,R1*%
X135950000Y-124300000D03*
X135950000Y-122300000D03*
%TD*%
M02*
