%TF.GenerationSoftware,KiCad,Pcbnew,7.0.1*%
%TF.CreationDate,2023-04-10T19:00:45+03:00*%
%TF.ProjectId,Attiny_USB_panel,41747469-6e79-45f5-9553-425f70616e65,rev?*%
%TF.SameCoordinates,Original*%
%TF.FileFunction,Copper,L2,Bot*%
%TF.FilePolarity,Positive*%
%FSLAX46Y46*%
G04 Gerber Fmt 4.6, Leading zero omitted, Abs format (unit mm)*
G04 Created by KiCad (PCBNEW 7.0.1) date 2023-04-10 19:00:45*
%MOMM*%
%LPD*%
G01*
G04 APERTURE LIST*
%TA.AperFunction,ComponentPad*%
%ADD10R,1.700000X1.700000*%
%TD*%
%TA.AperFunction,ComponentPad*%
%ADD11O,1.700000X1.700000*%
%TD*%
%TA.AperFunction,ViaPad*%
%ADD12C,0.800000*%
%TD*%
%TA.AperFunction,ViaPad*%
%ADD13C,0.500000*%
%TD*%
%TA.AperFunction,Conductor*%
%ADD14C,0.300000*%
%TD*%
%TA.AperFunction,Conductor*%
%ADD15C,0.250000*%
%TD*%
G04 APERTURE END LIST*
D10*
%TO.P,J1,1,Pin_1*%
%TO.N,Net-(J1-Pin_1)*%
X147510000Y-44640000D03*
D11*
%TO.P,J1,2,Pin_2*%
%TO.N,Net-(J1-Pin_2)*%
X144970000Y-44640000D03*
%TO.P,J1,3,Pin_3*%
%TO.N,Net-(J1-Pin_3)*%
X142430000Y-44640000D03*
%TO.P,J1,4,Pin_4*%
%TO.N,+5V*%
X139890000Y-44640000D03*
%TD*%
D10*
%TO.P,J2,1,Pin_1*%
%TO.N,Net-(J2-Pin_1)*%
X141260000Y-53490000D03*
D11*
%TO.P,J2,2,Pin_2*%
%TO.N,Net-(J2-Pin_2)*%
X143800000Y-53490000D03*
%TO.P,J2,3,Pin_3*%
%TO.N,Net-(J2-Pin_3)*%
X146340000Y-53490000D03*
%TO.P,J2,4,Pin_4*%
%TO.N,GND*%
X148880000Y-53490000D03*
%TD*%
D10*
%TO.P,J2,1,Pin_1*%
%TO.N,Net-(J2-Pin_1)*%
X141380000Y-67720000D03*
D11*
%TO.P,J2,2,Pin_2*%
%TO.N,Net-(J2-Pin_2)*%
X143920000Y-67720000D03*
%TO.P,J2,3,Pin_3*%
%TO.N,Net-(J2-Pin_3)*%
X146460000Y-67720000D03*
%TO.P,J2,4,Pin_4*%
%TO.N,GND*%
X149000000Y-67720000D03*
%TD*%
D10*
%TO.P,J1,1,Pin_1*%
%TO.N,Net-(J1-Pin_1)*%
X147630000Y-58870000D03*
D11*
%TO.P,J1,2,Pin_2*%
%TO.N,Net-(J1-Pin_2)*%
X145090000Y-58870000D03*
%TO.P,J1,3,Pin_3*%
%TO.N,Net-(J1-Pin_3)*%
X142550000Y-58870000D03*
%TO.P,J1,4,Pin_4*%
%TO.N,+5V*%
X140010000Y-58870000D03*
%TD*%
D10*
%TO.P,J1,1,Pin_1*%
%TO.N,Net-(J1-Pin_1)*%
X188080000Y-58920000D03*
D11*
%TO.P,J1,2,Pin_2*%
%TO.N,Net-(J1-Pin_2)*%
X185540000Y-58920000D03*
%TO.P,J1,3,Pin_3*%
%TO.N,Net-(J1-Pin_3)*%
X183000000Y-58920000D03*
%TO.P,J1,4,Pin_4*%
%TO.N,+5V*%
X180460000Y-58920000D03*
%TD*%
D10*
%TO.P,J2,1,Pin_1*%
%TO.N,Net-(J2-Pin_1)*%
X181710000Y-53540000D03*
D11*
%TO.P,J2,2,Pin_2*%
%TO.N,Net-(J2-Pin_2)*%
X184250000Y-53540000D03*
%TO.P,J2,3,Pin_3*%
%TO.N,Net-(J2-Pin_3)*%
X186790000Y-53540000D03*
%TO.P,J2,4,Pin_4*%
%TO.N,GND*%
X189330000Y-53540000D03*
%TD*%
D10*
%TO.P,J1,1,Pin_1*%
%TO.N,Net-(J1-Pin_1)*%
X187960000Y-44690000D03*
D11*
%TO.P,J1,2,Pin_2*%
%TO.N,Net-(J1-Pin_2)*%
X185420000Y-44690000D03*
%TO.P,J1,3,Pin_3*%
%TO.N,Net-(J1-Pin_3)*%
X182880000Y-44690000D03*
%TO.P,J1,4,Pin_4*%
%TO.N,+5V*%
X180340000Y-44690000D03*
%TD*%
D10*
%TO.P,J2,1,Pin_1*%
%TO.N,Net-(J2-Pin_1)*%
X181830000Y-67770000D03*
D11*
%TO.P,J2,2,Pin_2*%
%TO.N,Net-(J2-Pin_2)*%
X184370000Y-67770000D03*
%TO.P,J2,3,Pin_3*%
%TO.N,Net-(J2-Pin_3)*%
X186910000Y-67770000D03*
%TO.P,J2,4,Pin_4*%
%TO.N,GND*%
X189450000Y-67770000D03*
%TD*%
D10*
%TO.P,J1,1,Pin_1*%
%TO.N,Net-(J1-Pin_1)*%
X147760000Y-73140000D03*
D11*
%TO.P,J1,2,Pin_2*%
%TO.N,Net-(J1-Pin_2)*%
X145220000Y-73140000D03*
%TO.P,J1,3,Pin_3*%
%TO.N,Net-(J1-Pin_3)*%
X142680000Y-73140000D03*
%TO.P,J1,4,Pin_4*%
%TO.N,+5V*%
X140140000Y-73140000D03*
%TD*%
D10*
%TO.P,J2,1,Pin_1*%
%TO.N,Net-(J2-Pin_1)*%
X141510000Y-81990000D03*
D11*
%TO.P,J2,2,Pin_2*%
%TO.N,Net-(J2-Pin_2)*%
X144050000Y-81990000D03*
%TO.P,J2,3,Pin_3*%
%TO.N,Net-(J2-Pin_3)*%
X146590000Y-81990000D03*
%TO.P,J2,4,Pin_4*%
%TO.N,GND*%
X149130000Y-81990000D03*
%TD*%
D10*
%TO.P,J2,1,Pin_1*%
%TO.N,Net-(J2-Pin_1)*%
X141630000Y-96220000D03*
D11*
%TO.P,J2,2,Pin_2*%
%TO.N,Net-(J2-Pin_2)*%
X144170000Y-96220000D03*
%TO.P,J2,3,Pin_3*%
%TO.N,Net-(J2-Pin_3)*%
X146710000Y-96220000D03*
%TO.P,J2,4,Pin_4*%
%TO.N,GND*%
X149250000Y-96220000D03*
%TD*%
D10*
%TO.P,J1,1,Pin_1*%
%TO.N,Net-(J1-Pin_1)*%
X147880000Y-87370000D03*
D11*
%TO.P,J1,2,Pin_2*%
%TO.N,Net-(J1-Pin_2)*%
X145340000Y-87370000D03*
%TO.P,J1,3,Pin_3*%
%TO.N,Net-(J1-Pin_3)*%
X142800000Y-87370000D03*
%TO.P,J1,4,Pin_4*%
%TO.N,+5V*%
X140260000Y-87370000D03*
%TD*%
D10*
%TO.P,J1,1,Pin_1*%
%TO.N,Net-(J1-Pin_1)*%
X188330000Y-87420000D03*
D11*
%TO.P,J1,2,Pin_2*%
%TO.N,Net-(J1-Pin_2)*%
X185790000Y-87420000D03*
%TO.P,J1,3,Pin_3*%
%TO.N,Net-(J1-Pin_3)*%
X183250000Y-87420000D03*
%TO.P,J1,4,Pin_4*%
%TO.N,+5V*%
X180710000Y-87420000D03*
%TD*%
D10*
%TO.P,J2,1,Pin_1*%
%TO.N,Net-(J2-Pin_1)*%
X181960000Y-82040000D03*
D11*
%TO.P,J2,2,Pin_2*%
%TO.N,Net-(J2-Pin_2)*%
X184500000Y-82040000D03*
%TO.P,J2,3,Pin_3*%
%TO.N,Net-(J2-Pin_3)*%
X187040000Y-82040000D03*
%TO.P,J2,4,Pin_4*%
%TO.N,GND*%
X189580000Y-82040000D03*
%TD*%
D10*
%TO.P,J1,1,Pin_1*%
%TO.N,Net-(J1-Pin_1)*%
X188210000Y-73190000D03*
D11*
%TO.P,J1,2,Pin_2*%
%TO.N,Net-(J1-Pin_2)*%
X185670000Y-73190000D03*
%TO.P,J1,3,Pin_3*%
%TO.N,Net-(J1-Pin_3)*%
X183130000Y-73190000D03*
%TO.P,J1,4,Pin_4*%
%TO.N,+5V*%
X180590000Y-73190000D03*
%TD*%
D10*
%TO.P,J2,1,Pin_1*%
%TO.N,Net-(J2-Pin_1)*%
X182080000Y-96270000D03*
D11*
%TO.P,J2,2,Pin_2*%
%TO.N,Net-(J2-Pin_2)*%
X184620000Y-96270000D03*
%TO.P,J2,3,Pin_3*%
%TO.N,Net-(J2-Pin_3)*%
X187160000Y-96270000D03*
%TO.P,J2,4,Pin_4*%
%TO.N,GND*%
X189700000Y-96270000D03*
%TD*%
D10*
%TO.P,J2,1,Pin_1*%
%TO.N,Net-(J2-Pin_1)*%
X141630000Y-110570000D03*
D11*
%TO.P,J2,2,Pin_2*%
%TO.N,Net-(J2-Pin_2)*%
X144170000Y-110570000D03*
%TO.P,J2,3,Pin_3*%
%TO.N,Net-(J2-Pin_3)*%
X146710000Y-110570000D03*
%TO.P,J2,4,Pin_4*%
%TO.N,GND*%
X149250000Y-110570000D03*
%TD*%
D10*
%TO.P,J1,1,Pin_1*%
%TO.N,Net-(J1-Pin_1)*%
X147880000Y-101720000D03*
D11*
%TO.P,J1,2,Pin_2*%
%TO.N,Net-(J1-Pin_2)*%
X145340000Y-101720000D03*
%TO.P,J1,3,Pin_3*%
%TO.N,Net-(J1-Pin_3)*%
X142800000Y-101720000D03*
%TO.P,J1,4,Pin_4*%
%TO.N,+5V*%
X140260000Y-101720000D03*
%TD*%
D10*
%TO.P,J1,1,Pin_1*%
%TO.N,Net-(J1-Pin_1)*%
X188330000Y-101770000D03*
D11*
%TO.P,J1,2,Pin_2*%
%TO.N,Net-(J1-Pin_2)*%
X185790000Y-101770000D03*
%TO.P,J1,3,Pin_3*%
%TO.N,Net-(J1-Pin_3)*%
X183250000Y-101770000D03*
%TO.P,J1,4,Pin_4*%
%TO.N,+5V*%
X180710000Y-101770000D03*
%TD*%
D10*
%TO.P,J2,1,Pin_1*%
%TO.N,Net-(J2-Pin_1)*%
X182080000Y-110620000D03*
D11*
%TO.P,J2,2,Pin_2*%
%TO.N,Net-(J2-Pin_2)*%
X184620000Y-110620000D03*
%TO.P,J2,3,Pin_3*%
%TO.N,Net-(J2-Pin_3)*%
X187160000Y-110620000D03*
%TO.P,J2,4,Pin_4*%
%TO.N,GND*%
X189700000Y-110620000D03*
%TD*%
D10*
%TO.P,J2,1,Pin_1*%
%TO.N,Net-(J2-Pin_1)*%
X182200000Y-124850000D03*
D11*
%TO.P,J2,2,Pin_2*%
%TO.N,Net-(J2-Pin_2)*%
X184740000Y-124850000D03*
%TO.P,J2,3,Pin_3*%
%TO.N,Net-(J2-Pin_3)*%
X187280000Y-124850000D03*
%TO.P,J2,4,Pin_4*%
%TO.N,GND*%
X189820000Y-124850000D03*
%TD*%
D10*
%TO.P,J1,1,Pin_1*%
%TO.N,Net-(J1-Pin_1)*%
X188450000Y-116000000D03*
D11*
%TO.P,J1,2,Pin_2*%
%TO.N,Net-(J1-Pin_2)*%
X185910000Y-116000000D03*
%TO.P,J1,3,Pin_3*%
%TO.N,Net-(J1-Pin_3)*%
X183370000Y-116000000D03*
%TO.P,J1,4,Pin_4*%
%TO.N,+5V*%
X180830000Y-116000000D03*
%TD*%
D10*
%TO.P,J1,1,Pin_1*%
%TO.N,Net-(J1-Pin_1)*%
X148000000Y-115950000D03*
D11*
%TO.P,J1,2,Pin_2*%
%TO.N,Net-(J1-Pin_2)*%
X145460000Y-115950000D03*
%TO.P,J1,3,Pin_3*%
%TO.N,Net-(J1-Pin_3)*%
X142920000Y-115950000D03*
%TO.P,J1,4,Pin_4*%
%TO.N,+5V*%
X140380000Y-115950000D03*
%TD*%
D10*
%TO.P,J2,1,Pin_1*%
%TO.N,Net-(J2-Pin_1)*%
X141750000Y-124800000D03*
D11*
%TO.P,J2,2,Pin_2*%
%TO.N,Net-(J2-Pin_2)*%
X144290000Y-124800000D03*
%TO.P,J2,3,Pin_3*%
%TO.N,Net-(J2-Pin_3)*%
X146830000Y-124800000D03*
%TO.P,J2,4,Pin_4*%
%TO.N,GND*%
X149370000Y-124800000D03*
%TD*%
D12*
%TO.N,Net-(J1-Pin_2)*%
X150280000Y-60320000D03*
D13*
%TO.N,GND*%
X120030000Y-68520000D03*
X183630000Y-63370000D03*
X178960000Y-47390000D03*
%TO.N,Net-(J2-Pin_3)*%
X140580000Y-64970000D03*
%TO.N,Net-(J2-Pin_2)*%
X138930000Y-63970000D03*
%TO.N,GND*%
X138630000Y-61570000D03*
X143180000Y-63320000D03*
X145030000Y-63320000D03*
X133280000Y-68120000D03*
X130280000Y-68120000D03*
X185480000Y-63370000D03*
%TO.N,Net-(J2-Pin_3)*%
X181030000Y-65020000D03*
%TO.N,Net-(J2-Pin_2)*%
X179260000Y-49790000D03*
%TO.N,GND*%
X160480000Y-68570000D03*
%TO.N,Net-(J2-Pin_2)*%
X138810000Y-49740000D03*
D12*
%TO.N,Net-(J1-Pin_2)*%
X150160000Y-46090000D03*
D13*
%TO.N,GND*%
X119910000Y-54290000D03*
X183510000Y-49140000D03*
X138510000Y-47340000D03*
X143060000Y-49090000D03*
X144910000Y-49090000D03*
X133160000Y-53890000D03*
X173610000Y-53940000D03*
%TO.N,Net-(J2-Pin_3)*%
X140460000Y-50740000D03*
%TO.N,GND*%
X170610000Y-53940000D03*
X179080000Y-61620000D03*
D12*
%TO.N,Net-(J1-Pin_2)*%
X190610000Y-46140000D03*
D13*
%TO.N,GND*%
X173730000Y-68170000D03*
%TO.N,Net-(J2-Pin_3)*%
X180910000Y-50790000D03*
%TO.N,Net-(J2-Pin_2)*%
X179380000Y-64020000D03*
D12*
%TO.N,Net-(J1-Pin_2)*%
X190730000Y-60370000D03*
D13*
%TO.N,GND*%
X160360000Y-54340000D03*
X130160000Y-53890000D03*
X185360000Y-49140000D03*
X170730000Y-68170000D03*
D12*
%TO.N,Net-(J1-Pin_2)*%
X150530000Y-88820000D03*
D13*
%TO.N,GND*%
X120280000Y-97020000D03*
X183880000Y-91870000D03*
X179210000Y-75890000D03*
%TO.N,Net-(J2-Pin_3)*%
X140830000Y-93470000D03*
%TO.N,Net-(J2-Pin_2)*%
X139180000Y-92470000D03*
%TO.N,GND*%
X138880000Y-90070000D03*
X143430000Y-91820000D03*
X145280000Y-91820000D03*
X133530000Y-96620000D03*
X130530000Y-96620000D03*
X185730000Y-91870000D03*
%TO.N,Net-(J2-Pin_3)*%
X181280000Y-93520000D03*
%TO.N,Net-(J2-Pin_2)*%
X179510000Y-78290000D03*
%TO.N,GND*%
X160730000Y-97070000D03*
%TO.N,Net-(J2-Pin_2)*%
X139060000Y-78240000D03*
D12*
%TO.N,Net-(J1-Pin_2)*%
X150410000Y-74590000D03*
D13*
%TO.N,GND*%
X120160000Y-82790000D03*
X183760000Y-77640000D03*
X138760000Y-75840000D03*
X143310000Y-77590000D03*
X145160000Y-77590000D03*
X133410000Y-82390000D03*
X173860000Y-82440000D03*
%TO.N,Net-(J2-Pin_3)*%
X140710000Y-79240000D03*
%TO.N,GND*%
X170860000Y-82440000D03*
X179330000Y-90120000D03*
D12*
%TO.N,Net-(J1-Pin_2)*%
X190860000Y-74640000D03*
D13*
%TO.N,GND*%
X173980000Y-96670000D03*
%TO.N,Net-(J2-Pin_3)*%
X181160000Y-79290000D03*
%TO.N,Net-(J2-Pin_2)*%
X179630000Y-92520000D03*
D12*
%TO.N,Net-(J1-Pin_2)*%
X190980000Y-88870000D03*
D13*
%TO.N,GND*%
X160610000Y-82840000D03*
X130410000Y-82390000D03*
X185610000Y-77640000D03*
X170980000Y-96670000D03*
D12*
%TO.N,Net-(J1-Pin_2)*%
X150530000Y-103170000D03*
D13*
%TO.N,GND*%
X120280000Y-111370000D03*
X183880000Y-106220000D03*
%TO.N,Net-(J2-Pin_3)*%
X140830000Y-107820000D03*
%TO.N,Net-(J2-Pin_2)*%
X139180000Y-106820000D03*
%TO.N,GND*%
X138880000Y-104420000D03*
X143430000Y-106170000D03*
X145280000Y-106170000D03*
X133530000Y-110970000D03*
X130530000Y-110970000D03*
X185730000Y-106220000D03*
%TO.N,Net-(J2-Pin_3)*%
X181280000Y-107870000D03*
%TO.N,GND*%
X160730000Y-111420000D03*
X179330000Y-104470000D03*
X173980000Y-111020000D03*
%TO.N,Net-(J2-Pin_2)*%
X179630000Y-106870000D03*
D12*
%TO.N,Net-(J1-Pin_2)*%
X190980000Y-103220000D03*
D13*
%TO.N,GND*%
X170980000Y-111020000D03*
D12*
%TO.N,Net-(J1-Pin_2)*%
X191100000Y-117450000D03*
D13*
%TO.N,GND*%
X160850000Y-125650000D03*
%TO.N,Net-(J2-Pin_3)*%
X181400000Y-122100000D03*
%TO.N,Net-(J2-Pin_2)*%
X179750000Y-121100000D03*
%TO.N,GND*%
X179450000Y-118700000D03*
X184000000Y-120450000D03*
X185850000Y-120450000D03*
X174100000Y-125250000D03*
X171100000Y-125250000D03*
X139000000Y-118650000D03*
X130650000Y-125200000D03*
X145400000Y-120400000D03*
X143550000Y-120400000D03*
X133650000Y-125200000D03*
X120400000Y-125600000D03*
D12*
%TO.N,Net-(J1-Pin_2)*%
X150650000Y-117400000D03*
D13*
%TO.N,Net-(J2-Pin_2)*%
X139300000Y-121050000D03*
%TO.N,Net-(J2-Pin_3)*%
X140950000Y-122050000D03*
%TD*%
D14*
%TO.N,Net-(J2-Pin_3)*%
X186790000Y-53540000D02*
X184975000Y-51725000D01*
X184975000Y-51725000D02*
X184040000Y-50790000D01*
X184160000Y-65020000D02*
X181030000Y-65020000D01*
%TO.N,Net-(J2-Pin_2)*%
X184250000Y-53540000D02*
X182550000Y-51840000D01*
X182550000Y-51840000D02*
X181110000Y-51840000D01*
D15*
%TO.N,Net-(J1-Pin_2)*%
X185540000Y-58920000D02*
X186990000Y-60370000D01*
D14*
%TO.N,Net-(J2-Pin_3)*%
X146460000Y-67720000D02*
X144645000Y-65905000D01*
X144645000Y-65905000D02*
X143710000Y-64970000D01*
X143710000Y-64970000D02*
X140580000Y-64970000D01*
%TO.N,Net-(J2-Pin_2)*%
X138930000Y-64170000D02*
X138930000Y-63970000D01*
X140780000Y-66020000D02*
X138930000Y-64170000D01*
X142220000Y-66020000D02*
X140780000Y-66020000D01*
X143920000Y-67720000D02*
X142220000Y-66020000D01*
D15*
%TO.N,Net-(J1-Pin_2)*%
X146540000Y-60320000D02*
X150280000Y-60320000D01*
X145090000Y-58870000D02*
X146540000Y-60320000D01*
D14*
%TO.N,Net-(J2-Pin_3)*%
X143590000Y-50740000D02*
X140460000Y-50740000D01*
%TO.N,Net-(J2-Pin_2)*%
X181230000Y-66070000D02*
X179380000Y-64220000D01*
%TO.N,Net-(J2-Pin_3)*%
X184040000Y-50790000D02*
X180910000Y-50790000D01*
D15*
%TO.N,Net-(J1-Pin_2)*%
X185420000Y-44690000D02*
X186870000Y-46140000D01*
D14*
%TO.N,Net-(J2-Pin_2)*%
X138810000Y-49940000D02*
X138810000Y-49740000D01*
X140660000Y-51790000D02*
X138810000Y-49940000D01*
X142100000Y-51790000D02*
X140660000Y-51790000D01*
X143800000Y-53490000D02*
X142100000Y-51790000D01*
D15*
%TO.N,Net-(J1-Pin_2)*%
X146420000Y-46090000D02*
X150160000Y-46090000D01*
X144970000Y-44640000D02*
X146420000Y-46090000D01*
D14*
%TO.N,Net-(J2-Pin_3)*%
X146340000Y-53490000D02*
X144525000Y-51675000D01*
X144525000Y-51675000D02*
X143590000Y-50740000D01*
%TO.N,Net-(J2-Pin_2)*%
X184370000Y-67770000D02*
X182670000Y-66070000D01*
X182670000Y-66070000D02*
X181230000Y-66070000D01*
%TO.N,Net-(J2-Pin_3)*%
X186910000Y-67770000D02*
X185095000Y-65955000D01*
X185095000Y-65955000D02*
X184160000Y-65020000D01*
%TO.N,Net-(J2-Pin_2)*%
X179260000Y-49990000D02*
X179260000Y-49790000D01*
D15*
%TO.N,Net-(J1-Pin_2)*%
X186870000Y-46140000D02*
X190610000Y-46140000D01*
D14*
%TO.N,Net-(J2-Pin_2)*%
X179380000Y-64220000D02*
X179380000Y-64020000D01*
D15*
%TO.N,Net-(J1-Pin_2)*%
X186990000Y-60370000D02*
X190730000Y-60370000D01*
D14*
%TO.N,Net-(J2-Pin_2)*%
X181110000Y-51840000D02*
X179260000Y-49990000D01*
%TO.N,Net-(J2-Pin_3)*%
X187040000Y-82040000D02*
X185225000Y-80225000D01*
X185225000Y-80225000D02*
X184290000Y-79290000D01*
X184410000Y-93520000D02*
X181280000Y-93520000D01*
%TO.N,Net-(J2-Pin_2)*%
X184500000Y-82040000D02*
X182800000Y-80340000D01*
X182800000Y-80340000D02*
X181360000Y-80340000D01*
D15*
%TO.N,Net-(J1-Pin_2)*%
X185790000Y-87420000D02*
X187240000Y-88870000D01*
D14*
%TO.N,Net-(J2-Pin_3)*%
X146710000Y-96220000D02*
X144895000Y-94405000D01*
X144895000Y-94405000D02*
X143960000Y-93470000D01*
X143960000Y-93470000D02*
X140830000Y-93470000D01*
%TO.N,Net-(J2-Pin_2)*%
X139180000Y-92670000D02*
X139180000Y-92470000D01*
X141030000Y-94520000D02*
X139180000Y-92670000D01*
X142470000Y-94520000D02*
X141030000Y-94520000D01*
X144170000Y-96220000D02*
X142470000Y-94520000D01*
D15*
%TO.N,Net-(J1-Pin_2)*%
X146790000Y-88820000D02*
X150530000Y-88820000D01*
X145340000Y-87370000D02*
X146790000Y-88820000D01*
D14*
%TO.N,Net-(J2-Pin_3)*%
X143840000Y-79240000D02*
X140710000Y-79240000D01*
%TO.N,Net-(J2-Pin_2)*%
X181480000Y-94570000D02*
X179630000Y-92720000D01*
%TO.N,Net-(J2-Pin_3)*%
X184290000Y-79290000D02*
X181160000Y-79290000D01*
D15*
%TO.N,Net-(J1-Pin_2)*%
X185670000Y-73190000D02*
X187120000Y-74640000D01*
D14*
%TO.N,Net-(J2-Pin_2)*%
X139060000Y-78440000D02*
X139060000Y-78240000D01*
X140910000Y-80290000D02*
X139060000Y-78440000D01*
X142350000Y-80290000D02*
X140910000Y-80290000D01*
X144050000Y-81990000D02*
X142350000Y-80290000D01*
D15*
%TO.N,Net-(J1-Pin_2)*%
X146670000Y-74590000D02*
X150410000Y-74590000D01*
X145220000Y-73140000D02*
X146670000Y-74590000D01*
D14*
%TO.N,Net-(J2-Pin_3)*%
X146590000Y-81990000D02*
X144775000Y-80175000D01*
X144775000Y-80175000D02*
X143840000Y-79240000D01*
%TO.N,Net-(J2-Pin_2)*%
X184620000Y-96270000D02*
X182920000Y-94570000D01*
X182920000Y-94570000D02*
X181480000Y-94570000D01*
%TO.N,Net-(J2-Pin_3)*%
X187160000Y-96270000D02*
X185345000Y-94455000D01*
X185345000Y-94455000D02*
X184410000Y-93520000D01*
%TO.N,Net-(J2-Pin_2)*%
X179510000Y-78490000D02*
X179510000Y-78290000D01*
D15*
%TO.N,Net-(J1-Pin_2)*%
X187120000Y-74640000D02*
X190860000Y-74640000D01*
D14*
%TO.N,Net-(J2-Pin_2)*%
X179630000Y-92720000D02*
X179630000Y-92520000D01*
D15*
%TO.N,Net-(J1-Pin_2)*%
X187240000Y-88870000D02*
X190980000Y-88870000D01*
D14*
%TO.N,Net-(J2-Pin_2)*%
X181360000Y-80340000D02*
X179510000Y-78490000D01*
%TO.N,Net-(J2-Pin_3)*%
X184410000Y-107870000D02*
X181280000Y-107870000D01*
D15*
%TO.N,Net-(J1-Pin_2)*%
X185790000Y-101770000D02*
X187240000Y-103220000D01*
D14*
%TO.N,Net-(J2-Pin_3)*%
X146710000Y-110570000D02*
X144895000Y-108755000D01*
X144895000Y-108755000D02*
X143960000Y-107820000D01*
X143960000Y-107820000D02*
X140830000Y-107820000D01*
%TO.N,Net-(J2-Pin_2)*%
X139180000Y-107020000D02*
X139180000Y-106820000D01*
X141030000Y-108870000D02*
X139180000Y-107020000D01*
X142470000Y-108870000D02*
X141030000Y-108870000D01*
X144170000Y-110570000D02*
X142470000Y-108870000D01*
D15*
%TO.N,Net-(J1-Pin_2)*%
X146790000Y-103170000D02*
X150530000Y-103170000D01*
X145340000Y-101720000D02*
X146790000Y-103170000D01*
D14*
%TO.N,Net-(J2-Pin_2)*%
X181480000Y-108920000D02*
X179630000Y-107070000D01*
X184620000Y-110620000D02*
X182920000Y-108920000D01*
X182920000Y-108920000D02*
X181480000Y-108920000D01*
%TO.N,Net-(J2-Pin_3)*%
X187160000Y-110620000D02*
X185345000Y-108805000D01*
X185345000Y-108805000D02*
X184410000Y-107870000D01*
%TO.N,Net-(J2-Pin_2)*%
X179630000Y-107070000D02*
X179630000Y-106870000D01*
D15*
%TO.N,Net-(J1-Pin_2)*%
X187240000Y-103220000D02*
X190980000Y-103220000D01*
D14*
%TO.N,Net-(J2-Pin_3)*%
X187280000Y-124850000D02*
X185465000Y-123035000D01*
X185465000Y-123035000D02*
X184530000Y-122100000D01*
X184530000Y-122100000D02*
X181400000Y-122100000D01*
%TO.N,Net-(J2-Pin_2)*%
X179750000Y-121300000D02*
X179750000Y-121100000D01*
X181600000Y-123150000D02*
X179750000Y-121300000D01*
X183040000Y-123150000D02*
X181600000Y-123150000D01*
X184740000Y-124850000D02*
X183040000Y-123150000D01*
D15*
%TO.N,Net-(J1-Pin_2)*%
X187360000Y-117450000D02*
X191100000Y-117450000D01*
X185910000Y-116000000D02*
X187360000Y-117450000D01*
X145460000Y-115950000D02*
X146910000Y-117400000D01*
X146910000Y-117400000D02*
X150650000Y-117400000D01*
D14*
%TO.N,Net-(J2-Pin_2)*%
X144290000Y-124800000D02*
X142590000Y-123100000D01*
X142590000Y-123100000D02*
X141150000Y-123100000D01*
X141150000Y-123100000D02*
X139300000Y-121250000D01*
X139300000Y-121250000D02*
X139300000Y-121050000D01*
%TO.N,Net-(J2-Pin_3)*%
X144080000Y-122050000D02*
X140950000Y-122050000D01*
X145015000Y-122985000D02*
X144080000Y-122050000D01*
X146830000Y-124800000D02*
X145015000Y-122985000D01*
%TD*%
%TA.AperFunction,Conductor*%
%TO.N,GND*%
G36*
X117015786Y-114252754D02*
G01*
X117063161Y-114262229D01*
X117083357Y-114275738D01*
X117094616Y-114280382D01*
X117094617Y-114280383D01*
X117095000Y-114280541D01*
X117095002Y-114280539D01*
X117119616Y-114280524D01*
X117119616Y-114280528D01*
X117119760Y-114280500D01*
X138324000Y-114280500D01*
X153176161Y-114299839D01*
X153238093Y-114316506D01*
X153283414Y-114361886D01*
X153300000Y-114423839D01*
X153300000Y-126375839D01*
X153283360Y-126437886D01*
X153237907Y-126483280D01*
X153175840Y-126499838D01*
X138066934Y-126480191D01*
X114974347Y-126450161D01*
X114912268Y-126433409D01*
X114866925Y-126387821D01*
X114850509Y-126325655D01*
X114872131Y-121049999D01*
X138544750Y-121049999D01*
X138563686Y-121218056D01*
X138619544Y-121377690D01*
X138684998Y-121481859D01*
X138696395Y-121507252D01*
X138709061Y-121528670D01*
X138717621Y-121546143D01*
X138725431Y-121565869D01*
X138752267Y-121602808D01*
X138758673Y-121612560D01*
X138781919Y-121651865D01*
X138781921Y-121651867D01*
X138796925Y-121666871D01*
X138809564Y-121681669D01*
X138822037Y-121698837D01*
X138857212Y-121727936D01*
X138865854Y-121735800D01*
X140544235Y-123414181D01*
X140577717Y-123475489D01*
X140572746Y-123545167D01*
X140549874Y-123575739D01*
X140553138Y-123578183D01*
X140542455Y-123592452D01*
X140542454Y-123592454D01*
X140517368Y-123625965D01*
X140456204Y-123707669D01*
X140405909Y-123842516D01*
X140399500Y-123902130D01*
X140399500Y-125697869D01*
X140405909Y-125757484D01*
X140431056Y-125824906D01*
X140456204Y-125892331D01*
X140542454Y-126007546D01*
X140657669Y-126093796D01*
X140792517Y-126144091D01*
X140852127Y-126150500D01*
X142647872Y-126150499D01*
X142707483Y-126144091D01*
X142842331Y-126093796D01*
X142957546Y-126007546D01*
X143043796Y-125892331D01*
X143092810Y-125760916D01*
X143127789Y-125710537D01*
X143182634Y-125683084D01*
X143243927Y-125685273D01*
X143296673Y-125716568D01*
X143418599Y-125838495D01*
X143612170Y-125974035D01*
X143826337Y-126073903D01*
X144054592Y-126135063D01*
X144290000Y-126155659D01*
X144525408Y-126135063D01*
X144753663Y-126073903D01*
X144967830Y-125974035D01*
X145161401Y-125838495D01*
X145328495Y-125671401D01*
X145458426Y-125485839D01*
X145502743Y-125446975D01*
X145560000Y-125432964D01*
X145617257Y-125446975D01*
X145661573Y-125485839D01*
X145791505Y-125671401D01*
X145958599Y-125838495D01*
X146152170Y-125974035D01*
X146366337Y-126073903D01*
X146594592Y-126135063D01*
X146830000Y-126155659D01*
X147065408Y-126135063D01*
X147293663Y-126073903D01*
X147507830Y-125974035D01*
X147701401Y-125838495D01*
X147868495Y-125671401D01*
X147998732Y-125485402D01*
X148043048Y-125446539D01*
X148100305Y-125432528D01*
X148157562Y-125446539D01*
X148201880Y-125485404D01*
X148331893Y-125671081D01*
X148498918Y-125838106D01*
X148692423Y-125973600D01*
X148906507Y-126073430D01*
X149119999Y-126130635D01*
X149120000Y-126130636D01*
X149120000Y-125050000D01*
X149620000Y-125050000D01*
X149620000Y-126130635D01*
X149833492Y-126073430D01*
X150047576Y-125973600D01*
X150241081Y-125838106D01*
X150408106Y-125671081D01*
X150543600Y-125477576D01*
X150643430Y-125263492D01*
X150700636Y-125050000D01*
X149620000Y-125050000D01*
X149120000Y-125050000D01*
X149120000Y-123469364D01*
X149620000Y-123469364D01*
X149620000Y-124550000D01*
X150700636Y-124550000D01*
X150700635Y-124549999D01*
X150643430Y-124336507D01*
X150543599Y-124122421D01*
X150408109Y-123928921D01*
X150241081Y-123761893D01*
X150047576Y-123626399D01*
X149833492Y-123526569D01*
X149620000Y-123469364D01*
X149120000Y-123469364D01*
X149119999Y-123469364D01*
X148906507Y-123526569D01*
X148692421Y-123626400D01*
X148498921Y-123761890D01*
X148331893Y-123928918D01*
X148201880Y-124114596D01*
X148157562Y-124153461D01*
X148100305Y-124167472D01*
X148043048Y-124153461D01*
X147998730Y-124114595D01*
X147868494Y-123928598D01*
X147701404Y-123761508D01*
X147701401Y-123761505D01*
X147507830Y-123625965D01*
X147293663Y-123526097D01*
X147207138Y-123502913D01*
X147065407Y-123464936D01*
X146830000Y-123444340D01*
X146594591Y-123464936D01*
X146522009Y-123484384D01*
X146457823Y-123484384D01*
X146402236Y-123452290D01*
X144600434Y-121650488D01*
X144587091Y-121633833D01*
X144534166Y-121584134D01*
X144531369Y-121581423D01*
X144511034Y-121561088D01*
X144507547Y-121558383D01*
X144498671Y-121550801D01*
X144465394Y-121519552D01*
X144446793Y-121509326D01*
X144430532Y-121498645D01*
X144413764Y-121485638D01*
X144410771Y-121484343D01*
X144371869Y-121467508D01*
X144361379Y-121462369D01*
X144321367Y-121440372D01*
X144300800Y-121435091D01*
X144282398Y-121428791D01*
X144262924Y-121420364D01*
X144217837Y-121413223D01*
X144206398Y-121410854D01*
X144162178Y-121399500D01*
X144162177Y-121399500D01*
X144140955Y-121399500D01*
X144121556Y-121397973D01*
X144100596Y-121394653D01*
X144100595Y-121394653D01*
X144078558Y-121396736D01*
X144055139Y-121398950D01*
X144043470Y-121399500D01*
X141361088Y-121399500D01*
X141295115Y-121380493D01*
X141277691Y-121369544D01*
X141118056Y-121313686D01*
X140950000Y-121294750D01*
X140781943Y-121313686D01*
X140622307Y-121369545D01*
X140532352Y-121426067D01*
X140480264Y-121444293D01*
X140425426Y-121438114D01*
X140378700Y-121408754D01*
X140090413Y-121120467D01*
X140066374Y-121086588D01*
X140054874Y-121046670D01*
X140036313Y-120881943D01*
X140036313Y-120881941D01*
X139980456Y-120722310D01*
X139890477Y-120579110D01*
X139770890Y-120459523D01*
X139627690Y-120369544D01*
X139468059Y-120313687D01*
X139468058Y-120313686D01*
X139468056Y-120313686D01*
X139300000Y-120294750D01*
X139131943Y-120313686D01*
X138972310Y-120369544D01*
X138829108Y-120459524D01*
X138709524Y-120579108D01*
X138619544Y-120722310D01*
X138563686Y-120881943D01*
X138544750Y-121049999D01*
X114872131Y-121049999D01*
X114893033Y-115950000D01*
X139024340Y-115950000D01*
X139044936Y-116185407D01*
X139089709Y-116352501D01*
X139106097Y-116413663D01*
X139205965Y-116627830D01*
X139341505Y-116821401D01*
X139508599Y-116988495D01*
X139702170Y-117124035D01*
X139916337Y-117223903D01*
X140144592Y-117285063D01*
X140380000Y-117305659D01*
X140615408Y-117285063D01*
X140843663Y-117223903D01*
X141057830Y-117124035D01*
X141251401Y-116988495D01*
X141418495Y-116821401D01*
X141548426Y-116635839D01*
X141592743Y-116596975D01*
X141650000Y-116582964D01*
X141707257Y-116596975D01*
X141751573Y-116635839D01*
X141881505Y-116821401D01*
X142048599Y-116988495D01*
X142242170Y-117124035D01*
X142456337Y-117223903D01*
X142684592Y-117285063D01*
X142920000Y-117305659D01*
X143155408Y-117285063D01*
X143383663Y-117223903D01*
X143597830Y-117124035D01*
X143791401Y-116988495D01*
X143958495Y-116821401D01*
X144088426Y-116635839D01*
X144132743Y-116596975D01*
X144190000Y-116582964D01*
X144247257Y-116596975D01*
X144291573Y-116635839D01*
X144421505Y-116821401D01*
X144588599Y-116988495D01*
X144782170Y-117124035D01*
X144996337Y-117223903D01*
X145224592Y-117285063D01*
X145460000Y-117305659D01*
X145695408Y-117285063D01*
X145795874Y-117258143D01*
X145860059Y-117258143D01*
X145915647Y-117290237D01*
X146409197Y-117783787D01*
X146422098Y-117799889D01*
X146424212Y-117801874D01*
X146424214Y-117801877D01*
X146471561Y-117846339D01*
X146473240Y-117847916D01*
X146476036Y-117850626D01*
X146495530Y-117870120D01*
X146498704Y-117872582D01*
X146507568Y-117880153D01*
X146539418Y-117910062D01*
X146549914Y-117915832D01*
X146556974Y-117919714D01*
X146573231Y-117930392D01*
X146589064Y-117942674D01*
X146605185Y-117949649D01*
X146629156Y-117960023D01*
X146639643Y-117965160D01*
X146677908Y-117986197D01*
X146697316Y-117991180D01*
X146715710Y-117997478D01*
X146734105Y-118005438D01*
X146777254Y-118012271D01*
X146788680Y-118014638D01*
X146804222Y-118018629D01*
X146830980Y-118025500D01*
X146830981Y-118025500D01*
X146851016Y-118025500D01*
X146870413Y-118027026D01*
X146890196Y-118030160D01*
X146933674Y-118026050D01*
X146945344Y-118025500D01*
X149946253Y-118025500D01*
X149996688Y-118036220D01*
X150038401Y-118066526D01*
X150044129Y-118072888D01*
X150197270Y-118184151D01*
X150197271Y-118184151D01*
X150197272Y-118184152D01*
X150370197Y-118261144D01*
X150555352Y-118300500D01*
X150555354Y-118300500D01*
X150744646Y-118300500D01*
X150744648Y-118300500D01*
X150868083Y-118274262D01*
X150929803Y-118261144D01*
X151102730Y-118184151D01*
X151255871Y-118072888D01*
X151382533Y-117932216D01*
X151477179Y-117768284D01*
X151535674Y-117588256D01*
X151555460Y-117400000D01*
X151535674Y-117211744D01*
X151477179Y-117031716D01*
X151477179Y-117031715D01*
X151382533Y-116867783D01*
X151255870Y-116727110D01*
X151102730Y-116615848D01*
X150929802Y-116538855D01*
X150744648Y-116499500D01*
X150744646Y-116499500D01*
X150555354Y-116499500D01*
X150555352Y-116499500D01*
X150370197Y-116538855D01*
X150197272Y-116615847D01*
X150095176Y-116690024D01*
X150044129Y-116727112D01*
X150038401Y-116733473D01*
X149996688Y-116763780D01*
X149946253Y-116774500D01*
X149474500Y-116774500D01*
X149412500Y-116757887D01*
X149367113Y-116712500D01*
X149350500Y-116650500D01*
X149350499Y-115052130D01*
X149348489Y-115033430D01*
X149344091Y-114992517D01*
X149293796Y-114857669D01*
X149207546Y-114742454D01*
X149092331Y-114656204D01*
X148957483Y-114605909D01*
X148897873Y-114599500D01*
X148897869Y-114599500D01*
X147102130Y-114599500D01*
X147042515Y-114605909D01*
X146907669Y-114656204D01*
X146792454Y-114742454D01*
X146706204Y-114857669D01*
X146657189Y-114989083D01*
X146622209Y-115039462D01*
X146567365Y-115066915D01*
X146506072Y-115064726D01*
X146453326Y-115033430D01*
X146331404Y-114911508D01*
X146331401Y-114911505D01*
X146137830Y-114775965D01*
X145923663Y-114676097D01*
X145862501Y-114659709D01*
X145695407Y-114614936D01*
X145460000Y-114594340D01*
X145224592Y-114614936D01*
X144996336Y-114676097D01*
X144782170Y-114775965D01*
X144588598Y-114911505D01*
X144421505Y-115078598D01*
X144291575Y-115264159D01*
X144247257Y-115303025D01*
X144190000Y-115317036D01*
X144132743Y-115303025D01*
X144088425Y-115264159D01*
X143958494Y-115078598D01*
X143791404Y-114911508D01*
X143791401Y-114911505D01*
X143597830Y-114775965D01*
X143383663Y-114676097D01*
X143322501Y-114659709D01*
X143155407Y-114614936D01*
X142920000Y-114594340D01*
X142684592Y-114614936D01*
X142456336Y-114676097D01*
X142242170Y-114775965D01*
X142048598Y-114911505D01*
X141881505Y-115078598D01*
X141751575Y-115264159D01*
X141707257Y-115303025D01*
X141650000Y-115317036D01*
X141592743Y-115303025D01*
X141548425Y-115264159D01*
X141418494Y-115078598D01*
X141251404Y-114911508D01*
X141251401Y-114911505D01*
X141057830Y-114775965D01*
X140843663Y-114676097D01*
X140782501Y-114659709D01*
X140615407Y-114614936D01*
X140380000Y-114594340D01*
X140144592Y-114614936D01*
X139916336Y-114676097D01*
X139702170Y-114775965D01*
X139508598Y-114911505D01*
X139341505Y-115078598D01*
X139205965Y-115272170D01*
X139106097Y-115486336D01*
X139044936Y-115714592D01*
X139024340Y-115950000D01*
X114893033Y-115950000D01*
X114899493Y-114373651D01*
X114916302Y-114311820D01*
X114961732Y-114266635D01*
X115023649Y-114250160D01*
X117015786Y-114252754D01*
G37*
%TD.AperFunction*%
%TD*%
%TA.AperFunction,Conductor*%
%TO.N,GND*%
G36*
X157465786Y-114302754D02*
G01*
X157513161Y-114312229D01*
X157533357Y-114325738D01*
X157544616Y-114330382D01*
X157544617Y-114330383D01*
X157545000Y-114330541D01*
X157545002Y-114330539D01*
X157569616Y-114330524D01*
X157569616Y-114330528D01*
X157569760Y-114330500D01*
X178774000Y-114330500D01*
X193626161Y-114349839D01*
X193688093Y-114366506D01*
X193733414Y-114411886D01*
X193750000Y-114473839D01*
X193750000Y-126425839D01*
X193733360Y-126487886D01*
X193687907Y-126533280D01*
X193625840Y-126549838D01*
X178516934Y-126530191D01*
X155424347Y-126500161D01*
X155362268Y-126483409D01*
X155316925Y-126437821D01*
X155300509Y-126375655D01*
X155309504Y-124180820D01*
X155318860Y-124134076D01*
X155320382Y-124130383D01*
X155320383Y-124130383D01*
X155320500Y-124130099D01*
X155320541Y-124130000D01*
X155320541Y-124105446D01*
X155320500Y-124105240D01*
X155320500Y-121498264D01*
X155320501Y-121497756D01*
X155322131Y-121099999D01*
X178994750Y-121099999D01*
X179013686Y-121268056D01*
X179069544Y-121427690D01*
X179134998Y-121531859D01*
X179146395Y-121557252D01*
X179159061Y-121578670D01*
X179167621Y-121596143D01*
X179175431Y-121615869D01*
X179202267Y-121652808D01*
X179208673Y-121662560D01*
X179231919Y-121701865D01*
X179231921Y-121701867D01*
X179246925Y-121716871D01*
X179259564Y-121731669D01*
X179272037Y-121748837D01*
X179307212Y-121777936D01*
X179315854Y-121785800D01*
X180994235Y-123464181D01*
X181027717Y-123525489D01*
X181022746Y-123595167D01*
X180999874Y-123625739D01*
X181003138Y-123628183D01*
X180992455Y-123642452D01*
X180992454Y-123642454D01*
X180967368Y-123675965D01*
X180906204Y-123757669D01*
X180855909Y-123892516D01*
X180849500Y-123952130D01*
X180849500Y-125747869D01*
X180855909Y-125807484D01*
X180881056Y-125874907D01*
X180906204Y-125942331D01*
X180992454Y-126057546D01*
X181107669Y-126143796D01*
X181242517Y-126194091D01*
X181302127Y-126200500D01*
X183097872Y-126200499D01*
X183157483Y-126194091D01*
X183292331Y-126143796D01*
X183407546Y-126057546D01*
X183493796Y-125942331D01*
X183542810Y-125810916D01*
X183577789Y-125760537D01*
X183632634Y-125733084D01*
X183693927Y-125735273D01*
X183746673Y-125766568D01*
X183868599Y-125888495D01*
X184062170Y-126024035D01*
X184276337Y-126123903D01*
X184504592Y-126185063D01*
X184740000Y-126205659D01*
X184975408Y-126185063D01*
X185203663Y-126123903D01*
X185417830Y-126024035D01*
X185611401Y-125888495D01*
X185778495Y-125721401D01*
X185908426Y-125535839D01*
X185952743Y-125496975D01*
X186010000Y-125482964D01*
X186067257Y-125496975D01*
X186111573Y-125535839D01*
X186241505Y-125721401D01*
X186408599Y-125888495D01*
X186602170Y-126024035D01*
X186816337Y-126123903D01*
X187044592Y-126185063D01*
X187280000Y-126205659D01*
X187515408Y-126185063D01*
X187743663Y-126123903D01*
X187957830Y-126024035D01*
X188151401Y-125888495D01*
X188318495Y-125721401D01*
X188448732Y-125535402D01*
X188493048Y-125496539D01*
X188550305Y-125482528D01*
X188607562Y-125496539D01*
X188651880Y-125535404D01*
X188781893Y-125721081D01*
X188948918Y-125888106D01*
X189142423Y-126023600D01*
X189356507Y-126123430D01*
X189569999Y-126180635D01*
X189570000Y-126180636D01*
X189570000Y-125100000D01*
X190070000Y-125100000D01*
X190070000Y-126180635D01*
X190283492Y-126123430D01*
X190497576Y-126023600D01*
X190691081Y-125888106D01*
X190858106Y-125721081D01*
X190993600Y-125527576D01*
X191093430Y-125313492D01*
X191150636Y-125100000D01*
X190070000Y-125100000D01*
X189570000Y-125100000D01*
X189570000Y-123519364D01*
X190070000Y-123519364D01*
X190070000Y-124600000D01*
X191150636Y-124600000D01*
X191150635Y-124599999D01*
X191093430Y-124386507D01*
X190993599Y-124172421D01*
X190858109Y-123978921D01*
X190691081Y-123811893D01*
X190497576Y-123676399D01*
X190283492Y-123576569D01*
X190070000Y-123519364D01*
X189570000Y-123519364D01*
X189569999Y-123519364D01*
X189356507Y-123576569D01*
X189142421Y-123676400D01*
X188948921Y-123811890D01*
X188781893Y-123978918D01*
X188651880Y-124164596D01*
X188607562Y-124203461D01*
X188550305Y-124217472D01*
X188493048Y-124203461D01*
X188448730Y-124164595D01*
X188318495Y-123978599D01*
X188151401Y-123811505D01*
X187957830Y-123675965D01*
X187743663Y-123576097D01*
X187657138Y-123552913D01*
X187515407Y-123514936D01*
X187280000Y-123494340D01*
X187044591Y-123514936D01*
X186972009Y-123534384D01*
X186907823Y-123534384D01*
X186852236Y-123502290D01*
X185050434Y-121700488D01*
X185037091Y-121683833D01*
X184984166Y-121634134D01*
X184981369Y-121631423D01*
X184961034Y-121611088D01*
X184957547Y-121608383D01*
X184948671Y-121600801D01*
X184915394Y-121569552D01*
X184896793Y-121559326D01*
X184880532Y-121548645D01*
X184863764Y-121535638D01*
X184860771Y-121534343D01*
X184821869Y-121517508D01*
X184811379Y-121512369D01*
X184771367Y-121490372D01*
X184750800Y-121485091D01*
X184732398Y-121478791D01*
X184712924Y-121470364D01*
X184667837Y-121463223D01*
X184656398Y-121460854D01*
X184612178Y-121449500D01*
X184612177Y-121449500D01*
X184590955Y-121449500D01*
X184571556Y-121447973D01*
X184550596Y-121444653D01*
X184550595Y-121444653D01*
X184528558Y-121446736D01*
X184505139Y-121448950D01*
X184493470Y-121449500D01*
X181811088Y-121449500D01*
X181745115Y-121430493D01*
X181727691Y-121419544D01*
X181568056Y-121363686D01*
X181400000Y-121344750D01*
X181231943Y-121363686D01*
X181072307Y-121419545D01*
X180982352Y-121476067D01*
X180930264Y-121494293D01*
X180875426Y-121488114D01*
X180828700Y-121458754D01*
X180540413Y-121170467D01*
X180516374Y-121136588D01*
X180504874Y-121096670D01*
X180486313Y-120931943D01*
X180486313Y-120931941D01*
X180430456Y-120772310D01*
X180340477Y-120629110D01*
X180220890Y-120509523D01*
X180077690Y-120419544D01*
X179918059Y-120363687D01*
X179918058Y-120363686D01*
X179918056Y-120363686D01*
X179749999Y-120344750D01*
X179581943Y-120363686D01*
X179422310Y-120419544D01*
X179279108Y-120509524D01*
X179159524Y-120629108D01*
X179069544Y-120772310D01*
X179013686Y-120931943D01*
X178994750Y-121099999D01*
X155322131Y-121099999D01*
X155325226Y-120344750D01*
X155343032Y-116000000D01*
X179474340Y-116000000D01*
X179494936Y-116235407D01*
X179539709Y-116402502D01*
X179556097Y-116463663D01*
X179655965Y-116677830D01*
X179791505Y-116871401D01*
X179958599Y-117038495D01*
X180152170Y-117174035D01*
X180366337Y-117273903D01*
X180594592Y-117335063D01*
X180830000Y-117355659D01*
X181065408Y-117335063D01*
X181293663Y-117273903D01*
X181507830Y-117174035D01*
X181701401Y-117038495D01*
X181868495Y-116871401D01*
X181998426Y-116685839D01*
X182042743Y-116646975D01*
X182100000Y-116632964D01*
X182157257Y-116646975D01*
X182201573Y-116685839D01*
X182331505Y-116871401D01*
X182498599Y-117038495D01*
X182692170Y-117174035D01*
X182906337Y-117273903D01*
X183134592Y-117335063D01*
X183370000Y-117355659D01*
X183605408Y-117335063D01*
X183833663Y-117273903D01*
X184047830Y-117174035D01*
X184241401Y-117038495D01*
X184408495Y-116871401D01*
X184538426Y-116685839D01*
X184582743Y-116646975D01*
X184640000Y-116632964D01*
X184697257Y-116646975D01*
X184741573Y-116685839D01*
X184871505Y-116871401D01*
X185038599Y-117038495D01*
X185232170Y-117174035D01*
X185446337Y-117273903D01*
X185674592Y-117335063D01*
X185910000Y-117355659D01*
X186145408Y-117335063D01*
X186245874Y-117308143D01*
X186310059Y-117308143D01*
X186365647Y-117340237D01*
X186859197Y-117833787D01*
X186872098Y-117849889D01*
X186874212Y-117851874D01*
X186874214Y-117851877D01*
X186921561Y-117896339D01*
X186923240Y-117897916D01*
X186926036Y-117900626D01*
X186945530Y-117920120D01*
X186948704Y-117922582D01*
X186957568Y-117930153D01*
X186989418Y-117960062D01*
X186999914Y-117965832D01*
X187006974Y-117969714D01*
X187023231Y-117980392D01*
X187039064Y-117992674D01*
X187055185Y-117999649D01*
X187079156Y-118010023D01*
X187089643Y-118015160D01*
X187127908Y-118036197D01*
X187147316Y-118041180D01*
X187165710Y-118047478D01*
X187184105Y-118055438D01*
X187227254Y-118062271D01*
X187238680Y-118064638D01*
X187254222Y-118068629D01*
X187280980Y-118075500D01*
X187280981Y-118075500D01*
X187301016Y-118075500D01*
X187320413Y-118077026D01*
X187340196Y-118080160D01*
X187383674Y-118076050D01*
X187395344Y-118075500D01*
X190396253Y-118075500D01*
X190446688Y-118086220D01*
X190488401Y-118116526D01*
X190494129Y-118122888D01*
X190647270Y-118234151D01*
X190647271Y-118234151D01*
X190647272Y-118234152D01*
X190820197Y-118311144D01*
X191005352Y-118350500D01*
X191005354Y-118350500D01*
X191194646Y-118350500D01*
X191194648Y-118350500D01*
X191318083Y-118324262D01*
X191379803Y-118311144D01*
X191552730Y-118234151D01*
X191705871Y-118122888D01*
X191832533Y-117982216D01*
X191927179Y-117818284D01*
X191985674Y-117638256D01*
X192005460Y-117450000D01*
X191985674Y-117261744D01*
X191927179Y-117081716D01*
X191927179Y-117081715D01*
X191832533Y-116917783D01*
X191705870Y-116777110D01*
X191552730Y-116665848D01*
X191379802Y-116588855D01*
X191194648Y-116549500D01*
X191194646Y-116549500D01*
X191005354Y-116549500D01*
X191005352Y-116549500D01*
X190820197Y-116588855D01*
X190647272Y-116665847D01*
X190545176Y-116740024D01*
X190494129Y-116777112D01*
X190488401Y-116783473D01*
X190446688Y-116813780D01*
X190396253Y-116824500D01*
X189924500Y-116824500D01*
X189862500Y-116807887D01*
X189817113Y-116762500D01*
X189800500Y-116700500D01*
X189800499Y-115102130D01*
X189798489Y-115083430D01*
X189794091Y-115042517D01*
X189743796Y-114907669D01*
X189657546Y-114792454D01*
X189542331Y-114706204D01*
X189407483Y-114655909D01*
X189347873Y-114649500D01*
X189347869Y-114649500D01*
X187552130Y-114649500D01*
X187492515Y-114655909D01*
X187357669Y-114706204D01*
X187242454Y-114792454D01*
X187156204Y-114907669D01*
X187107189Y-115039083D01*
X187072209Y-115089462D01*
X187017365Y-115116915D01*
X186956072Y-115114726D01*
X186903326Y-115083430D01*
X186781404Y-114961508D01*
X186781401Y-114961505D01*
X186587830Y-114825965D01*
X186373663Y-114726097D01*
X186312502Y-114709709D01*
X186145407Y-114664936D01*
X185910000Y-114644340D01*
X185674592Y-114664936D01*
X185446336Y-114726097D01*
X185232170Y-114825965D01*
X185038598Y-114961505D01*
X184871505Y-115128598D01*
X184741575Y-115314159D01*
X184697257Y-115353025D01*
X184640000Y-115367036D01*
X184582743Y-115353025D01*
X184538425Y-115314159D01*
X184408494Y-115128598D01*
X184241404Y-114961508D01*
X184241401Y-114961505D01*
X184047830Y-114825965D01*
X183833663Y-114726097D01*
X183772502Y-114709709D01*
X183605407Y-114664936D01*
X183370000Y-114644340D01*
X183134592Y-114664936D01*
X182906336Y-114726097D01*
X182692170Y-114825965D01*
X182498598Y-114961505D01*
X182331505Y-115128598D01*
X182201575Y-115314159D01*
X182157257Y-115353025D01*
X182100000Y-115367036D01*
X182042743Y-115353025D01*
X181998425Y-115314159D01*
X181868494Y-115128598D01*
X181701404Y-114961508D01*
X181701401Y-114961505D01*
X181507830Y-114825965D01*
X181293663Y-114726097D01*
X181232502Y-114709709D01*
X181065407Y-114664936D01*
X180830000Y-114644340D01*
X180594592Y-114664936D01*
X180366336Y-114726097D01*
X180152170Y-114825965D01*
X179958598Y-114961505D01*
X179791505Y-115128598D01*
X179655965Y-115322170D01*
X179556097Y-115536336D01*
X179494936Y-115764592D01*
X179474340Y-116000000D01*
X155343032Y-116000000D01*
X155349493Y-114423651D01*
X155366302Y-114361820D01*
X155411732Y-114316635D01*
X155473649Y-114300160D01*
X157465786Y-114302754D01*
G37*
%TD.AperFunction*%
%TD*%
%TA.AperFunction,Conductor*%
%TO.N,GND*%
G36*
X116895786Y-100022754D02*
G01*
X116943161Y-100032229D01*
X116963357Y-100045738D01*
X116974616Y-100050382D01*
X116974617Y-100050383D01*
X116975000Y-100050541D01*
X116975002Y-100050539D01*
X116999616Y-100050524D01*
X116999616Y-100050528D01*
X116999760Y-100050500D01*
X138204000Y-100050500D01*
X153056161Y-100069839D01*
X153118093Y-100086506D01*
X153163414Y-100131886D01*
X153180000Y-100193839D01*
X153180000Y-112145839D01*
X153163360Y-112207886D01*
X153117907Y-112253280D01*
X153055840Y-112269838D01*
X137946934Y-112250191D01*
X114854347Y-112220161D01*
X114792268Y-112203409D01*
X114746925Y-112157821D01*
X114730509Y-112095655D01*
X114752131Y-106820000D01*
X138424750Y-106820000D01*
X138443686Y-106988056D01*
X138499544Y-107147690D01*
X138564998Y-107251859D01*
X138576395Y-107277252D01*
X138589061Y-107298670D01*
X138597621Y-107316143D01*
X138605431Y-107335869D01*
X138632267Y-107372808D01*
X138638673Y-107382560D01*
X138661919Y-107421865D01*
X138661921Y-107421867D01*
X138676925Y-107436871D01*
X138689564Y-107451669D01*
X138702037Y-107468837D01*
X138737212Y-107497936D01*
X138745854Y-107505800D01*
X140424235Y-109184181D01*
X140457717Y-109245489D01*
X140452746Y-109315167D01*
X140429874Y-109345739D01*
X140433138Y-109348183D01*
X140422455Y-109362452D01*
X140422454Y-109362454D01*
X140397368Y-109395965D01*
X140336204Y-109477669D01*
X140285909Y-109612516D01*
X140279500Y-109672130D01*
X140279500Y-111467869D01*
X140285909Y-111527484D01*
X140311056Y-111594906D01*
X140336204Y-111662331D01*
X140422454Y-111777546D01*
X140537669Y-111863796D01*
X140672517Y-111914091D01*
X140732127Y-111920500D01*
X142527872Y-111920499D01*
X142587483Y-111914091D01*
X142722331Y-111863796D01*
X142837546Y-111777546D01*
X142923796Y-111662331D01*
X142972810Y-111530916D01*
X143007789Y-111480537D01*
X143062634Y-111453084D01*
X143123927Y-111455273D01*
X143176673Y-111486568D01*
X143298599Y-111608495D01*
X143492170Y-111744035D01*
X143706337Y-111843903D01*
X143934592Y-111905063D01*
X144170000Y-111925659D01*
X144405408Y-111905063D01*
X144633663Y-111843903D01*
X144847830Y-111744035D01*
X145041401Y-111608495D01*
X145208495Y-111441401D01*
X145338426Y-111255839D01*
X145382743Y-111216975D01*
X145440000Y-111202964D01*
X145497257Y-111216975D01*
X145541573Y-111255839D01*
X145671505Y-111441401D01*
X145838599Y-111608495D01*
X146032170Y-111744035D01*
X146246337Y-111843903D01*
X146474592Y-111905063D01*
X146710000Y-111925659D01*
X146945408Y-111905063D01*
X147173663Y-111843903D01*
X147387830Y-111744035D01*
X147581401Y-111608495D01*
X147748495Y-111441401D01*
X147878732Y-111255402D01*
X147923048Y-111216539D01*
X147980305Y-111202528D01*
X148037562Y-111216539D01*
X148081880Y-111255404D01*
X148211893Y-111441081D01*
X148378918Y-111608106D01*
X148572423Y-111743600D01*
X148786507Y-111843430D01*
X148999999Y-111900635D01*
X149000000Y-111900636D01*
X149000000Y-110820000D01*
X149500000Y-110820000D01*
X149500000Y-111900635D01*
X149713492Y-111843430D01*
X149927576Y-111743600D01*
X150121081Y-111608106D01*
X150288106Y-111441081D01*
X150423600Y-111247576D01*
X150523430Y-111033492D01*
X150580636Y-110820000D01*
X149500000Y-110820000D01*
X149000000Y-110820000D01*
X149000000Y-109239364D01*
X149500000Y-109239364D01*
X149500000Y-110320000D01*
X150580636Y-110320000D01*
X150580635Y-110319999D01*
X150523430Y-110106507D01*
X150423599Y-109892421D01*
X150288109Y-109698921D01*
X150121081Y-109531893D01*
X149927576Y-109396399D01*
X149713492Y-109296569D01*
X149500000Y-109239364D01*
X149000000Y-109239364D01*
X148999999Y-109239364D01*
X148786507Y-109296569D01*
X148572421Y-109396400D01*
X148378921Y-109531890D01*
X148211893Y-109698918D01*
X148081880Y-109884596D01*
X148037562Y-109923461D01*
X147980305Y-109937472D01*
X147923048Y-109923461D01*
X147878730Y-109884595D01*
X147748494Y-109698598D01*
X147581404Y-109531508D01*
X147581404Y-109531507D01*
X147581401Y-109531505D01*
X147387830Y-109395965D01*
X147173663Y-109296097D01*
X147087138Y-109272913D01*
X146945407Y-109234936D01*
X146710000Y-109214340D01*
X146474591Y-109234936D01*
X146402009Y-109254384D01*
X146337823Y-109254384D01*
X146282236Y-109222290D01*
X145343476Y-108283530D01*
X145343473Y-108283526D01*
X144480434Y-107420488D01*
X144467091Y-107403833D01*
X144414166Y-107354134D01*
X144411369Y-107351423D01*
X144391034Y-107331088D01*
X144387547Y-107328383D01*
X144378671Y-107320801D01*
X144345394Y-107289552D01*
X144326793Y-107279326D01*
X144310532Y-107268645D01*
X144293764Y-107255638D01*
X144290771Y-107254343D01*
X144251869Y-107237508D01*
X144241379Y-107232369D01*
X144201367Y-107210372D01*
X144180800Y-107205091D01*
X144162398Y-107198791D01*
X144142924Y-107190364D01*
X144097837Y-107183223D01*
X144086398Y-107180854D01*
X144042178Y-107169500D01*
X144042177Y-107169500D01*
X144020955Y-107169500D01*
X144001556Y-107167973D01*
X143980596Y-107164653D01*
X143980595Y-107164653D01*
X143958558Y-107166736D01*
X143935139Y-107168950D01*
X143923470Y-107169500D01*
X141241088Y-107169500D01*
X141175115Y-107150493D01*
X141157691Y-107139544D01*
X140998056Y-107083686D01*
X140830000Y-107064750D01*
X140661943Y-107083686D01*
X140502307Y-107139545D01*
X140412352Y-107196067D01*
X140360264Y-107214293D01*
X140305426Y-107208114D01*
X140258700Y-107178754D01*
X139970413Y-106890467D01*
X139946374Y-106856588D01*
X139934874Y-106816670D01*
X139916313Y-106651943D01*
X139916313Y-106651941D01*
X139860456Y-106492310D01*
X139770477Y-106349110D01*
X139650890Y-106229523D01*
X139507690Y-106139544D01*
X139348059Y-106083687D01*
X139348058Y-106083686D01*
X139348056Y-106083686D01*
X139179999Y-106064750D01*
X139011943Y-106083686D01*
X138852310Y-106139544D01*
X138709108Y-106229524D01*
X138589524Y-106349108D01*
X138499544Y-106492310D01*
X138443686Y-106651943D01*
X138424750Y-106820000D01*
X114752131Y-106820000D01*
X114773033Y-101720000D01*
X138904340Y-101720000D01*
X138924936Y-101955407D01*
X138969709Y-102122501D01*
X138986097Y-102183663D01*
X139085965Y-102397830D01*
X139221505Y-102591401D01*
X139388599Y-102758495D01*
X139582170Y-102894035D01*
X139796337Y-102993903D01*
X140024592Y-103055063D01*
X140260000Y-103075659D01*
X140495408Y-103055063D01*
X140723663Y-102993903D01*
X140937830Y-102894035D01*
X141131401Y-102758495D01*
X141298495Y-102591401D01*
X141428426Y-102405839D01*
X141472743Y-102366975D01*
X141530000Y-102352964D01*
X141587257Y-102366975D01*
X141631573Y-102405839D01*
X141761505Y-102591401D01*
X141928599Y-102758495D01*
X142122170Y-102894035D01*
X142336337Y-102993903D01*
X142564592Y-103055063D01*
X142800000Y-103075659D01*
X143035408Y-103055063D01*
X143263663Y-102993903D01*
X143477830Y-102894035D01*
X143671401Y-102758495D01*
X143838495Y-102591401D01*
X143968426Y-102405839D01*
X144012743Y-102366975D01*
X144070000Y-102352964D01*
X144127257Y-102366975D01*
X144171573Y-102405839D01*
X144301505Y-102591401D01*
X144468599Y-102758495D01*
X144662170Y-102894035D01*
X144876337Y-102993903D01*
X145104592Y-103055063D01*
X145340000Y-103075659D01*
X145575408Y-103055063D01*
X145675874Y-103028143D01*
X145740059Y-103028143D01*
X145795647Y-103060237D01*
X146289197Y-103553787D01*
X146302098Y-103569889D01*
X146304212Y-103571874D01*
X146304214Y-103571877D01*
X146351561Y-103616339D01*
X146353240Y-103617916D01*
X146356036Y-103620626D01*
X146375530Y-103640120D01*
X146378704Y-103642582D01*
X146387568Y-103650153D01*
X146419418Y-103680062D01*
X146429914Y-103685832D01*
X146436974Y-103689714D01*
X146453231Y-103700392D01*
X146469064Y-103712674D01*
X146485185Y-103719649D01*
X146509156Y-103730023D01*
X146519643Y-103735160D01*
X146557908Y-103756197D01*
X146577316Y-103761180D01*
X146595710Y-103767478D01*
X146614105Y-103775438D01*
X146657254Y-103782271D01*
X146668680Y-103784638D01*
X146684222Y-103788629D01*
X146710980Y-103795500D01*
X146710981Y-103795500D01*
X146731016Y-103795500D01*
X146750413Y-103797026D01*
X146770196Y-103800160D01*
X146813674Y-103796050D01*
X146825344Y-103795500D01*
X149826253Y-103795500D01*
X149876688Y-103806220D01*
X149918401Y-103836526D01*
X149924129Y-103842888D01*
X150077270Y-103954151D01*
X150077271Y-103954151D01*
X150077272Y-103954152D01*
X150250197Y-104031144D01*
X150435352Y-104070500D01*
X150435354Y-104070500D01*
X150624646Y-104070500D01*
X150624648Y-104070500D01*
X150748084Y-104044262D01*
X150809803Y-104031144D01*
X150982730Y-103954151D01*
X151135871Y-103842888D01*
X151262533Y-103702216D01*
X151357179Y-103538284D01*
X151415674Y-103358256D01*
X151435460Y-103170000D01*
X151415674Y-102981744D01*
X151357179Y-102801716D01*
X151357179Y-102801715D01*
X151262533Y-102637783D01*
X151135870Y-102497110D01*
X150982730Y-102385848D01*
X150809802Y-102308855D01*
X150624648Y-102269500D01*
X150624646Y-102269500D01*
X150435354Y-102269500D01*
X150435352Y-102269500D01*
X150250197Y-102308855D01*
X150077272Y-102385847D01*
X149975175Y-102460024D01*
X149924129Y-102497112D01*
X149918401Y-102503473D01*
X149876688Y-102533780D01*
X149826253Y-102544500D01*
X149354500Y-102544500D01*
X149292500Y-102527887D01*
X149247113Y-102482500D01*
X149230500Y-102420500D01*
X149230499Y-100822130D01*
X149228489Y-100803430D01*
X149224091Y-100762517D01*
X149173796Y-100627669D01*
X149087546Y-100512454D01*
X148972331Y-100426204D01*
X148837483Y-100375909D01*
X148777873Y-100369500D01*
X148777869Y-100369500D01*
X146982130Y-100369500D01*
X146922515Y-100375909D01*
X146787669Y-100426204D01*
X146672454Y-100512454D01*
X146586204Y-100627669D01*
X146537189Y-100759083D01*
X146502209Y-100809462D01*
X146447365Y-100836915D01*
X146386072Y-100834726D01*
X146333326Y-100803430D01*
X146211404Y-100681508D01*
X146211404Y-100681507D01*
X146211401Y-100681505D01*
X146017830Y-100545965D01*
X145803663Y-100446097D01*
X145742501Y-100429709D01*
X145575407Y-100384936D01*
X145340000Y-100364340D01*
X145104592Y-100384936D01*
X144876336Y-100446097D01*
X144662170Y-100545965D01*
X144468598Y-100681505D01*
X144301505Y-100848598D01*
X144171575Y-101034159D01*
X144127257Y-101073025D01*
X144070000Y-101087036D01*
X144012743Y-101073025D01*
X143968425Y-101034159D01*
X143838494Y-100848598D01*
X143671404Y-100681508D01*
X143671404Y-100681507D01*
X143671401Y-100681505D01*
X143477830Y-100545965D01*
X143263663Y-100446097D01*
X143202501Y-100429709D01*
X143035407Y-100384936D01*
X142800000Y-100364340D01*
X142564592Y-100384936D01*
X142336336Y-100446097D01*
X142122170Y-100545965D01*
X141928598Y-100681505D01*
X141761505Y-100848598D01*
X141631575Y-101034159D01*
X141587257Y-101073025D01*
X141530000Y-101087036D01*
X141472743Y-101073025D01*
X141428425Y-101034159D01*
X141298494Y-100848598D01*
X141131404Y-100681508D01*
X141131404Y-100681507D01*
X141131401Y-100681505D01*
X140937830Y-100545965D01*
X140723663Y-100446097D01*
X140662501Y-100429709D01*
X140495407Y-100384936D01*
X140260000Y-100364340D01*
X140024592Y-100384936D01*
X139796336Y-100446097D01*
X139582170Y-100545965D01*
X139388598Y-100681505D01*
X139221505Y-100848598D01*
X139085965Y-101042170D01*
X138986097Y-101256336D01*
X138924936Y-101484592D01*
X138904340Y-101720000D01*
X114773033Y-101720000D01*
X114779493Y-100143651D01*
X114796302Y-100081820D01*
X114841732Y-100036635D01*
X114903649Y-100020160D01*
X116895786Y-100022754D01*
G37*
%TD.AperFunction*%
%TD*%
%TA.AperFunction,Conductor*%
%TO.N,GND*%
G36*
X116895786Y-85672754D02*
G01*
X116943161Y-85682229D01*
X116963357Y-85695738D01*
X116974616Y-85700382D01*
X116974617Y-85700383D01*
X116975000Y-85700541D01*
X116975002Y-85700539D01*
X116999616Y-85700524D01*
X116999616Y-85700528D01*
X116999760Y-85700500D01*
X138204000Y-85700500D01*
X153056161Y-85719839D01*
X153118093Y-85736506D01*
X153163414Y-85781886D01*
X153180000Y-85843839D01*
X153180000Y-97795839D01*
X153163360Y-97857886D01*
X153117907Y-97903280D01*
X153055840Y-97919838D01*
X137946934Y-97900191D01*
X114854347Y-97870161D01*
X114792268Y-97853409D01*
X114746925Y-97807821D01*
X114730509Y-97745655D01*
X114752131Y-92469999D01*
X138424750Y-92469999D01*
X138443686Y-92638056D01*
X138499544Y-92797690D01*
X138564998Y-92901859D01*
X138576395Y-92927252D01*
X138589061Y-92948670D01*
X138597621Y-92966143D01*
X138605431Y-92985869D01*
X138632267Y-93022808D01*
X138638673Y-93032560D01*
X138661919Y-93071865D01*
X138661921Y-93071867D01*
X138676925Y-93086871D01*
X138689564Y-93101669D01*
X138702037Y-93118837D01*
X138737212Y-93147936D01*
X138745854Y-93155800D01*
X140424235Y-94834181D01*
X140457717Y-94895489D01*
X140452746Y-94965167D01*
X140429874Y-94995739D01*
X140433138Y-94998183D01*
X140422455Y-95012452D01*
X140422454Y-95012454D01*
X140397368Y-95045965D01*
X140336204Y-95127669D01*
X140285909Y-95262516D01*
X140279500Y-95322130D01*
X140279500Y-97117869D01*
X140285909Y-97177484D01*
X140311056Y-97244907D01*
X140336204Y-97312331D01*
X140422454Y-97427546D01*
X140537669Y-97513796D01*
X140672517Y-97564091D01*
X140732127Y-97570500D01*
X142527872Y-97570499D01*
X142587483Y-97564091D01*
X142722331Y-97513796D01*
X142837546Y-97427546D01*
X142923796Y-97312331D01*
X142972810Y-97180916D01*
X143007789Y-97130537D01*
X143062634Y-97103084D01*
X143123927Y-97105273D01*
X143176673Y-97136569D01*
X143298599Y-97258495D01*
X143492170Y-97394035D01*
X143706337Y-97493903D01*
X143934592Y-97555063D01*
X144170000Y-97575659D01*
X144405408Y-97555063D01*
X144633663Y-97493903D01*
X144847830Y-97394035D01*
X145041401Y-97258495D01*
X145208495Y-97091401D01*
X145338426Y-96905839D01*
X145382743Y-96866975D01*
X145440000Y-96852964D01*
X145497257Y-96866975D01*
X145541573Y-96905839D01*
X145671505Y-97091401D01*
X145838599Y-97258495D01*
X146032170Y-97394035D01*
X146246337Y-97493903D01*
X146474592Y-97555063D01*
X146710000Y-97575659D01*
X146945408Y-97555063D01*
X147173663Y-97493903D01*
X147387830Y-97394035D01*
X147581401Y-97258495D01*
X147748495Y-97091401D01*
X147878732Y-96905402D01*
X147923048Y-96866539D01*
X147980305Y-96852528D01*
X148037562Y-96866539D01*
X148081880Y-96905404D01*
X148211893Y-97091081D01*
X148378918Y-97258106D01*
X148572423Y-97393600D01*
X148786507Y-97493430D01*
X148999999Y-97550635D01*
X149000000Y-97550636D01*
X149000000Y-96470000D01*
X149500000Y-96470000D01*
X149500000Y-97550635D01*
X149713492Y-97493430D01*
X149927576Y-97393600D01*
X150121081Y-97258106D01*
X150288106Y-97091081D01*
X150423600Y-96897576D01*
X150523430Y-96683492D01*
X150580636Y-96470000D01*
X149500000Y-96470000D01*
X149000000Y-96470000D01*
X149000000Y-94889364D01*
X149500000Y-94889364D01*
X149500000Y-95970000D01*
X150580636Y-95970000D01*
X150580635Y-95969999D01*
X150523430Y-95756507D01*
X150423599Y-95542421D01*
X150288109Y-95348921D01*
X150121081Y-95181893D01*
X149927576Y-95046399D01*
X149713492Y-94946569D01*
X149500000Y-94889364D01*
X149000000Y-94889364D01*
X148999999Y-94889364D01*
X148786507Y-94946569D01*
X148572421Y-95046400D01*
X148378921Y-95181890D01*
X148211893Y-95348918D01*
X148081880Y-95534596D01*
X148037562Y-95573461D01*
X147980305Y-95587472D01*
X147923048Y-95573461D01*
X147878730Y-95534595D01*
X147748494Y-95348598D01*
X147581404Y-95181508D01*
X147581401Y-95181505D01*
X147387830Y-95045965D01*
X147173663Y-94946097D01*
X147087138Y-94922913D01*
X146945407Y-94884936D01*
X146710000Y-94864340D01*
X146474591Y-94884936D01*
X146402009Y-94904384D01*
X146337823Y-94904384D01*
X146282236Y-94872290D01*
X145343476Y-93933530D01*
X145343473Y-93933526D01*
X144480434Y-93070488D01*
X144467091Y-93053833D01*
X144414166Y-93004134D01*
X144411369Y-93001423D01*
X144391034Y-92981088D01*
X144387547Y-92978383D01*
X144378671Y-92970801D01*
X144345394Y-92939552D01*
X144326793Y-92929326D01*
X144310532Y-92918645D01*
X144293764Y-92905638D01*
X144290771Y-92904343D01*
X144251869Y-92887508D01*
X144241379Y-92882369D01*
X144201367Y-92860372D01*
X144180800Y-92855091D01*
X144162398Y-92848791D01*
X144142924Y-92840364D01*
X144097837Y-92833223D01*
X144086398Y-92830854D01*
X144042178Y-92819500D01*
X144042177Y-92819500D01*
X144020955Y-92819500D01*
X144001556Y-92817973D01*
X143980596Y-92814653D01*
X143980595Y-92814653D01*
X143958558Y-92816736D01*
X143935139Y-92818950D01*
X143923470Y-92819500D01*
X141241088Y-92819500D01*
X141175115Y-92800493D01*
X141157691Y-92789544D01*
X140998056Y-92733686D01*
X140830000Y-92714750D01*
X140661943Y-92733686D01*
X140502307Y-92789545D01*
X140412352Y-92846067D01*
X140360264Y-92864293D01*
X140305426Y-92858114D01*
X140258700Y-92828754D01*
X139970413Y-92540467D01*
X139946374Y-92506588D01*
X139934874Y-92466670D01*
X139916313Y-92301943D01*
X139916313Y-92301941D01*
X139860456Y-92142310D01*
X139770477Y-91999110D01*
X139650890Y-91879523D01*
X139507690Y-91789544D01*
X139348059Y-91733687D01*
X139348058Y-91733686D01*
X139348056Y-91733686D01*
X139179999Y-91714750D01*
X139011943Y-91733686D01*
X138852310Y-91789544D01*
X138709108Y-91879524D01*
X138589524Y-91999108D01*
X138499544Y-92142310D01*
X138443686Y-92301943D01*
X138424750Y-92469999D01*
X114752131Y-92469999D01*
X114773033Y-87369999D01*
X138904340Y-87369999D01*
X138924936Y-87605407D01*
X138969709Y-87772502D01*
X138986097Y-87833663D01*
X139085965Y-88047830D01*
X139221505Y-88241401D01*
X139388599Y-88408495D01*
X139582170Y-88544035D01*
X139796337Y-88643903D01*
X140024591Y-88705062D01*
X140024592Y-88705063D01*
X140259999Y-88725659D01*
X140259999Y-88725658D01*
X140260000Y-88725659D01*
X140495408Y-88705063D01*
X140723663Y-88643903D01*
X140937830Y-88544035D01*
X141131401Y-88408495D01*
X141298495Y-88241401D01*
X141428426Y-88055839D01*
X141472743Y-88016975D01*
X141530000Y-88002964D01*
X141587257Y-88016975D01*
X141631573Y-88055839D01*
X141761505Y-88241401D01*
X141928599Y-88408495D01*
X142122170Y-88544035D01*
X142336337Y-88643903D01*
X142564591Y-88705062D01*
X142564592Y-88705063D01*
X142799999Y-88725659D01*
X142799999Y-88725658D01*
X142800000Y-88725659D01*
X143035408Y-88705063D01*
X143263663Y-88643903D01*
X143477830Y-88544035D01*
X143671401Y-88408495D01*
X143838495Y-88241401D01*
X143968426Y-88055839D01*
X144012743Y-88016975D01*
X144070000Y-88002964D01*
X144127257Y-88016975D01*
X144171573Y-88055839D01*
X144301505Y-88241401D01*
X144468599Y-88408495D01*
X144662170Y-88544035D01*
X144876337Y-88643903D01*
X145104591Y-88705062D01*
X145104592Y-88705063D01*
X145339999Y-88725659D01*
X145339999Y-88725658D01*
X145340000Y-88725659D01*
X145575408Y-88705063D01*
X145675874Y-88678143D01*
X145740059Y-88678143D01*
X145795647Y-88710237D01*
X146289197Y-89203787D01*
X146302098Y-89219889D01*
X146304212Y-89221874D01*
X146304214Y-89221877D01*
X146351561Y-89266339D01*
X146353240Y-89267916D01*
X146356035Y-89270625D01*
X146375530Y-89290120D01*
X146378704Y-89292582D01*
X146387568Y-89300153D01*
X146419418Y-89330062D01*
X146429914Y-89335832D01*
X146436974Y-89339714D01*
X146453231Y-89350392D01*
X146469064Y-89362674D01*
X146485185Y-89369649D01*
X146509156Y-89380023D01*
X146519643Y-89385160D01*
X146557908Y-89406197D01*
X146577316Y-89411180D01*
X146595710Y-89417478D01*
X146614105Y-89425438D01*
X146657254Y-89432271D01*
X146668680Y-89434638D01*
X146684222Y-89438629D01*
X146710980Y-89445500D01*
X146710981Y-89445500D01*
X146731016Y-89445500D01*
X146750413Y-89447026D01*
X146770196Y-89450160D01*
X146813674Y-89446050D01*
X146825344Y-89445500D01*
X149826253Y-89445500D01*
X149876688Y-89456220D01*
X149918401Y-89486526D01*
X149924129Y-89492888D01*
X150077270Y-89604151D01*
X150077271Y-89604151D01*
X150077272Y-89604152D01*
X150250197Y-89681144D01*
X150435352Y-89720500D01*
X150435354Y-89720500D01*
X150624646Y-89720500D01*
X150624648Y-89720500D01*
X150748084Y-89694262D01*
X150809803Y-89681144D01*
X150982730Y-89604151D01*
X151135871Y-89492888D01*
X151262533Y-89352216D01*
X151357179Y-89188284D01*
X151415674Y-89008256D01*
X151435460Y-88820000D01*
X151415674Y-88631744D01*
X151357179Y-88451716D01*
X151357179Y-88451715D01*
X151262533Y-88287783D01*
X151135870Y-88147110D01*
X150982730Y-88035848D01*
X150809802Y-87958855D01*
X150624648Y-87919500D01*
X150624646Y-87919500D01*
X150435354Y-87919500D01*
X150435352Y-87919500D01*
X150250197Y-87958855D01*
X150077272Y-88035847D01*
X149975175Y-88110024D01*
X149924129Y-88147112D01*
X149918401Y-88153473D01*
X149876688Y-88183780D01*
X149826253Y-88194500D01*
X149354500Y-88194500D01*
X149292500Y-88177887D01*
X149247113Y-88132500D01*
X149230500Y-88070500D01*
X149230499Y-86472130D01*
X149228489Y-86453430D01*
X149224091Y-86412517D01*
X149173796Y-86277669D01*
X149087546Y-86162454D01*
X148972331Y-86076204D01*
X148837483Y-86025909D01*
X148777873Y-86019500D01*
X148777869Y-86019500D01*
X146982130Y-86019500D01*
X146922515Y-86025909D01*
X146787669Y-86076204D01*
X146672454Y-86162454D01*
X146586204Y-86277669D01*
X146537189Y-86409083D01*
X146502209Y-86459462D01*
X146447365Y-86486915D01*
X146386072Y-86484726D01*
X146333326Y-86453430D01*
X146211404Y-86331508D01*
X146211404Y-86331507D01*
X146211401Y-86331505D01*
X146017830Y-86195965D01*
X145803663Y-86096097D01*
X145742502Y-86079709D01*
X145575407Y-86034936D01*
X145340000Y-86014340D01*
X145104592Y-86034936D01*
X144876336Y-86096097D01*
X144662170Y-86195965D01*
X144468598Y-86331505D01*
X144301505Y-86498598D01*
X144171575Y-86684159D01*
X144127257Y-86723025D01*
X144070000Y-86737036D01*
X144012743Y-86723025D01*
X143968425Y-86684159D01*
X143838494Y-86498598D01*
X143671404Y-86331508D01*
X143671404Y-86331507D01*
X143671401Y-86331505D01*
X143477830Y-86195965D01*
X143263663Y-86096097D01*
X143202502Y-86079709D01*
X143035407Y-86034936D01*
X142800000Y-86014340D01*
X142564592Y-86034936D01*
X142336336Y-86096097D01*
X142122170Y-86195965D01*
X141928598Y-86331505D01*
X141761505Y-86498598D01*
X141631575Y-86684159D01*
X141587257Y-86723025D01*
X141530000Y-86737036D01*
X141472743Y-86723025D01*
X141428425Y-86684159D01*
X141298494Y-86498598D01*
X141131404Y-86331508D01*
X141131404Y-86331507D01*
X141131401Y-86331505D01*
X140937830Y-86195965D01*
X140723663Y-86096097D01*
X140662502Y-86079709D01*
X140495407Y-86034936D01*
X140260000Y-86014340D01*
X140024592Y-86034936D01*
X139796336Y-86096097D01*
X139582170Y-86195965D01*
X139388598Y-86331505D01*
X139221505Y-86498598D01*
X139085965Y-86692170D01*
X138986097Y-86906336D01*
X138924936Y-87134592D01*
X138904340Y-87369999D01*
X114773033Y-87369999D01*
X114779493Y-85793651D01*
X114796302Y-85731820D01*
X114841732Y-85686635D01*
X114903649Y-85670160D01*
X116895786Y-85672754D01*
G37*
%TD.AperFunction*%
%TD*%
%TA.AperFunction,Conductor*%
%TO.N,GND*%
G36*
X157345786Y-85722754D02*
G01*
X157393161Y-85732229D01*
X157413357Y-85745738D01*
X157424616Y-85750382D01*
X157424617Y-85750383D01*
X157425000Y-85750541D01*
X157425002Y-85750539D01*
X157449616Y-85750524D01*
X157449616Y-85750528D01*
X157449760Y-85750500D01*
X178654000Y-85750500D01*
X193506161Y-85769839D01*
X193568093Y-85786506D01*
X193613414Y-85831886D01*
X193630000Y-85893839D01*
X193630000Y-97845839D01*
X193613360Y-97907886D01*
X193567907Y-97953280D01*
X193505840Y-97969838D01*
X178396934Y-97950191D01*
X155304347Y-97920161D01*
X155242268Y-97903409D01*
X155196925Y-97857821D01*
X155180509Y-97795655D01*
X155189504Y-95600820D01*
X155198860Y-95554076D01*
X155200382Y-95550383D01*
X155200383Y-95550383D01*
X155200500Y-95550099D01*
X155200541Y-95550000D01*
X155200541Y-95525446D01*
X155200500Y-95525240D01*
X155200500Y-92918264D01*
X155200501Y-92917756D01*
X155202131Y-92520000D01*
X178874750Y-92520000D01*
X178893686Y-92688056D01*
X178949544Y-92847690D01*
X179014998Y-92951859D01*
X179026395Y-92977252D01*
X179039061Y-92998670D01*
X179047621Y-93016143D01*
X179055431Y-93035869D01*
X179082267Y-93072808D01*
X179088673Y-93082560D01*
X179111919Y-93121865D01*
X179111921Y-93121867D01*
X179126925Y-93136871D01*
X179139564Y-93151669D01*
X179152037Y-93168837D01*
X179187212Y-93197936D01*
X179195854Y-93205800D01*
X180874235Y-94884181D01*
X180907717Y-94945489D01*
X180902746Y-95015167D01*
X180879874Y-95045739D01*
X180883138Y-95048183D01*
X180872455Y-95062452D01*
X180872454Y-95062454D01*
X180847368Y-95095965D01*
X180786204Y-95177669D01*
X180735909Y-95312516D01*
X180729500Y-95372130D01*
X180729500Y-97167869D01*
X180735909Y-97227484D01*
X180761056Y-97294907D01*
X180786204Y-97362331D01*
X180872454Y-97477546D01*
X180987669Y-97563796D01*
X181122517Y-97614091D01*
X181182127Y-97620500D01*
X182977872Y-97620499D01*
X183037483Y-97614091D01*
X183172331Y-97563796D01*
X183287546Y-97477546D01*
X183373796Y-97362331D01*
X183422810Y-97230916D01*
X183457789Y-97180537D01*
X183512634Y-97153084D01*
X183573927Y-97155273D01*
X183626673Y-97186568D01*
X183748599Y-97308495D01*
X183942170Y-97444035D01*
X184156337Y-97543903D01*
X184384592Y-97605063D01*
X184620000Y-97625659D01*
X184855408Y-97605063D01*
X185083663Y-97543903D01*
X185297830Y-97444035D01*
X185491401Y-97308495D01*
X185658495Y-97141401D01*
X185788426Y-96955839D01*
X185832743Y-96916975D01*
X185890000Y-96902964D01*
X185947257Y-96916975D01*
X185991573Y-96955839D01*
X186121505Y-97141401D01*
X186288599Y-97308495D01*
X186482170Y-97444035D01*
X186696337Y-97543903D01*
X186924592Y-97605063D01*
X187160000Y-97625659D01*
X187395408Y-97605063D01*
X187623663Y-97543903D01*
X187837830Y-97444035D01*
X188031401Y-97308495D01*
X188198495Y-97141401D01*
X188328732Y-96955402D01*
X188373048Y-96916539D01*
X188430305Y-96902528D01*
X188487562Y-96916539D01*
X188531880Y-96955404D01*
X188661893Y-97141081D01*
X188828918Y-97308106D01*
X189022423Y-97443600D01*
X189236507Y-97543430D01*
X189449999Y-97600635D01*
X189450000Y-97600636D01*
X189450000Y-96520000D01*
X189950000Y-96520000D01*
X189950000Y-97600635D01*
X190163492Y-97543430D01*
X190377576Y-97443600D01*
X190571081Y-97308106D01*
X190738106Y-97141081D01*
X190873600Y-96947576D01*
X190973430Y-96733492D01*
X191030636Y-96520000D01*
X189950000Y-96520000D01*
X189450000Y-96520000D01*
X189450000Y-94939364D01*
X189950000Y-94939364D01*
X189950000Y-96020000D01*
X191030636Y-96020000D01*
X191030635Y-96019999D01*
X190973430Y-95806507D01*
X190873599Y-95592421D01*
X190738109Y-95398921D01*
X190571081Y-95231893D01*
X190377576Y-95096399D01*
X190163492Y-94996569D01*
X189950000Y-94939364D01*
X189450000Y-94939364D01*
X189449999Y-94939364D01*
X189236507Y-94996569D01*
X189022421Y-95096400D01*
X188828921Y-95231890D01*
X188661893Y-95398918D01*
X188531880Y-95584596D01*
X188487562Y-95623461D01*
X188430305Y-95637472D01*
X188373048Y-95623461D01*
X188328730Y-95584595D01*
X188198495Y-95398599D01*
X188031401Y-95231505D01*
X187837830Y-95095965D01*
X187623663Y-94996097D01*
X187537138Y-94972913D01*
X187395407Y-94934936D01*
X187160000Y-94914340D01*
X186924591Y-94934936D01*
X186852009Y-94954384D01*
X186787823Y-94954384D01*
X186732236Y-94922290D01*
X184930434Y-93120488D01*
X184917091Y-93103833D01*
X184864166Y-93054134D01*
X184861369Y-93051423D01*
X184841034Y-93031088D01*
X184837547Y-93028383D01*
X184828671Y-93020801D01*
X184795394Y-92989552D01*
X184776793Y-92979326D01*
X184760532Y-92968645D01*
X184743764Y-92955638D01*
X184740771Y-92954343D01*
X184701869Y-92937508D01*
X184691379Y-92932369D01*
X184651367Y-92910372D01*
X184630800Y-92905091D01*
X184612398Y-92898791D01*
X184592924Y-92890364D01*
X184547837Y-92883223D01*
X184536398Y-92880854D01*
X184492178Y-92869500D01*
X184492177Y-92869500D01*
X184470955Y-92869500D01*
X184451556Y-92867973D01*
X184430596Y-92864653D01*
X184430595Y-92864653D01*
X184408558Y-92866736D01*
X184385139Y-92868950D01*
X184373470Y-92869500D01*
X181691088Y-92869500D01*
X181625115Y-92850493D01*
X181607691Y-92839544D01*
X181448056Y-92783686D01*
X181280000Y-92764750D01*
X181111943Y-92783686D01*
X180952307Y-92839545D01*
X180862352Y-92896067D01*
X180810264Y-92914293D01*
X180755426Y-92908114D01*
X180708700Y-92878754D01*
X180420413Y-92590467D01*
X180396374Y-92556588D01*
X180384874Y-92516670D01*
X180366313Y-92351943D01*
X180366313Y-92351941D01*
X180310456Y-92192310D01*
X180220477Y-92049110D01*
X180100890Y-91929523D01*
X179957690Y-91839544D01*
X179798059Y-91783687D01*
X179798058Y-91783686D01*
X179798056Y-91783686D01*
X179630000Y-91764750D01*
X179461943Y-91783686D01*
X179302310Y-91839544D01*
X179159108Y-91929524D01*
X179039524Y-92049108D01*
X178949544Y-92192310D01*
X178893686Y-92351943D01*
X178874750Y-92520000D01*
X155202131Y-92520000D01*
X155205226Y-91764750D01*
X155223032Y-87420000D01*
X179354340Y-87420000D01*
X179374936Y-87655407D01*
X179419709Y-87822502D01*
X179436097Y-87883663D01*
X179535965Y-88097830D01*
X179671505Y-88291401D01*
X179838599Y-88458495D01*
X180032170Y-88594035D01*
X180246337Y-88693903D01*
X180474592Y-88755063D01*
X180710000Y-88775659D01*
X180945408Y-88755063D01*
X181173663Y-88693903D01*
X181387830Y-88594035D01*
X181581401Y-88458495D01*
X181748495Y-88291401D01*
X181878426Y-88105839D01*
X181922743Y-88066975D01*
X181980000Y-88052964D01*
X182037257Y-88066975D01*
X182081573Y-88105839D01*
X182211505Y-88291401D01*
X182378599Y-88458495D01*
X182572170Y-88594035D01*
X182786337Y-88693903D01*
X183014592Y-88755063D01*
X183250000Y-88775659D01*
X183485408Y-88755063D01*
X183713663Y-88693903D01*
X183927830Y-88594035D01*
X184121401Y-88458495D01*
X184288495Y-88291401D01*
X184418426Y-88105839D01*
X184462743Y-88066975D01*
X184520000Y-88052964D01*
X184577257Y-88066975D01*
X184621573Y-88105839D01*
X184751505Y-88291401D01*
X184918599Y-88458495D01*
X185112170Y-88594035D01*
X185326337Y-88693903D01*
X185554592Y-88755063D01*
X185790000Y-88775659D01*
X186025408Y-88755063D01*
X186125874Y-88728143D01*
X186190059Y-88728143D01*
X186245647Y-88760237D01*
X186739197Y-89253787D01*
X186752098Y-89269889D01*
X186754212Y-89271874D01*
X186754214Y-89271877D01*
X186801561Y-89316339D01*
X186803240Y-89317916D01*
X186806036Y-89320625D01*
X186825530Y-89340120D01*
X186828704Y-89342582D01*
X186837568Y-89350153D01*
X186869418Y-89380062D01*
X186879914Y-89385832D01*
X186886974Y-89389714D01*
X186903231Y-89400392D01*
X186919064Y-89412674D01*
X186935185Y-89419649D01*
X186959156Y-89430023D01*
X186969643Y-89435160D01*
X187007908Y-89456197D01*
X187027316Y-89461180D01*
X187045710Y-89467478D01*
X187064105Y-89475438D01*
X187107254Y-89482271D01*
X187118680Y-89484638D01*
X187134222Y-89488629D01*
X187160980Y-89495500D01*
X187160981Y-89495500D01*
X187181016Y-89495500D01*
X187200413Y-89497026D01*
X187220196Y-89500160D01*
X187263674Y-89496050D01*
X187275344Y-89495500D01*
X190276253Y-89495500D01*
X190326688Y-89506220D01*
X190368401Y-89536526D01*
X190374129Y-89542888D01*
X190527270Y-89654151D01*
X190527271Y-89654151D01*
X190527272Y-89654152D01*
X190700197Y-89731144D01*
X190885352Y-89770500D01*
X190885354Y-89770500D01*
X191074646Y-89770500D01*
X191074648Y-89770500D01*
X191198084Y-89744262D01*
X191259803Y-89731144D01*
X191432730Y-89654151D01*
X191585871Y-89542888D01*
X191712533Y-89402216D01*
X191807179Y-89238284D01*
X191865674Y-89058256D01*
X191885460Y-88870000D01*
X191865674Y-88681744D01*
X191807179Y-88501716D01*
X191807179Y-88501715D01*
X191712533Y-88337783D01*
X191585870Y-88197110D01*
X191432730Y-88085848D01*
X191259802Y-88008855D01*
X191074648Y-87969500D01*
X191074646Y-87969500D01*
X190885354Y-87969500D01*
X190885352Y-87969500D01*
X190700197Y-88008855D01*
X190527272Y-88085847D01*
X190425176Y-88160024D01*
X190374129Y-88197112D01*
X190368401Y-88203473D01*
X190326688Y-88233780D01*
X190276253Y-88244500D01*
X189804500Y-88244500D01*
X189742500Y-88227887D01*
X189697113Y-88182500D01*
X189680500Y-88120500D01*
X189680499Y-86522130D01*
X189678489Y-86503430D01*
X189674091Y-86462517D01*
X189623796Y-86327669D01*
X189537546Y-86212454D01*
X189422331Y-86126204D01*
X189287483Y-86075909D01*
X189227873Y-86069500D01*
X189227869Y-86069500D01*
X187432130Y-86069500D01*
X187372515Y-86075909D01*
X187237669Y-86126204D01*
X187122454Y-86212454D01*
X187036204Y-86327669D01*
X186987189Y-86459083D01*
X186952209Y-86509462D01*
X186897365Y-86536915D01*
X186836072Y-86534726D01*
X186783326Y-86503430D01*
X186661404Y-86381508D01*
X186661401Y-86381505D01*
X186467830Y-86245965D01*
X186253663Y-86146097D01*
X186192502Y-86129709D01*
X186025407Y-86084936D01*
X185790000Y-86064340D01*
X185554592Y-86084936D01*
X185326336Y-86146097D01*
X185112170Y-86245965D01*
X184918598Y-86381505D01*
X184751505Y-86548598D01*
X184621575Y-86734159D01*
X184577257Y-86773025D01*
X184520000Y-86787036D01*
X184462743Y-86773025D01*
X184418425Y-86734159D01*
X184288494Y-86548598D01*
X184121404Y-86381508D01*
X184121401Y-86381505D01*
X183927830Y-86245965D01*
X183713663Y-86146097D01*
X183652502Y-86129709D01*
X183485407Y-86084936D01*
X183250000Y-86064340D01*
X183014592Y-86084936D01*
X182786336Y-86146097D01*
X182572170Y-86245965D01*
X182378598Y-86381505D01*
X182211505Y-86548598D01*
X182081575Y-86734159D01*
X182037257Y-86773025D01*
X181980000Y-86787036D01*
X181922743Y-86773025D01*
X181878425Y-86734159D01*
X181748494Y-86548598D01*
X181581404Y-86381508D01*
X181581401Y-86381505D01*
X181387830Y-86245965D01*
X181173663Y-86146097D01*
X181112502Y-86129709D01*
X180945407Y-86084936D01*
X180710000Y-86064340D01*
X180474592Y-86084936D01*
X180246336Y-86146097D01*
X180032170Y-86245965D01*
X179838598Y-86381505D01*
X179671505Y-86548598D01*
X179535965Y-86742170D01*
X179436097Y-86956336D01*
X179374936Y-87184592D01*
X179354340Y-87420000D01*
X155223032Y-87420000D01*
X155229493Y-85843651D01*
X155246302Y-85781820D01*
X155291732Y-85736635D01*
X155353649Y-85720160D01*
X157345786Y-85722754D01*
G37*
%TD.AperFunction*%
%TD*%
%TA.AperFunction,Conductor*%
%TO.N,GND*%
G36*
X116775786Y-71442754D02*
G01*
X116823161Y-71452229D01*
X116843357Y-71465738D01*
X116854616Y-71470382D01*
X116854617Y-71470383D01*
X116855000Y-71470541D01*
X116855002Y-71470539D01*
X116879616Y-71470524D01*
X116879616Y-71470528D01*
X116879760Y-71470500D01*
X138084000Y-71470500D01*
X152936161Y-71489839D01*
X152998093Y-71506506D01*
X153043414Y-71551886D01*
X153060000Y-71613839D01*
X153060000Y-83565839D01*
X153043360Y-83627886D01*
X152997907Y-83673280D01*
X152935840Y-83689838D01*
X137826934Y-83670191D01*
X114734347Y-83640161D01*
X114672268Y-83623409D01*
X114626925Y-83577821D01*
X114610509Y-83515655D01*
X114632131Y-78240000D01*
X138304750Y-78240000D01*
X138323686Y-78408056D01*
X138379544Y-78567690D01*
X138444998Y-78671859D01*
X138456395Y-78697252D01*
X138469061Y-78718670D01*
X138477621Y-78736143D01*
X138485431Y-78755869D01*
X138512267Y-78792808D01*
X138518673Y-78802560D01*
X138541919Y-78841865D01*
X138541921Y-78841866D01*
X138541921Y-78841867D01*
X138556925Y-78856871D01*
X138569564Y-78871669D01*
X138582037Y-78888837D01*
X138617212Y-78917936D01*
X138625854Y-78925800D01*
X140304235Y-80604181D01*
X140337717Y-80665489D01*
X140332746Y-80735167D01*
X140309874Y-80765739D01*
X140313138Y-80768183D01*
X140302455Y-80782452D01*
X140302454Y-80782454D01*
X140277368Y-80815965D01*
X140216204Y-80897669D01*
X140165909Y-81032516D01*
X140159500Y-81092130D01*
X140159500Y-82887869D01*
X140165909Y-82947484D01*
X140191056Y-83014906D01*
X140216204Y-83082331D01*
X140302454Y-83197546D01*
X140417669Y-83283796D01*
X140552517Y-83334091D01*
X140612127Y-83340500D01*
X142407872Y-83340499D01*
X142467483Y-83334091D01*
X142602331Y-83283796D01*
X142717546Y-83197546D01*
X142803796Y-83082331D01*
X142852810Y-82950916D01*
X142887789Y-82900537D01*
X142942634Y-82873084D01*
X143003927Y-82875273D01*
X143056673Y-82906568D01*
X143178599Y-83028495D01*
X143372170Y-83164035D01*
X143586337Y-83263903D01*
X143798070Y-83320636D01*
X143814592Y-83325063D01*
X144049999Y-83345659D01*
X144049999Y-83345658D01*
X144050000Y-83345659D01*
X144285408Y-83325063D01*
X144513663Y-83263903D01*
X144727830Y-83164035D01*
X144921401Y-83028495D01*
X145088495Y-82861401D01*
X145218426Y-82675839D01*
X145262743Y-82636975D01*
X145320000Y-82622964D01*
X145377257Y-82636975D01*
X145421573Y-82675839D01*
X145551505Y-82861401D01*
X145718599Y-83028495D01*
X145912170Y-83164035D01*
X146126337Y-83263903D01*
X146338070Y-83320636D01*
X146354592Y-83325063D01*
X146589999Y-83345659D01*
X146589999Y-83345658D01*
X146590000Y-83345659D01*
X146825408Y-83325063D01*
X147053663Y-83263903D01*
X147267830Y-83164035D01*
X147461401Y-83028495D01*
X147628495Y-82861401D01*
X147758732Y-82675402D01*
X147803048Y-82636539D01*
X147860305Y-82622528D01*
X147917562Y-82636539D01*
X147961880Y-82675404D01*
X148091893Y-82861081D01*
X148258918Y-83028106D01*
X148452423Y-83163600D01*
X148666507Y-83263430D01*
X148879999Y-83320635D01*
X148880000Y-83320636D01*
X148880000Y-82240000D01*
X149380000Y-82240000D01*
X149380000Y-83320635D01*
X149593492Y-83263430D01*
X149807576Y-83163600D01*
X150001081Y-83028106D01*
X150168106Y-82861081D01*
X150303600Y-82667576D01*
X150403430Y-82453492D01*
X150460636Y-82240000D01*
X149380000Y-82240000D01*
X148880000Y-82240000D01*
X148880000Y-80659364D01*
X149380000Y-80659364D01*
X149380000Y-81740000D01*
X150460636Y-81740000D01*
X150460635Y-81739999D01*
X150403430Y-81526507D01*
X150303599Y-81312421D01*
X150168109Y-81118921D01*
X150001081Y-80951893D01*
X149807576Y-80816399D01*
X149593492Y-80716569D01*
X149380000Y-80659364D01*
X148880000Y-80659364D01*
X148879999Y-80659364D01*
X148666507Y-80716569D01*
X148452421Y-80816400D01*
X148258921Y-80951890D01*
X148091893Y-81118918D01*
X147961880Y-81304596D01*
X147917562Y-81343461D01*
X147860305Y-81357472D01*
X147803048Y-81343461D01*
X147758730Y-81304595D01*
X147628494Y-81118598D01*
X147461404Y-80951508D01*
X147461401Y-80951505D01*
X147267830Y-80815965D01*
X147053663Y-80716097D01*
X146967138Y-80692913D01*
X146825407Y-80654936D01*
X146590000Y-80634340D01*
X146354591Y-80654936D01*
X146282009Y-80674384D01*
X146217823Y-80674384D01*
X146162236Y-80642290D01*
X145223476Y-79703530D01*
X145223473Y-79703526D01*
X144360434Y-78840488D01*
X144347091Y-78823833D01*
X144294166Y-78774134D01*
X144291369Y-78771423D01*
X144271034Y-78751088D01*
X144267547Y-78748383D01*
X144258671Y-78740801D01*
X144225394Y-78709552D01*
X144206793Y-78699326D01*
X144190532Y-78688645D01*
X144173764Y-78675638D01*
X144170771Y-78674343D01*
X144131869Y-78657508D01*
X144121379Y-78652369D01*
X144081367Y-78630372D01*
X144060800Y-78625091D01*
X144042398Y-78618791D01*
X144022924Y-78610364D01*
X143977837Y-78603223D01*
X143966398Y-78600854D01*
X143922178Y-78589500D01*
X143922177Y-78589500D01*
X143900955Y-78589500D01*
X143881556Y-78587973D01*
X143860596Y-78584653D01*
X143860595Y-78584653D01*
X143838558Y-78586736D01*
X143815139Y-78588950D01*
X143803470Y-78589500D01*
X141121088Y-78589500D01*
X141055115Y-78570493D01*
X141037691Y-78559544D01*
X140878056Y-78503686D01*
X140710000Y-78484750D01*
X140541943Y-78503686D01*
X140382307Y-78559545D01*
X140292352Y-78616067D01*
X140240264Y-78634293D01*
X140185426Y-78628114D01*
X140138700Y-78598754D01*
X139850413Y-78310467D01*
X139826374Y-78276588D01*
X139814874Y-78236670D01*
X139796313Y-78071943D01*
X139796313Y-78071941D01*
X139740456Y-77912310D01*
X139650477Y-77769110D01*
X139530890Y-77649523D01*
X139387690Y-77559544D01*
X139228059Y-77503687D01*
X139228058Y-77503686D01*
X139228056Y-77503686D01*
X139060000Y-77484750D01*
X138891943Y-77503686D01*
X138732310Y-77559544D01*
X138589108Y-77649524D01*
X138469524Y-77769108D01*
X138379544Y-77912310D01*
X138323686Y-78071943D01*
X138304750Y-78240000D01*
X114632131Y-78240000D01*
X114653033Y-73140000D01*
X138784340Y-73140000D01*
X138804936Y-73375407D01*
X138849709Y-73542502D01*
X138866097Y-73603663D01*
X138965965Y-73817830D01*
X139101505Y-74011401D01*
X139268599Y-74178495D01*
X139462170Y-74314035D01*
X139676337Y-74413903D01*
X139904592Y-74475063D01*
X140140000Y-74495659D01*
X140375408Y-74475063D01*
X140603663Y-74413903D01*
X140817830Y-74314035D01*
X141011401Y-74178495D01*
X141178495Y-74011401D01*
X141308426Y-73825839D01*
X141352743Y-73786975D01*
X141410000Y-73772964D01*
X141467257Y-73786975D01*
X141511573Y-73825839D01*
X141641505Y-74011401D01*
X141808599Y-74178495D01*
X142002170Y-74314035D01*
X142216337Y-74413903D01*
X142444592Y-74475063D01*
X142680000Y-74495659D01*
X142915408Y-74475063D01*
X143143663Y-74413903D01*
X143357830Y-74314035D01*
X143551401Y-74178495D01*
X143718495Y-74011401D01*
X143848426Y-73825839D01*
X143892743Y-73786975D01*
X143950000Y-73772964D01*
X144007257Y-73786975D01*
X144051573Y-73825839D01*
X144181505Y-74011401D01*
X144348599Y-74178495D01*
X144542170Y-74314035D01*
X144756337Y-74413903D01*
X144984592Y-74475063D01*
X145220000Y-74495659D01*
X145455408Y-74475063D01*
X145555874Y-74448143D01*
X145620059Y-74448143D01*
X145675647Y-74480237D01*
X146169197Y-74973787D01*
X146182098Y-74989889D01*
X146184212Y-74991874D01*
X146184214Y-74991877D01*
X146231561Y-75036339D01*
X146233240Y-75037916D01*
X146236035Y-75040625D01*
X146255530Y-75060120D01*
X146258704Y-75062582D01*
X146267568Y-75070153D01*
X146299418Y-75100062D01*
X146309914Y-75105832D01*
X146316974Y-75109714D01*
X146333231Y-75120392D01*
X146349064Y-75132674D01*
X146365185Y-75139649D01*
X146389156Y-75150023D01*
X146399643Y-75155160D01*
X146437908Y-75176197D01*
X146457316Y-75181180D01*
X146475710Y-75187478D01*
X146494105Y-75195438D01*
X146537254Y-75202271D01*
X146548680Y-75204638D01*
X146564222Y-75208629D01*
X146590980Y-75215500D01*
X146590981Y-75215500D01*
X146611016Y-75215500D01*
X146630413Y-75217026D01*
X146650196Y-75220160D01*
X146693674Y-75216050D01*
X146705344Y-75215500D01*
X149706253Y-75215500D01*
X149756688Y-75226220D01*
X149798401Y-75256526D01*
X149804129Y-75262888D01*
X149957270Y-75374151D01*
X149957271Y-75374151D01*
X149957272Y-75374152D01*
X150130197Y-75451144D01*
X150315352Y-75490500D01*
X150315354Y-75490500D01*
X150504646Y-75490500D01*
X150504648Y-75490500D01*
X150628083Y-75464262D01*
X150689803Y-75451144D01*
X150862730Y-75374151D01*
X151015871Y-75262888D01*
X151142533Y-75122216D01*
X151237179Y-74958284D01*
X151295674Y-74778256D01*
X151315460Y-74590000D01*
X151295674Y-74401744D01*
X151237179Y-74221716D01*
X151237179Y-74221715D01*
X151142533Y-74057783D01*
X151015870Y-73917110D01*
X150862730Y-73805848D01*
X150689802Y-73728855D01*
X150504648Y-73689500D01*
X150504646Y-73689500D01*
X150315354Y-73689500D01*
X150315352Y-73689500D01*
X150130197Y-73728855D01*
X149957272Y-73805847D01*
X149855175Y-73880024D01*
X149804129Y-73917112D01*
X149798401Y-73923473D01*
X149756688Y-73953780D01*
X149706253Y-73964500D01*
X149234500Y-73964500D01*
X149172500Y-73947887D01*
X149127113Y-73902500D01*
X149110500Y-73840500D01*
X149110499Y-72242130D01*
X149108489Y-72223430D01*
X149104091Y-72182517D01*
X149053796Y-72047669D01*
X148967546Y-71932454D01*
X148852331Y-71846204D01*
X148717483Y-71795909D01*
X148657873Y-71789500D01*
X148657869Y-71789500D01*
X146862130Y-71789500D01*
X146802515Y-71795909D01*
X146667669Y-71846204D01*
X146552454Y-71932454D01*
X146466204Y-72047669D01*
X146417189Y-72179083D01*
X146382209Y-72229462D01*
X146327365Y-72256915D01*
X146266072Y-72254726D01*
X146213326Y-72223430D01*
X146091404Y-72101508D01*
X146091401Y-72101505D01*
X145897830Y-71965965D01*
X145683663Y-71866097D01*
X145622501Y-71849709D01*
X145455407Y-71804936D01*
X145220000Y-71784340D01*
X144984592Y-71804936D01*
X144756336Y-71866097D01*
X144542170Y-71965965D01*
X144348598Y-72101505D01*
X144181505Y-72268598D01*
X144051575Y-72454159D01*
X144007257Y-72493025D01*
X143950000Y-72507036D01*
X143892743Y-72493025D01*
X143848425Y-72454159D01*
X143718494Y-72268598D01*
X143551404Y-72101508D01*
X143551401Y-72101505D01*
X143357830Y-71965965D01*
X143143663Y-71866097D01*
X143082501Y-71849709D01*
X142915407Y-71804936D01*
X142680000Y-71784340D01*
X142444592Y-71804936D01*
X142216336Y-71866097D01*
X142002170Y-71965965D01*
X141808598Y-72101505D01*
X141641505Y-72268598D01*
X141511575Y-72454159D01*
X141467257Y-72493025D01*
X141410000Y-72507036D01*
X141352743Y-72493025D01*
X141308425Y-72454159D01*
X141178494Y-72268598D01*
X141011404Y-72101508D01*
X141011401Y-72101505D01*
X140817830Y-71965965D01*
X140603663Y-71866097D01*
X140542501Y-71849709D01*
X140375407Y-71804936D01*
X140140000Y-71784340D01*
X139904592Y-71804936D01*
X139676336Y-71866097D01*
X139462170Y-71965965D01*
X139268598Y-72101505D01*
X139101505Y-72268598D01*
X138965965Y-72462170D01*
X138866097Y-72676336D01*
X138804936Y-72904592D01*
X138784340Y-73140000D01*
X114653033Y-73140000D01*
X114659493Y-71563651D01*
X114676302Y-71501820D01*
X114721732Y-71456635D01*
X114783649Y-71440160D01*
X116775786Y-71442754D01*
G37*
%TD.AperFunction*%
%TD*%
%TA.AperFunction,Conductor*%
%TO.N,GND*%
G36*
X157095786Y-57222754D02*
G01*
X157143161Y-57232229D01*
X157163357Y-57245738D01*
X157174616Y-57250382D01*
X157174617Y-57250383D01*
X157175000Y-57250541D01*
X157175002Y-57250539D01*
X157199616Y-57250524D01*
X157199616Y-57250528D01*
X157199760Y-57250500D01*
X178404000Y-57250500D01*
X193256161Y-57269839D01*
X193318093Y-57286506D01*
X193363414Y-57331886D01*
X193380000Y-57393839D01*
X193380000Y-69345839D01*
X193363360Y-69407886D01*
X193317907Y-69453280D01*
X193255840Y-69469838D01*
X178146934Y-69450191D01*
X155054347Y-69420161D01*
X154992268Y-69403409D01*
X154946925Y-69357821D01*
X154930509Y-69295655D01*
X154939504Y-67100820D01*
X154948860Y-67054076D01*
X154950382Y-67050383D01*
X154950383Y-67050383D01*
X154950500Y-67050099D01*
X154950541Y-67050000D01*
X154950541Y-67025446D01*
X154950500Y-67025240D01*
X154950500Y-64418264D01*
X154950501Y-64417756D01*
X154952131Y-64019999D01*
X178624750Y-64019999D01*
X178643686Y-64188056D01*
X178699544Y-64347690D01*
X178764998Y-64451859D01*
X178776395Y-64477252D01*
X178789061Y-64498670D01*
X178797621Y-64516143D01*
X178805431Y-64535869D01*
X178832267Y-64572808D01*
X178838673Y-64582560D01*
X178861919Y-64621865D01*
X178861921Y-64621867D01*
X178876925Y-64636871D01*
X178889564Y-64651669D01*
X178902037Y-64668837D01*
X178937212Y-64697936D01*
X178945854Y-64705800D01*
X180624235Y-66384181D01*
X180657717Y-66445489D01*
X180652746Y-66515167D01*
X180629874Y-66545739D01*
X180633138Y-66548183D01*
X180622455Y-66562452D01*
X180622454Y-66562454D01*
X180597368Y-66595965D01*
X180536204Y-66677669D01*
X180485909Y-66812516D01*
X180479500Y-66872130D01*
X180479500Y-68667869D01*
X180485909Y-68727484D01*
X180511056Y-68794907D01*
X180536204Y-68862331D01*
X180622454Y-68977546D01*
X180737669Y-69063796D01*
X180872517Y-69114091D01*
X180932127Y-69120500D01*
X182727872Y-69120499D01*
X182787483Y-69114091D01*
X182922331Y-69063796D01*
X183037546Y-68977546D01*
X183123796Y-68862331D01*
X183172810Y-68730916D01*
X183207789Y-68680537D01*
X183262634Y-68653084D01*
X183323927Y-68655273D01*
X183376673Y-68686569D01*
X183498599Y-68808495D01*
X183692170Y-68944035D01*
X183906337Y-69043903D01*
X184118070Y-69100636D01*
X184134592Y-69105063D01*
X184369999Y-69125659D01*
X184369999Y-69125658D01*
X184370000Y-69125659D01*
X184605408Y-69105063D01*
X184833663Y-69043903D01*
X185047830Y-68944035D01*
X185241401Y-68808495D01*
X185408495Y-68641401D01*
X185538426Y-68455839D01*
X185582743Y-68416975D01*
X185640000Y-68402964D01*
X185697257Y-68416975D01*
X185741573Y-68455839D01*
X185871505Y-68641401D01*
X186038599Y-68808495D01*
X186232170Y-68944035D01*
X186446337Y-69043903D01*
X186658070Y-69100636D01*
X186674592Y-69105063D01*
X186909999Y-69125659D01*
X186909999Y-69125658D01*
X186910000Y-69125659D01*
X187145408Y-69105063D01*
X187373663Y-69043903D01*
X187587830Y-68944035D01*
X187781401Y-68808495D01*
X187948495Y-68641401D01*
X188078732Y-68455402D01*
X188123048Y-68416539D01*
X188180305Y-68402528D01*
X188237562Y-68416539D01*
X188281880Y-68455404D01*
X188411893Y-68641081D01*
X188578918Y-68808106D01*
X188772423Y-68943600D01*
X188986507Y-69043430D01*
X189199999Y-69100635D01*
X189200000Y-69100636D01*
X189200000Y-68020000D01*
X189700000Y-68020000D01*
X189700000Y-69100635D01*
X189913492Y-69043430D01*
X190127576Y-68943600D01*
X190321081Y-68808106D01*
X190488106Y-68641081D01*
X190623600Y-68447576D01*
X190723430Y-68233492D01*
X190780636Y-68020000D01*
X189700000Y-68020000D01*
X189200000Y-68020000D01*
X189200000Y-66439364D01*
X189700000Y-66439364D01*
X189700000Y-67520000D01*
X190780636Y-67520000D01*
X190780635Y-67519999D01*
X190723430Y-67306507D01*
X190623599Y-67092421D01*
X190488109Y-66898921D01*
X190321081Y-66731893D01*
X190127576Y-66596399D01*
X189913492Y-66496569D01*
X189700000Y-66439364D01*
X189200000Y-66439364D01*
X189199999Y-66439364D01*
X188986507Y-66496569D01*
X188772421Y-66596400D01*
X188578921Y-66731890D01*
X188411893Y-66898918D01*
X188281880Y-67084596D01*
X188237562Y-67123461D01*
X188180305Y-67137472D01*
X188123048Y-67123461D01*
X188078730Y-67084595D01*
X187948495Y-66898599D01*
X187781401Y-66731505D01*
X187587830Y-66595965D01*
X187373663Y-66496097D01*
X187287138Y-66472913D01*
X187145407Y-66434936D01*
X186910000Y-66414340D01*
X186674591Y-66434936D01*
X186602009Y-66454384D01*
X186537823Y-66454384D01*
X186482236Y-66422290D01*
X185543476Y-65483530D01*
X185543473Y-65483526D01*
X184680434Y-64620488D01*
X184667091Y-64603833D01*
X184614166Y-64554134D01*
X184611369Y-64551423D01*
X184591034Y-64531088D01*
X184587547Y-64528383D01*
X184578671Y-64520801D01*
X184545394Y-64489552D01*
X184526793Y-64479326D01*
X184510532Y-64468645D01*
X184493764Y-64455638D01*
X184490771Y-64454343D01*
X184451869Y-64437508D01*
X184441379Y-64432369D01*
X184401367Y-64410372D01*
X184380800Y-64405091D01*
X184362398Y-64398791D01*
X184342924Y-64390364D01*
X184297837Y-64383223D01*
X184286398Y-64380854D01*
X184242178Y-64369500D01*
X184242177Y-64369500D01*
X184220955Y-64369500D01*
X184201556Y-64367973D01*
X184180596Y-64364653D01*
X184180595Y-64364653D01*
X184158558Y-64366736D01*
X184135139Y-64368950D01*
X184123470Y-64369500D01*
X181441088Y-64369500D01*
X181375115Y-64350493D01*
X181357691Y-64339544D01*
X181198056Y-64283686D01*
X181030000Y-64264750D01*
X180861943Y-64283686D01*
X180702307Y-64339545D01*
X180612352Y-64396067D01*
X180560264Y-64414293D01*
X180505426Y-64408114D01*
X180458700Y-64378754D01*
X180170413Y-64090467D01*
X180146374Y-64056588D01*
X180134874Y-64016670D01*
X180116313Y-63851943D01*
X180116313Y-63851941D01*
X180060456Y-63692310D01*
X179970477Y-63549110D01*
X179850890Y-63429523D01*
X179707690Y-63339544D01*
X179548059Y-63283687D01*
X179548058Y-63283686D01*
X179548056Y-63283686D01*
X179380000Y-63264750D01*
X179211943Y-63283686D01*
X179052310Y-63339544D01*
X178909108Y-63429524D01*
X178789524Y-63549108D01*
X178699544Y-63692310D01*
X178643686Y-63851943D01*
X178624750Y-64019999D01*
X154952131Y-64019999D01*
X154955226Y-63264750D01*
X154973033Y-58919999D01*
X179104340Y-58919999D01*
X179124936Y-59155407D01*
X179169709Y-59322501D01*
X179186097Y-59383663D01*
X179285965Y-59597830D01*
X179421505Y-59791401D01*
X179588599Y-59958495D01*
X179782170Y-60094035D01*
X179996337Y-60193903D01*
X180224592Y-60255063D01*
X180460000Y-60275659D01*
X180695408Y-60255063D01*
X180923663Y-60193903D01*
X181137830Y-60094035D01*
X181331401Y-59958495D01*
X181498495Y-59791401D01*
X181628426Y-59605839D01*
X181672743Y-59566975D01*
X181730000Y-59552964D01*
X181787257Y-59566975D01*
X181831573Y-59605839D01*
X181961505Y-59791401D01*
X182128599Y-59958495D01*
X182322170Y-60094035D01*
X182536337Y-60193903D01*
X182764592Y-60255063D01*
X183000000Y-60275659D01*
X183235408Y-60255063D01*
X183463663Y-60193903D01*
X183677830Y-60094035D01*
X183871401Y-59958495D01*
X184038495Y-59791401D01*
X184168426Y-59605839D01*
X184212743Y-59566975D01*
X184270000Y-59552964D01*
X184327257Y-59566975D01*
X184371573Y-59605839D01*
X184501505Y-59791401D01*
X184668599Y-59958495D01*
X184862170Y-60094035D01*
X185076337Y-60193903D01*
X185304592Y-60255063D01*
X185540000Y-60275659D01*
X185775408Y-60255063D01*
X185875874Y-60228143D01*
X185940059Y-60228143D01*
X185995647Y-60260237D01*
X186489197Y-60753787D01*
X186502098Y-60769889D01*
X186504212Y-60771874D01*
X186504214Y-60771877D01*
X186551561Y-60816339D01*
X186553240Y-60817916D01*
X186556036Y-60820626D01*
X186575530Y-60840120D01*
X186578704Y-60842582D01*
X186587568Y-60850153D01*
X186619418Y-60880062D01*
X186629914Y-60885832D01*
X186636974Y-60889714D01*
X186653231Y-60900392D01*
X186669064Y-60912674D01*
X186685185Y-60919649D01*
X186709156Y-60930023D01*
X186719643Y-60935160D01*
X186757908Y-60956197D01*
X186777316Y-60961180D01*
X186795710Y-60967478D01*
X186814105Y-60975438D01*
X186857254Y-60982271D01*
X186868680Y-60984638D01*
X186884222Y-60988629D01*
X186910980Y-60995500D01*
X186910981Y-60995500D01*
X186931016Y-60995500D01*
X186950413Y-60997026D01*
X186970196Y-61000160D01*
X187013674Y-60996050D01*
X187025344Y-60995500D01*
X190026253Y-60995500D01*
X190076688Y-61006220D01*
X190118401Y-61036526D01*
X190124129Y-61042888D01*
X190277270Y-61154151D01*
X190277271Y-61154151D01*
X190277272Y-61154152D01*
X190450197Y-61231144D01*
X190635352Y-61270500D01*
X190635354Y-61270500D01*
X190824646Y-61270500D01*
X190824648Y-61270500D01*
X190948083Y-61244262D01*
X191009803Y-61231144D01*
X191182730Y-61154151D01*
X191335871Y-61042888D01*
X191462533Y-60902216D01*
X191557179Y-60738284D01*
X191615674Y-60558256D01*
X191635460Y-60370000D01*
X191615674Y-60181744D01*
X191557179Y-60001716D01*
X191557179Y-60001715D01*
X191462533Y-59837783D01*
X191335870Y-59697110D01*
X191182730Y-59585848D01*
X191009802Y-59508855D01*
X190824648Y-59469500D01*
X190824646Y-59469500D01*
X190635354Y-59469500D01*
X190635352Y-59469500D01*
X190450197Y-59508855D01*
X190277272Y-59585847D01*
X190175176Y-59660024D01*
X190124129Y-59697112D01*
X190118401Y-59703473D01*
X190076688Y-59733780D01*
X190026253Y-59744500D01*
X189554500Y-59744500D01*
X189492500Y-59727887D01*
X189447113Y-59682500D01*
X189430500Y-59620500D01*
X189430499Y-58022130D01*
X189428489Y-58003430D01*
X189424091Y-57962517D01*
X189373796Y-57827669D01*
X189287546Y-57712454D01*
X189172331Y-57626204D01*
X189037483Y-57575909D01*
X188977873Y-57569500D01*
X188977869Y-57569500D01*
X187182130Y-57569500D01*
X187122515Y-57575909D01*
X186987669Y-57626204D01*
X186872454Y-57712454D01*
X186786204Y-57827669D01*
X186737189Y-57959083D01*
X186702209Y-58009462D01*
X186647365Y-58036915D01*
X186586072Y-58034726D01*
X186533326Y-58003430D01*
X186411404Y-57881508D01*
X186411401Y-57881505D01*
X186217830Y-57745965D01*
X186003663Y-57646097D01*
X185942502Y-57629709D01*
X185775407Y-57584936D01*
X185540000Y-57564340D01*
X185304592Y-57584936D01*
X185076336Y-57646097D01*
X184862170Y-57745965D01*
X184668598Y-57881505D01*
X184501505Y-58048598D01*
X184371575Y-58234159D01*
X184327257Y-58273025D01*
X184270000Y-58287036D01*
X184212743Y-58273025D01*
X184168425Y-58234159D01*
X184038494Y-58048598D01*
X183871404Y-57881508D01*
X183871401Y-57881505D01*
X183677830Y-57745965D01*
X183463663Y-57646097D01*
X183402502Y-57629709D01*
X183235407Y-57584936D01*
X183000000Y-57564340D01*
X182764592Y-57584936D01*
X182536336Y-57646097D01*
X182322170Y-57745965D01*
X182128598Y-57881505D01*
X181961505Y-58048598D01*
X181831575Y-58234159D01*
X181787257Y-58273025D01*
X181730000Y-58287036D01*
X181672743Y-58273025D01*
X181628425Y-58234159D01*
X181498494Y-58048598D01*
X181331404Y-57881508D01*
X181331401Y-57881505D01*
X181137830Y-57745965D01*
X180923663Y-57646097D01*
X180862502Y-57629709D01*
X180695407Y-57584936D01*
X180460000Y-57564340D01*
X180224592Y-57584936D01*
X179996336Y-57646097D01*
X179782170Y-57745965D01*
X179588598Y-57881505D01*
X179421505Y-58048598D01*
X179285965Y-58242170D01*
X179186097Y-58456336D01*
X179124936Y-58684592D01*
X179104340Y-58919999D01*
X154973033Y-58919999D01*
X154979493Y-57343651D01*
X154996302Y-57281820D01*
X155041732Y-57236635D01*
X155103649Y-57220160D01*
X157095786Y-57222754D01*
G37*
%TD.AperFunction*%
%TD*%
%TA.AperFunction,Conductor*%
%TO.N,GND*%
G36*
X155956931Y-42991428D02*
G01*
X193136161Y-43039839D01*
X193198093Y-43056506D01*
X193243414Y-43101886D01*
X193260000Y-43163839D01*
X193260000Y-55115839D01*
X193243360Y-55177886D01*
X193197907Y-55223280D01*
X193135840Y-55239838D01*
X178026934Y-55220191D01*
X154934347Y-55190161D01*
X154872268Y-55173409D01*
X154826925Y-55127821D01*
X154810509Y-55065655D01*
X154819504Y-52870820D01*
X154828860Y-52824076D01*
X154830382Y-52820383D01*
X154830383Y-52820383D01*
X154830500Y-52820099D01*
X154830541Y-52820000D01*
X154830541Y-52795446D01*
X154830500Y-52795240D01*
X154830500Y-50188264D01*
X154830501Y-50187756D01*
X154832131Y-49789999D01*
X178504750Y-49789999D01*
X178523686Y-49958056D01*
X178579544Y-50117690D01*
X178644998Y-50221859D01*
X178656395Y-50247252D01*
X178669061Y-50268670D01*
X178677621Y-50286143D01*
X178685431Y-50305869D01*
X178712267Y-50342808D01*
X178718673Y-50352560D01*
X178741919Y-50391865D01*
X178741921Y-50391867D01*
X178756925Y-50406871D01*
X178769564Y-50421669D01*
X178782037Y-50438837D01*
X178817212Y-50467936D01*
X178825854Y-50475800D01*
X180504235Y-52154181D01*
X180537717Y-52215489D01*
X180532746Y-52285167D01*
X180509874Y-52315739D01*
X180513138Y-52318183D01*
X180502455Y-52332452D01*
X180502454Y-52332454D01*
X180477368Y-52365965D01*
X180416204Y-52447669D01*
X180365909Y-52582516D01*
X180359500Y-52642130D01*
X180359500Y-54437869D01*
X180365909Y-54497484D01*
X180391056Y-54564907D01*
X180416204Y-54632331D01*
X180502454Y-54747546D01*
X180617669Y-54833796D01*
X180752517Y-54884091D01*
X180812127Y-54890500D01*
X182607872Y-54890499D01*
X182667483Y-54884091D01*
X182802331Y-54833796D01*
X182917546Y-54747546D01*
X183003796Y-54632331D01*
X183052810Y-54500916D01*
X183087789Y-54450537D01*
X183142634Y-54423084D01*
X183203927Y-54425273D01*
X183256673Y-54456569D01*
X183378599Y-54578495D01*
X183572170Y-54714035D01*
X183786337Y-54813903D01*
X184014592Y-54875063D01*
X184250000Y-54895659D01*
X184485408Y-54875063D01*
X184713663Y-54813903D01*
X184927830Y-54714035D01*
X185121401Y-54578495D01*
X185288495Y-54411401D01*
X185418426Y-54225839D01*
X185462743Y-54186975D01*
X185520000Y-54172964D01*
X185577257Y-54186975D01*
X185621573Y-54225839D01*
X185751505Y-54411401D01*
X185918599Y-54578495D01*
X186112170Y-54714035D01*
X186326337Y-54813903D01*
X186554592Y-54875063D01*
X186790000Y-54895659D01*
X187025408Y-54875063D01*
X187253663Y-54813903D01*
X187467830Y-54714035D01*
X187661401Y-54578495D01*
X187828495Y-54411401D01*
X187958732Y-54225402D01*
X188003048Y-54186539D01*
X188060305Y-54172528D01*
X188117562Y-54186539D01*
X188161880Y-54225404D01*
X188291893Y-54411081D01*
X188458918Y-54578106D01*
X188652423Y-54713600D01*
X188866507Y-54813430D01*
X189079999Y-54870635D01*
X189080000Y-54870636D01*
X189080000Y-53790000D01*
X189580000Y-53790000D01*
X189580000Y-54870635D01*
X189793492Y-54813430D01*
X190007576Y-54713600D01*
X190201081Y-54578106D01*
X190368106Y-54411081D01*
X190503600Y-54217576D01*
X190603430Y-54003492D01*
X190660636Y-53790000D01*
X189580000Y-53790000D01*
X189080000Y-53790000D01*
X189080000Y-52209364D01*
X189580000Y-52209364D01*
X189580000Y-53290000D01*
X190660636Y-53290000D01*
X190660635Y-53289999D01*
X190603430Y-53076507D01*
X190503599Y-52862421D01*
X190368109Y-52668921D01*
X190201081Y-52501893D01*
X190007576Y-52366399D01*
X189793492Y-52266569D01*
X189580000Y-52209364D01*
X189080000Y-52209364D01*
X189079999Y-52209364D01*
X188866507Y-52266569D01*
X188652421Y-52366400D01*
X188458921Y-52501890D01*
X188291893Y-52668918D01*
X188161880Y-52854596D01*
X188117562Y-52893461D01*
X188060305Y-52907472D01*
X188003048Y-52893461D01*
X187958730Y-52854595D01*
X187828495Y-52668599D01*
X187661401Y-52501505D01*
X187467830Y-52365965D01*
X187253663Y-52266097D01*
X187167138Y-52242913D01*
X187025407Y-52204936D01*
X186790000Y-52184340D01*
X186554591Y-52204936D01*
X186482009Y-52224384D01*
X186417823Y-52224384D01*
X186362236Y-52192290D01*
X185423476Y-51253530D01*
X185423473Y-51253526D01*
X184560434Y-50390488D01*
X184547091Y-50373833D01*
X184494166Y-50324134D01*
X184491369Y-50321423D01*
X184471034Y-50301088D01*
X184467547Y-50298383D01*
X184458671Y-50290801D01*
X184425394Y-50259552D01*
X184406793Y-50249326D01*
X184390532Y-50238645D01*
X184373764Y-50225638D01*
X184370771Y-50224343D01*
X184331869Y-50207508D01*
X184321379Y-50202369D01*
X184281367Y-50180372D01*
X184260800Y-50175091D01*
X184242398Y-50168791D01*
X184222924Y-50160364D01*
X184177837Y-50153223D01*
X184166398Y-50150854D01*
X184122178Y-50139500D01*
X184122177Y-50139500D01*
X184100955Y-50139500D01*
X184081556Y-50137973D01*
X184060596Y-50134653D01*
X184060595Y-50134653D01*
X184038558Y-50136736D01*
X184015139Y-50138950D01*
X184003470Y-50139500D01*
X181321088Y-50139500D01*
X181255115Y-50120493D01*
X181237691Y-50109544D01*
X181078056Y-50053686D01*
X180910000Y-50034750D01*
X180741943Y-50053686D01*
X180582307Y-50109545D01*
X180492352Y-50166067D01*
X180440264Y-50184293D01*
X180385426Y-50178114D01*
X180338700Y-50148754D01*
X180050413Y-49860467D01*
X180026374Y-49826588D01*
X180014874Y-49786670D01*
X179996313Y-49621943D01*
X179996313Y-49621941D01*
X179940456Y-49462310D01*
X179850477Y-49319110D01*
X179730890Y-49199523D01*
X179587690Y-49109544D01*
X179428059Y-49053687D01*
X179428058Y-49053686D01*
X179428056Y-49053686D01*
X179259999Y-49034750D01*
X179091943Y-49053686D01*
X178932310Y-49109544D01*
X178789108Y-49199524D01*
X178669524Y-49319108D01*
X178579544Y-49462310D01*
X178523686Y-49621943D01*
X178504750Y-49789999D01*
X154832131Y-49789999D01*
X154835226Y-49034750D01*
X154853033Y-44690000D01*
X178984340Y-44690000D01*
X179004936Y-44925407D01*
X179049709Y-45092502D01*
X179066097Y-45153663D01*
X179165965Y-45367830D01*
X179301505Y-45561401D01*
X179468599Y-45728495D01*
X179662170Y-45864035D01*
X179876337Y-45963903D01*
X180104591Y-46025062D01*
X180104592Y-46025063D01*
X180339999Y-46045659D01*
X180339999Y-46045658D01*
X180340000Y-46045659D01*
X180575408Y-46025063D01*
X180803663Y-45963903D01*
X181017830Y-45864035D01*
X181211401Y-45728495D01*
X181378495Y-45561401D01*
X181508426Y-45375839D01*
X181552743Y-45336975D01*
X181610000Y-45322964D01*
X181667257Y-45336975D01*
X181711573Y-45375839D01*
X181841505Y-45561401D01*
X182008599Y-45728495D01*
X182202170Y-45864035D01*
X182416337Y-45963903D01*
X182644591Y-46025062D01*
X182644592Y-46025063D01*
X182879999Y-46045659D01*
X182879999Y-46045658D01*
X182880000Y-46045659D01*
X183115408Y-46025063D01*
X183343663Y-45963903D01*
X183557830Y-45864035D01*
X183751401Y-45728495D01*
X183918495Y-45561401D01*
X184048426Y-45375839D01*
X184092743Y-45336975D01*
X184150000Y-45322964D01*
X184207257Y-45336975D01*
X184251573Y-45375839D01*
X184381505Y-45561401D01*
X184548599Y-45728495D01*
X184742170Y-45864035D01*
X184956337Y-45963903D01*
X185184591Y-46025062D01*
X185184592Y-46025063D01*
X185419999Y-46045659D01*
X185419999Y-46045658D01*
X185420000Y-46045659D01*
X185655408Y-46025063D01*
X185755874Y-45998143D01*
X185820059Y-45998143D01*
X185875647Y-46030237D01*
X186369197Y-46523787D01*
X186382098Y-46539889D01*
X186384212Y-46541874D01*
X186384214Y-46541877D01*
X186431561Y-46586339D01*
X186433240Y-46587916D01*
X186436036Y-46590626D01*
X186455530Y-46610120D01*
X186458704Y-46612582D01*
X186467568Y-46620153D01*
X186499418Y-46650062D01*
X186509914Y-46655832D01*
X186516974Y-46659714D01*
X186533231Y-46670392D01*
X186549064Y-46682674D01*
X186565185Y-46689649D01*
X186589156Y-46700023D01*
X186599643Y-46705160D01*
X186637908Y-46726197D01*
X186657316Y-46731180D01*
X186675710Y-46737478D01*
X186694105Y-46745438D01*
X186737254Y-46752271D01*
X186748680Y-46754638D01*
X186764222Y-46758629D01*
X186790980Y-46765500D01*
X186790981Y-46765500D01*
X186811016Y-46765500D01*
X186830413Y-46767026D01*
X186850196Y-46770160D01*
X186893674Y-46766050D01*
X186905344Y-46765500D01*
X189906253Y-46765500D01*
X189956688Y-46776220D01*
X189998401Y-46806526D01*
X190004129Y-46812888D01*
X190157270Y-46924151D01*
X190157271Y-46924151D01*
X190157272Y-46924152D01*
X190330197Y-47001144D01*
X190515352Y-47040500D01*
X190515354Y-47040500D01*
X190704646Y-47040500D01*
X190704648Y-47040500D01*
X190828083Y-47014262D01*
X190889803Y-47001144D01*
X191062730Y-46924151D01*
X191215871Y-46812888D01*
X191342533Y-46672216D01*
X191437179Y-46508284D01*
X191495674Y-46328256D01*
X191515460Y-46140000D01*
X191495674Y-45951744D01*
X191437179Y-45771716D01*
X191437179Y-45771715D01*
X191342533Y-45607783D01*
X191215870Y-45467110D01*
X191062730Y-45355848D01*
X190889802Y-45278855D01*
X190704648Y-45239500D01*
X190704646Y-45239500D01*
X190515354Y-45239500D01*
X190515352Y-45239500D01*
X190330197Y-45278855D01*
X190157272Y-45355847D01*
X190055175Y-45430024D01*
X190004129Y-45467112D01*
X189998401Y-45473473D01*
X189956688Y-45503780D01*
X189906253Y-45514500D01*
X189434500Y-45514500D01*
X189372500Y-45497887D01*
X189327113Y-45452500D01*
X189310500Y-45390500D01*
X189310499Y-43792130D01*
X189308489Y-43773430D01*
X189304091Y-43732517D01*
X189253796Y-43597669D01*
X189167546Y-43482454D01*
X189052331Y-43396204D01*
X188917483Y-43345909D01*
X188857873Y-43339500D01*
X188857869Y-43339500D01*
X187062130Y-43339500D01*
X187002515Y-43345909D01*
X186867669Y-43396204D01*
X186752454Y-43482454D01*
X186666204Y-43597669D01*
X186617189Y-43729083D01*
X186582209Y-43779462D01*
X186527365Y-43806915D01*
X186466072Y-43804726D01*
X186413326Y-43773430D01*
X186291404Y-43651508D01*
X186291401Y-43651505D01*
X186097830Y-43515965D01*
X185883663Y-43416097D01*
X185822501Y-43399709D01*
X185655407Y-43354936D01*
X185420000Y-43334340D01*
X185184592Y-43354936D01*
X184956336Y-43416097D01*
X184742170Y-43515965D01*
X184548598Y-43651505D01*
X184381505Y-43818598D01*
X184251575Y-44004159D01*
X184207257Y-44043025D01*
X184150000Y-44057036D01*
X184092743Y-44043025D01*
X184048425Y-44004159D01*
X183918494Y-43818598D01*
X183751404Y-43651508D01*
X183751401Y-43651505D01*
X183557830Y-43515965D01*
X183343663Y-43416097D01*
X183282501Y-43399709D01*
X183115407Y-43354936D01*
X182880000Y-43334340D01*
X182644592Y-43354936D01*
X182416336Y-43416097D01*
X182202170Y-43515965D01*
X182008598Y-43651505D01*
X181841505Y-43818598D01*
X181711575Y-44004159D01*
X181667257Y-44043025D01*
X181610000Y-44057036D01*
X181552743Y-44043025D01*
X181508425Y-44004159D01*
X181378494Y-43818598D01*
X181211404Y-43651508D01*
X181211401Y-43651505D01*
X181017830Y-43515965D01*
X180803663Y-43416097D01*
X180742501Y-43399709D01*
X180575407Y-43354936D01*
X180340000Y-43334340D01*
X180104592Y-43354936D01*
X179876336Y-43416097D01*
X179662170Y-43515965D01*
X179468598Y-43651505D01*
X179301505Y-43818598D01*
X179165965Y-44012170D01*
X179066097Y-44226336D01*
X179004936Y-44454592D01*
X178984340Y-44690000D01*
X154853033Y-44690000D01*
X154859493Y-43113652D01*
X154876302Y-43051821D01*
X154921732Y-43006636D01*
X154983652Y-42990161D01*
X155956931Y-42991428D01*
G37*
%TD.AperFunction*%
%TD*%
%TA.AperFunction,Conductor*%
%TO.N,GND*%
G36*
X115506931Y-42941428D02*
G01*
X152686161Y-42989839D01*
X152748093Y-43006506D01*
X152793414Y-43051886D01*
X152810000Y-43113839D01*
X152810000Y-55065839D01*
X152793360Y-55127886D01*
X152747907Y-55173280D01*
X152685840Y-55189838D01*
X137576934Y-55170191D01*
X114484347Y-55140161D01*
X114422268Y-55123409D01*
X114376925Y-55077821D01*
X114360509Y-55015655D01*
X114382131Y-49740000D01*
X138054750Y-49740000D01*
X138073686Y-49908056D01*
X138129544Y-50067690D01*
X138194998Y-50171859D01*
X138206395Y-50197252D01*
X138219061Y-50218670D01*
X138227621Y-50236143D01*
X138235431Y-50255869D01*
X138262267Y-50292808D01*
X138268673Y-50302560D01*
X138291919Y-50341865D01*
X138291921Y-50341867D01*
X138306925Y-50356871D01*
X138319564Y-50371669D01*
X138332037Y-50388837D01*
X138367212Y-50417936D01*
X138375854Y-50425800D01*
X140054235Y-52104181D01*
X140087717Y-52165489D01*
X140082746Y-52235167D01*
X140059874Y-52265739D01*
X140063138Y-52268183D01*
X140052455Y-52282452D01*
X140052454Y-52282454D01*
X140027368Y-52315965D01*
X139966204Y-52397669D01*
X139915909Y-52532516D01*
X139909500Y-52592130D01*
X139909500Y-54387869D01*
X139915909Y-54447484D01*
X139941056Y-54514906D01*
X139966204Y-54582331D01*
X140052454Y-54697546D01*
X140167669Y-54783796D01*
X140302517Y-54834091D01*
X140362127Y-54840500D01*
X142157872Y-54840499D01*
X142217483Y-54834091D01*
X142352331Y-54783796D01*
X142467546Y-54697546D01*
X142553796Y-54582331D01*
X142602810Y-54450916D01*
X142637789Y-54400537D01*
X142692634Y-54373084D01*
X142753927Y-54375273D01*
X142806673Y-54406568D01*
X142928599Y-54528495D01*
X143122170Y-54664035D01*
X143336337Y-54763903D01*
X143564592Y-54825063D01*
X143800000Y-54845659D01*
X144035408Y-54825063D01*
X144263663Y-54763903D01*
X144477830Y-54664035D01*
X144671401Y-54528495D01*
X144838495Y-54361401D01*
X144968426Y-54175839D01*
X145012743Y-54136975D01*
X145070000Y-54122964D01*
X145127257Y-54136975D01*
X145171573Y-54175839D01*
X145301505Y-54361401D01*
X145468599Y-54528495D01*
X145662170Y-54664035D01*
X145876337Y-54763903D01*
X146104592Y-54825063D01*
X146340000Y-54845659D01*
X146575408Y-54825063D01*
X146803663Y-54763903D01*
X147017830Y-54664035D01*
X147211401Y-54528495D01*
X147378495Y-54361401D01*
X147508732Y-54175402D01*
X147553048Y-54136539D01*
X147610305Y-54122528D01*
X147667562Y-54136539D01*
X147711880Y-54175404D01*
X147841893Y-54361081D01*
X148008918Y-54528106D01*
X148202423Y-54663600D01*
X148416507Y-54763430D01*
X148629999Y-54820635D01*
X148630000Y-54820636D01*
X148630000Y-53740000D01*
X149130000Y-53740000D01*
X149130000Y-54820635D01*
X149343492Y-54763430D01*
X149557576Y-54663600D01*
X149751081Y-54528106D01*
X149918106Y-54361081D01*
X150053600Y-54167576D01*
X150153430Y-53953492D01*
X150210636Y-53740000D01*
X149130000Y-53740000D01*
X148630000Y-53740000D01*
X148630000Y-52159364D01*
X149130000Y-52159364D01*
X149130000Y-53240000D01*
X150210636Y-53240000D01*
X150210635Y-53239999D01*
X150153430Y-53026507D01*
X150053599Y-52812421D01*
X149918109Y-52618921D01*
X149751081Y-52451893D01*
X149557576Y-52316399D01*
X149343492Y-52216569D01*
X149130000Y-52159364D01*
X148630000Y-52159364D01*
X148629999Y-52159364D01*
X148416507Y-52216569D01*
X148202421Y-52316400D01*
X148008921Y-52451890D01*
X147841893Y-52618918D01*
X147711880Y-52804596D01*
X147667562Y-52843461D01*
X147610305Y-52857472D01*
X147553048Y-52843461D01*
X147508730Y-52804595D01*
X147378494Y-52618598D01*
X147211404Y-52451508D01*
X147211404Y-52451507D01*
X147211401Y-52451505D01*
X147017830Y-52315965D01*
X146803663Y-52216097D01*
X146717138Y-52192913D01*
X146575407Y-52154936D01*
X146340000Y-52134340D01*
X146104591Y-52154936D01*
X146032009Y-52174384D01*
X145967823Y-52174384D01*
X145912236Y-52142290D01*
X144110434Y-50340488D01*
X144097091Y-50323833D01*
X144044166Y-50274134D01*
X144041369Y-50271423D01*
X144021034Y-50251088D01*
X144017547Y-50248383D01*
X144008671Y-50240801D01*
X143975394Y-50209552D01*
X143956793Y-50199326D01*
X143940532Y-50188645D01*
X143923764Y-50175638D01*
X143920771Y-50174343D01*
X143881869Y-50157508D01*
X143871379Y-50152369D01*
X143831367Y-50130372D01*
X143810800Y-50125091D01*
X143792398Y-50118791D01*
X143772924Y-50110364D01*
X143727837Y-50103223D01*
X143716398Y-50100854D01*
X143672178Y-50089500D01*
X143672177Y-50089500D01*
X143650955Y-50089500D01*
X143631556Y-50087973D01*
X143610596Y-50084653D01*
X143610595Y-50084653D01*
X143588558Y-50086736D01*
X143565139Y-50088950D01*
X143553470Y-50089500D01*
X140871088Y-50089500D01*
X140805115Y-50070493D01*
X140787691Y-50059544D01*
X140628056Y-50003686D01*
X140460000Y-49984750D01*
X140291943Y-50003686D01*
X140132307Y-50059545D01*
X140042352Y-50116067D01*
X139990264Y-50134293D01*
X139935426Y-50128114D01*
X139888700Y-50098754D01*
X139600413Y-49810467D01*
X139576374Y-49776588D01*
X139564874Y-49736670D01*
X139546313Y-49571943D01*
X139546313Y-49571941D01*
X139490456Y-49412310D01*
X139400477Y-49269110D01*
X139280890Y-49149523D01*
X139137690Y-49059544D01*
X138978059Y-49003687D01*
X138978058Y-49003686D01*
X138978056Y-49003686D01*
X138810000Y-48984750D01*
X138641943Y-49003686D01*
X138482310Y-49059544D01*
X138339108Y-49149524D01*
X138219524Y-49269108D01*
X138129544Y-49412310D01*
X138073686Y-49571943D01*
X138054750Y-49740000D01*
X114382131Y-49740000D01*
X114403033Y-44639999D01*
X138534340Y-44639999D01*
X138554936Y-44875407D01*
X138599709Y-45042501D01*
X138616097Y-45103663D01*
X138715965Y-45317830D01*
X138851505Y-45511401D01*
X139018599Y-45678495D01*
X139212170Y-45814035D01*
X139426337Y-45913903D01*
X139654592Y-45975063D01*
X139890000Y-45995659D01*
X140125408Y-45975063D01*
X140353663Y-45913903D01*
X140567830Y-45814035D01*
X140761401Y-45678495D01*
X140928495Y-45511401D01*
X141058426Y-45325839D01*
X141102743Y-45286975D01*
X141160000Y-45272964D01*
X141217257Y-45286975D01*
X141261573Y-45325839D01*
X141391505Y-45511401D01*
X141558599Y-45678495D01*
X141752170Y-45814035D01*
X141966337Y-45913903D01*
X142194592Y-45975063D01*
X142430000Y-45995659D01*
X142665408Y-45975063D01*
X142893663Y-45913903D01*
X143107830Y-45814035D01*
X143301401Y-45678495D01*
X143468495Y-45511401D01*
X143598426Y-45325839D01*
X143642743Y-45286975D01*
X143700000Y-45272964D01*
X143757257Y-45286975D01*
X143801573Y-45325839D01*
X143931505Y-45511401D01*
X144098599Y-45678495D01*
X144292170Y-45814035D01*
X144506337Y-45913903D01*
X144734592Y-45975063D01*
X144970000Y-45995659D01*
X145205408Y-45975063D01*
X145305874Y-45948143D01*
X145370059Y-45948143D01*
X145425647Y-45980237D01*
X145919197Y-46473787D01*
X145932098Y-46489889D01*
X145934212Y-46491874D01*
X145934214Y-46491877D01*
X145981561Y-46536339D01*
X145983240Y-46537916D01*
X145986035Y-46540625D01*
X146005530Y-46560120D01*
X146008704Y-46562582D01*
X146017568Y-46570153D01*
X146049418Y-46600062D01*
X146059914Y-46605832D01*
X146066974Y-46609714D01*
X146083231Y-46620392D01*
X146099064Y-46632674D01*
X146115185Y-46639649D01*
X146139156Y-46650023D01*
X146149643Y-46655160D01*
X146187908Y-46676197D01*
X146207316Y-46681180D01*
X146225710Y-46687478D01*
X146244105Y-46695438D01*
X146287254Y-46702271D01*
X146298680Y-46704638D01*
X146314222Y-46708629D01*
X146340980Y-46715500D01*
X146340981Y-46715500D01*
X146361016Y-46715500D01*
X146380413Y-46717026D01*
X146400196Y-46720160D01*
X146443674Y-46716050D01*
X146455344Y-46715500D01*
X149456253Y-46715500D01*
X149506688Y-46726220D01*
X149548401Y-46756526D01*
X149554129Y-46762888D01*
X149707270Y-46874151D01*
X149707271Y-46874151D01*
X149707272Y-46874152D01*
X149880197Y-46951144D01*
X150065352Y-46990500D01*
X150065354Y-46990500D01*
X150254646Y-46990500D01*
X150254648Y-46990500D01*
X150378083Y-46964262D01*
X150439803Y-46951144D01*
X150612730Y-46874151D01*
X150765871Y-46762888D01*
X150892533Y-46622216D01*
X150987179Y-46458284D01*
X151045674Y-46278256D01*
X151065460Y-46090000D01*
X151045674Y-45901744D01*
X150987179Y-45721716D01*
X150987179Y-45721715D01*
X150892533Y-45557783D01*
X150765870Y-45417110D01*
X150612730Y-45305848D01*
X150439802Y-45228855D01*
X150254648Y-45189500D01*
X150254646Y-45189500D01*
X150065354Y-45189500D01*
X150065352Y-45189500D01*
X149880197Y-45228855D01*
X149707272Y-45305847D01*
X149605175Y-45380024D01*
X149554129Y-45417112D01*
X149548401Y-45423473D01*
X149506688Y-45453780D01*
X149456253Y-45464500D01*
X148984500Y-45464500D01*
X148922500Y-45447887D01*
X148877113Y-45402500D01*
X148860500Y-45340500D01*
X148860499Y-43742130D01*
X148858489Y-43723430D01*
X148854091Y-43682517D01*
X148803796Y-43547669D01*
X148717546Y-43432454D01*
X148602331Y-43346204D01*
X148467483Y-43295909D01*
X148407873Y-43289500D01*
X148407869Y-43289500D01*
X146612130Y-43289500D01*
X146552515Y-43295909D01*
X146417669Y-43346204D01*
X146302454Y-43432454D01*
X146216204Y-43547669D01*
X146167189Y-43679083D01*
X146132209Y-43729462D01*
X146077365Y-43756915D01*
X146016072Y-43754726D01*
X145963326Y-43723430D01*
X145841404Y-43601508D01*
X145841401Y-43601505D01*
X145647830Y-43465965D01*
X145433663Y-43366097D01*
X145372502Y-43349709D01*
X145205407Y-43304936D01*
X144970000Y-43284340D01*
X144734592Y-43304936D01*
X144506336Y-43366097D01*
X144292170Y-43465965D01*
X144098598Y-43601505D01*
X143931505Y-43768598D01*
X143801575Y-43954159D01*
X143757257Y-43993025D01*
X143700000Y-44007036D01*
X143642743Y-43993025D01*
X143598425Y-43954159D01*
X143468494Y-43768598D01*
X143301404Y-43601508D01*
X143301401Y-43601505D01*
X143107830Y-43465965D01*
X142893663Y-43366097D01*
X142832502Y-43349709D01*
X142665407Y-43304936D01*
X142430000Y-43284340D01*
X142194592Y-43304936D01*
X141966336Y-43366097D01*
X141752170Y-43465965D01*
X141558598Y-43601505D01*
X141391505Y-43768598D01*
X141261575Y-43954159D01*
X141217257Y-43993025D01*
X141160000Y-44007036D01*
X141102743Y-43993025D01*
X141058425Y-43954159D01*
X140928494Y-43768598D01*
X140761404Y-43601508D01*
X140761401Y-43601505D01*
X140567830Y-43465965D01*
X140353663Y-43366097D01*
X140292502Y-43349709D01*
X140125407Y-43304936D01*
X139890000Y-43284340D01*
X139654592Y-43304936D01*
X139426336Y-43366097D01*
X139212170Y-43465965D01*
X139018598Y-43601505D01*
X138851505Y-43768598D01*
X138715965Y-43962170D01*
X138616097Y-44176336D01*
X138554936Y-44404592D01*
X138534340Y-44639999D01*
X114403033Y-44639999D01*
X114409493Y-43063652D01*
X114426302Y-43001821D01*
X114471732Y-42956636D01*
X114533652Y-42940161D01*
X115506931Y-42941428D01*
G37*
%TD.AperFunction*%
%TD*%
%TA.AperFunction,Conductor*%
%TO.N,GND*%
G36*
X116645786Y-57172754D02*
G01*
X116693161Y-57182229D01*
X116713357Y-57195738D01*
X116724616Y-57200382D01*
X116724617Y-57200383D01*
X116725000Y-57200541D01*
X116725002Y-57200539D01*
X116749616Y-57200524D01*
X116749616Y-57200528D01*
X116749760Y-57200500D01*
X137954000Y-57200500D01*
X152806161Y-57219839D01*
X152868093Y-57236506D01*
X152913414Y-57281886D01*
X152930000Y-57343839D01*
X152930000Y-69295839D01*
X152913360Y-69357886D01*
X152867907Y-69403280D01*
X152805840Y-69419838D01*
X137696934Y-69400191D01*
X114604347Y-69370161D01*
X114542268Y-69353409D01*
X114496925Y-69307821D01*
X114480509Y-69245655D01*
X114502131Y-63970000D01*
X138174750Y-63970000D01*
X138193686Y-64138056D01*
X138249544Y-64297690D01*
X138314998Y-64401859D01*
X138326395Y-64427252D01*
X138339061Y-64448670D01*
X138347621Y-64466143D01*
X138355431Y-64485869D01*
X138382267Y-64522808D01*
X138388673Y-64532560D01*
X138411919Y-64571865D01*
X138411921Y-64571867D01*
X138426925Y-64586871D01*
X138439564Y-64601669D01*
X138452037Y-64618837D01*
X138487212Y-64647936D01*
X138495854Y-64655800D01*
X140174235Y-66334181D01*
X140207717Y-66395489D01*
X140202746Y-66465167D01*
X140179874Y-66495739D01*
X140183138Y-66498183D01*
X140172455Y-66512452D01*
X140172454Y-66512454D01*
X140147368Y-66545965D01*
X140086204Y-66627669D01*
X140035909Y-66762516D01*
X140029500Y-66822130D01*
X140029500Y-68617869D01*
X140035909Y-68677484D01*
X140061056Y-68744907D01*
X140086204Y-68812331D01*
X140172454Y-68927546D01*
X140287669Y-69013796D01*
X140422517Y-69064091D01*
X140482127Y-69070500D01*
X142277872Y-69070499D01*
X142337483Y-69064091D01*
X142472331Y-69013796D01*
X142587546Y-68927546D01*
X142673796Y-68812331D01*
X142722810Y-68680916D01*
X142757789Y-68630537D01*
X142812634Y-68603084D01*
X142873927Y-68605273D01*
X142926673Y-68636569D01*
X143048599Y-68758495D01*
X143242170Y-68894035D01*
X143456337Y-68993903D01*
X143684592Y-69055063D01*
X143920000Y-69075659D01*
X144155408Y-69055063D01*
X144383663Y-68993903D01*
X144597830Y-68894035D01*
X144791401Y-68758495D01*
X144958495Y-68591401D01*
X145088426Y-68405839D01*
X145132743Y-68366975D01*
X145190000Y-68352964D01*
X145247257Y-68366975D01*
X145291573Y-68405839D01*
X145421505Y-68591401D01*
X145588599Y-68758495D01*
X145782170Y-68894035D01*
X145996337Y-68993903D01*
X146224592Y-69055063D01*
X146460000Y-69075659D01*
X146695408Y-69055063D01*
X146923663Y-68993903D01*
X147137830Y-68894035D01*
X147331401Y-68758495D01*
X147498495Y-68591401D01*
X147628732Y-68405402D01*
X147673048Y-68366539D01*
X147730305Y-68352528D01*
X147787562Y-68366539D01*
X147831880Y-68405404D01*
X147961893Y-68591081D01*
X148128918Y-68758106D01*
X148322423Y-68893600D01*
X148536507Y-68993430D01*
X148749999Y-69050635D01*
X148750000Y-69050636D01*
X148750000Y-67970000D01*
X149250000Y-67970000D01*
X149250000Y-69050635D01*
X149463492Y-68993430D01*
X149677576Y-68893600D01*
X149871081Y-68758106D01*
X150038106Y-68591081D01*
X150173600Y-68397576D01*
X150273430Y-68183492D01*
X150330636Y-67970000D01*
X149250000Y-67970000D01*
X148750000Y-67970000D01*
X148750000Y-66389364D01*
X149250000Y-66389364D01*
X149250000Y-67470000D01*
X150330636Y-67470000D01*
X150330635Y-67469999D01*
X150273430Y-67256507D01*
X150173599Y-67042421D01*
X150038109Y-66848921D01*
X149871081Y-66681893D01*
X149677576Y-66546399D01*
X149463492Y-66446569D01*
X149250000Y-66389364D01*
X148750000Y-66389364D01*
X148749999Y-66389364D01*
X148536507Y-66446569D01*
X148322421Y-66546400D01*
X148128921Y-66681890D01*
X147961893Y-66848918D01*
X147831880Y-67034596D01*
X147787562Y-67073461D01*
X147730305Y-67087472D01*
X147673048Y-67073461D01*
X147628730Y-67034595D01*
X147498494Y-66848598D01*
X147331404Y-66681508D01*
X147331401Y-66681505D01*
X147137830Y-66545965D01*
X146923663Y-66446097D01*
X146837138Y-66422913D01*
X146695407Y-66384936D01*
X146460000Y-66364340D01*
X146224591Y-66384936D01*
X146152009Y-66404384D01*
X146087823Y-66404384D01*
X146032236Y-66372290D01*
X144230434Y-64570488D01*
X144217091Y-64553833D01*
X144164166Y-64504134D01*
X144161369Y-64501423D01*
X144141034Y-64481088D01*
X144137547Y-64478383D01*
X144128671Y-64470801D01*
X144095394Y-64439552D01*
X144076793Y-64429326D01*
X144060532Y-64418645D01*
X144043764Y-64405638D01*
X144040771Y-64404343D01*
X144001869Y-64387508D01*
X143991379Y-64382369D01*
X143951367Y-64360372D01*
X143930800Y-64355091D01*
X143912398Y-64348791D01*
X143892924Y-64340364D01*
X143847837Y-64333223D01*
X143836398Y-64330854D01*
X143792178Y-64319500D01*
X143792177Y-64319500D01*
X143770955Y-64319500D01*
X143751556Y-64317973D01*
X143730596Y-64314653D01*
X143730595Y-64314653D01*
X143708558Y-64316736D01*
X143685139Y-64318950D01*
X143673470Y-64319500D01*
X140991088Y-64319500D01*
X140925115Y-64300493D01*
X140907691Y-64289544D01*
X140748056Y-64233686D01*
X140580000Y-64214750D01*
X140411943Y-64233686D01*
X140252307Y-64289545D01*
X140162352Y-64346067D01*
X140110264Y-64364293D01*
X140055426Y-64358114D01*
X140008700Y-64328754D01*
X139720413Y-64040467D01*
X139696374Y-64006588D01*
X139684874Y-63966670D01*
X139666313Y-63801943D01*
X139666313Y-63801941D01*
X139610456Y-63642310D01*
X139520477Y-63499110D01*
X139400890Y-63379523D01*
X139257690Y-63289544D01*
X139098059Y-63233687D01*
X139098058Y-63233686D01*
X139098056Y-63233686D01*
X138930000Y-63214750D01*
X138761943Y-63233686D01*
X138602310Y-63289544D01*
X138459108Y-63379524D01*
X138339524Y-63499108D01*
X138249544Y-63642310D01*
X138193686Y-63801943D01*
X138174750Y-63970000D01*
X114502131Y-63970000D01*
X114523033Y-58869999D01*
X138654340Y-58869999D01*
X138674936Y-59105407D01*
X138719709Y-59272502D01*
X138736097Y-59333663D01*
X138835965Y-59547830D01*
X138971505Y-59741401D01*
X139138599Y-59908495D01*
X139332170Y-60044035D01*
X139546337Y-60143903D01*
X139774592Y-60205063D01*
X140010000Y-60225659D01*
X140245408Y-60205063D01*
X140473663Y-60143903D01*
X140687830Y-60044035D01*
X140881401Y-59908495D01*
X141048495Y-59741401D01*
X141178426Y-59555839D01*
X141222743Y-59516975D01*
X141280000Y-59502964D01*
X141337257Y-59516975D01*
X141381573Y-59555839D01*
X141511505Y-59741401D01*
X141678599Y-59908495D01*
X141872170Y-60044035D01*
X142086337Y-60143903D01*
X142314592Y-60205063D01*
X142550000Y-60225659D01*
X142785408Y-60205063D01*
X143013663Y-60143903D01*
X143227830Y-60044035D01*
X143421401Y-59908495D01*
X143588495Y-59741401D01*
X143718426Y-59555839D01*
X143762743Y-59516975D01*
X143820000Y-59502964D01*
X143877257Y-59516975D01*
X143921573Y-59555839D01*
X144051505Y-59741401D01*
X144218599Y-59908495D01*
X144412170Y-60044035D01*
X144626337Y-60143903D01*
X144854592Y-60205063D01*
X145090000Y-60225659D01*
X145325408Y-60205063D01*
X145425874Y-60178143D01*
X145490059Y-60178143D01*
X145545647Y-60210237D01*
X146039197Y-60703787D01*
X146052098Y-60719889D01*
X146054212Y-60721874D01*
X146054214Y-60721877D01*
X146101561Y-60766339D01*
X146103240Y-60767916D01*
X146106036Y-60770626D01*
X146125530Y-60790120D01*
X146128704Y-60792582D01*
X146137568Y-60800153D01*
X146169418Y-60830062D01*
X146179914Y-60835832D01*
X146186974Y-60839714D01*
X146203231Y-60850392D01*
X146219064Y-60862674D01*
X146235185Y-60869649D01*
X146259156Y-60880023D01*
X146269643Y-60885160D01*
X146307908Y-60906197D01*
X146327316Y-60911180D01*
X146345710Y-60917478D01*
X146364105Y-60925438D01*
X146407254Y-60932271D01*
X146418680Y-60934638D01*
X146434222Y-60938629D01*
X146460980Y-60945500D01*
X146460981Y-60945500D01*
X146481016Y-60945500D01*
X146500413Y-60947026D01*
X146520196Y-60950160D01*
X146563674Y-60946050D01*
X146575344Y-60945500D01*
X149576253Y-60945500D01*
X149626688Y-60956220D01*
X149668401Y-60986526D01*
X149674129Y-60992888D01*
X149827270Y-61104151D01*
X149827271Y-61104151D01*
X149827272Y-61104152D01*
X150000197Y-61181144D01*
X150185352Y-61220500D01*
X150185354Y-61220500D01*
X150374646Y-61220500D01*
X150374648Y-61220500D01*
X150498083Y-61194262D01*
X150559803Y-61181144D01*
X150732730Y-61104151D01*
X150885871Y-60992888D01*
X151012533Y-60852216D01*
X151107179Y-60688284D01*
X151165674Y-60508256D01*
X151185460Y-60320000D01*
X151165674Y-60131744D01*
X151107179Y-59951716D01*
X151107179Y-59951715D01*
X151012533Y-59787783D01*
X150885870Y-59647110D01*
X150732730Y-59535848D01*
X150559802Y-59458855D01*
X150374648Y-59419500D01*
X150374646Y-59419500D01*
X150185354Y-59419500D01*
X150185352Y-59419500D01*
X150000197Y-59458855D01*
X149827272Y-59535847D01*
X149725175Y-59610024D01*
X149674129Y-59647112D01*
X149668401Y-59653473D01*
X149626688Y-59683780D01*
X149576253Y-59694500D01*
X149104500Y-59694500D01*
X149042500Y-59677887D01*
X148997113Y-59632500D01*
X148980500Y-59570500D01*
X148980499Y-57972130D01*
X148978489Y-57953430D01*
X148974091Y-57912517D01*
X148923796Y-57777669D01*
X148837546Y-57662454D01*
X148722331Y-57576204D01*
X148587483Y-57525909D01*
X148527873Y-57519500D01*
X148527869Y-57519500D01*
X146732130Y-57519500D01*
X146672515Y-57525909D01*
X146537669Y-57576204D01*
X146422454Y-57662454D01*
X146336204Y-57777669D01*
X146287189Y-57909083D01*
X146252209Y-57959462D01*
X146197365Y-57986915D01*
X146136072Y-57984726D01*
X146083326Y-57953430D01*
X145961404Y-57831508D01*
X145961401Y-57831505D01*
X145767830Y-57695965D01*
X145553663Y-57596097D01*
X145492502Y-57579709D01*
X145325407Y-57534936D01*
X145090000Y-57514340D01*
X144854592Y-57534936D01*
X144626336Y-57596097D01*
X144412170Y-57695965D01*
X144218598Y-57831505D01*
X144051505Y-57998598D01*
X143921575Y-58184159D01*
X143877257Y-58223025D01*
X143820000Y-58237036D01*
X143762743Y-58223025D01*
X143718425Y-58184159D01*
X143588494Y-57998598D01*
X143421404Y-57831508D01*
X143421401Y-57831505D01*
X143227830Y-57695965D01*
X143013663Y-57596097D01*
X142952502Y-57579709D01*
X142785407Y-57534936D01*
X142550000Y-57514340D01*
X142314592Y-57534936D01*
X142086336Y-57596097D01*
X141872170Y-57695965D01*
X141678598Y-57831505D01*
X141511505Y-57998598D01*
X141381575Y-58184159D01*
X141337257Y-58223025D01*
X141280000Y-58237036D01*
X141222743Y-58223025D01*
X141178425Y-58184159D01*
X141048494Y-57998598D01*
X140881404Y-57831508D01*
X140881401Y-57831505D01*
X140687830Y-57695965D01*
X140473663Y-57596097D01*
X140412502Y-57579709D01*
X140245407Y-57534936D01*
X140010000Y-57514340D01*
X139774592Y-57534936D01*
X139546336Y-57596097D01*
X139332170Y-57695965D01*
X139138598Y-57831505D01*
X138971505Y-57998598D01*
X138835965Y-58192170D01*
X138736097Y-58406336D01*
X138674936Y-58634592D01*
X138654340Y-58869999D01*
X114523033Y-58869999D01*
X114529493Y-57293651D01*
X114546302Y-57231820D01*
X114591732Y-57186635D01*
X114653649Y-57170160D01*
X116645786Y-57172754D01*
G37*
%TD.AperFunction*%
%TD*%
%TA.AperFunction,Conductor*%
%TO.N,GND*%
G36*
X157345786Y-100072754D02*
G01*
X157393161Y-100082229D01*
X157413357Y-100095738D01*
X157424616Y-100100382D01*
X157424617Y-100100383D01*
X157425000Y-100100541D01*
X157425002Y-100100539D01*
X157449616Y-100100524D01*
X157449616Y-100100528D01*
X157449760Y-100100500D01*
X178654000Y-100100500D01*
X193506161Y-100119839D01*
X193568093Y-100136506D01*
X193613414Y-100181886D01*
X193630000Y-100243839D01*
X193630000Y-112195839D01*
X193613360Y-112257886D01*
X193567907Y-112303280D01*
X193505840Y-112319838D01*
X178396934Y-112300191D01*
X155304347Y-112270161D01*
X155242268Y-112253409D01*
X155196925Y-112207821D01*
X155180509Y-112145655D01*
X155189504Y-109950820D01*
X155198860Y-109904076D01*
X155200382Y-109900383D01*
X155200383Y-109900383D01*
X155200500Y-109900099D01*
X155200541Y-109900000D01*
X155200541Y-109875446D01*
X155200500Y-109875240D01*
X155200500Y-107268264D01*
X155200501Y-107267756D01*
X155202131Y-106870000D01*
X178874750Y-106870000D01*
X178893686Y-107038056D01*
X178949544Y-107197690D01*
X179014998Y-107301859D01*
X179026395Y-107327252D01*
X179039061Y-107348670D01*
X179047621Y-107366143D01*
X179055431Y-107385869D01*
X179082267Y-107422808D01*
X179088673Y-107432560D01*
X179111919Y-107471865D01*
X179111921Y-107471867D01*
X179126925Y-107486871D01*
X179139564Y-107501669D01*
X179152037Y-107518837D01*
X179187212Y-107547936D01*
X179195854Y-107555800D01*
X180874235Y-109234181D01*
X180907717Y-109295489D01*
X180902746Y-109365167D01*
X180879874Y-109395739D01*
X180883138Y-109398183D01*
X180872455Y-109412452D01*
X180872454Y-109412454D01*
X180847368Y-109445965D01*
X180786204Y-109527669D01*
X180735909Y-109662516D01*
X180729500Y-109722130D01*
X180729500Y-111517869D01*
X180735909Y-111577484D01*
X180761056Y-111644907D01*
X180786204Y-111712331D01*
X180872454Y-111827546D01*
X180987669Y-111913796D01*
X181122517Y-111964091D01*
X181182127Y-111970500D01*
X182977872Y-111970499D01*
X183037483Y-111964091D01*
X183172331Y-111913796D01*
X183287546Y-111827546D01*
X183373796Y-111712331D01*
X183422810Y-111580916D01*
X183457789Y-111530537D01*
X183512634Y-111503084D01*
X183573927Y-111505273D01*
X183626673Y-111536569D01*
X183748599Y-111658495D01*
X183942170Y-111794035D01*
X184156337Y-111893903D01*
X184384592Y-111955063D01*
X184620000Y-111975659D01*
X184855408Y-111955063D01*
X185083663Y-111893903D01*
X185297830Y-111794035D01*
X185491401Y-111658495D01*
X185658495Y-111491401D01*
X185788426Y-111305839D01*
X185832743Y-111266975D01*
X185890000Y-111252964D01*
X185947257Y-111266975D01*
X185991573Y-111305839D01*
X186121505Y-111491401D01*
X186288599Y-111658495D01*
X186482170Y-111794035D01*
X186696337Y-111893903D01*
X186924592Y-111955063D01*
X187160000Y-111975659D01*
X187395408Y-111955063D01*
X187623663Y-111893903D01*
X187837830Y-111794035D01*
X188031401Y-111658495D01*
X188198495Y-111491401D01*
X188328732Y-111305402D01*
X188373048Y-111266539D01*
X188430305Y-111252528D01*
X188487562Y-111266539D01*
X188531880Y-111305404D01*
X188661893Y-111491081D01*
X188828918Y-111658106D01*
X189022423Y-111793600D01*
X189236507Y-111893430D01*
X189449999Y-111950635D01*
X189450000Y-111950636D01*
X189450000Y-110870000D01*
X189950000Y-110870000D01*
X189950000Y-111950635D01*
X190163492Y-111893430D01*
X190377576Y-111793600D01*
X190571081Y-111658106D01*
X190738106Y-111491081D01*
X190873600Y-111297576D01*
X190973430Y-111083492D01*
X191030636Y-110870000D01*
X189950000Y-110870000D01*
X189450000Y-110870000D01*
X189450000Y-109289364D01*
X189950000Y-109289364D01*
X189950000Y-110370000D01*
X191030636Y-110370000D01*
X191030635Y-110369999D01*
X190973430Y-110156507D01*
X190873599Y-109942421D01*
X190738109Y-109748921D01*
X190571081Y-109581893D01*
X190377576Y-109446399D01*
X190163492Y-109346569D01*
X189950000Y-109289364D01*
X189450000Y-109289364D01*
X189449999Y-109289364D01*
X189236507Y-109346569D01*
X189022421Y-109446400D01*
X188828921Y-109581890D01*
X188661893Y-109748918D01*
X188531880Y-109934596D01*
X188487562Y-109973461D01*
X188430305Y-109987472D01*
X188373048Y-109973461D01*
X188328730Y-109934595D01*
X188198495Y-109748599D01*
X188031401Y-109581505D01*
X187837830Y-109445965D01*
X187623663Y-109346097D01*
X187537138Y-109322913D01*
X187395407Y-109284936D01*
X187160000Y-109264340D01*
X186924591Y-109284936D01*
X186852009Y-109304384D01*
X186787823Y-109304384D01*
X186732236Y-109272290D01*
X184930434Y-107470488D01*
X184917091Y-107453833D01*
X184864166Y-107404134D01*
X184861369Y-107401423D01*
X184841034Y-107381088D01*
X184837547Y-107378383D01*
X184828671Y-107370801D01*
X184795394Y-107339552D01*
X184776793Y-107329326D01*
X184760532Y-107318645D01*
X184743764Y-107305638D01*
X184740771Y-107304343D01*
X184701869Y-107287508D01*
X184691379Y-107282369D01*
X184651367Y-107260372D01*
X184630800Y-107255091D01*
X184612398Y-107248791D01*
X184592924Y-107240364D01*
X184547837Y-107233223D01*
X184536398Y-107230854D01*
X184492178Y-107219500D01*
X184492177Y-107219500D01*
X184470955Y-107219500D01*
X184451556Y-107217973D01*
X184430596Y-107214653D01*
X184430595Y-107214653D01*
X184408558Y-107216736D01*
X184385139Y-107218950D01*
X184373470Y-107219500D01*
X181691088Y-107219500D01*
X181625115Y-107200493D01*
X181607691Y-107189544D01*
X181448056Y-107133686D01*
X181280000Y-107114750D01*
X181111943Y-107133686D01*
X180952307Y-107189545D01*
X180862352Y-107246067D01*
X180810264Y-107264293D01*
X180755426Y-107258114D01*
X180708700Y-107228754D01*
X180420413Y-106940467D01*
X180396374Y-106906588D01*
X180384874Y-106866670D01*
X180366313Y-106701943D01*
X180366313Y-106701941D01*
X180310456Y-106542310D01*
X180220477Y-106399110D01*
X180100890Y-106279523D01*
X179957690Y-106189544D01*
X179798059Y-106133687D01*
X179798058Y-106133686D01*
X179798056Y-106133686D01*
X179629999Y-106114750D01*
X179461943Y-106133686D01*
X179302310Y-106189544D01*
X179159108Y-106279524D01*
X179039524Y-106399108D01*
X178949544Y-106542310D01*
X178893686Y-106701943D01*
X178874750Y-106870000D01*
X155202131Y-106870000D01*
X155205226Y-106114750D01*
X155223033Y-101769999D01*
X179354340Y-101769999D01*
X179374936Y-102005407D01*
X179419709Y-102172501D01*
X179436097Y-102233663D01*
X179535965Y-102447830D01*
X179671505Y-102641401D01*
X179838599Y-102808495D01*
X180032170Y-102944035D01*
X180246337Y-103043903D01*
X180474592Y-103105063D01*
X180710000Y-103125659D01*
X180945408Y-103105063D01*
X181173663Y-103043903D01*
X181387830Y-102944035D01*
X181581401Y-102808495D01*
X181748495Y-102641401D01*
X181878426Y-102455839D01*
X181922743Y-102416975D01*
X181980000Y-102402964D01*
X182037257Y-102416975D01*
X182081573Y-102455839D01*
X182211505Y-102641401D01*
X182378599Y-102808495D01*
X182572170Y-102944035D01*
X182786337Y-103043903D01*
X183014592Y-103105063D01*
X183250000Y-103125659D01*
X183485408Y-103105063D01*
X183713663Y-103043903D01*
X183927830Y-102944035D01*
X184121401Y-102808495D01*
X184288495Y-102641401D01*
X184418426Y-102455839D01*
X184462743Y-102416975D01*
X184520000Y-102402964D01*
X184577257Y-102416975D01*
X184621573Y-102455839D01*
X184751505Y-102641401D01*
X184918599Y-102808495D01*
X185112170Y-102944035D01*
X185326337Y-103043903D01*
X185554592Y-103105063D01*
X185790000Y-103125659D01*
X186025408Y-103105063D01*
X186125874Y-103078143D01*
X186190059Y-103078143D01*
X186245647Y-103110237D01*
X186739197Y-103603787D01*
X186752098Y-103619889D01*
X186754212Y-103621874D01*
X186754214Y-103621877D01*
X186801561Y-103666339D01*
X186803240Y-103667916D01*
X186806036Y-103670626D01*
X186825530Y-103690120D01*
X186828704Y-103692582D01*
X186837568Y-103700153D01*
X186869418Y-103730062D01*
X186879914Y-103735832D01*
X186886974Y-103739714D01*
X186903231Y-103750392D01*
X186919064Y-103762674D01*
X186935185Y-103769649D01*
X186959156Y-103780023D01*
X186969643Y-103785160D01*
X187007908Y-103806197D01*
X187027316Y-103811180D01*
X187045710Y-103817478D01*
X187064105Y-103825438D01*
X187107254Y-103832271D01*
X187118680Y-103834638D01*
X187134222Y-103838629D01*
X187160980Y-103845500D01*
X187160981Y-103845500D01*
X187181016Y-103845500D01*
X187200413Y-103847026D01*
X187220196Y-103850160D01*
X187263674Y-103846050D01*
X187275344Y-103845500D01*
X190276253Y-103845500D01*
X190326688Y-103856220D01*
X190368401Y-103886526D01*
X190374129Y-103892888D01*
X190527270Y-104004151D01*
X190527271Y-104004151D01*
X190527272Y-104004152D01*
X190700197Y-104081144D01*
X190885352Y-104120500D01*
X190885354Y-104120500D01*
X191074646Y-104120500D01*
X191074648Y-104120500D01*
X191198083Y-104094262D01*
X191259803Y-104081144D01*
X191432730Y-104004151D01*
X191585871Y-103892888D01*
X191712533Y-103752216D01*
X191807179Y-103588284D01*
X191865674Y-103408256D01*
X191885460Y-103220000D01*
X191865674Y-103031744D01*
X191807179Y-102851716D01*
X191807179Y-102851715D01*
X191712533Y-102687783D01*
X191585870Y-102547110D01*
X191432730Y-102435848D01*
X191259802Y-102358855D01*
X191074648Y-102319500D01*
X191074646Y-102319500D01*
X190885354Y-102319500D01*
X190885352Y-102319500D01*
X190700197Y-102358855D01*
X190527272Y-102435847D01*
X190425176Y-102510024D01*
X190374129Y-102547112D01*
X190368401Y-102553473D01*
X190326688Y-102583780D01*
X190276253Y-102594500D01*
X189804500Y-102594500D01*
X189742500Y-102577887D01*
X189697113Y-102532500D01*
X189680500Y-102470500D01*
X189680499Y-100872130D01*
X189678489Y-100853430D01*
X189674091Y-100812517D01*
X189623796Y-100677669D01*
X189537546Y-100562454D01*
X189422331Y-100476204D01*
X189287483Y-100425909D01*
X189227873Y-100419500D01*
X189227869Y-100419500D01*
X187432130Y-100419500D01*
X187372515Y-100425909D01*
X187237669Y-100476204D01*
X187122454Y-100562454D01*
X187036204Y-100677669D01*
X186987189Y-100809083D01*
X186952209Y-100859462D01*
X186897365Y-100886915D01*
X186836072Y-100884726D01*
X186783326Y-100853430D01*
X186661404Y-100731508D01*
X186661401Y-100731505D01*
X186467830Y-100595965D01*
X186253663Y-100496097D01*
X186192501Y-100479709D01*
X186025407Y-100434936D01*
X185790000Y-100414340D01*
X185554592Y-100434936D01*
X185326336Y-100496097D01*
X185112170Y-100595965D01*
X184918598Y-100731505D01*
X184751505Y-100898598D01*
X184621575Y-101084159D01*
X184577257Y-101123025D01*
X184520000Y-101137036D01*
X184462743Y-101123025D01*
X184418425Y-101084159D01*
X184288494Y-100898598D01*
X184121404Y-100731508D01*
X184121401Y-100731505D01*
X183927830Y-100595965D01*
X183713663Y-100496097D01*
X183652501Y-100479709D01*
X183485407Y-100434936D01*
X183250000Y-100414340D01*
X183014592Y-100434936D01*
X182786336Y-100496097D01*
X182572170Y-100595965D01*
X182378598Y-100731505D01*
X182211505Y-100898598D01*
X182081575Y-101084159D01*
X182037257Y-101123025D01*
X181980000Y-101137036D01*
X181922743Y-101123025D01*
X181878425Y-101084159D01*
X181748494Y-100898598D01*
X181581404Y-100731508D01*
X181581401Y-100731505D01*
X181387830Y-100595965D01*
X181173663Y-100496097D01*
X181112501Y-100479709D01*
X180945407Y-100434936D01*
X180710000Y-100414340D01*
X180474592Y-100434936D01*
X180246336Y-100496097D01*
X180032170Y-100595965D01*
X179838598Y-100731505D01*
X179671505Y-100898598D01*
X179535965Y-101092170D01*
X179436097Y-101306336D01*
X179374936Y-101534592D01*
X179354340Y-101769999D01*
X155223033Y-101769999D01*
X155229493Y-100193651D01*
X155246302Y-100131820D01*
X155291732Y-100086635D01*
X155353649Y-100070160D01*
X157345786Y-100072754D01*
G37*
%TD.AperFunction*%
%TD*%
%TA.AperFunction,Conductor*%
%TO.N,GND*%
G36*
X157225786Y-71492754D02*
G01*
X157273161Y-71502229D01*
X157293357Y-71515738D01*
X157304616Y-71520382D01*
X157304617Y-71520383D01*
X157305000Y-71520541D01*
X157305002Y-71520539D01*
X157329616Y-71520524D01*
X157329616Y-71520528D01*
X157329760Y-71520500D01*
X178534000Y-71520500D01*
X193386161Y-71539839D01*
X193448093Y-71556506D01*
X193493414Y-71601886D01*
X193510000Y-71663839D01*
X193510000Y-83615839D01*
X193493360Y-83677886D01*
X193447907Y-83723280D01*
X193385840Y-83739838D01*
X178276934Y-83720191D01*
X155184347Y-83690161D01*
X155122268Y-83673409D01*
X155076925Y-83627821D01*
X155060509Y-83565655D01*
X155069504Y-81370820D01*
X155078860Y-81324076D01*
X155080382Y-81320383D01*
X155080383Y-81320383D01*
X155080500Y-81320099D01*
X155080541Y-81320000D01*
X155080541Y-81295446D01*
X155080500Y-81295240D01*
X155080500Y-78688264D01*
X155080501Y-78687756D01*
X155082131Y-78289999D01*
X178754750Y-78289999D01*
X178773686Y-78458056D01*
X178829544Y-78617690D01*
X178894998Y-78721859D01*
X178906395Y-78747252D01*
X178919061Y-78768670D01*
X178927621Y-78786143D01*
X178935431Y-78805869D01*
X178962267Y-78842808D01*
X178968673Y-78852560D01*
X178991919Y-78891865D01*
X178991921Y-78891867D01*
X179006925Y-78906871D01*
X179019564Y-78921669D01*
X179032037Y-78938837D01*
X179067212Y-78967936D01*
X179075854Y-78975800D01*
X180754235Y-80654181D01*
X180787717Y-80715489D01*
X180782746Y-80785167D01*
X180759874Y-80815739D01*
X180763138Y-80818183D01*
X180752455Y-80832452D01*
X180752454Y-80832454D01*
X180727368Y-80865965D01*
X180666204Y-80947669D01*
X180615909Y-81082516D01*
X180609500Y-81142130D01*
X180609500Y-82937869D01*
X180615909Y-82997484D01*
X180641056Y-83064906D01*
X180666204Y-83132331D01*
X180752454Y-83247546D01*
X180867669Y-83333796D01*
X181002517Y-83384091D01*
X181062127Y-83390500D01*
X182857872Y-83390499D01*
X182917483Y-83384091D01*
X183052331Y-83333796D01*
X183167546Y-83247546D01*
X183253796Y-83132331D01*
X183302810Y-83000916D01*
X183337789Y-82950537D01*
X183392634Y-82923084D01*
X183453927Y-82925273D01*
X183506673Y-82956569D01*
X183628599Y-83078495D01*
X183822170Y-83214035D01*
X184036337Y-83313903D01*
X184248070Y-83370636D01*
X184264592Y-83375063D01*
X184499999Y-83395659D01*
X184499999Y-83395658D01*
X184500000Y-83395659D01*
X184735408Y-83375063D01*
X184963663Y-83313903D01*
X185177830Y-83214035D01*
X185371401Y-83078495D01*
X185538495Y-82911401D01*
X185668426Y-82725839D01*
X185712743Y-82686975D01*
X185770000Y-82672964D01*
X185827257Y-82686975D01*
X185871573Y-82725839D01*
X186001505Y-82911401D01*
X186168599Y-83078495D01*
X186362170Y-83214035D01*
X186576337Y-83313903D01*
X186788070Y-83370636D01*
X186804592Y-83375063D01*
X187039999Y-83395659D01*
X187039999Y-83395658D01*
X187040000Y-83395659D01*
X187275408Y-83375063D01*
X187503663Y-83313903D01*
X187717830Y-83214035D01*
X187911401Y-83078495D01*
X188078495Y-82911401D01*
X188208732Y-82725402D01*
X188253048Y-82686539D01*
X188310305Y-82672528D01*
X188367562Y-82686539D01*
X188411880Y-82725404D01*
X188541893Y-82911081D01*
X188708918Y-83078106D01*
X188902423Y-83213600D01*
X189116507Y-83313430D01*
X189329999Y-83370635D01*
X189330000Y-83370636D01*
X189330000Y-82290000D01*
X189830000Y-82290000D01*
X189830000Y-83370635D01*
X190043492Y-83313430D01*
X190257576Y-83213600D01*
X190451081Y-83078106D01*
X190618106Y-82911081D01*
X190753600Y-82717576D01*
X190853430Y-82503492D01*
X190910636Y-82290000D01*
X189830000Y-82290000D01*
X189330000Y-82290000D01*
X189330000Y-80709364D01*
X189830000Y-80709364D01*
X189830000Y-81790000D01*
X190910636Y-81790000D01*
X190910635Y-81789999D01*
X190853430Y-81576507D01*
X190753599Y-81362421D01*
X190618109Y-81168921D01*
X190451081Y-81001893D01*
X190257576Y-80866399D01*
X190043492Y-80766569D01*
X189830000Y-80709364D01*
X189330000Y-80709364D01*
X189329999Y-80709364D01*
X189116507Y-80766569D01*
X188902421Y-80866400D01*
X188708921Y-81001890D01*
X188541893Y-81168918D01*
X188411880Y-81354596D01*
X188367562Y-81393461D01*
X188310305Y-81407472D01*
X188253048Y-81393461D01*
X188208730Y-81354595D01*
X188078495Y-81168599D01*
X187911401Y-81001505D01*
X187717830Y-80865965D01*
X187503663Y-80766097D01*
X187417138Y-80742913D01*
X187275407Y-80704936D01*
X187040000Y-80684340D01*
X186804591Y-80704936D01*
X186732009Y-80724384D01*
X186667823Y-80724384D01*
X186612236Y-80692290D01*
X184810434Y-78890488D01*
X184797091Y-78873833D01*
X184744166Y-78824134D01*
X184741369Y-78821423D01*
X184721034Y-78801088D01*
X184717547Y-78798383D01*
X184708671Y-78790801D01*
X184675394Y-78759552D01*
X184656793Y-78749326D01*
X184640532Y-78738645D01*
X184623764Y-78725638D01*
X184620771Y-78724343D01*
X184581869Y-78707508D01*
X184571379Y-78702369D01*
X184531367Y-78680372D01*
X184510800Y-78675091D01*
X184492398Y-78668791D01*
X184472924Y-78660364D01*
X184427837Y-78653223D01*
X184416398Y-78650854D01*
X184372178Y-78639500D01*
X184372177Y-78639500D01*
X184350955Y-78639500D01*
X184331556Y-78637973D01*
X184310596Y-78634653D01*
X184310595Y-78634653D01*
X184288558Y-78636736D01*
X184265139Y-78638950D01*
X184253470Y-78639500D01*
X181571088Y-78639500D01*
X181505115Y-78620493D01*
X181487691Y-78609544D01*
X181328056Y-78553686D01*
X181160000Y-78534750D01*
X180991943Y-78553686D01*
X180832307Y-78609545D01*
X180742352Y-78666067D01*
X180690264Y-78684293D01*
X180635426Y-78678114D01*
X180588700Y-78648754D01*
X180300413Y-78360467D01*
X180276374Y-78326588D01*
X180264874Y-78286670D01*
X180246313Y-78121943D01*
X180246313Y-78121941D01*
X180190456Y-77962310D01*
X180100477Y-77819110D01*
X179980890Y-77699523D01*
X179837690Y-77609544D01*
X179678059Y-77553687D01*
X179678058Y-77553686D01*
X179678056Y-77553686D01*
X179510000Y-77534750D01*
X179341943Y-77553686D01*
X179182310Y-77609544D01*
X179039108Y-77699524D01*
X178919524Y-77819108D01*
X178829544Y-77962310D01*
X178773686Y-78121943D01*
X178754750Y-78289999D01*
X155082131Y-78289999D01*
X155085226Y-77534750D01*
X155103032Y-73190000D01*
X179234340Y-73190000D01*
X179254936Y-73425407D01*
X179299709Y-73592502D01*
X179316097Y-73653663D01*
X179415965Y-73867830D01*
X179551505Y-74061401D01*
X179718599Y-74228495D01*
X179912170Y-74364035D01*
X180126337Y-74463903D01*
X180354591Y-74525062D01*
X180354592Y-74525063D01*
X180589999Y-74545659D01*
X180589999Y-74545658D01*
X180590000Y-74545659D01*
X180825408Y-74525063D01*
X181053663Y-74463903D01*
X181267830Y-74364035D01*
X181461401Y-74228495D01*
X181628495Y-74061401D01*
X181758426Y-73875839D01*
X181802743Y-73836975D01*
X181860000Y-73822964D01*
X181917257Y-73836975D01*
X181961573Y-73875839D01*
X182091505Y-74061401D01*
X182258599Y-74228495D01*
X182452170Y-74364035D01*
X182666337Y-74463903D01*
X182894591Y-74525062D01*
X182894592Y-74525063D01*
X183129999Y-74545659D01*
X183129999Y-74545658D01*
X183130000Y-74545659D01*
X183365408Y-74525063D01*
X183593663Y-74463903D01*
X183807830Y-74364035D01*
X184001401Y-74228495D01*
X184168495Y-74061401D01*
X184298426Y-73875839D01*
X184342743Y-73836975D01*
X184400000Y-73822964D01*
X184457257Y-73836975D01*
X184501573Y-73875839D01*
X184631505Y-74061401D01*
X184798599Y-74228495D01*
X184992170Y-74364035D01*
X185206337Y-74463903D01*
X185434591Y-74525062D01*
X185434592Y-74525063D01*
X185669999Y-74545659D01*
X185669999Y-74545658D01*
X185670000Y-74545659D01*
X185905408Y-74525063D01*
X186005874Y-74498143D01*
X186070059Y-74498143D01*
X186125647Y-74530237D01*
X186619197Y-75023787D01*
X186632098Y-75039889D01*
X186634212Y-75041874D01*
X186634214Y-75041877D01*
X186681561Y-75086339D01*
X186683240Y-75087916D01*
X186686035Y-75090625D01*
X186705530Y-75110120D01*
X186708704Y-75112582D01*
X186717568Y-75120153D01*
X186749418Y-75150062D01*
X186759914Y-75155832D01*
X186766974Y-75159714D01*
X186783231Y-75170392D01*
X186799064Y-75182674D01*
X186815185Y-75189649D01*
X186839156Y-75200023D01*
X186849643Y-75205160D01*
X186887908Y-75226197D01*
X186907316Y-75231180D01*
X186925710Y-75237478D01*
X186944105Y-75245438D01*
X186987254Y-75252271D01*
X186998680Y-75254638D01*
X187014222Y-75258629D01*
X187040980Y-75265500D01*
X187040981Y-75265500D01*
X187061016Y-75265500D01*
X187080413Y-75267026D01*
X187100196Y-75270160D01*
X187143674Y-75266050D01*
X187155344Y-75265500D01*
X190156253Y-75265500D01*
X190206688Y-75276220D01*
X190248401Y-75306526D01*
X190254129Y-75312888D01*
X190407270Y-75424151D01*
X190407271Y-75424151D01*
X190407272Y-75424152D01*
X190580197Y-75501144D01*
X190765352Y-75540500D01*
X190765354Y-75540500D01*
X190954646Y-75540500D01*
X190954648Y-75540500D01*
X191078084Y-75514262D01*
X191139803Y-75501144D01*
X191312730Y-75424151D01*
X191465871Y-75312888D01*
X191592533Y-75172216D01*
X191687179Y-75008284D01*
X191745674Y-74828256D01*
X191765460Y-74640000D01*
X191745674Y-74451744D01*
X191687179Y-74271716D01*
X191687179Y-74271715D01*
X191592533Y-74107783D01*
X191465870Y-73967110D01*
X191312730Y-73855848D01*
X191139802Y-73778855D01*
X190954648Y-73739500D01*
X190954646Y-73739500D01*
X190765354Y-73739500D01*
X190765352Y-73739500D01*
X190580197Y-73778855D01*
X190407272Y-73855847D01*
X190305176Y-73930024D01*
X190254129Y-73967112D01*
X190248401Y-73973473D01*
X190206688Y-74003780D01*
X190156253Y-74014500D01*
X189684500Y-74014500D01*
X189622500Y-73997887D01*
X189577113Y-73952500D01*
X189560500Y-73890500D01*
X189560499Y-72292130D01*
X189558489Y-72273430D01*
X189554091Y-72232517D01*
X189503796Y-72097669D01*
X189417546Y-71982454D01*
X189302331Y-71896204D01*
X189167483Y-71845909D01*
X189107873Y-71839500D01*
X189107869Y-71839500D01*
X187312130Y-71839500D01*
X187252515Y-71845909D01*
X187117669Y-71896204D01*
X187002454Y-71982454D01*
X186916204Y-72097669D01*
X186867189Y-72229083D01*
X186832209Y-72279462D01*
X186777365Y-72306915D01*
X186716072Y-72304726D01*
X186663326Y-72273430D01*
X186541404Y-72151508D01*
X186541401Y-72151505D01*
X186347830Y-72015965D01*
X186133663Y-71916097D01*
X186072501Y-71899709D01*
X185905407Y-71854936D01*
X185669999Y-71834340D01*
X185434592Y-71854936D01*
X185206336Y-71916097D01*
X184992170Y-72015965D01*
X184798598Y-72151505D01*
X184631505Y-72318598D01*
X184501575Y-72504159D01*
X184457257Y-72543025D01*
X184400000Y-72557036D01*
X184342743Y-72543025D01*
X184298425Y-72504159D01*
X184168494Y-72318598D01*
X184001404Y-72151508D01*
X184001401Y-72151505D01*
X183807830Y-72015965D01*
X183593663Y-71916097D01*
X183532501Y-71899709D01*
X183365407Y-71854936D01*
X183129999Y-71834340D01*
X182894592Y-71854936D01*
X182666336Y-71916097D01*
X182452170Y-72015965D01*
X182258598Y-72151505D01*
X182091505Y-72318598D01*
X181961575Y-72504159D01*
X181917257Y-72543025D01*
X181860000Y-72557036D01*
X181802743Y-72543025D01*
X181758425Y-72504159D01*
X181628494Y-72318598D01*
X181461404Y-72151508D01*
X181461401Y-72151505D01*
X181267830Y-72015965D01*
X181053663Y-71916097D01*
X180992501Y-71899709D01*
X180825407Y-71854936D01*
X180589999Y-71834340D01*
X180354592Y-71854936D01*
X180126336Y-71916097D01*
X179912170Y-72015965D01*
X179718598Y-72151505D01*
X179551505Y-72318598D01*
X179415965Y-72512170D01*
X179316097Y-72726336D01*
X179254936Y-72954592D01*
X179234340Y-73190000D01*
X155103032Y-73190000D01*
X155109493Y-71613651D01*
X155126302Y-71551820D01*
X155171732Y-71506635D01*
X155233649Y-71490160D01*
X157225786Y-71492754D01*
G37*
%TD.AperFunction*%
%TD*%
M02*
