M48
; DRILL file {KiCad 7.0.1} date Mon 10 Apr 2023 07:03:43 PM EAT
; FORMAT={-:-/ absolute / inch / decimal}
; #@! TF.CreationDate,2023-04-10T19:03:43+03:00
; #@! TF.GenerationSoftware,Kicad,Pcbnew,7.0.1
; #@! TF.FileFunction,Plated,1,2,PTH
FMAT,2
INCH
; #@! TA.AperFunction,Plated,PTH,ViaDrill
T1C0.0118
; #@! TA.AperFunction,Plated,PTH,ViaDrill
T2C0.0157
; #@! TA.AperFunction,Plated,PTH,ComponentDrill
T3C0.0394
%
G90
G05
T1
X4.7209Y-2.1374
X4.7256Y-2.6976
X4.7307Y-3.2594
X4.7354Y-3.8197
X4.7354Y-4.3846
X4.7402Y-4.9449
X5.1244Y-2.1217
X5.1291Y-2.6819
X5.1343Y-3.2437
X5.139Y-3.8039
X5.139Y-4.3689
X5.1437Y-4.9291
X5.2425Y-2.1217
X5.2472Y-2.6819
X5.2524Y-3.2437
X5.2571Y-3.8039
X5.2571Y-4.3689
X5.2618Y-4.9291
X5.4531Y-1.8638
X5.4579Y-2.424
X5.463Y-2.9858
X5.465Y-1.9583
X5.4677Y-3.5461
X5.4677Y-4.111
X5.4697Y-2.5185
X5.4724Y-4.6713
X5.4748Y-3.0803
X5.4795Y-3.6406
X5.4795Y-4.2055
X5.4843Y-4.7657
X5.5299Y-1.9976
X5.5346Y-2.5579
X5.5398Y-3.1197
X5.5445Y-3.6799
X5.5445Y-4.2449
X5.5492Y-4.8051
X5.6323Y-1.9327
X5.637Y-2.4929
X5.6421Y-3.0547
X5.6469Y-3.615
X5.6469Y-4.1799
X5.6516Y-4.7402
X5.7051Y-1.9327
X5.7098Y-2.4929
X5.715Y-3.0547
X5.7197Y-3.615
X5.7197Y-4.1799
X5.7244Y-4.7402
X6.3134Y-2.1394
X6.3181Y-2.6996
X6.3232Y-3.2614
X6.328Y-3.8217
X6.328Y-4.3866
X6.3327Y-4.9469
X6.7169Y-2.1236
X6.7217Y-2.6839
X6.7268Y-3.2457
X6.7315Y-3.8059
X6.7315Y-4.3709
X6.7362Y-4.9311
X6.835Y-2.1236
X6.8398Y-2.6839
X6.8449Y-3.2457
X6.8496Y-3.8059
X6.8496Y-4.3709
X6.8543Y-4.9311
X7.0457Y-1.8657
X7.0504Y-2.426
X7.0555Y-2.9878
X7.0575Y-1.9602
X7.0602Y-3.548
X7.0602Y-4.113
X7.0622Y-2.5205
X7.065Y-4.6732
X7.0673Y-3.0823
X7.072Y-3.6425
X7.072Y-4.2075
X7.0768Y-4.7677
X7.1224Y-1.9996
X7.1272Y-2.5598
X7.1323Y-3.1217
X7.137Y-3.6819
X7.137Y-4.2469
X7.1417Y-4.8071
X7.2248Y-1.9346
X7.2295Y-2.4949
X7.2346Y-3.0567
X7.2394Y-3.6169
X7.2394Y-4.1819
X7.2441Y-4.7421
X7.2976Y-1.9346
X7.3024Y-2.4949
X7.3075Y-3.0567
X7.3122Y-3.6169
X7.3122Y-4.1819
X7.3169Y-4.7421
T2
X5.9118Y-1.8146
X5.9165Y-2.3748
X5.9217Y-2.9366
X5.9264Y-3.4969
X5.9264Y-4.0618
X5.9311Y-4.622
X7.5043Y-1.8165
X7.5091Y-2.3768
X7.5142Y-2.9386
X7.5189Y-3.4988
X7.5189Y-4.0638
X7.5236Y-4.624
T3
X5.5075Y-1.7575
X5.5122Y-2.3177
X5.5173Y-2.8795
X5.522Y-3.4398
X5.522Y-4.0047
X5.5268Y-4.565
X5.5614Y-2.1059
X5.5661Y-2.6661
X5.5713Y-3.228
X5.576Y-3.7882
X5.576Y-4.3531
X5.5807Y-4.9134
X5.6075Y-1.7575
X5.6122Y-2.3177
X5.6173Y-2.8795
X5.622Y-3.4398
X5.622Y-4.0047
X5.6268Y-4.565
X5.6614Y-2.1059
X5.6661Y-2.6661
X5.6713Y-3.228
X5.676Y-3.7882
X5.676Y-4.3531
X5.6807Y-4.9134
X5.7075Y-1.7575
X5.7122Y-2.3177
X5.7173Y-2.8795
X5.722Y-3.4398
X5.722Y-4.0047
X5.7268Y-4.565
X5.7614Y-2.1059
X5.7661Y-2.6661
X5.7713Y-3.228
X5.776Y-3.7882
X5.776Y-4.3531
X5.7807Y-4.9134
X5.8075Y-1.7575
X5.8122Y-2.3177
X5.8173Y-2.8795
X5.822Y-3.4398
X5.822Y-4.0047
X5.8268Y-4.565
X5.8614Y-2.1059
X5.8661Y-2.6661
X5.8713Y-3.228
X5.876Y-3.7882
X5.876Y-4.3531
X5.8807Y-4.9134
X7.1Y-1.7594
X7.1047Y-2.3197
X7.1098Y-2.8815
X7.1146Y-3.4417
X7.1146Y-4.0067
X7.1193Y-4.5669
X7.1539Y-2.1079
X7.1587Y-2.6681
X7.1638Y-3.2299
X7.1685Y-3.7902
X7.1685Y-4.3551
X7.1732Y-4.9154
X7.2Y-1.7594
X7.2047Y-2.3197
X7.2098Y-2.8815
X7.2146Y-3.4417
X7.2146Y-4.0067
X7.2193Y-4.5669
X7.2539Y-2.1079
X7.2587Y-2.6681
X7.2638Y-3.2299
X7.2685Y-3.7902
X7.2685Y-4.3551
X7.2732Y-4.9154
X7.3Y-1.7594
X7.3047Y-2.3197
X7.3098Y-2.8815
X7.3146Y-3.4417
X7.3146Y-4.0067
X7.3193Y-4.5669
X7.3539Y-2.1079
X7.3587Y-2.6681
X7.3638Y-3.2299
X7.3685Y-3.7902
X7.3685Y-4.3551
X7.3732Y-4.9154
X7.4Y-1.7594
X7.4047Y-2.3197
X7.4098Y-2.8815
X7.4146Y-3.4417
X7.4146Y-4.0067
X7.4193Y-4.5669
X7.4539Y-2.1079
X7.4587Y-2.6681
X7.4638Y-3.2299
X7.4685Y-3.7902
X7.4685Y-4.3551
X7.4732Y-4.9154
T0
M30
