%TF.GenerationSoftware,KiCad,Pcbnew,7.0.1*%
%TF.CreationDate,2023-04-10T19:00:45+03:00*%
%TF.ProjectId,Attiny_USB_panel,41747469-6e79-45f5-9553-425f70616e65,rev?*%
%TF.SameCoordinates,Original*%
%TF.FileFunction,Legend,Top*%
%TF.FilePolarity,Positive*%
%FSLAX46Y46*%
G04 Gerber Fmt 4.6, Leading zero omitted, Abs format (unit mm)*
G04 Created by KiCad (PCBNEW 7.0.1) date 2023-04-10 19:00:45*
%MOMM*%
%LPD*%
G01*
G04 APERTURE LIST*
%ADD10C,0.150000*%
%ADD11C,0.125000*%
%ADD12C,0.120000*%
G04 APERTURE END LIST*
D10*
%TO.C,R2*%
X132593333Y-45152619D02*
X132260000Y-44676428D01*
X132021905Y-45152619D02*
X132021905Y-44152619D01*
X132021905Y-44152619D02*
X132402857Y-44152619D01*
X132402857Y-44152619D02*
X132498095Y-44200238D01*
X132498095Y-44200238D02*
X132545714Y-44247857D01*
X132545714Y-44247857D02*
X132593333Y-44343095D01*
X132593333Y-44343095D02*
X132593333Y-44485952D01*
X132593333Y-44485952D02*
X132545714Y-44581190D01*
X132545714Y-44581190D02*
X132498095Y-44628809D01*
X132498095Y-44628809D02*
X132402857Y-44676428D01*
X132402857Y-44676428D02*
X132021905Y-44676428D01*
X132974286Y-44247857D02*
X133021905Y-44200238D01*
X133021905Y-44200238D02*
X133117143Y-44152619D01*
X133117143Y-44152619D02*
X133355238Y-44152619D01*
X133355238Y-44152619D02*
X133450476Y-44200238D01*
X133450476Y-44200238D02*
X133498095Y-44247857D01*
X133498095Y-44247857D02*
X133545714Y-44343095D01*
X133545714Y-44343095D02*
X133545714Y-44438333D01*
X133545714Y-44438333D02*
X133498095Y-44581190D01*
X133498095Y-44581190D02*
X132926667Y-45152619D01*
X132926667Y-45152619D02*
X133545714Y-45152619D01*
%TO.C,D1*%
X129322619Y-54978094D02*
X128322619Y-54978094D01*
X128322619Y-54978094D02*
X128322619Y-54739999D01*
X128322619Y-54739999D02*
X128370238Y-54597142D01*
X128370238Y-54597142D02*
X128465476Y-54501904D01*
X128465476Y-54501904D02*
X128560714Y-54454285D01*
X128560714Y-54454285D02*
X128751190Y-54406666D01*
X128751190Y-54406666D02*
X128894047Y-54406666D01*
X128894047Y-54406666D02*
X129084523Y-54454285D01*
X129084523Y-54454285D02*
X129179761Y-54501904D01*
X129179761Y-54501904D02*
X129275000Y-54597142D01*
X129275000Y-54597142D02*
X129322619Y-54739999D01*
X129322619Y-54739999D02*
X129322619Y-54978094D01*
X129322619Y-53454285D02*
X129322619Y-54025713D01*
X129322619Y-53739999D02*
X128322619Y-53739999D01*
X128322619Y-53739999D02*
X128465476Y-53835237D01*
X128465476Y-53835237D02*
X128560714Y-53930475D01*
X128560714Y-53930475D02*
X128608333Y-54025713D01*
%TO.C,J1*%
X149302619Y-44973333D02*
X150016904Y-44973333D01*
X150016904Y-44973333D02*
X150159761Y-45020952D01*
X150159761Y-45020952D02*
X150255000Y-45116190D01*
X150255000Y-45116190D02*
X150302619Y-45259047D01*
X150302619Y-45259047D02*
X150302619Y-45354285D01*
X150302619Y-43973333D02*
X150302619Y-44544761D01*
X150302619Y-44259047D02*
X149302619Y-44259047D01*
X149302619Y-44259047D02*
X149445476Y-44354285D01*
X149445476Y-44354285D02*
X149540714Y-44449523D01*
X149540714Y-44449523D02*
X149588333Y-44544761D01*
%TO.C,R4*%
X131222619Y-44606666D02*
X130746428Y-44939999D01*
X131222619Y-45178094D02*
X130222619Y-45178094D01*
X130222619Y-45178094D02*
X130222619Y-44797142D01*
X130222619Y-44797142D02*
X130270238Y-44701904D01*
X130270238Y-44701904D02*
X130317857Y-44654285D01*
X130317857Y-44654285D02*
X130413095Y-44606666D01*
X130413095Y-44606666D02*
X130555952Y-44606666D01*
X130555952Y-44606666D02*
X130651190Y-44654285D01*
X130651190Y-44654285D02*
X130698809Y-44701904D01*
X130698809Y-44701904D02*
X130746428Y-44797142D01*
X130746428Y-44797142D02*
X130746428Y-45178094D01*
X130555952Y-43749523D02*
X131222619Y-43749523D01*
X130175000Y-43987618D02*
X130889285Y-44225713D01*
X130889285Y-44225713D02*
X130889285Y-43606666D01*
D11*
%TO.C,R3*%
X189296667Y-65790095D02*
X189030000Y-65409142D01*
X188839524Y-65790095D02*
X188839524Y-64990095D01*
X188839524Y-64990095D02*
X189144286Y-64990095D01*
X189144286Y-64990095D02*
X189220476Y-65028190D01*
X189220476Y-65028190D02*
X189258571Y-65066285D01*
X189258571Y-65066285D02*
X189296667Y-65142476D01*
X189296667Y-65142476D02*
X189296667Y-65256761D01*
X189296667Y-65256761D02*
X189258571Y-65332952D01*
X189258571Y-65332952D02*
X189220476Y-65371047D01*
X189220476Y-65371047D02*
X189144286Y-65409142D01*
X189144286Y-65409142D02*
X188839524Y-65409142D01*
X189563333Y-64990095D02*
X190058571Y-64990095D01*
X190058571Y-64990095D02*
X189791905Y-65294857D01*
X189791905Y-65294857D02*
X189906190Y-65294857D01*
X189906190Y-65294857D02*
X189982381Y-65332952D01*
X189982381Y-65332952D02*
X190020476Y-65371047D01*
X190020476Y-65371047D02*
X190058571Y-65447238D01*
X190058571Y-65447238D02*
X190058571Y-65637714D01*
X190058571Y-65637714D02*
X190020476Y-65713904D01*
X190020476Y-65713904D02*
X189982381Y-65752000D01*
X189982381Y-65752000D02*
X189906190Y-65790095D01*
X189906190Y-65790095D02*
X189677619Y-65790095D01*
X189677619Y-65790095D02*
X189601428Y-65752000D01*
X189601428Y-65752000D02*
X189563333Y-65713904D01*
D10*
%TO.C,J2*%
X138392619Y-53823333D02*
X139106904Y-53823333D01*
X139106904Y-53823333D02*
X139249761Y-53870952D01*
X139249761Y-53870952D02*
X139345000Y-53966190D01*
X139345000Y-53966190D02*
X139392619Y-54109047D01*
X139392619Y-54109047D02*
X139392619Y-54204285D01*
X138487857Y-53394761D02*
X138440238Y-53347142D01*
X138440238Y-53347142D02*
X138392619Y-53251904D01*
X138392619Y-53251904D02*
X138392619Y-53013809D01*
X138392619Y-53013809D02*
X138440238Y-52918571D01*
X138440238Y-52918571D02*
X138487857Y-52870952D01*
X138487857Y-52870952D02*
X138583095Y-52823333D01*
X138583095Y-52823333D02*
X138678333Y-52823333D01*
X138678333Y-52823333D02*
X138821190Y-52870952D01*
X138821190Y-52870952D02*
X139392619Y-53442380D01*
X139392619Y-53442380D02*
X139392619Y-52823333D01*
%TO.C,R1*%
X137922619Y-52106666D02*
X137446428Y-52439999D01*
X137922619Y-52678094D02*
X136922619Y-52678094D01*
X136922619Y-52678094D02*
X136922619Y-52297142D01*
X136922619Y-52297142D02*
X136970238Y-52201904D01*
X136970238Y-52201904D02*
X137017857Y-52154285D01*
X137017857Y-52154285D02*
X137113095Y-52106666D01*
X137113095Y-52106666D02*
X137255952Y-52106666D01*
X137255952Y-52106666D02*
X137351190Y-52154285D01*
X137351190Y-52154285D02*
X137398809Y-52201904D01*
X137398809Y-52201904D02*
X137446428Y-52297142D01*
X137446428Y-52297142D02*
X137446428Y-52678094D01*
X137922619Y-51154285D02*
X137922619Y-51725713D01*
X137922619Y-51439999D02*
X136922619Y-51439999D01*
X136922619Y-51439999D02*
X137065476Y-51535237D01*
X137065476Y-51535237D02*
X137160714Y-51630475D01*
X137160714Y-51630475D02*
X137208333Y-51725713D01*
%TO.C,U1*%
X180792619Y-64131904D02*
X181602142Y-64131904D01*
X181602142Y-64131904D02*
X181697380Y-64084285D01*
X181697380Y-64084285D02*
X181745000Y-64036666D01*
X181745000Y-64036666D02*
X181792619Y-63941428D01*
X181792619Y-63941428D02*
X181792619Y-63750952D01*
X181792619Y-63750952D02*
X181745000Y-63655714D01*
X181745000Y-63655714D02*
X181697380Y-63608095D01*
X181697380Y-63608095D02*
X181602142Y-63560476D01*
X181602142Y-63560476D02*
X180792619Y-63560476D01*
X181792619Y-62560476D02*
X181792619Y-63131904D01*
X181792619Y-62846190D02*
X180792619Y-62846190D01*
X180792619Y-62846190D02*
X180935476Y-62941428D01*
X180935476Y-62941428D02*
X181030714Y-63036666D01*
X181030714Y-63036666D02*
X181078333Y-63131904D01*
%TO.C,D3*%
X151672619Y-46578094D02*
X150672619Y-46578094D01*
X150672619Y-46578094D02*
X150672619Y-46339999D01*
X150672619Y-46339999D02*
X150720238Y-46197142D01*
X150720238Y-46197142D02*
X150815476Y-46101904D01*
X150815476Y-46101904D02*
X150910714Y-46054285D01*
X150910714Y-46054285D02*
X151101190Y-46006666D01*
X151101190Y-46006666D02*
X151244047Y-46006666D01*
X151244047Y-46006666D02*
X151434523Y-46054285D01*
X151434523Y-46054285D02*
X151529761Y-46101904D01*
X151529761Y-46101904D02*
X151625000Y-46197142D01*
X151625000Y-46197142D02*
X151672619Y-46339999D01*
X151672619Y-46339999D02*
X151672619Y-46578094D01*
X150672619Y-45673332D02*
X150672619Y-45054285D01*
X150672619Y-45054285D02*
X151053571Y-45387618D01*
X151053571Y-45387618D02*
X151053571Y-45244761D01*
X151053571Y-45244761D02*
X151101190Y-45149523D01*
X151101190Y-45149523D02*
X151148809Y-45101904D01*
X151148809Y-45101904D02*
X151244047Y-45054285D01*
X151244047Y-45054285D02*
X151482142Y-45054285D01*
X151482142Y-45054285D02*
X151577380Y-45101904D01*
X151577380Y-45101904D02*
X151625000Y-45149523D01*
X151625000Y-45149523D02*
X151672619Y-45244761D01*
X151672619Y-45244761D02*
X151672619Y-45530475D01*
X151672619Y-45530475D02*
X151625000Y-45625713D01*
X151625000Y-45625713D02*
X151577380Y-45673332D01*
%TO.C,R1*%
X178492619Y-66386666D02*
X178016428Y-66719999D01*
X178492619Y-66958094D02*
X177492619Y-66958094D01*
X177492619Y-66958094D02*
X177492619Y-66577142D01*
X177492619Y-66577142D02*
X177540238Y-66481904D01*
X177540238Y-66481904D02*
X177587857Y-66434285D01*
X177587857Y-66434285D02*
X177683095Y-66386666D01*
X177683095Y-66386666D02*
X177825952Y-66386666D01*
X177825952Y-66386666D02*
X177921190Y-66434285D01*
X177921190Y-66434285D02*
X177968809Y-66481904D01*
X177968809Y-66481904D02*
X178016428Y-66577142D01*
X178016428Y-66577142D02*
X178016428Y-66958094D01*
X178492619Y-65434285D02*
X178492619Y-66005713D01*
X178492619Y-65719999D02*
X177492619Y-65719999D01*
X177492619Y-65719999D02*
X177635476Y-65815237D01*
X177635476Y-65815237D02*
X177730714Y-65910475D01*
X177730714Y-65910475D02*
X177778333Y-66005713D01*
%TO.C,R4*%
X171672619Y-44656666D02*
X171196428Y-44989999D01*
X171672619Y-45228094D02*
X170672619Y-45228094D01*
X170672619Y-45228094D02*
X170672619Y-44847142D01*
X170672619Y-44847142D02*
X170720238Y-44751904D01*
X170720238Y-44751904D02*
X170767857Y-44704285D01*
X170767857Y-44704285D02*
X170863095Y-44656666D01*
X170863095Y-44656666D02*
X171005952Y-44656666D01*
X171005952Y-44656666D02*
X171101190Y-44704285D01*
X171101190Y-44704285D02*
X171148809Y-44751904D01*
X171148809Y-44751904D02*
X171196428Y-44847142D01*
X171196428Y-44847142D02*
X171196428Y-45228094D01*
X171005952Y-43799523D02*
X171672619Y-43799523D01*
X170625000Y-44037618D02*
X171339285Y-44275713D01*
X171339285Y-44275713D02*
X171339285Y-43656666D01*
%TO.C,D1*%
X169892619Y-69258094D02*
X168892619Y-69258094D01*
X168892619Y-69258094D02*
X168892619Y-69019999D01*
X168892619Y-69019999D02*
X168940238Y-68877142D01*
X168940238Y-68877142D02*
X169035476Y-68781904D01*
X169035476Y-68781904D02*
X169130714Y-68734285D01*
X169130714Y-68734285D02*
X169321190Y-68686666D01*
X169321190Y-68686666D02*
X169464047Y-68686666D01*
X169464047Y-68686666D02*
X169654523Y-68734285D01*
X169654523Y-68734285D02*
X169749761Y-68781904D01*
X169749761Y-68781904D02*
X169845000Y-68877142D01*
X169845000Y-68877142D02*
X169892619Y-69019999D01*
X169892619Y-69019999D02*
X169892619Y-69258094D01*
X169892619Y-67734285D02*
X169892619Y-68305713D01*
X169892619Y-68019999D02*
X168892619Y-68019999D01*
X168892619Y-68019999D02*
X169035476Y-68115237D01*
X169035476Y-68115237D02*
X169130714Y-68210475D01*
X169130714Y-68210475D02*
X169178333Y-68305713D01*
D11*
%TO.C,R3*%
X189176667Y-51560095D02*
X188910000Y-51179142D01*
X188719524Y-51560095D02*
X188719524Y-50760095D01*
X188719524Y-50760095D02*
X189024286Y-50760095D01*
X189024286Y-50760095D02*
X189100476Y-50798190D01*
X189100476Y-50798190D02*
X189138571Y-50836285D01*
X189138571Y-50836285D02*
X189176667Y-50912476D01*
X189176667Y-50912476D02*
X189176667Y-51026761D01*
X189176667Y-51026761D02*
X189138571Y-51102952D01*
X189138571Y-51102952D02*
X189100476Y-51141047D01*
X189100476Y-51141047D02*
X189024286Y-51179142D01*
X189024286Y-51179142D02*
X188719524Y-51179142D01*
X189443333Y-50760095D02*
X189938571Y-50760095D01*
X189938571Y-50760095D02*
X189671905Y-51064857D01*
X189671905Y-51064857D02*
X189786190Y-51064857D01*
X189786190Y-51064857D02*
X189862381Y-51102952D01*
X189862381Y-51102952D02*
X189900476Y-51141047D01*
X189900476Y-51141047D02*
X189938571Y-51217238D01*
X189938571Y-51217238D02*
X189938571Y-51407714D01*
X189938571Y-51407714D02*
X189900476Y-51483904D01*
X189900476Y-51483904D02*
X189862381Y-51522000D01*
X189862381Y-51522000D02*
X189786190Y-51560095D01*
X189786190Y-51560095D02*
X189557619Y-51560095D01*
X189557619Y-51560095D02*
X189481428Y-51522000D01*
X189481428Y-51522000D02*
X189443333Y-51483904D01*
D10*
%TO.C,D2*%
X132680095Y-54780475D02*
X131880095Y-54780475D01*
X131880095Y-54780475D02*
X131880095Y-54589999D01*
X131880095Y-54589999D02*
X131918190Y-54475713D01*
X131918190Y-54475713D02*
X131994380Y-54399523D01*
X131994380Y-54399523D02*
X132070571Y-54361428D01*
X132070571Y-54361428D02*
X132222952Y-54323332D01*
X132222952Y-54323332D02*
X132337238Y-54323332D01*
X132337238Y-54323332D02*
X132489619Y-54361428D01*
X132489619Y-54361428D02*
X132565809Y-54399523D01*
X132565809Y-54399523D02*
X132642000Y-54475713D01*
X132642000Y-54475713D02*
X132680095Y-54589999D01*
X132680095Y-54589999D02*
X132680095Y-54780475D01*
X131956285Y-54018571D02*
X131918190Y-53980475D01*
X131918190Y-53980475D02*
X131880095Y-53904285D01*
X131880095Y-53904285D02*
X131880095Y-53713809D01*
X131880095Y-53713809D02*
X131918190Y-53637618D01*
X131918190Y-53637618D02*
X131956285Y-53599523D01*
X131956285Y-53599523D02*
X132032476Y-53561428D01*
X132032476Y-53561428D02*
X132108666Y-53561428D01*
X132108666Y-53561428D02*
X132222952Y-53599523D01*
X132222952Y-53599523D02*
X132680095Y-54056666D01*
X132680095Y-54056666D02*
X132680095Y-53561428D01*
%TO.C,J2*%
X138512619Y-68053333D02*
X139226904Y-68053333D01*
X139226904Y-68053333D02*
X139369761Y-68100952D01*
X139369761Y-68100952D02*
X139465000Y-68196190D01*
X139465000Y-68196190D02*
X139512619Y-68339047D01*
X139512619Y-68339047D02*
X139512619Y-68434285D01*
X138607857Y-67624761D02*
X138560238Y-67577142D01*
X138560238Y-67577142D02*
X138512619Y-67481904D01*
X138512619Y-67481904D02*
X138512619Y-67243809D01*
X138512619Y-67243809D02*
X138560238Y-67148571D01*
X138560238Y-67148571D02*
X138607857Y-67100952D01*
X138607857Y-67100952D02*
X138703095Y-67053333D01*
X138703095Y-67053333D02*
X138798333Y-67053333D01*
X138798333Y-67053333D02*
X138941190Y-67100952D01*
X138941190Y-67100952D02*
X139512619Y-67672380D01*
X139512619Y-67672380D02*
X139512619Y-67053333D01*
%TO.C,R1*%
X138042619Y-66336666D02*
X137566428Y-66669999D01*
X138042619Y-66908094D02*
X137042619Y-66908094D01*
X137042619Y-66908094D02*
X137042619Y-66527142D01*
X137042619Y-66527142D02*
X137090238Y-66431904D01*
X137090238Y-66431904D02*
X137137857Y-66384285D01*
X137137857Y-66384285D02*
X137233095Y-66336666D01*
X137233095Y-66336666D02*
X137375952Y-66336666D01*
X137375952Y-66336666D02*
X137471190Y-66384285D01*
X137471190Y-66384285D02*
X137518809Y-66431904D01*
X137518809Y-66431904D02*
X137566428Y-66527142D01*
X137566428Y-66527142D02*
X137566428Y-66908094D01*
X138042619Y-65384285D02*
X138042619Y-65955713D01*
X138042619Y-65669999D02*
X137042619Y-65669999D01*
X137042619Y-65669999D02*
X137185476Y-65765237D01*
X137185476Y-65765237D02*
X137280714Y-65860475D01*
X137280714Y-65860475D02*
X137328333Y-65955713D01*
%TO.C,R2*%
X132713333Y-59382619D02*
X132380000Y-58906428D01*
X132141905Y-59382619D02*
X132141905Y-58382619D01*
X132141905Y-58382619D02*
X132522857Y-58382619D01*
X132522857Y-58382619D02*
X132618095Y-58430238D01*
X132618095Y-58430238D02*
X132665714Y-58477857D01*
X132665714Y-58477857D02*
X132713333Y-58573095D01*
X132713333Y-58573095D02*
X132713333Y-58715952D01*
X132713333Y-58715952D02*
X132665714Y-58811190D01*
X132665714Y-58811190D02*
X132618095Y-58858809D01*
X132618095Y-58858809D02*
X132522857Y-58906428D01*
X132522857Y-58906428D02*
X132141905Y-58906428D01*
X133094286Y-58477857D02*
X133141905Y-58430238D01*
X133141905Y-58430238D02*
X133237143Y-58382619D01*
X133237143Y-58382619D02*
X133475238Y-58382619D01*
X133475238Y-58382619D02*
X133570476Y-58430238D01*
X133570476Y-58430238D02*
X133618095Y-58477857D01*
X133618095Y-58477857D02*
X133665714Y-58573095D01*
X133665714Y-58573095D02*
X133665714Y-58668333D01*
X133665714Y-58668333D02*
X133618095Y-58811190D01*
X133618095Y-58811190D02*
X133046667Y-59382619D01*
X133046667Y-59382619D02*
X133665714Y-59382619D01*
%TO.C,D1*%
X129442619Y-69208094D02*
X128442619Y-69208094D01*
X128442619Y-69208094D02*
X128442619Y-68969999D01*
X128442619Y-68969999D02*
X128490238Y-68827142D01*
X128490238Y-68827142D02*
X128585476Y-68731904D01*
X128585476Y-68731904D02*
X128680714Y-68684285D01*
X128680714Y-68684285D02*
X128871190Y-68636666D01*
X128871190Y-68636666D02*
X129014047Y-68636666D01*
X129014047Y-68636666D02*
X129204523Y-68684285D01*
X129204523Y-68684285D02*
X129299761Y-68731904D01*
X129299761Y-68731904D02*
X129395000Y-68827142D01*
X129395000Y-68827142D02*
X129442619Y-68969999D01*
X129442619Y-68969999D02*
X129442619Y-69208094D01*
X129442619Y-67684285D02*
X129442619Y-68255713D01*
X129442619Y-67969999D02*
X128442619Y-67969999D01*
X128442619Y-67969999D02*
X128585476Y-68065237D01*
X128585476Y-68065237D02*
X128680714Y-68160475D01*
X128680714Y-68160475D02*
X128728333Y-68255713D01*
%TO.C,D3*%
X151792619Y-60808094D02*
X150792619Y-60808094D01*
X150792619Y-60808094D02*
X150792619Y-60569999D01*
X150792619Y-60569999D02*
X150840238Y-60427142D01*
X150840238Y-60427142D02*
X150935476Y-60331904D01*
X150935476Y-60331904D02*
X151030714Y-60284285D01*
X151030714Y-60284285D02*
X151221190Y-60236666D01*
X151221190Y-60236666D02*
X151364047Y-60236666D01*
X151364047Y-60236666D02*
X151554523Y-60284285D01*
X151554523Y-60284285D02*
X151649761Y-60331904D01*
X151649761Y-60331904D02*
X151745000Y-60427142D01*
X151745000Y-60427142D02*
X151792619Y-60569999D01*
X151792619Y-60569999D02*
X151792619Y-60808094D01*
X150792619Y-59903332D02*
X150792619Y-59284285D01*
X150792619Y-59284285D02*
X151173571Y-59617618D01*
X151173571Y-59617618D02*
X151173571Y-59474761D01*
X151173571Y-59474761D02*
X151221190Y-59379523D01*
X151221190Y-59379523D02*
X151268809Y-59331904D01*
X151268809Y-59331904D02*
X151364047Y-59284285D01*
X151364047Y-59284285D02*
X151602142Y-59284285D01*
X151602142Y-59284285D02*
X151697380Y-59331904D01*
X151697380Y-59331904D02*
X151745000Y-59379523D01*
X151745000Y-59379523D02*
X151792619Y-59474761D01*
X151792619Y-59474761D02*
X151792619Y-59760475D01*
X151792619Y-59760475D02*
X151745000Y-59855713D01*
X151745000Y-59855713D02*
X151697380Y-59903332D01*
%TO.C,U1*%
X140342619Y-64081904D02*
X141152142Y-64081904D01*
X141152142Y-64081904D02*
X141247380Y-64034285D01*
X141247380Y-64034285D02*
X141295000Y-63986666D01*
X141295000Y-63986666D02*
X141342619Y-63891428D01*
X141342619Y-63891428D02*
X141342619Y-63700952D01*
X141342619Y-63700952D02*
X141295000Y-63605714D01*
X141295000Y-63605714D02*
X141247380Y-63558095D01*
X141247380Y-63558095D02*
X141152142Y-63510476D01*
X141152142Y-63510476D02*
X140342619Y-63510476D01*
X141342619Y-62510476D02*
X141342619Y-63081904D01*
X141342619Y-62796190D02*
X140342619Y-62796190D01*
X140342619Y-62796190D02*
X140485476Y-62891428D01*
X140485476Y-62891428D02*
X140580714Y-62986666D01*
X140580714Y-62986666D02*
X140628333Y-63081904D01*
D11*
%TO.C,R3*%
X148846667Y-65740095D02*
X148580000Y-65359142D01*
X148389524Y-65740095D02*
X148389524Y-64940095D01*
X148389524Y-64940095D02*
X148694286Y-64940095D01*
X148694286Y-64940095D02*
X148770476Y-64978190D01*
X148770476Y-64978190D02*
X148808571Y-65016285D01*
X148808571Y-65016285D02*
X148846667Y-65092476D01*
X148846667Y-65092476D02*
X148846667Y-65206761D01*
X148846667Y-65206761D02*
X148808571Y-65282952D01*
X148808571Y-65282952D02*
X148770476Y-65321047D01*
X148770476Y-65321047D02*
X148694286Y-65359142D01*
X148694286Y-65359142D02*
X148389524Y-65359142D01*
X149113333Y-64940095D02*
X149608571Y-64940095D01*
X149608571Y-64940095D02*
X149341905Y-65244857D01*
X149341905Y-65244857D02*
X149456190Y-65244857D01*
X149456190Y-65244857D02*
X149532381Y-65282952D01*
X149532381Y-65282952D02*
X149570476Y-65321047D01*
X149570476Y-65321047D02*
X149608571Y-65397238D01*
X149608571Y-65397238D02*
X149608571Y-65587714D01*
X149608571Y-65587714D02*
X149570476Y-65663904D01*
X149570476Y-65663904D02*
X149532381Y-65702000D01*
X149532381Y-65702000D02*
X149456190Y-65740095D01*
X149456190Y-65740095D02*
X149227619Y-65740095D01*
X149227619Y-65740095D02*
X149151428Y-65702000D01*
X149151428Y-65702000D02*
X149113333Y-65663904D01*
D10*
%TO.C,D2*%
X132800095Y-69010475D02*
X132000095Y-69010475D01*
X132000095Y-69010475D02*
X132000095Y-68819999D01*
X132000095Y-68819999D02*
X132038190Y-68705713D01*
X132038190Y-68705713D02*
X132114380Y-68629523D01*
X132114380Y-68629523D02*
X132190571Y-68591428D01*
X132190571Y-68591428D02*
X132342952Y-68553332D01*
X132342952Y-68553332D02*
X132457238Y-68553332D01*
X132457238Y-68553332D02*
X132609619Y-68591428D01*
X132609619Y-68591428D02*
X132685809Y-68629523D01*
X132685809Y-68629523D02*
X132762000Y-68705713D01*
X132762000Y-68705713D02*
X132800095Y-68819999D01*
X132800095Y-68819999D02*
X132800095Y-69010475D01*
X132076285Y-68248571D02*
X132038190Y-68210475D01*
X132038190Y-68210475D02*
X132000095Y-68134285D01*
X132000095Y-68134285D02*
X132000095Y-67943809D01*
X132000095Y-67943809D02*
X132038190Y-67867618D01*
X132038190Y-67867618D02*
X132076285Y-67829523D01*
X132076285Y-67829523D02*
X132152476Y-67791428D01*
X132152476Y-67791428D02*
X132228666Y-67791428D01*
X132228666Y-67791428D02*
X132342952Y-67829523D01*
X132342952Y-67829523D02*
X132800095Y-68286666D01*
X132800095Y-68286666D02*
X132800095Y-67791428D01*
%TO.C,J1*%
X149422619Y-59203333D02*
X150136904Y-59203333D01*
X150136904Y-59203333D02*
X150279761Y-59250952D01*
X150279761Y-59250952D02*
X150375000Y-59346190D01*
X150375000Y-59346190D02*
X150422619Y-59489047D01*
X150422619Y-59489047D02*
X150422619Y-59584285D01*
X150422619Y-58203333D02*
X150422619Y-58774761D01*
X150422619Y-58489047D02*
X149422619Y-58489047D01*
X149422619Y-58489047D02*
X149565476Y-58584285D01*
X149565476Y-58584285D02*
X149660714Y-58679523D01*
X149660714Y-58679523D02*
X149708333Y-58774761D01*
%TO.C,R4*%
X131342619Y-58836666D02*
X130866428Y-59169999D01*
X131342619Y-59408094D02*
X130342619Y-59408094D01*
X130342619Y-59408094D02*
X130342619Y-59027142D01*
X130342619Y-59027142D02*
X130390238Y-58931904D01*
X130390238Y-58931904D02*
X130437857Y-58884285D01*
X130437857Y-58884285D02*
X130533095Y-58836666D01*
X130533095Y-58836666D02*
X130675952Y-58836666D01*
X130675952Y-58836666D02*
X130771190Y-58884285D01*
X130771190Y-58884285D02*
X130818809Y-58931904D01*
X130818809Y-58931904D02*
X130866428Y-59027142D01*
X130866428Y-59027142D02*
X130866428Y-59408094D01*
X130675952Y-57979523D02*
X131342619Y-57979523D01*
X130295000Y-58217618D02*
X131009285Y-58455713D01*
X131009285Y-58455713D02*
X131009285Y-57836666D01*
%TO.C,C1*%
X135197380Y-60124166D02*
X135245000Y-60171785D01*
X135245000Y-60171785D02*
X135292619Y-60314642D01*
X135292619Y-60314642D02*
X135292619Y-60409880D01*
X135292619Y-60409880D02*
X135245000Y-60552737D01*
X135245000Y-60552737D02*
X135149761Y-60647975D01*
X135149761Y-60647975D02*
X135054523Y-60695594D01*
X135054523Y-60695594D02*
X134864047Y-60743213D01*
X134864047Y-60743213D02*
X134721190Y-60743213D01*
X134721190Y-60743213D02*
X134530714Y-60695594D01*
X134530714Y-60695594D02*
X134435476Y-60647975D01*
X134435476Y-60647975D02*
X134340238Y-60552737D01*
X134340238Y-60552737D02*
X134292619Y-60409880D01*
X134292619Y-60409880D02*
X134292619Y-60314642D01*
X134292619Y-60314642D02*
X134340238Y-60171785D01*
X134340238Y-60171785D02*
X134387857Y-60124166D01*
X135292619Y-59171785D02*
X135292619Y-59743213D01*
X135292619Y-59457499D02*
X134292619Y-59457499D01*
X134292619Y-59457499D02*
X134435476Y-59552737D01*
X134435476Y-59552737D02*
X134530714Y-59647975D01*
X134530714Y-59647975D02*
X134578333Y-59743213D01*
X175647380Y-60174166D02*
X175695000Y-60221785D01*
X175695000Y-60221785D02*
X175742619Y-60364642D01*
X175742619Y-60364642D02*
X175742619Y-60459880D01*
X175742619Y-60459880D02*
X175695000Y-60602737D01*
X175695000Y-60602737D02*
X175599761Y-60697975D01*
X175599761Y-60697975D02*
X175504523Y-60745594D01*
X175504523Y-60745594D02*
X175314047Y-60793213D01*
X175314047Y-60793213D02*
X175171190Y-60793213D01*
X175171190Y-60793213D02*
X174980714Y-60745594D01*
X174980714Y-60745594D02*
X174885476Y-60697975D01*
X174885476Y-60697975D02*
X174790238Y-60602737D01*
X174790238Y-60602737D02*
X174742619Y-60459880D01*
X174742619Y-60459880D02*
X174742619Y-60364642D01*
X174742619Y-60364642D02*
X174790238Y-60221785D01*
X174790238Y-60221785D02*
X174837857Y-60174166D01*
X175742619Y-59221785D02*
X175742619Y-59793213D01*
X175742619Y-59507499D02*
X174742619Y-59507499D01*
X174742619Y-59507499D02*
X174885476Y-59602737D01*
X174885476Y-59602737D02*
X174980714Y-59697975D01*
X174980714Y-59697975D02*
X175028333Y-59793213D01*
%TO.C,J1*%
X189872619Y-59253333D02*
X190586904Y-59253333D01*
X190586904Y-59253333D02*
X190729761Y-59300952D01*
X190729761Y-59300952D02*
X190825000Y-59396190D01*
X190825000Y-59396190D02*
X190872619Y-59539047D01*
X190872619Y-59539047D02*
X190872619Y-59634285D01*
X190872619Y-58253333D02*
X190872619Y-58824761D01*
X190872619Y-58539047D02*
X189872619Y-58539047D01*
X189872619Y-58539047D02*
X190015476Y-58634285D01*
X190015476Y-58634285D02*
X190110714Y-58729523D01*
X190110714Y-58729523D02*
X190158333Y-58824761D01*
%TO.C,D3*%
X192122619Y-46628094D02*
X191122619Y-46628094D01*
X191122619Y-46628094D02*
X191122619Y-46389999D01*
X191122619Y-46389999D02*
X191170238Y-46247142D01*
X191170238Y-46247142D02*
X191265476Y-46151904D01*
X191265476Y-46151904D02*
X191360714Y-46104285D01*
X191360714Y-46104285D02*
X191551190Y-46056666D01*
X191551190Y-46056666D02*
X191694047Y-46056666D01*
X191694047Y-46056666D02*
X191884523Y-46104285D01*
X191884523Y-46104285D02*
X191979761Y-46151904D01*
X191979761Y-46151904D02*
X192075000Y-46247142D01*
X192075000Y-46247142D02*
X192122619Y-46389999D01*
X192122619Y-46389999D02*
X192122619Y-46628094D01*
X191122619Y-45723332D02*
X191122619Y-45104285D01*
X191122619Y-45104285D02*
X191503571Y-45437618D01*
X191503571Y-45437618D02*
X191503571Y-45294761D01*
X191503571Y-45294761D02*
X191551190Y-45199523D01*
X191551190Y-45199523D02*
X191598809Y-45151904D01*
X191598809Y-45151904D02*
X191694047Y-45104285D01*
X191694047Y-45104285D02*
X191932142Y-45104285D01*
X191932142Y-45104285D02*
X192027380Y-45151904D01*
X192027380Y-45151904D02*
X192075000Y-45199523D01*
X192075000Y-45199523D02*
X192122619Y-45294761D01*
X192122619Y-45294761D02*
X192122619Y-45580475D01*
X192122619Y-45580475D02*
X192075000Y-45675713D01*
X192075000Y-45675713D02*
X192027380Y-45723332D01*
%TO.C,J2*%
X178842619Y-53873333D02*
X179556904Y-53873333D01*
X179556904Y-53873333D02*
X179699761Y-53920952D01*
X179699761Y-53920952D02*
X179795000Y-54016190D01*
X179795000Y-54016190D02*
X179842619Y-54159047D01*
X179842619Y-54159047D02*
X179842619Y-54254285D01*
X178937857Y-53444761D02*
X178890238Y-53397142D01*
X178890238Y-53397142D02*
X178842619Y-53301904D01*
X178842619Y-53301904D02*
X178842619Y-53063809D01*
X178842619Y-53063809D02*
X178890238Y-52968571D01*
X178890238Y-52968571D02*
X178937857Y-52920952D01*
X178937857Y-52920952D02*
X179033095Y-52873333D01*
X179033095Y-52873333D02*
X179128333Y-52873333D01*
X179128333Y-52873333D02*
X179271190Y-52920952D01*
X179271190Y-52920952D02*
X179842619Y-53492380D01*
X179842619Y-53492380D02*
X179842619Y-52873333D01*
%TO.C,D1*%
X169772619Y-55028094D02*
X168772619Y-55028094D01*
X168772619Y-55028094D02*
X168772619Y-54789999D01*
X168772619Y-54789999D02*
X168820238Y-54647142D01*
X168820238Y-54647142D02*
X168915476Y-54551904D01*
X168915476Y-54551904D02*
X169010714Y-54504285D01*
X169010714Y-54504285D02*
X169201190Y-54456666D01*
X169201190Y-54456666D02*
X169344047Y-54456666D01*
X169344047Y-54456666D02*
X169534523Y-54504285D01*
X169534523Y-54504285D02*
X169629761Y-54551904D01*
X169629761Y-54551904D02*
X169725000Y-54647142D01*
X169725000Y-54647142D02*
X169772619Y-54789999D01*
X169772619Y-54789999D02*
X169772619Y-55028094D01*
X169772619Y-53504285D02*
X169772619Y-54075713D01*
X169772619Y-53789999D02*
X168772619Y-53789999D01*
X168772619Y-53789999D02*
X168915476Y-53885237D01*
X168915476Y-53885237D02*
X169010714Y-53980475D01*
X169010714Y-53980475D02*
X169058333Y-54075713D01*
%TO.C,U1*%
X180672619Y-49901904D02*
X181482142Y-49901904D01*
X181482142Y-49901904D02*
X181577380Y-49854285D01*
X181577380Y-49854285D02*
X181625000Y-49806666D01*
X181625000Y-49806666D02*
X181672619Y-49711428D01*
X181672619Y-49711428D02*
X181672619Y-49520952D01*
X181672619Y-49520952D02*
X181625000Y-49425714D01*
X181625000Y-49425714D02*
X181577380Y-49378095D01*
X181577380Y-49378095D02*
X181482142Y-49330476D01*
X181482142Y-49330476D02*
X180672619Y-49330476D01*
X181672619Y-48330476D02*
X181672619Y-48901904D01*
X181672619Y-48616190D02*
X180672619Y-48616190D01*
X180672619Y-48616190D02*
X180815476Y-48711428D01*
X180815476Y-48711428D02*
X180910714Y-48806666D01*
X180910714Y-48806666D02*
X180958333Y-48901904D01*
%TO.C,R2*%
X173163333Y-59432619D02*
X172830000Y-58956428D01*
X172591905Y-59432619D02*
X172591905Y-58432619D01*
X172591905Y-58432619D02*
X172972857Y-58432619D01*
X172972857Y-58432619D02*
X173068095Y-58480238D01*
X173068095Y-58480238D02*
X173115714Y-58527857D01*
X173115714Y-58527857D02*
X173163333Y-58623095D01*
X173163333Y-58623095D02*
X173163333Y-58765952D01*
X173163333Y-58765952D02*
X173115714Y-58861190D01*
X173115714Y-58861190D02*
X173068095Y-58908809D01*
X173068095Y-58908809D02*
X172972857Y-58956428D01*
X172972857Y-58956428D02*
X172591905Y-58956428D01*
X173544286Y-58527857D02*
X173591905Y-58480238D01*
X173591905Y-58480238D02*
X173687143Y-58432619D01*
X173687143Y-58432619D02*
X173925238Y-58432619D01*
X173925238Y-58432619D02*
X174020476Y-58480238D01*
X174020476Y-58480238D02*
X174068095Y-58527857D01*
X174068095Y-58527857D02*
X174115714Y-58623095D01*
X174115714Y-58623095D02*
X174115714Y-58718333D01*
X174115714Y-58718333D02*
X174068095Y-58861190D01*
X174068095Y-58861190D02*
X173496667Y-59432619D01*
X173496667Y-59432619D02*
X174115714Y-59432619D01*
%TO.C,D2*%
X173250095Y-69060475D02*
X172450095Y-69060475D01*
X172450095Y-69060475D02*
X172450095Y-68869999D01*
X172450095Y-68869999D02*
X172488190Y-68755713D01*
X172488190Y-68755713D02*
X172564380Y-68679523D01*
X172564380Y-68679523D02*
X172640571Y-68641428D01*
X172640571Y-68641428D02*
X172792952Y-68603332D01*
X172792952Y-68603332D02*
X172907238Y-68603332D01*
X172907238Y-68603332D02*
X173059619Y-68641428D01*
X173059619Y-68641428D02*
X173135809Y-68679523D01*
X173135809Y-68679523D02*
X173212000Y-68755713D01*
X173212000Y-68755713D02*
X173250095Y-68869999D01*
X173250095Y-68869999D02*
X173250095Y-69060475D01*
X172526285Y-68298571D02*
X172488190Y-68260475D01*
X172488190Y-68260475D02*
X172450095Y-68184285D01*
X172450095Y-68184285D02*
X172450095Y-67993809D01*
X172450095Y-67993809D02*
X172488190Y-67917618D01*
X172488190Y-67917618D02*
X172526285Y-67879523D01*
X172526285Y-67879523D02*
X172602476Y-67841428D01*
X172602476Y-67841428D02*
X172678666Y-67841428D01*
X172678666Y-67841428D02*
X172792952Y-67879523D01*
X172792952Y-67879523D02*
X173250095Y-68336666D01*
X173250095Y-68336666D02*
X173250095Y-67841428D01*
%TO.C,J1*%
X189752619Y-45023333D02*
X190466904Y-45023333D01*
X190466904Y-45023333D02*
X190609761Y-45070952D01*
X190609761Y-45070952D02*
X190705000Y-45166190D01*
X190705000Y-45166190D02*
X190752619Y-45309047D01*
X190752619Y-45309047D02*
X190752619Y-45404285D01*
X190752619Y-44023333D02*
X190752619Y-44594761D01*
X190752619Y-44309047D02*
X189752619Y-44309047D01*
X189752619Y-44309047D02*
X189895476Y-44404285D01*
X189895476Y-44404285D02*
X189990714Y-44499523D01*
X189990714Y-44499523D02*
X190038333Y-44594761D01*
%TO.C,D2*%
X173130095Y-54830475D02*
X172330095Y-54830475D01*
X172330095Y-54830475D02*
X172330095Y-54639999D01*
X172330095Y-54639999D02*
X172368190Y-54525713D01*
X172368190Y-54525713D02*
X172444380Y-54449523D01*
X172444380Y-54449523D02*
X172520571Y-54411428D01*
X172520571Y-54411428D02*
X172672952Y-54373332D01*
X172672952Y-54373332D02*
X172787238Y-54373332D01*
X172787238Y-54373332D02*
X172939619Y-54411428D01*
X172939619Y-54411428D02*
X173015809Y-54449523D01*
X173015809Y-54449523D02*
X173092000Y-54525713D01*
X173092000Y-54525713D02*
X173130095Y-54639999D01*
X173130095Y-54639999D02*
X173130095Y-54830475D01*
X172406285Y-54068571D02*
X172368190Y-54030475D01*
X172368190Y-54030475D02*
X172330095Y-53954285D01*
X172330095Y-53954285D02*
X172330095Y-53763809D01*
X172330095Y-53763809D02*
X172368190Y-53687618D01*
X172368190Y-53687618D02*
X172406285Y-53649523D01*
X172406285Y-53649523D02*
X172482476Y-53611428D01*
X172482476Y-53611428D02*
X172558666Y-53611428D01*
X172558666Y-53611428D02*
X172672952Y-53649523D01*
X172672952Y-53649523D02*
X173130095Y-54106666D01*
X173130095Y-54106666D02*
X173130095Y-53611428D01*
%TO.C,R2*%
X173043333Y-45202619D02*
X172710000Y-44726428D01*
X172471905Y-45202619D02*
X172471905Y-44202619D01*
X172471905Y-44202619D02*
X172852857Y-44202619D01*
X172852857Y-44202619D02*
X172948095Y-44250238D01*
X172948095Y-44250238D02*
X172995714Y-44297857D01*
X172995714Y-44297857D02*
X173043333Y-44393095D01*
X173043333Y-44393095D02*
X173043333Y-44535952D01*
X173043333Y-44535952D02*
X172995714Y-44631190D01*
X172995714Y-44631190D02*
X172948095Y-44678809D01*
X172948095Y-44678809D02*
X172852857Y-44726428D01*
X172852857Y-44726428D02*
X172471905Y-44726428D01*
X173424286Y-44297857D02*
X173471905Y-44250238D01*
X173471905Y-44250238D02*
X173567143Y-44202619D01*
X173567143Y-44202619D02*
X173805238Y-44202619D01*
X173805238Y-44202619D02*
X173900476Y-44250238D01*
X173900476Y-44250238D02*
X173948095Y-44297857D01*
X173948095Y-44297857D02*
X173995714Y-44393095D01*
X173995714Y-44393095D02*
X173995714Y-44488333D01*
X173995714Y-44488333D02*
X173948095Y-44631190D01*
X173948095Y-44631190D02*
X173376667Y-45202619D01*
X173376667Y-45202619D02*
X173995714Y-45202619D01*
%TO.C,R1*%
X178372619Y-52156666D02*
X177896428Y-52489999D01*
X178372619Y-52728094D02*
X177372619Y-52728094D01*
X177372619Y-52728094D02*
X177372619Y-52347142D01*
X177372619Y-52347142D02*
X177420238Y-52251904D01*
X177420238Y-52251904D02*
X177467857Y-52204285D01*
X177467857Y-52204285D02*
X177563095Y-52156666D01*
X177563095Y-52156666D02*
X177705952Y-52156666D01*
X177705952Y-52156666D02*
X177801190Y-52204285D01*
X177801190Y-52204285D02*
X177848809Y-52251904D01*
X177848809Y-52251904D02*
X177896428Y-52347142D01*
X177896428Y-52347142D02*
X177896428Y-52728094D01*
X178372619Y-51204285D02*
X178372619Y-51775713D01*
X178372619Y-51489999D02*
X177372619Y-51489999D01*
X177372619Y-51489999D02*
X177515476Y-51585237D01*
X177515476Y-51585237D02*
X177610714Y-51680475D01*
X177610714Y-51680475D02*
X177658333Y-51775713D01*
%TO.C,C1*%
X135077380Y-45894166D02*
X135125000Y-45941785D01*
X135125000Y-45941785D02*
X135172619Y-46084642D01*
X135172619Y-46084642D02*
X135172619Y-46179880D01*
X135172619Y-46179880D02*
X135125000Y-46322737D01*
X135125000Y-46322737D02*
X135029761Y-46417975D01*
X135029761Y-46417975D02*
X134934523Y-46465594D01*
X134934523Y-46465594D02*
X134744047Y-46513213D01*
X134744047Y-46513213D02*
X134601190Y-46513213D01*
X134601190Y-46513213D02*
X134410714Y-46465594D01*
X134410714Y-46465594D02*
X134315476Y-46417975D01*
X134315476Y-46417975D02*
X134220238Y-46322737D01*
X134220238Y-46322737D02*
X134172619Y-46179880D01*
X134172619Y-46179880D02*
X134172619Y-46084642D01*
X134172619Y-46084642D02*
X134220238Y-45941785D01*
X134220238Y-45941785D02*
X134267857Y-45894166D01*
X135172619Y-44941785D02*
X135172619Y-45513213D01*
X135172619Y-45227499D02*
X134172619Y-45227499D01*
X134172619Y-45227499D02*
X134315476Y-45322737D01*
X134315476Y-45322737D02*
X134410714Y-45417975D01*
X134410714Y-45417975D02*
X134458333Y-45513213D01*
%TO.C,J2*%
X178962619Y-68103333D02*
X179676904Y-68103333D01*
X179676904Y-68103333D02*
X179819761Y-68150952D01*
X179819761Y-68150952D02*
X179915000Y-68246190D01*
X179915000Y-68246190D02*
X179962619Y-68389047D01*
X179962619Y-68389047D02*
X179962619Y-68484285D01*
X179057857Y-67674761D02*
X179010238Y-67627142D01*
X179010238Y-67627142D02*
X178962619Y-67531904D01*
X178962619Y-67531904D02*
X178962619Y-67293809D01*
X178962619Y-67293809D02*
X179010238Y-67198571D01*
X179010238Y-67198571D02*
X179057857Y-67150952D01*
X179057857Y-67150952D02*
X179153095Y-67103333D01*
X179153095Y-67103333D02*
X179248333Y-67103333D01*
X179248333Y-67103333D02*
X179391190Y-67150952D01*
X179391190Y-67150952D02*
X179962619Y-67722380D01*
X179962619Y-67722380D02*
X179962619Y-67103333D01*
%TO.C,D3*%
X192242619Y-60858094D02*
X191242619Y-60858094D01*
X191242619Y-60858094D02*
X191242619Y-60619999D01*
X191242619Y-60619999D02*
X191290238Y-60477142D01*
X191290238Y-60477142D02*
X191385476Y-60381904D01*
X191385476Y-60381904D02*
X191480714Y-60334285D01*
X191480714Y-60334285D02*
X191671190Y-60286666D01*
X191671190Y-60286666D02*
X191814047Y-60286666D01*
X191814047Y-60286666D02*
X192004523Y-60334285D01*
X192004523Y-60334285D02*
X192099761Y-60381904D01*
X192099761Y-60381904D02*
X192195000Y-60477142D01*
X192195000Y-60477142D02*
X192242619Y-60619999D01*
X192242619Y-60619999D02*
X192242619Y-60858094D01*
X191242619Y-59953332D02*
X191242619Y-59334285D01*
X191242619Y-59334285D02*
X191623571Y-59667618D01*
X191623571Y-59667618D02*
X191623571Y-59524761D01*
X191623571Y-59524761D02*
X191671190Y-59429523D01*
X191671190Y-59429523D02*
X191718809Y-59381904D01*
X191718809Y-59381904D02*
X191814047Y-59334285D01*
X191814047Y-59334285D02*
X192052142Y-59334285D01*
X192052142Y-59334285D02*
X192147380Y-59381904D01*
X192147380Y-59381904D02*
X192195000Y-59429523D01*
X192195000Y-59429523D02*
X192242619Y-59524761D01*
X192242619Y-59524761D02*
X192242619Y-59810475D01*
X192242619Y-59810475D02*
X192195000Y-59905713D01*
X192195000Y-59905713D02*
X192147380Y-59953332D01*
%TO.C,R4*%
X171792619Y-58886666D02*
X171316428Y-59219999D01*
X171792619Y-59458094D02*
X170792619Y-59458094D01*
X170792619Y-59458094D02*
X170792619Y-59077142D01*
X170792619Y-59077142D02*
X170840238Y-58981904D01*
X170840238Y-58981904D02*
X170887857Y-58934285D01*
X170887857Y-58934285D02*
X170983095Y-58886666D01*
X170983095Y-58886666D02*
X171125952Y-58886666D01*
X171125952Y-58886666D02*
X171221190Y-58934285D01*
X171221190Y-58934285D02*
X171268809Y-58981904D01*
X171268809Y-58981904D02*
X171316428Y-59077142D01*
X171316428Y-59077142D02*
X171316428Y-59458094D01*
X171125952Y-58029523D02*
X171792619Y-58029523D01*
X170745000Y-58267618D02*
X171459285Y-58505713D01*
X171459285Y-58505713D02*
X171459285Y-57886666D01*
%TO.C,C1*%
X175527380Y-45944166D02*
X175575000Y-45991785D01*
X175575000Y-45991785D02*
X175622619Y-46134642D01*
X175622619Y-46134642D02*
X175622619Y-46229880D01*
X175622619Y-46229880D02*
X175575000Y-46372737D01*
X175575000Y-46372737D02*
X175479761Y-46467975D01*
X175479761Y-46467975D02*
X175384523Y-46515594D01*
X175384523Y-46515594D02*
X175194047Y-46563213D01*
X175194047Y-46563213D02*
X175051190Y-46563213D01*
X175051190Y-46563213D02*
X174860714Y-46515594D01*
X174860714Y-46515594D02*
X174765476Y-46467975D01*
X174765476Y-46467975D02*
X174670238Y-46372737D01*
X174670238Y-46372737D02*
X174622619Y-46229880D01*
X174622619Y-46229880D02*
X174622619Y-46134642D01*
X174622619Y-46134642D02*
X174670238Y-45991785D01*
X174670238Y-45991785D02*
X174717857Y-45944166D01*
X175622619Y-44991785D02*
X175622619Y-45563213D01*
X175622619Y-45277499D02*
X174622619Y-45277499D01*
X174622619Y-45277499D02*
X174765476Y-45372737D01*
X174765476Y-45372737D02*
X174860714Y-45467975D01*
X174860714Y-45467975D02*
X174908333Y-45563213D01*
%TO.C,U1*%
X140222619Y-49851904D02*
X141032142Y-49851904D01*
X141032142Y-49851904D02*
X141127380Y-49804285D01*
X141127380Y-49804285D02*
X141175000Y-49756666D01*
X141175000Y-49756666D02*
X141222619Y-49661428D01*
X141222619Y-49661428D02*
X141222619Y-49470952D01*
X141222619Y-49470952D02*
X141175000Y-49375714D01*
X141175000Y-49375714D02*
X141127380Y-49328095D01*
X141127380Y-49328095D02*
X141032142Y-49280476D01*
X141032142Y-49280476D02*
X140222619Y-49280476D01*
X141222619Y-48280476D02*
X141222619Y-48851904D01*
X141222619Y-48566190D02*
X140222619Y-48566190D01*
X140222619Y-48566190D02*
X140365476Y-48661428D01*
X140365476Y-48661428D02*
X140460714Y-48756666D01*
X140460714Y-48756666D02*
X140508333Y-48851904D01*
D11*
%TO.C,R3*%
X148726667Y-51510095D02*
X148460000Y-51129142D01*
X148269524Y-51510095D02*
X148269524Y-50710095D01*
X148269524Y-50710095D02*
X148574286Y-50710095D01*
X148574286Y-50710095D02*
X148650476Y-50748190D01*
X148650476Y-50748190D02*
X148688571Y-50786285D01*
X148688571Y-50786285D02*
X148726667Y-50862476D01*
X148726667Y-50862476D02*
X148726667Y-50976761D01*
X148726667Y-50976761D02*
X148688571Y-51052952D01*
X148688571Y-51052952D02*
X148650476Y-51091047D01*
X148650476Y-51091047D02*
X148574286Y-51129142D01*
X148574286Y-51129142D02*
X148269524Y-51129142D01*
X148993333Y-50710095D02*
X149488571Y-50710095D01*
X149488571Y-50710095D02*
X149221905Y-51014857D01*
X149221905Y-51014857D02*
X149336190Y-51014857D01*
X149336190Y-51014857D02*
X149412381Y-51052952D01*
X149412381Y-51052952D02*
X149450476Y-51091047D01*
X149450476Y-51091047D02*
X149488571Y-51167238D01*
X149488571Y-51167238D02*
X149488571Y-51357714D01*
X149488571Y-51357714D02*
X149450476Y-51433904D01*
X149450476Y-51433904D02*
X149412381Y-51472000D01*
X149412381Y-51472000D02*
X149336190Y-51510095D01*
X149336190Y-51510095D02*
X149107619Y-51510095D01*
X149107619Y-51510095D02*
X149031428Y-51472000D01*
X149031428Y-51472000D02*
X148993333Y-51433904D01*
D10*
%TO.C,R2*%
X132843333Y-73652619D02*
X132510000Y-73176428D01*
X132271905Y-73652619D02*
X132271905Y-72652619D01*
X132271905Y-72652619D02*
X132652857Y-72652619D01*
X132652857Y-72652619D02*
X132748095Y-72700238D01*
X132748095Y-72700238D02*
X132795714Y-72747857D01*
X132795714Y-72747857D02*
X132843333Y-72843095D01*
X132843333Y-72843095D02*
X132843333Y-72985952D01*
X132843333Y-72985952D02*
X132795714Y-73081190D01*
X132795714Y-73081190D02*
X132748095Y-73128809D01*
X132748095Y-73128809D02*
X132652857Y-73176428D01*
X132652857Y-73176428D02*
X132271905Y-73176428D01*
X133224286Y-72747857D02*
X133271905Y-72700238D01*
X133271905Y-72700238D02*
X133367143Y-72652619D01*
X133367143Y-72652619D02*
X133605238Y-72652619D01*
X133605238Y-72652619D02*
X133700476Y-72700238D01*
X133700476Y-72700238D02*
X133748095Y-72747857D01*
X133748095Y-72747857D02*
X133795714Y-72843095D01*
X133795714Y-72843095D02*
X133795714Y-72938333D01*
X133795714Y-72938333D02*
X133748095Y-73081190D01*
X133748095Y-73081190D02*
X133176667Y-73652619D01*
X133176667Y-73652619D02*
X133795714Y-73652619D01*
%TO.C,D1*%
X129572619Y-83478094D02*
X128572619Y-83478094D01*
X128572619Y-83478094D02*
X128572619Y-83239999D01*
X128572619Y-83239999D02*
X128620238Y-83097142D01*
X128620238Y-83097142D02*
X128715476Y-83001904D01*
X128715476Y-83001904D02*
X128810714Y-82954285D01*
X128810714Y-82954285D02*
X129001190Y-82906666D01*
X129001190Y-82906666D02*
X129144047Y-82906666D01*
X129144047Y-82906666D02*
X129334523Y-82954285D01*
X129334523Y-82954285D02*
X129429761Y-83001904D01*
X129429761Y-83001904D02*
X129525000Y-83097142D01*
X129525000Y-83097142D02*
X129572619Y-83239999D01*
X129572619Y-83239999D02*
X129572619Y-83478094D01*
X129572619Y-81954285D02*
X129572619Y-82525713D01*
X129572619Y-82239999D02*
X128572619Y-82239999D01*
X128572619Y-82239999D02*
X128715476Y-82335237D01*
X128715476Y-82335237D02*
X128810714Y-82430475D01*
X128810714Y-82430475D02*
X128858333Y-82525713D01*
%TO.C,J1*%
X149552619Y-73473333D02*
X150266904Y-73473333D01*
X150266904Y-73473333D02*
X150409761Y-73520952D01*
X150409761Y-73520952D02*
X150505000Y-73616190D01*
X150505000Y-73616190D02*
X150552619Y-73759047D01*
X150552619Y-73759047D02*
X150552619Y-73854285D01*
X150552619Y-72473333D02*
X150552619Y-73044761D01*
X150552619Y-72759047D02*
X149552619Y-72759047D01*
X149552619Y-72759047D02*
X149695476Y-72854285D01*
X149695476Y-72854285D02*
X149790714Y-72949523D01*
X149790714Y-72949523D02*
X149838333Y-73044761D01*
%TO.C,R4*%
X131472619Y-73106666D02*
X130996428Y-73439999D01*
X131472619Y-73678094D02*
X130472619Y-73678094D01*
X130472619Y-73678094D02*
X130472619Y-73297142D01*
X130472619Y-73297142D02*
X130520238Y-73201904D01*
X130520238Y-73201904D02*
X130567857Y-73154285D01*
X130567857Y-73154285D02*
X130663095Y-73106666D01*
X130663095Y-73106666D02*
X130805952Y-73106666D01*
X130805952Y-73106666D02*
X130901190Y-73154285D01*
X130901190Y-73154285D02*
X130948809Y-73201904D01*
X130948809Y-73201904D02*
X130996428Y-73297142D01*
X130996428Y-73297142D02*
X130996428Y-73678094D01*
X130805952Y-72249523D02*
X131472619Y-72249523D01*
X130425000Y-72487618D02*
X131139285Y-72725713D01*
X131139285Y-72725713D02*
X131139285Y-72106666D01*
D11*
%TO.C,R3*%
X189546667Y-94290095D02*
X189280000Y-93909142D01*
X189089524Y-94290095D02*
X189089524Y-93490095D01*
X189089524Y-93490095D02*
X189394286Y-93490095D01*
X189394286Y-93490095D02*
X189470476Y-93528190D01*
X189470476Y-93528190D02*
X189508571Y-93566285D01*
X189508571Y-93566285D02*
X189546667Y-93642476D01*
X189546667Y-93642476D02*
X189546667Y-93756761D01*
X189546667Y-93756761D02*
X189508571Y-93832952D01*
X189508571Y-93832952D02*
X189470476Y-93871047D01*
X189470476Y-93871047D02*
X189394286Y-93909142D01*
X189394286Y-93909142D02*
X189089524Y-93909142D01*
X189813333Y-93490095D02*
X190308571Y-93490095D01*
X190308571Y-93490095D02*
X190041905Y-93794857D01*
X190041905Y-93794857D02*
X190156190Y-93794857D01*
X190156190Y-93794857D02*
X190232381Y-93832952D01*
X190232381Y-93832952D02*
X190270476Y-93871047D01*
X190270476Y-93871047D02*
X190308571Y-93947238D01*
X190308571Y-93947238D02*
X190308571Y-94137714D01*
X190308571Y-94137714D02*
X190270476Y-94213904D01*
X190270476Y-94213904D02*
X190232381Y-94252000D01*
X190232381Y-94252000D02*
X190156190Y-94290095D01*
X190156190Y-94290095D02*
X189927619Y-94290095D01*
X189927619Y-94290095D02*
X189851428Y-94252000D01*
X189851428Y-94252000D02*
X189813333Y-94213904D01*
D10*
%TO.C,J2*%
X138642619Y-82323333D02*
X139356904Y-82323333D01*
X139356904Y-82323333D02*
X139499761Y-82370952D01*
X139499761Y-82370952D02*
X139595000Y-82466190D01*
X139595000Y-82466190D02*
X139642619Y-82609047D01*
X139642619Y-82609047D02*
X139642619Y-82704285D01*
X138737857Y-81894761D02*
X138690238Y-81847142D01*
X138690238Y-81847142D02*
X138642619Y-81751904D01*
X138642619Y-81751904D02*
X138642619Y-81513809D01*
X138642619Y-81513809D02*
X138690238Y-81418571D01*
X138690238Y-81418571D02*
X138737857Y-81370952D01*
X138737857Y-81370952D02*
X138833095Y-81323333D01*
X138833095Y-81323333D02*
X138928333Y-81323333D01*
X138928333Y-81323333D02*
X139071190Y-81370952D01*
X139071190Y-81370952D02*
X139642619Y-81942380D01*
X139642619Y-81942380D02*
X139642619Y-81323333D01*
%TO.C,R1*%
X138172619Y-80606666D02*
X137696428Y-80939999D01*
X138172619Y-81178094D02*
X137172619Y-81178094D01*
X137172619Y-81178094D02*
X137172619Y-80797142D01*
X137172619Y-80797142D02*
X137220238Y-80701904D01*
X137220238Y-80701904D02*
X137267857Y-80654285D01*
X137267857Y-80654285D02*
X137363095Y-80606666D01*
X137363095Y-80606666D02*
X137505952Y-80606666D01*
X137505952Y-80606666D02*
X137601190Y-80654285D01*
X137601190Y-80654285D02*
X137648809Y-80701904D01*
X137648809Y-80701904D02*
X137696428Y-80797142D01*
X137696428Y-80797142D02*
X137696428Y-81178094D01*
X138172619Y-79654285D02*
X138172619Y-80225713D01*
X138172619Y-79939999D02*
X137172619Y-79939999D01*
X137172619Y-79939999D02*
X137315476Y-80035237D01*
X137315476Y-80035237D02*
X137410714Y-80130475D01*
X137410714Y-80130475D02*
X137458333Y-80225713D01*
%TO.C,U1*%
X181042619Y-92631904D02*
X181852142Y-92631904D01*
X181852142Y-92631904D02*
X181947380Y-92584285D01*
X181947380Y-92584285D02*
X181995000Y-92536666D01*
X181995000Y-92536666D02*
X182042619Y-92441428D01*
X182042619Y-92441428D02*
X182042619Y-92250952D01*
X182042619Y-92250952D02*
X181995000Y-92155714D01*
X181995000Y-92155714D02*
X181947380Y-92108095D01*
X181947380Y-92108095D02*
X181852142Y-92060476D01*
X181852142Y-92060476D02*
X181042619Y-92060476D01*
X182042619Y-91060476D02*
X182042619Y-91631904D01*
X182042619Y-91346190D02*
X181042619Y-91346190D01*
X181042619Y-91346190D02*
X181185476Y-91441428D01*
X181185476Y-91441428D02*
X181280714Y-91536666D01*
X181280714Y-91536666D02*
X181328333Y-91631904D01*
%TO.C,D3*%
X151922619Y-75078094D02*
X150922619Y-75078094D01*
X150922619Y-75078094D02*
X150922619Y-74839999D01*
X150922619Y-74839999D02*
X150970238Y-74697142D01*
X150970238Y-74697142D02*
X151065476Y-74601904D01*
X151065476Y-74601904D02*
X151160714Y-74554285D01*
X151160714Y-74554285D02*
X151351190Y-74506666D01*
X151351190Y-74506666D02*
X151494047Y-74506666D01*
X151494047Y-74506666D02*
X151684523Y-74554285D01*
X151684523Y-74554285D02*
X151779761Y-74601904D01*
X151779761Y-74601904D02*
X151875000Y-74697142D01*
X151875000Y-74697142D02*
X151922619Y-74839999D01*
X151922619Y-74839999D02*
X151922619Y-75078094D01*
X150922619Y-74173332D02*
X150922619Y-73554285D01*
X150922619Y-73554285D02*
X151303571Y-73887618D01*
X151303571Y-73887618D02*
X151303571Y-73744761D01*
X151303571Y-73744761D02*
X151351190Y-73649523D01*
X151351190Y-73649523D02*
X151398809Y-73601904D01*
X151398809Y-73601904D02*
X151494047Y-73554285D01*
X151494047Y-73554285D02*
X151732142Y-73554285D01*
X151732142Y-73554285D02*
X151827380Y-73601904D01*
X151827380Y-73601904D02*
X151875000Y-73649523D01*
X151875000Y-73649523D02*
X151922619Y-73744761D01*
X151922619Y-73744761D02*
X151922619Y-74030475D01*
X151922619Y-74030475D02*
X151875000Y-74125713D01*
X151875000Y-74125713D02*
X151827380Y-74173332D01*
%TO.C,R1*%
X178742619Y-94886666D02*
X178266428Y-95219999D01*
X178742619Y-95458094D02*
X177742619Y-95458094D01*
X177742619Y-95458094D02*
X177742619Y-95077142D01*
X177742619Y-95077142D02*
X177790238Y-94981904D01*
X177790238Y-94981904D02*
X177837857Y-94934285D01*
X177837857Y-94934285D02*
X177933095Y-94886666D01*
X177933095Y-94886666D02*
X178075952Y-94886666D01*
X178075952Y-94886666D02*
X178171190Y-94934285D01*
X178171190Y-94934285D02*
X178218809Y-94981904D01*
X178218809Y-94981904D02*
X178266428Y-95077142D01*
X178266428Y-95077142D02*
X178266428Y-95458094D01*
X178742619Y-93934285D02*
X178742619Y-94505713D01*
X178742619Y-94219999D02*
X177742619Y-94219999D01*
X177742619Y-94219999D02*
X177885476Y-94315237D01*
X177885476Y-94315237D02*
X177980714Y-94410475D01*
X177980714Y-94410475D02*
X178028333Y-94505713D01*
%TO.C,R4*%
X171922619Y-73156666D02*
X171446428Y-73489999D01*
X171922619Y-73728094D02*
X170922619Y-73728094D01*
X170922619Y-73728094D02*
X170922619Y-73347142D01*
X170922619Y-73347142D02*
X170970238Y-73251904D01*
X170970238Y-73251904D02*
X171017857Y-73204285D01*
X171017857Y-73204285D02*
X171113095Y-73156666D01*
X171113095Y-73156666D02*
X171255952Y-73156666D01*
X171255952Y-73156666D02*
X171351190Y-73204285D01*
X171351190Y-73204285D02*
X171398809Y-73251904D01*
X171398809Y-73251904D02*
X171446428Y-73347142D01*
X171446428Y-73347142D02*
X171446428Y-73728094D01*
X171255952Y-72299523D02*
X171922619Y-72299523D01*
X170875000Y-72537618D02*
X171589285Y-72775713D01*
X171589285Y-72775713D02*
X171589285Y-72156666D01*
%TO.C,D1*%
X170142619Y-97758094D02*
X169142619Y-97758094D01*
X169142619Y-97758094D02*
X169142619Y-97519999D01*
X169142619Y-97519999D02*
X169190238Y-97377142D01*
X169190238Y-97377142D02*
X169285476Y-97281904D01*
X169285476Y-97281904D02*
X169380714Y-97234285D01*
X169380714Y-97234285D02*
X169571190Y-97186666D01*
X169571190Y-97186666D02*
X169714047Y-97186666D01*
X169714047Y-97186666D02*
X169904523Y-97234285D01*
X169904523Y-97234285D02*
X169999761Y-97281904D01*
X169999761Y-97281904D02*
X170095000Y-97377142D01*
X170095000Y-97377142D02*
X170142619Y-97519999D01*
X170142619Y-97519999D02*
X170142619Y-97758094D01*
X170142619Y-96234285D02*
X170142619Y-96805713D01*
X170142619Y-96519999D02*
X169142619Y-96519999D01*
X169142619Y-96519999D02*
X169285476Y-96615237D01*
X169285476Y-96615237D02*
X169380714Y-96710475D01*
X169380714Y-96710475D02*
X169428333Y-96805713D01*
D11*
%TO.C,R3*%
X189426667Y-80060095D02*
X189160000Y-79679142D01*
X188969524Y-80060095D02*
X188969524Y-79260095D01*
X188969524Y-79260095D02*
X189274286Y-79260095D01*
X189274286Y-79260095D02*
X189350476Y-79298190D01*
X189350476Y-79298190D02*
X189388571Y-79336285D01*
X189388571Y-79336285D02*
X189426667Y-79412476D01*
X189426667Y-79412476D02*
X189426667Y-79526761D01*
X189426667Y-79526761D02*
X189388571Y-79602952D01*
X189388571Y-79602952D02*
X189350476Y-79641047D01*
X189350476Y-79641047D02*
X189274286Y-79679142D01*
X189274286Y-79679142D02*
X188969524Y-79679142D01*
X189693333Y-79260095D02*
X190188571Y-79260095D01*
X190188571Y-79260095D02*
X189921905Y-79564857D01*
X189921905Y-79564857D02*
X190036190Y-79564857D01*
X190036190Y-79564857D02*
X190112381Y-79602952D01*
X190112381Y-79602952D02*
X190150476Y-79641047D01*
X190150476Y-79641047D02*
X190188571Y-79717238D01*
X190188571Y-79717238D02*
X190188571Y-79907714D01*
X190188571Y-79907714D02*
X190150476Y-79983904D01*
X190150476Y-79983904D02*
X190112381Y-80022000D01*
X190112381Y-80022000D02*
X190036190Y-80060095D01*
X190036190Y-80060095D02*
X189807619Y-80060095D01*
X189807619Y-80060095D02*
X189731428Y-80022000D01*
X189731428Y-80022000D02*
X189693333Y-79983904D01*
D10*
%TO.C,D2*%
X132930095Y-83280475D02*
X132130095Y-83280475D01*
X132130095Y-83280475D02*
X132130095Y-83089999D01*
X132130095Y-83089999D02*
X132168190Y-82975713D01*
X132168190Y-82975713D02*
X132244380Y-82899523D01*
X132244380Y-82899523D02*
X132320571Y-82861428D01*
X132320571Y-82861428D02*
X132472952Y-82823332D01*
X132472952Y-82823332D02*
X132587238Y-82823332D01*
X132587238Y-82823332D02*
X132739619Y-82861428D01*
X132739619Y-82861428D02*
X132815809Y-82899523D01*
X132815809Y-82899523D02*
X132892000Y-82975713D01*
X132892000Y-82975713D02*
X132930095Y-83089999D01*
X132930095Y-83089999D02*
X132930095Y-83280475D01*
X132206285Y-82518571D02*
X132168190Y-82480475D01*
X132168190Y-82480475D02*
X132130095Y-82404285D01*
X132130095Y-82404285D02*
X132130095Y-82213809D01*
X132130095Y-82213809D02*
X132168190Y-82137618D01*
X132168190Y-82137618D02*
X132206285Y-82099523D01*
X132206285Y-82099523D02*
X132282476Y-82061428D01*
X132282476Y-82061428D02*
X132358666Y-82061428D01*
X132358666Y-82061428D02*
X132472952Y-82099523D01*
X132472952Y-82099523D02*
X132930095Y-82556666D01*
X132930095Y-82556666D02*
X132930095Y-82061428D01*
%TO.C,J2*%
X138762619Y-96553333D02*
X139476904Y-96553333D01*
X139476904Y-96553333D02*
X139619761Y-96600952D01*
X139619761Y-96600952D02*
X139715000Y-96696190D01*
X139715000Y-96696190D02*
X139762619Y-96839047D01*
X139762619Y-96839047D02*
X139762619Y-96934285D01*
X138857857Y-96124761D02*
X138810238Y-96077142D01*
X138810238Y-96077142D02*
X138762619Y-95981904D01*
X138762619Y-95981904D02*
X138762619Y-95743809D01*
X138762619Y-95743809D02*
X138810238Y-95648571D01*
X138810238Y-95648571D02*
X138857857Y-95600952D01*
X138857857Y-95600952D02*
X138953095Y-95553333D01*
X138953095Y-95553333D02*
X139048333Y-95553333D01*
X139048333Y-95553333D02*
X139191190Y-95600952D01*
X139191190Y-95600952D02*
X139762619Y-96172380D01*
X139762619Y-96172380D02*
X139762619Y-95553333D01*
%TO.C,R1*%
X138292619Y-94836666D02*
X137816428Y-95169999D01*
X138292619Y-95408094D02*
X137292619Y-95408094D01*
X137292619Y-95408094D02*
X137292619Y-95027142D01*
X137292619Y-95027142D02*
X137340238Y-94931904D01*
X137340238Y-94931904D02*
X137387857Y-94884285D01*
X137387857Y-94884285D02*
X137483095Y-94836666D01*
X137483095Y-94836666D02*
X137625952Y-94836666D01*
X137625952Y-94836666D02*
X137721190Y-94884285D01*
X137721190Y-94884285D02*
X137768809Y-94931904D01*
X137768809Y-94931904D02*
X137816428Y-95027142D01*
X137816428Y-95027142D02*
X137816428Y-95408094D01*
X138292619Y-93884285D02*
X138292619Y-94455713D01*
X138292619Y-94169999D02*
X137292619Y-94169999D01*
X137292619Y-94169999D02*
X137435476Y-94265237D01*
X137435476Y-94265237D02*
X137530714Y-94360475D01*
X137530714Y-94360475D02*
X137578333Y-94455713D01*
%TO.C,R2*%
X132963333Y-87882619D02*
X132630000Y-87406428D01*
X132391905Y-87882619D02*
X132391905Y-86882619D01*
X132391905Y-86882619D02*
X132772857Y-86882619D01*
X132772857Y-86882619D02*
X132868095Y-86930238D01*
X132868095Y-86930238D02*
X132915714Y-86977857D01*
X132915714Y-86977857D02*
X132963333Y-87073095D01*
X132963333Y-87073095D02*
X132963333Y-87215952D01*
X132963333Y-87215952D02*
X132915714Y-87311190D01*
X132915714Y-87311190D02*
X132868095Y-87358809D01*
X132868095Y-87358809D02*
X132772857Y-87406428D01*
X132772857Y-87406428D02*
X132391905Y-87406428D01*
X133344286Y-86977857D02*
X133391905Y-86930238D01*
X133391905Y-86930238D02*
X133487143Y-86882619D01*
X133487143Y-86882619D02*
X133725238Y-86882619D01*
X133725238Y-86882619D02*
X133820476Y-86930238D01*
X133820476Y-86930238D02*
X133868095Y-86977857D01*
X133868095Y-86977857D02*
X133915714Y-87073095D01*
X133915714Y-87073095D02*
X133915714Y-87168333D01*
X133915714Y-87168333D02*
X133868095Y-87311190D01*
X133868095Y-87311190D02*
X133296667Y-87882619D01*
X133296667Y-87882619D02*
X133915714Y-87882619D01*
%TO.C,D1*%
X129692619Y-97708094D02*
X128692619Y-97708094D01*
X128692619Y-97708094D02*
X128692619Y-97469999D01*
X128692619Y-97469999D02*
X128740238Y-97327142D01*
X128740238Y-97327142D02*
X128835476Y-97231904D01*
X128835476Y-97231904D02*
X128930714Y-97184285D01*
X128930714Y-97184285D02*
X129121190Y-97136666D01*
X129121190Y-97136666D02*
X129264047Y-97136666D01*
X129264047Y-97136666D02*
X129454523Y-97184285D01*
X129454523Y-97184285D02*
X129549761Y-97231904D01*
X129549761Y-97231904D02*
X129645000Y-97327142D01*
X129645000Y-97327142D02*
X129692619Y-97469999D01*
X129692619Y-97469999D02*
X129692619Y-97708094D01*
X129692619Y-96184285D02*
X129692619Y-96755713D01*
X129692619Y-96469999D02*
X128692619Y-96469999D01*
X128692619Y-96469999D02*
X128835476Y-96565237D01*
X128835476Y-96565237D02*
X128930714Y-96660475D01*
X128930714Y-96660475D02*
X128978333Y-96755713D01*
%TO.C,D3*%
X152042619Y-89308094D02*
X151042619Y-89308094D01*
X151042619Y-89308094D02*
X151042619Y-89069999D01*
X151042619Y-89069999D02*
X151090238Y-88927142D01*
X151090238Y-88927142D02*
X151185476Y-88831904D01*
X151185476Y-88831904D02*
X151280714Y-88784285D01*
X151280714Y-88784285D02*
X151471190Y-88736666D01*
X151471190Y-88736666D02*
X151614047Y-88736666D01*
X151614047Y-88736666D02*
X151804523Y-88784285D01*
X151804523Y-88784285D02*
X151899761Y-88831904D01*
X151899761Y-88831904D02*
X151995000Y-88927142D01*
X151995000Y-88927142D02*
X152042619Y-89069999D01*
X152042619Y-89069999D02*
X152042619Y-89308094D01*
X151042619Y-88403332D02*
X151042619Y-87784285D01*
X151042619Y-87784285D02*
X151423571Y-88117618D01*
X151423571Y-88117618D02*
X151423571Y-87974761D01*
X151423571Y-87974761D02*
X151471190Y-87879523D01*
X151471190Y-87879523D02*
X151518809Y-87831904D01*
X151518809Y-87831904D02*
X151614047Y-87784285D01*
X151614047Y-87784285D02*
X151852142Y-87784285D01*
X151852142Y-87784285D02*
X151947380Y-87831904D01*
X151947380Y-87831904D02*
X151995000Y-87879523D01*
X151995000Y-87879523D02*
X152042619Y-87974761D01*
X152042619Y-87974761D02*
X152042619Y-88260475D01*
X152042619Y-88260475D02*
X151995000Y-88355713D01*
X151995000Y-88355713D02*
X151947380Y-88403332D01*
%TO.C,U1*%
X140592619Y-92581904D02*
X141402142Y-92581904D01*
X141402142Y-92581904D02*
X141497380Y-92534285D01*
X141497380Y-92534285D02*
X141545000Y-92486666D01*
X141545000Y-92486666D02*
X141592619Y-92391428D01*
X141592619Y-92391428D02*
X141592619Y-92200952D01*
X141592619Y-92200952D02*
X141545000Y-92105714D01*
X141545000Y-92105714D02*
X141497380Y-92058095D01*
X141497380Y-92058095D02*
X141402142Y-92010476D01*
X141402142Y-92010476D02*
X140592619Y-92010476D01*
X141592619Y-91010476D02*
X141592619Y-91581904D01*
X141592619Y-91296190D02*
X140592619Y-91296190D01*
X140592619Y-91296190D02*
X140735476Y-91391428D01*
X140735476Y-91391428D02*
X140830714Y-91486666D01*
X140830714Y-91486666D02*
X140878333Y-91581904D01*
D11*
%TO.C,R3*%
X149096667Y-94240095D02*
X148830000Y-93859142D01*
X148639524Y-94240095D02*
X148639524Y-93440095D01*
X148639524Y-93440095D02*
X148944286Y-93440095D01*
X148944286Y-93440095D02*
X149020476Y-93478190D01*
X149020476Y-93478190D02*
X149058571Y-93516285D01*
X149058571Y-93516285D02*
X149096667Y-93592476D01*
X149096667Y-93592476D02*
X149096667Y-93706761D01*
X149096667Y-93706761D02*
X149058571Y-93782952D01*
X149058571Y-93782952D02*
X149020476Y-93821047D01*
X149020476Y-93821047D02*
X148944286Y-93859142D01*
X148944286Y-93859142D02*
X148639524Y-93859142D01*
X149363333Y-93440095D02*
X149858571Y-93440095D01*
X149858571Y-93440095D02*
X149591905Y-93744857D01*
X149591905Y-93744857D02*
X149706190Y-93744857D01*
X149706190Y-93744857D02*
X149782381Y-93782952D01*
X149782381Y-93782952D02*
X149820476Y-93821047D01*
X149820476Y-93821047D02*
X149858571Y-93897238D01*
X149858571Y-93897238D02*
X149858571Y-94087714D01*
X149858571Y-94087714D02*
X149820476Y-94163904D01*
X149820476Y-94163904D02*
X149782381Y-94202000D01*
X149782381Y-94202000D02*
X149706190Y-94240095D01*
X149706190Y-94240095D02*
X149477619Y-94240095D01*
X149477619Y-94240095D02*
X149401428Y-94202000D01*
X149401428Y-94202000D02*
X149363333Y-94163904D01*
D10*
%TO.C,D2*%
X133050095Y-97510475D02*
X132250095Y-97510475D01*
X132250095Y-97510475D02*
X132250095Y-97319999D01*
X132250095Y-97319999D02*
X132288190Y-97205713D01*
X132288190Y-97205713D02*
X132364380Y-97129523D01*
X132364380Y-97129523D02*
X132440571Y-97091428D01*
X132440571Y-97091428D02*
X132592952Y-97053332D01*
X132592952Y-97053332D02*
X132707238Y-97053332D01*
X132707238Y-97053332D02*
X132859619Y-97091428D01*
X132859619Y-97091428D02*
X132935809Y-97129523D01*
X132935809Y-97129523D02*
X133012000Y-97205713D01*
X133012000Y-97205713D02*
X133050095Y-97319999D01*
X133050095Y-97319999D02*
X133050095Y-97510475D01*
X132326285Y-96748571D02*
X132288190Y-96710475D01*
X132288190Y-96710475D02*
X132250095Y-96634285D01*
X132250095Y-96634285D02*
X132250095Y-96443809D01*
X132250095Y-96443809D02*
X132288190Y-96367618D01*
X132288190Y-96367618D02*
X132326285Y-96329523D01*
X132326285Y-96329523D02*
X132402476Y-96291428D01*
X132402476Y-96291428D02*
X132478666Y-96291428D01*
X132478666Y-96291428D02*
X132592952Y-96329523D01*
X132592952Y-96329523D02*
X133050095Y-96786666D01*
X133050095Y-96786666D02*
X133050095Y-96291428D01*
%TO.C,J1*%
X149672619Y-87703333D02*
X150386904Y-87703333D01*
X150386904Y-87703333D02*
X150529761Y-87750952D01*
X150529761Y-87750952D02*
X150625000Y-87846190D01*
X150625000Y-87846190D02*
X150672619Y-87989047D01*
X150672619Y-87989047D02*
X150672619Y-88084285D01*
X150672619Y-86703333D02*
X150672619Y-87274761D01*
X150672619Y-86989047D02*
X149672619Y-86989047D01*
X149672619Y-86989047D02*
X149815476Y-87084285D01*
X149815476Y-87084285D02*
X149910714Y-87179523D01*
X149910714Y-87179523D02*
X149958333Y-87274761D01*
%TO.C,R4*%
X131592619Y-87336666D02*
X131116428Y-87669999D01*
X131592619Y-87908094D02*
X130592619Y-87908094D01*
X130592619Y-87908094D02*
X130592619Y-87527142D01*
X130592619Y-87527142D02*
X130640238Y-87431904D01*
X130640238Y-87431904D02*
X130687857Y-87384285D01*
X130687857Y-87384285D02*
X130783095Y-87336666D01*
X130783095Y-87336666D02*
X130925952Y-87336666D01*
X130925952Y-87336666D02*
X131021190Y-87384285D01*
X131021190Y-87384285D02*
X131068809Y-87431904D01*
X131068809Y-87431904D02*
X131116428Y-87527142D01*
X131116428Y-87527142D02*
X131116428Y-87908094D01*
X130925952Y-86479523D02*
X131592619Y-86479523D01*
X130545000Y-86717618D02*
X131259285Y-86955713D01*
X131259285Y-86955713D02*
X131259285Y-86336666D01*
%TO.C,C1*%
X135447380Y-88624166D02*
X135495000Y-88671785D01*
X135495000Y-88671785D02*
X135542619Y-88814642D01*
X135542619Y-88814642D02*
X135542619Y-88909880D01*
X135542619Y-88909880D02*
X135495000Y-89052737D01*
X135495000Y-89052737D02*
X135399761Y-89147975D01*
X135399761Y-89147975D02*
X135304523Y-89195594D01*
X135304523Y-89195594D02*
X135114047Y-89243213D01*
X135114047Y-89243213D02*
X134971190Y-89243213D01*
X134971190Y-89243213D02*
X134780714Y-89195594D01*
X134780714Y-89195594D02*
X134685476Y-89147975D01*
X134685476Y-89147975D02*
X134590238Y-89052737D01*
X134590238Y-89052737D02*
X134542619Y-88909880D01*
X134542619Y-88909880D02*
X134542619Y-88814642D01*
X134542619Y-88814642D02*
X134590238Y-88671785D01*
X134590238Y-88671785D02*
X134637857Y-88624166D01*
X135542619Y-87671785D02*
X135542619Y-88243213D01*
X135542619Y-87957499D02*
X134542619Y-87957499D01*
X134542619Y-87957499D02*
X134685476Y-88052737D01*
X134685476Y-88052737D02*
X134780714Y-88147975D01*
X134780714Y-88147975D02*
X134828333Y-88243213D01*
X175897380Y-88674166D02*
X175945000Y-88721785D01*
X175945000Y-88721785D02*
X175992619Y-88864642D01*
X175992619Y-88864642D02*
X175992619Y-88959880D01*
X175992619Y-88959880D02*
X175945000Y-89102737D01*
X175945000Y-89102737D02*
X175849761Y-89197975D01*
X175849761Y-89197975D02*
X175754523Y-89245594D01*
X175754523Y-89245594D02*
X175564047Y-89293213D01*
X175564047Y-89293213D02*
X175421190Y-89293213D01*
X175421190Y-89293213D02*
X175230714Y-89245594D01*
X175230714Y-89245594D02*
X175135476Y-89197975D01*
X175135476Y-89197975D02*
X175040238Y-89102737D01*
X175040238Y-89102737D02*
X174992619Y-88959880D01*
X174992619Y-88959880D02*
X174992619Y-88864642D01*
X174992619Y-88864642D02*
X175040238Y-88721785D01*
X175040238Y-88721785D02*
X175087857Y-88674166D01*
X175992619Y-87721785D02*
X175992619Y-88293213D01*
X175992619Y-88007499D02*
X174992619Y-88007499D01*
X174992619Y-88007499D02*
X175135476Y-88102737D01*
X175135476Y-88102737D02*
X175230714Y-88197975D01*
X175230714Y-88197975D02*
X175278333Y-88293213D01*
%TO.C,J1*%
X190122619Y-87753333D02*
X190836904Y-87753333D01*
X190836904Y-87753333D02*
X190979761Y-87800952D01*
X190979761Y-87800952D02*
X191075000Y-87896190D01*
X191075000Y-87896190D02*
X191122619Y-88039047D01*
X191122619Y-88039047D02*
X191122619Y-88134285D01*
X191122619Y-86753333D02*
X191122619Y-87324761D01*
X191122619Y-87039047D02*
X190122619Y-87039047D01*
X190122619Y-87039047D02*
X190265476Y-87134285D01*
X190265476Y-87134285D02*
X190360714Y-87229523D01*
X190360714Y-87229523D02*
X190408333Y-87324761D01*
%TO.C,D3*%
X192372619Y-75128094D02*
X191372619Y-75128094D01*
X191372619Y-75128094D02*
X191372619Y-74889999D01*
X191372619Y-74889999D02*
X191420238Y-74747142D01*
X191420238Y-74747142D02*
X191515476Y-74651904D01*
X191515476Y-74651904D02*
X191610714Y-74604285D01*
X191610714Y-74604285D02*
X191801190Y-74556666D01*
X191801190Y-74556666D02*
X191944047Y-74556666D01*
X191944047Y-74556666D02*
X192134523Y-74604285D01*
X192134523Y-74604285D02*
X192229761Y-74651904D01*
X192229761Y-74651904D02*
X192325000Y-74747142D01*
X192325000Y-74747142D02*
X192372619Y-74889999D01*
X192372619Y-74889999D02*
X192372619Y-75128094D01*
X191372619Y-74223332D02*
X191372619Y-73604285D01*
X191372619Y-73604285D02*
X191753571Y-73937618D01*
X191753571Y-73937618D02*
X191753571Y-73794761D01*
X191753571Y-73794761D02*
X191801190Y-73699523D01*
X191801190Y-73699523D02*
X191848809Y-73651904D01*
X191848809Y-73651904D02*
X191944047Y-73604285D01*
X191944047Y-73604285D02*
X192182142Y-73604285D01*
X192182142Y-73604285D02*
X192277380Y-73651904D01*
X192277380Y-73651904D02*
X192325000Y-73699523D01*
X192325000Y-73699523D02*
X192372619Y-73794761D01*
X192372619Y-73794761D02*
X192372619Y-74080475D01*
X192372619Y-74080475D02*
X192325000Y-74175713D01*
X192325000Y-74175713D02*
X192277380Y-74223332D01*
%TO.C,J2*%
X179092619Y-82373333D02*
X179806904Y-82373333D01*
X179806904Y-82373333D02*
X179949761Y-82420952D01*
X179949761Y-82420952D02*
X180045000Y-82516190D01*
X180045000Y-82516190D02*
X180092619Y-82659047D01*
X180092619Y-82659047D02*
X180092619Y-82754285D01*
X179187857Y-81944761D02*
X179140238Y-81897142D01*
X179140238Y-81897142D02*
X179092619Y-81801904D01*
X179092619Y-81801904D02*
X179092619Y-81563809D01*
X179092619Y-81563809D02*
X179140238Y-81468571D01*
X179140238Y-81468571D02*
X179187857Y-81420952D01*
X179187857Y-81420952D02*
X179283095Y-81373333D01*
X179283095Y-81373333D02*
X179378333Y-81373333D01*
X179378333Y-81373333D02*
X179521190Y-81420952D01*
X179521190Y-81420952D02*
X180092619Y-81992380D01*
X180092619Y-81992380D02*
X180092619Y-81373333D01*
%TO.C,D1*%
X170022619Y-83528094D02*
X169022619Y-83528094D01*
X169022619Y-83528094D02*
X169022619Y-83289999D01*
X169022619Y-83289999D02*
X169070238Y-83147142D01*
X169070238Y-83147142D02*
X169165476Y-83051904D01*
X169165476Y-83051904D02*
X169260714Y-83004285D01*
X169260714Y-83004285D02*
X169451190Y-82956666D01*
X169451190Y-82956666D02*
X169594047Y-82956666D01*
X169594047Y-82956666D02*
X169784523Y-83004285D01*
X169784523Y-83004285D02*
X169879761Y-83051904D01*
X169879761Y-83051904D02*
X169975000Y-83147142D01*
X169975000Y-83147142D02*
X170022619Y-83289999D01*
X170022619Y-83289999D02*
X170022619Y-83528094D01*
X170022619Y-82004285D02*
X170022619Y-82575713D01*
X170022619Y-82289999D02*
X169022619Y-82289999D01*
X169022619Y-82289999D02*
X169165476Y-82385237D01*
X169165476Y-82385237D02*
X169260714Y-82480475D01*
X169260714Y-82480475D02*
X169308333Y-82575713D01*
%TO.C,U1*%
X180922619Y-78401904D02*
X181732142Y-78401904D01*
X181732142Y-78401904D02*
X181827380Y-78354285D01*
X181827380Y-78354285D02*
X181875000Y-78306666D01*
X181875000Y-78306666D02*
X181922619Y-78211428D01*
X181922619Y-78211428D02*
X181922619Y-78020952D01*
X181922619Y-78020952D02*
X181875000Y-77925714D01*
X181875000Y-77925714D02*
X181827380Y-77878095D01*
X181827380Y-77878095D02*
X181732142Y-77830476D01*
X181732142Y-77830476D02*
X180922619Y-77830476D01*
X181922619Y-76830476D02*
X181922619Y-77401904D01*
X181922619Y-77116190D02*
X180922619Y-77116190D01*
X180922619Y-77116190D02*
X181065476Y-77211428D01*
X181065476Y-77211428D02*
X181160714Y-77306666D01*
X181160714Y-77306666D02*
X181208333Y-77401904D01*
%TO.C,R2*%
X173413333Y-87932619D02*
X173080000Y-87456428D01*
X172841905Y-87932619D02*
X172841905Y-86932619D01*
X172841905Y-86932619D02*
X173222857Y-86932619D01*
X173222857Y-86932619D02*
X173318095Y-86980238D01*
X173318095Y-86980238D02*
X173365714Y-87027857D01*
X173365714Y-87027857D02*
X173413333Y-87123095D01*
X173413333Y-87123095D02*
X173413333Y-87265952D01*
X173413333Y-87265952D02*
X173365714Y-87361190D01*
X173365714Y-87361190D02*
X173318095Y-87408809D01*
X173318095Y-87408809D02*
X173222857Y-87456428D01*
X173222857Y-87456428D02*
X172841905Y-87456428D01*
X173794286Y-87027857D02*
X173841905Y-86980238D01*
X173841905Y-86980238D02*
X173937143Y-86932619D01*
X173937143Y-86932619D02*
X174175238Y-86932619D01*
X174175238Y-86932619D02*
X174270476Y-86980238D01*
X174270476Y-86980238D02*
X174318095Y-87027857D01*
X174318095Y-87027857D02*
X174365714Y-87123095D01*
X174365714Y-87123095D02*
X174365714Y-87218333D01*
X174365714Y-87218333D02*
X174318095Y-87361190D01*
X174318095Y-87361190D02*
X173746667Y-87932619D01*
X173746667Y-87932619D02*
X174365714Y-87932619D01*
%TO.C,D2*%
X173500095Y-97560475D02*
X172700095Y-97560475D01*
X172700095Y-97560475D02*
X172700095Y-97369999D01*
X172700095Y-97369999D02*
X172738190Y-97255713D01*
X172738190Y-97255713D02*
X172814380Y-97179523D01*
X172814380Y-97179523D02*
X172890571Y-97141428D01*
X172890571Y-97141428D02*
X173042952Y-97103332D01*
X173042952Y-97103332D02*
X173157238Y-97103332D01*
X173157238Y-97103332D02*
X173309619Y-97141428D01*
X173309619Y-97141428D02*
X173385809Y-97179523D01*
X173385809Y-97179523D02*
X173462000Y-97255713D01*
X173462000Y-97255713D02*
X173500095Y-97369999D01*
X173500095Y-97369999D02*
X173500095Y-97560475D01*
X172776285Y-96798571D02*
X172738190Y-96760475D01*
X172738190Y-96760475D02*
X172700095Y-96684285D01*
X172700095Y-96684285D02*
X172700095Y-96493809D01*
X172700095Y-96493809D02*
X172738190Y-96417618D01*
X172738190Y-96417618D02*
X172776285Y-96379523D01*
X172776285Y-96379523D02*
X172852476Y-96341428D01*
X172852476Y-96341428D02*
X172928666Y-96341428D01*
X172928666Y-96341428D02*
X173042952Y-96379523D01*
X173042952Y-96379523D02*
X173500095Y-96836666D01*
X173500095Y-96836666D02*
X173500095Y-96341428D01*
%TO.C,J1*%
X190002619Y-73523333D02*
X190716904Y-73523333D01*
X190716904Y-73523333D02*
X190859761Y-73570952D01*
X190859761Y-73570952D02*
X190955000Y-73666190D01*
X190955000Y-73666190D02*
X191002619Y-73809047D01*
X191002619Y-73809047D02*
X191002619Y-73904285D01*
X191002619Y-72523333D02*
X191002619Y-73094761D01*
X191002619Y-72809047D02*
X190002619Y-72809047D01*
X190002619Y-72809047D02*
X190145476Y-72904285D01*
X190145476Y-72904285D02*
X190240714Y-72999523D01*
X190240714Y-72999523D02*
X190288333Y-73094761D01*
%TO.C,D2*%
X173380095Y-83330475D02*
X172580095Y-83330475D01*
X172580095Y-83330475D02*
X172580095Y-83139999D01*
X172580095Y-83139999D02*
X172618190Y-83025713D01*
X172618190Y-83025713D02*
X172694380Y-82949523D01*
X172694380Y-82949523D02*
X172770571Y-82911428D01*
X172770571Y-82911428D02*
X172922952Y-82873332D01*
X172922952Y-82873332D02*
X173037238Y-82873332D01*
X173037238Y-82873332D02*
X173189619Y-82911428D01*
X173189619Y-82911428D02*
X173265809Y-82949523D01*
X173265809Y-82949523D02*
X173342000Y-83025713D01*
X173342000Y-83025713D02*
X173380095Y-83139999D01*
X173380095Y-83139999D02*
X173380095Y-83330475D01*
X172656285Y-82568571D02*
X172618190Y-82530475D01*
X172618190Y-82530475D02*
X172580095Y-82454285D01*
X172580095Y-82454285D02*
X172580095Y-82263809D01*
X172580095Y-82263809D02*
X172618190Y-82187618D01*
X172618190Y-82187618D02*
X172656285Y-82149523D01*
X172656285Y-82149523D02*
X172732476Y-82111428D01*
X172732476Y-82111428D02*
X172808666Y-82111428D01*
X172808666Y-82111428D02*
X172922952Y-82149523D01*
X172922952Y-82149523D02*
X173380095Y-82606666D01*
X173380095Y-82606666D02*
X173380095Y-82111428D01*
%TO.C,R2*%
X173293333Y-73702619D02*
X172960000Y-73226428D01*
X172721905Y-73702619D02*
X172721905Y-72702619D01*
X172721905Y-72702619D02*
X173102857Y-72702619D01*
X173102857Y-72702619D02*
X173198095Y-72750238D01*
X173198095Y-72750238D02*
X173245714Y-72797857D01*
X173245714Y-72797857D02*
X173293333Y-72893095D01*
X173293333Y-72893095D02*
X173293333Y-73035952D01*
X173293333Y-73035952D02*
X173245714Y-73131190D01*
X173245714Y-73131190D02*
X173198095Y-73178809D01*
X173198095Y-73178809D02*
X173102857Y-73226428D01*
X173102857Y-73226428D02*
X172721905Y-73226428D01*
X173674286Y-72797857D02*
X173721905Y-72750238D01*
X173721905Y-72750238D02*
X173817143Y-72702619D01*
X173817143Y-72702619D02*
X174055238Y-72702619D01*
X174055238Y-72702619D02*
X174150476Y-72750238D01*
X174150476Y-72750238D02*
X174198095Y-72797857D01*
X174198095Y-72797857D02*
X174245714Y-72893095D01*
X174245714Y-72893095D02*
X174245714Y-72988333D01*
X174245714Y-72988333D02*
X174198095Y-73131190D01*
X174198095Y-73131190D02*
X173626667Y-73702619D01*
X173626667Y-73702619D02*
X174245714Y-73702619D01*
%TO.C,R1*%
X178622619Y-80656666D02*
X178146428Y-80989999D01*
X178622619Y-81228094D02*
X177622619Y-81228094D01*
X177622619Y-81228094D02*
X177622619Y-80847142D01*
X177622619Y-80847142D02*
X177670238Y-80751904D01*
X177670238Y-80751904D02*
X177717857Y-80704285D01*
X177717857Y-80704285D02*
X177813095Y-80656666D01*
X177813095Y-80656666D02*
X177955952Y-80656666D01*
X177955952Y-80656666D02*
X178051190Y-80704285D01*
X178051190Y-80704285D02*
X178098809Y-80751904D01*
X178098809Y-80751904D02*
X178146428Y-80847142D01*
X178146428Y-80847142D02*
X178146428Y-81228094D01*
X178622619Y-79704285D02*
X178622619Y-80275713D01*
X178622619Y-79989999D02*
X177622619Y-79989999D01*
X177622619Y-79989999D02*
X177765476Y-80085237D01*
X177765476Y-80085237D02*
X177860714Y-80180475D01*
X177860714Y-80180475D02*
X177908333Y-80275713D01*
%TO.C,C1*%
X135327380Y-74394166D02*
X135375000Y-74441785D01*
X135375000Y-74441785D02*
X135422619Y-74584642D01*
X135422619Y-74584642D02*
X135422619Y-74679880D01*
X135422619Y-74679880D02*
X135375000Y-74822737D01*
X135375000Y-74822737D02*
X135279761Y-74917975D01*
X135279761Y-74917975D02*
X135184523Y-74965594D01*
X135184523Y-74965594D02*
X134994047Y-75013213D01*
X134994047Y-75013213D02*
X134851190Y-75013213D01*
X134851190Y-75013213D02*
X134660714Y-74965594D01*
X134660714Y-74965594D02*
X134565476Y-74917975D01*
X134565476Y-74917975D02*
X134470238Y-74822737D01*
X134470238Y-74822737D02*
X134422619Y-74679880D01*
X134422619Y-74679880D02*
X134422619Y-74584642D01*
X134422619Y-74584642D02*
X134470238Y-74441785D01*
X134470238Y-74441785D02*
X134517857Y-74394166D01*
X135422619Y-73441785D02*
X135422619Y-74013213D01*
X135422619Y-73727499D02*
X134422619Y-73727499D01*
X134422619Y-73727499D02*
X134565476Y-73822737D01*
X134565476Y-73822737D02*
X134660714Y-73917975D01*
X134660714Y-73917975D02*
X134708333Y-74013213D01*
%TO.C,J2*%
X179212619Y-96603333D02*
X179926904Y-96603333D01*
X179926904Y-96603333D02*
X180069761Y-96650952D01*
X180069761Y-96650952D02*
X180165000Y-96746190D01*
X180165000Y-96746190D02*
X180212619Y-96889047D01*
X180212619Y-96889047D02*
X180212619Y-96984285D01*
X179307857Y-96174761D02*
X179260238Y-96127142D01*
X179260238Y-96127142D02*
X179212619Y-96031904D01*
X179212619Y-96031904D02*
X179212619Y-95793809D01*
X179212619Y-95793809D02*
X179260238Y-95698571D01*
X179260238Y-95698571D02*
X179307857Y-95650952D01*
X179307857Y-95650952D02*
X179403095Y-95603333D01*
X179403095Y-95603333D02*
X179498333Y-95603333D01*
X179498333Y-95603333D02*
X179641190Y-95650952D01*
X179641190Y-95650952D02*
X180212619Y-96222380D01*
X180212619Y-96222380D02*
X180212619Y-95603333D01*
%TO.C,D3*%
X192492619Y-89358094D02*
X191492619Y-89358094D01*
X191492619Y-89358094D02*
X191492619Y-89119999D01*
X191492619Y-89119999D02*
X191540238Y-88977142D01*
X191540238Y-88977142D02*
X191635476Y-88881904D01*
X191635476Y-88881904D02*
X191730714Y-88834285D01*
X191730714Y-88834285D02*
X191921190Y-88786666D01*
X191921190Y-88786666D02*
X192064047Y-88786666D01*
X192064047Y-88786666D02*
X192254523Y-88834285D01*
X192254523Y-88834285D02*
X192349761Y-88881904D01*
X192349761Y-88881904D02*
X192445000Y-88977142D01*
X192445000Y-88977142D02*
X192492619Y-89119999D01*
X192492619Y-89119999D02*
X192492619Y-89358094D01*
X191492619Y-88453332D02*
X191492619Y-87834285D01*
X191492619Y-87834285D02*
X191873571Y-88167618D01*
X191873571Y-88167618D02*
X191873571Y-88024761D01*
X191873571Y-88024761D02*
X191921190Y-87929523D01*
X191921190Y-87929523D02*
X191968809Y-87881904D01*
X191968809Y-87881904D02*
X192064047Y-87834285D01*
X192064047Y-87834285D02*
X192302142Y-87834285D01*
X192302142Y-87834285D02*
X192397380Y-87881904D01*
X192397380Y-87881904D02*
X192445000Y-87929523D01*
X192445000Y-87929523D02*
X192492619Y-88024761D01*
X192492619Y-88024761D02*
X192492619Y-88310475D01*
X192492619Y-88310475D02*
X192445000Y-88405713D01*
X192445000Y-88405713D02*
X192397380Y-88453332D01*
%TO.C,R4*%
X172042619Y-87386666D02*
X171566428Y-87719999D01*
X172042619Y-87958094D02*
X171042619Y-87958094D01*
X171042619Y-87958094D02*
X171042619Y-87577142D01*
X171042619Y-87577142D02*
X171090238Y-87481904D01*
X171090238Y-87481904D02*
X171137857Y-87434285D01*
X171137857Y-87434285D02*
X171233095Y-87386666D01*
X171233095Y-87386666D02*
X171375952Y-87386666D01*
X171375952Y-87386666D02*
X171471190Y-87434285D01*
X171471190Y-87434285D02*
X171518809Y-87481904D01*
X171518809Y-87481904D02*
X171566428Y-87577142D01*
X171566428Y-87577142D02*
X171566428Y-87958094D01*
X171375952Y-86529523D02*
X172042619Y-86529523D01*
X170995000Y-86767618D02*
X171709285Y-87005713D01*
X171709285Y-87005713D02*
X171709285Y-86386666D01*
%TO.C,C1*%
X175777380Y-74444166D02*
X175825000Y-74491785D01*
X175825000Y-74491785D02*
X175872619Y-74634642D01*
X175872619Y-74634642D02*
X175872619Y-74729880D01*
X175872619Y-74729880D02*
X175825000Y-74872737D01*
X175825000Y-74872737D02*
X175729761Y-74967975D01*
X175729761Y-74967975D02*
X175634523Y-75015594D01*
X175634523Y-75015594D02*
X175444047Y-75063213D01*
X175444047Y-75063213D02*
X175301190Y-75063213D01*
X175301190Y-75063213D02*
X175110714Y-75015594D01*
X175110714Y-75015594D02*
X175015476Y-74967975D01*
X175015476Y-74967975D02*
X174920238Y-74872737D01*
X174920238Y-74872737D02*
X174872619Y-74729880D01*
X174872619Y-74729880D02*
X174872619Y-74634642D01*
X174872619Y-74634642D02*
X174920238Y-74491785D01*
X174920238Y-74491785D02*
X174967857Y-74444166D01*
X175872619Y-73491785D02*
X175872619Y-74063213D01*
X175872619Y-73777499D02*
X174872619Y-73777499D01*
X174872619Y-73777499D02*
X175015476Y-73872737D01*
X175015476Y-73872737D02*
X175110714Y-73967975D01*
X175110714Y-73967975D02*
X175158333Y-74063213D01*
%TO.C,U1*%
X140472619Y-78351904D02*
X141282142Y-78351904D01*
X141282142Y-78351904D02*
X141377380Y-78304285D01*
X141377380Y-78304285D02*
X141425000Y-78256666D01*
X141425000Y-78256666D02*
X141472619Y-78161428D01*
X141472619Y-78161428D02*
X141472619Y-77970952D01*
X141472619Y-77970952D02*
X141425000Y-77875714D01*
X141425000Y-77875714D02*
X141377380Y-77828095D01*
X141377380Y-77828095D02*
X141282142Y-77780476D01*
X141282142Y-77780476D02*
X140472619Y-77780476D01*
X141472619Y-76780476D02*
X141472619Y-77351904D01*
X141472619Y-77066190D02*
X140472619Y-77066190D01*
X140472619Y-77066190D02*
X140615476Y-77161428D01*
X140615476Y-77161428D02*
X140710714Y-77256666D01*
X140710714Y-77256666D02*
X140758333Y-77351904D01*
D11*
%TO.C,R3*%
X148976667Y-80010095D02*
X148710000Y-79629142D01*
X148519524Y-80010095D02*
X148519524Y-79210095D01*
X148519524Y-79210095D02*
X148824286Y-79210095D01*
X148824286Y-79210095D02*
X148900476Y-79248190D01*
X148900476Y-79248190D02*
X148938571Y-79286285D01*
X148938571Y-79286285D02*
X148976667Y-79362476D01*
X148976667Y-79362476D02*
X148976667Y-79476761D01*
X148976667Y-79476761D02*
X148938571Y-79552952D01*
X148938571Y-79552952D02*
X148900476Y-79591047D01*
X148900476Y-79591047D02*
X148824286Y-79629142D01*
X148824286Y-79629142D02*
X148519524Y-79629142D01*
X149243333Y-79210095D02*
X149738571Y-79210095D01*
X149738571Y-79210095D02*
X149471905Y-79514857D01*
X149471905Y-79514857D02*
X149586190Y-79514857D01*
X149586190Y-79514857D02*
X149662381Y-79552952D01*
X149662381Y-79552952D02*
X149700476Y-79591047D01*
X149700476Y-79591047D02*
X149738571Y-79667238D01*
X149738571Y-79667238D02*
X149738571Y-79857714D01*
X149738571Y-79857714D02*
X149700476Y-79933904D01*
X149700476Y-79933904D02*
X149662381Y-79972000D01*
X149662381Y-79972000D02*
X149586190Y-80010095D01*
X149586190Y-80010095D02*
X149357619Y-80010095D01*
X149357619Y-80010095D02*
X149281428Y-79972000D01*
X149281428Y-79972000D02*
X149243333Y-79933904D01*
X189546667Y-108640095D02*
X189280000Y-108259142D01*
X189089524Y-108640095D02*
X189089524Y-107840095D01*
X189089524Y-107840095D02*
X189394286Y-107840095D01*
X189394286Y-107840095D02*
X189470476Y-107878190D01*
X189470476Y-107878190D02*
X189508571Y-107916285D01*
X189508571Y-107916285D02*
X189546667Y-107992476D01*
X189546667Y-107992476D02*
X189546667Y-108106761D01*
X189546667Y-108106761D02*
X189508571Y-108182952D01*
X189508571Y-108182952D02*
X189470476Y-108221047D01*
X189470476Y-108221047D02*
X189394286Y-108259142D01*
X189394286Y-108259142D02*
X189089524Y-108259142D01*
X189813333Y-107840095D02*
X190308571Y-107840095D01*
X190308571Y-107840095D02*
X190041905Y-108144857D01*
X190041905Y-108144857D02*
X190156190Y-108144857D01*
X190156190Y-108144857D02*
X190232381Y-108182952D01*
X190232381Y-108182952D02*
X190270476Y-108221047D01*
X190270476Y-108221047D02*
X190308571Y-108297238D01*
X190308571Y-108297238D02*
X190308571Y-108487714D01*
X190308571Y-108487714D02*
X190270476Y-108563904D01*
X190270476Y-108563904D02*
X190232381Y-108602000D01*
X190232381Y-108602000D02*
X190156190Y-108640095D01*
X190156190Y-108640095D02*
X189927619Y-108640095D01*
X189927619Y-108640095D02*
X189851428Y-108602000D01*
X189851428Y-108602000D02*
X189813333Y-108563904D01*
D10*
%TO.C,U1*%
X181042619Y-106981904D02*
X181852142Y-106981904D01*
X181852142Y-106981904D02*
X181947380Y-106934285D01*
X181947380Y-106934285D02*
X181995000Y-106886666D01*
X181995000Y-106886666D02*
X182042619Y-106791428D01*
X182042619Y-106791428D02*
X182042619Y-106600952D01*
X182042619Y-106600952D02*
X181995000Y-106505714D01*
X181995000Y-106505714D02*
X181947380Y-106458095D01*
X181947380Y-106458095D02*
X181852142Y-106410476D01*
X181852142Y-106410476D02*
X181042619Y-106410476D01*
X182042619Y-105410476D02*
X182042619Y-105981904D01*
X182042619Y-105696190D02*
X181042619Y-105696190D01*
X181042619Y-105696190D02*
X181185476Y-105791428D01*
X181185476Y-105791428D02*
X181280714Y-105886666D01*
X181280714Y-105886666D02*
X181328333Y-105981904D01*
%TO.C,R1*%
X178742619Y-109236666D02*
X178266428Y-109569999D01*
X178742619Y-109808094D02*
X177742619Y-109808094D01*
X177742619Y-109808094D02*
X177742619Y-109427142D01*
X177742619Y-109427142D02*
X177790238Y-109331904D01*
X177790238Y-109331904D02*
X177837857Y-109284285D01*
X177837857Y-109284285D02*
X177933095Y-109236666D01*
X177933095Y-109236666D02*
X178075952Y-109236666D01*
X178075952Y-109236666D02*
X178171190Y-109284285D01*
X178171190Y-109284285D02*
X178218809Y-109331904D01*
X178218809Y-109331904D02*
X178266428Y-109427142D01*
X178266428Y-109427142D02*
X178266428Y-109808094D01*
X178742619Y-108284285D02*
X178742619Y-108855713D01*
X178742619Y-108569999D02*
X177742619Y-108569999D01*
X177742619Y-108569999D02*
X177885476Y-108665237D01*
X177885476Y-108665237D02*
X177980714Y-108760475D01*
X177980714Y-108760475D02*
X178028333Y-108855713D01*
%TO.C,D1*%
X170142619Y-112108094D02*
X169142619Y-112108094D01*
X169142619Y-112108094D02*
X169142619Y-111869999D01*
X169142619Y-111869999D02*
X169190238Y-111727142D01*
X169190238Y-111727142D02*
X169285476Y-111631904D01*
X169285476Y-111631904D02*
X169380714Y-111584285D01*
X169380714Y-111584285D02*
X169571190Y-111536666D01*
X169571190Y-111536666D02*
X169714047Y-111536666D01*
X169714047Y-111536666D02*
X169904523Y-111584285D01*
X169904523Y-111584285D02*
X169999761Y-111631904D01*
X169999761Y-111631904D02*
X170095000Y-111727142D01*
X170095000Y-111727142D02*
X170142619Y-111869999D01*
X170142619Y-111869999D02*
X170142619Y-112108094D01*
X170142619Y-110584285D02*
X170142619Y-111155713D01*
X170142619Y-110869999D02*
X169142619Y-110869999D01*
X169142619Y-110869999D02*
X169285476Y-110965237D01*
X169285476Y-110965237D02*
X169380714Y-111060475D01*
X169380714Y-111060475D02*
X169428333Y-111155713D01*
%TO.C,J2*%
X138762619Y-110903333D02*
X139476904Y-110903333D01*
X139476904Y-110903333D02*
X139619761Y-110950952D01*
X139619761Y-110950952D02*
X139715000Y-111046190D01*
X139715000Y-111046190D02*
X139762619Y-111189047D01*
X139762619Y-111189047D02*
X139762619Y-111284285D01*
X138857857Y-110474761D02*
X138810238Y-110427142D01*
X138810238Y-110427142D02*
X138762619Y-110331904D01*
X138762619Y-110331904D02*
X138762619Y-110093809D01*
X138762619Y-110093809D02*
X138810238Y-109998571D01*
X138810238Y-109998571D02*
X138857857Y-109950952D01*
X138857857Y-109950952D02*
X138953095Y-109903333D01*
X138953095Y-109903333D02*
X139048333Y-109903333D01*
X139048333Y-109903333D02*
X139191190Y-109950952D01*
X139191190Y-109950952D02*
X139762619Y-110522380D01*
X139762619Y-110522380D02*
X139762619Y-109903333D01*
%TO.C,R1*%
X138292619Y-109186666D02*
X137816428Y-109519999D01*
X138292619Y-109758094D02*
X137292619Y-109758094D01*
X137292619Y-109758094D02*
X137292619Y-109377142D01*
X137292619Y-109377142D02*
X137340238Y-109281904D01*
X137340238Y-109281904D02*
X137387857Y-109234285D01*
X137387857Y-109234285D02*
X137483095Y-109186666D01*
X137483095Y-109186666D02*
X137625952Y-109186666D01*
X137625952Y-109186666D02*
X137721190Y-109234285D01*
X137721190Y-109234285D02*
X137768809Y-109281904D01*
X137768809Y-109281904D02*
X137816428Y-109377142D01*
X137816428Y-109377142D02*
X137816428Y-109758094D01*
X138292619Y-108234285D02*
X138292619Y-108805713D01*
X138292619Y-108519999D02*
X137292619Y-108519999D01*
X137292619Y-108519999D02*
X137435476Y-108615237D01*
X137435476Y-108615237D02*
X137530714Y-108710475D01*
X137530714Y-108710475D02*
X137578333Y-108805713D01*
%TO.C,R2*%
X132963333Y-102232619D02*
X132630000Y-101756428D01*
X132391905Y-102232619D02*
X132391905Y-101232619D01*
X132391905Y-101232619D02*
X132772857Y-101232619D01*
X132772857Y-101232619D02*
X132868095Y-101280238D01*
X132868095Y-101280238D02*
X132915714Y-101327857D01*
X132915714Y-101327857D02*
X132963333Y-101423095D01*
X132963333Y-101423095D02*
X132963333Y-101565952D01*
X132963333Y-101565952D02*
X132915714Y-101661190D01*
X132915714Y-101661190D02*
X132868095Y-101708809D01*
X132868095Y-101708809D02*
X132772857Y-101756428D01*
X132772857Y-101756428D02*
X132391905Y-101756428D01*
X133344286Y-101327857D02*
X133391905Y-101280238D01*
X133391905Y-101280238D02*
X133487143Y-101232619D01*
X133487143Y-101232619D02*
X133725238Y-101232619D01*
X133725238Y-101232619D02*
X133820476Y-101280238D01*
X133820476Y-101280238D02*
X133868095Y-101327857D01*
X133868095Y-101327857D02*
X133915714Y-101423095D01*
X133915714Y-101423095D02*
X133915714Y-101518333D01*
X133915714Y-101518333D02*
X133868095Y-101661190D01*
X133868095Y-101661190D02*
X133296667Y-102232619D01*
X133296667Y-102232619D02*
X133915714Y-102232619D01*
%TO.C,D1*%
X129692619Y-112058094D02*
X128692619Y-112058094D01*
X128692619Y-112058094D02*
X128692619Y-111819999D01*
X128692619Y-111819999D02*
X128740238Y-111677142D01*
X128740238Y-111677142D02*
X128835476Y-111581904D01*
X128835476Y-111581904D02*
X128930714Y-111534285D01*
X128930714Y-111534285D02*
X129121190Y-111486666D01*
X129121190Y-111486666D02*
X129264047Y-111486666D01*
X129264047Y-111486666D02*
X129454523Y-111534285D01*
X129454523Y-111534285D02*
X129549761Y-111581904D01*
X129549761Y-111581904D02*
X129645000Y-111677142D01*
X129645000Y-111677142D02*
X129692619Y-111819999D01*
X129692619Y-111819999D02*
X129692619Y-112058094D01*
X129692619Y-110534285D02*
X129692619Y-111105713D01*
X129692619Y-110819999D02*
X128692619Y-110819999D01*
X128692619Y-110819999D02*
X128835476Y-110915237D01*
X128835476Y-110915237D02*
X128930714Y-111010475D01*
X128930714Y-111010475D02*
X128978333Y-111105713D01*
%TO.C,D3*%
X152042619Y-103658094D02*
X151042619Y-103658094D01*
X151042619Y-103658094D02*
X151042619Y-103419999D01*
X151042619Y-103419999D02*
X151090238Y-103277142D01*
X151090238Y-103277142D02*
X151185476Y-103181904D01*
X151185476Y-103181904D02*
X151280714Y-103134285D01*
X151280714Y-103134285D02*
X151471190Y-103086666D01*
X151471190Y-103086666D02*
X151614047Y-103086666D01*
X151614047Y-103086666D02*
X151804523Y-103134285D01*
X151804523Y-103134285D02*
X151899761Y-103181904D01*
X151899761Y-103181904D02*
X151995000Y-103277142D01*
X151995000Y-103277142D02*
X152042619Y-103419999D01*
X152042619Y-103419999D02*
X152042619Y-103658094D01*
X151042619Y-102753332D02*
X151042619Y-102134285D01*
X151042619Y-102134285D02*
X151423571Y-102467618D01*
X151423571Y-102467618D02*
X151423571Y-102324761D01*
X151423571Y-102324761D02*
X151471190Y-102229523D01*
X151471190Y-102229523D02*
X151518809Y-102181904D01*
X151518809Y-102181904D02*
X151614047Y-102134285D01*
X151614047Y-102134285D02*
X151852142Y-102134285D01*
X151852142Y-102134285D02*
X151947380Y-102181904D01*
X151947380Y-102181904D02*
X151995000Y-102229523D01*
X151995000Y-102229523D02*
X152042619Y-102324761D01*
X152042619Y-102324761D02*
X152042619Y-102610475D01*
X152042619Y-102610475D02*
X151995000Y-102705713D01*
X151995000Y-102705713D02*
X151947380Y-102753332D01*
%TO.C,U1*%
X140592619Y-106931904D02*
X141402142Y-106931904D01*
X141402142Y-106931904D02*
X141497380Y-106884285D01*
X141497380Y-106884285D02*
X141545000Y-106836666D01*
X141545000Y-106836666D02*
X141592619Y-106741428D01*
X141592619Y-106741428D02*
X141592619Y-106550952D01*
X141592619Y-106550952D02*
X141545000Y-106455714D01*
X141545000Y-106455714D02*
X141497380Y-106408095D01*
X141497380Y-106408095D02*
X141402142Y-106360476D01*
X141402142Y-106360476D02*
X140592619Y-106360476D01*
X141592619Y-105360476D02*
X141592619Y-105931904D01*
X141592619Y-105646190D02*
X140592619Y-105646190D01*
X140592619Y-105646190D02*
X140735476Y-105741428D01*
X140735476Y-105741428D02*
X140830714Y-105836666D01*
X140830714Y-105836666D02*
X140878333Y-105931904D01*
D11*
%TO.C,R3*%
X149096667Y-108590095D02*
X148830000Y-108209142D01*
X148639524Y-108590095D02*
X148639524Y-107790095D01*
X148639524Y-107790095D02*
X148944286Y-107790095D01*
X148944286Y-107790095D02*
X149020476Y-107828190D01*
X149020476Y-107828190D02*
X149058571Y-107866285D01*
X149058571Y-107866285D02*
X149096667Y-107942476D01*
X149096667Y-107942476D02*
X149096667Y-108056761D01*
X149096667Y-108056761D02*
X149058571Y-108132952D01*
X149058571Y-108132952D02*
X149020476Y-108171047D01*
X149020476Y-108171047D02*
X148944286Y-108209142D01*
X148944286Y-108209142D02*
X148639524Y-108209142D01*
X149363333Y-107790095D02*
X149858571Y-107790095D01*
X149858571Y-107790095D02*
X149591905Y-108094857D01*
X149591905Y-108094857D02*
X149706190Y-108094857D01*
X149706190Y-108094857D02*
X149782381Y-108132952D01*
X149782381Y-108132952D02*
X149820476Y-108171047D01*
X149820476Y-108171047D02*
X149858571Y-108247238D01*
X149858571Y-108247238D02*
X149858571Y-108437714D01*
X149858571Y-108437714D02*
X149820476Y-108513904D01*
X149820476Y-108513904D02*
X149782381Y-108552000D01*
X149782381Y-108552000D02*
X149706190Y-108590095D01*
X149706190Y-108590095D02*
X149477619Y-108590095D01*
X149477619Y-108590095D02*
X149401428Y-108552000D01*
X149401428Y-108552000D02*
X149363333Y-108513904D01*
D10*
%TO.C,D2*%
X133050095Y-111860475D02*
X132250095Y-111860475D01*
X132250095Y-111860475D02*
X132250095Y-111669999D01*
X132250095Y-111669999D02*
X132288190Y-111555713D01*
X132288190Y-111555713D02*
X132364380Y-111479523D01*
X132364380Y-111479523D02*
X132440571Y-111441428D01*
X132440571Y-111441428D02*
X132592952Y-111403332D01*
X132592952Y-111403332D02*
X132707238Y-111403332D01*
X132707238Y-111403332D02*
X132859619Y-111441428D01*
X132859619Y-111441428D02*
X132935809Y-111479523D01*
X132935809Y-111479523D02*
X133012000Y-111555713D01*
X133012000Y-111555713D02*
X133050095Y-111669999D01*
X133050095Y-111669999D02*
X133050095Y-111860475D01*
X132326285Y-111098571D02*
X132288190Y-111060475D01*
X132288190Y-111060475D02*
X132250095Y-110984285D01*
X132250095Y-110984285D02*
X132250095Y-110793809D01*
X132250095Y-110793809D02*
X132288190Y-110717618D01*
X132288190Y-110717618D02*
X132326285Y-110679523D01*
X132326285Y-110679523D02*
X132402476Y-110641428D01*
X132402476Y-110641428D02*
X132478666Y-110641428D01*
X132478666Y-110641428D02*
X132592952Y-110679523D01*
X132592952Y-110679523D02*
X133050095Y-111136666D01*
X133050095Y-111136666D02*
X133050095Y-110641428D01*
%TO.C,J1*%
X149672619Y-102053333D02*
X150386904Y-102053333D01*
X150386904Y-102053333D02*
X150529761Y-102100952D01*
X150529761Y-102100952D02*
X150625000Y-102196190D01*
X150625000Y-102196190D02*
X150672619Y-102339047D01*
X150672619Y-102339047D02*
X150672619Y-102434285D01*
X150672619Y-101053333D02*
X150672619Y-101624761D01*
X150672619Y-101339047D02*
X149672619Y-101339047D01*
X149672619Y-101339047D02*
X149815476Y-101434285D01*
X149815476Y-101434285D02*
X149910714Y-101529523D01*
X149910714Y-101529523D02*
X149958333Y-101624761D01*
%TO.C,R4*%
X131592619Y-101686666D02*
X131116428Y-102019999D01*
X131592619Y-102258094D02*
X130592619Y-102258094D01*
X130592619Y-102258094D02*
X130592619Y-101877142D01*
X130592619Y-101877142D02*
X130640238Y-101781904D01*
X130640238Y-101781904D02*
X130687857Y-101734285D01*
X130687857Y-101734285D02*
X130783095Y-101686666D01*
X130783095Y-101686666D02*
X130925952Y-101686666D01*
X130925952Y-101686666D02*
X131021190Y-101734285D01*
X131021190Y-101734285D02*
X131068809Y-101781904D01*
X131068809Y-101781904D02*
X131116428Y-101877142D01*
X131116428Y-101877142D02*
X131116428Y-102258094D01*
X130925952Y-100829523D02*
X131592619Y-100829523D01*
X130545000Y-101067618D02*
X131259285Y-101305713D01*
X131259285Y-101305713D02*
X131259285Y-100686666D01*
%TO.C,C1*%
X135447380Y-102974166D02*
X135495000Y-103021785D01*
X135495000Y-103021785D02*
X135542619Y-103164642D01*
X135542619Y-103164642D02*
X135542619Y-103259880D01*
X135542619Y-103259880D02*
X135495000Y-103402737D01*
X135495000Y-103402737D02*
X135399761Y-103497975D01*
X135399761Y-103497975D02*
X135304523Y-103545594D01*
X135304523Y-103545594D02*
X135114047Y-103593213D01*
X135114047Y-103593213D02*
X134971190Y-103593213D01*
X134971190Y-103593213D02*
X134780714Y-103545594D01*
X134780714Y-103545594D02*
X134685476Y-103497975D01*
X134685476Y-103497975D02*
X134590238Y-103402737D01*
X134590238Y-103402737D02*
X134542619Y-103259880D01*
X134542619Y-103259880D02*
X134542619Y-103164642D01*
X134542619Y-103164642D02*
X134590238Y-103021785D01*
X134590238Y-103021785D02*
X134637857Y-102974166D01*
X135542619Y-102021785D02*
X135542619Y-102593213D01*
X135542619Y-102307499D02*
X134542619Y-102307499D01*
X134542619Y-102307499D02*
X134685476Y-102402737D01*
X134685476Y-102402737D02*
X134780714Y-102497975D01*
X134780714Y-102497975D02*
X134828333Y-102593213D01*
X175897380Y-103024166D02*
X175945000Y-103071785D01*
X175945000Y-103071785D02*
X175992619Y-103214642D01*
X175992619Y-103214642D02*
X175992619Y-103309880D01*
X175992619Y-103309880D02*
X175945000Y-103452737D01*
X175945000Y-103452737D02*
X175849761Y-103547975D01*
X175849761Y-103547975D02*
X175754523Y-103595594D01*
X175754523Y-103595594D02*
X175564047Y-103643213D01*
X175564047Y-103643213D02*
X175421190Y-103643213D01*
X175421190Y-103643213D02*
X175230714Y-103595594D01*
X175230714Y-103595594D02*
X175135476Y-103547975D01*
X175135476Y-103547975D02*
X175040238Y-103452737D01*
X175040238Y-103452737D02*
X174992619Y-103309880D01*
X174992619Y-103309880D02*
X174992619Y-103214642D01*
X174992619Y-103214642D02*
X175040238Y-103071785D01*
X175040238Y-103071785D02*
X175087857Y-103024166D01*
X175992619Y-102071785D02*
X175992619Y-102643213D01*
X175992619Y-102357499D02*
X174992619Y-102357499D01*
X174992619Y-102357499D02*
X175135476Y-102452737D01*
X175135476Y-102452737D02*
X175230714Y-102547975D01*
X175230714Y-102547975D02*
X175278333Y-102643213D01*
%TO.C,J1*%
X190122619Y-102103333D02*
X190836904Y-102103333D01*
X190836904Y-102103333D02*
X190979761Y-102150952D01*
X190979761Y-102150952D02*
X191075000Y-102246190D01*
X191075000Y-102246190D02*
X191122619Y-102389047D01*
X191122619Y-102389047D02*
X191122619Y-102484285D01*
X191122619Y-101103333D02*
X191122619Y-101674761D01*
X191122619Y-101389047D02*
X190122619Y-101389047D01*
X190122619Y-101389047D02*
X190265476Y-101484285D01*
X190265476Y-101484285D02*
X190360714Y-101579523D01*
X190360714Y-101579523D02*
X190408333Y-101674761D01*
%TO.C,R2*%
X173413333Y-102282619D02*
X173080000Y-101806428D01*
X172841905Y-102282619D02*
X172841905Y-101282619D01*
X172841905Y-101282619D02*
X173222857Y-101282619D01*
X173222857Y-101282619D02*
X173318095Y-101330238D01*
X173318095Y-101330238D02*
X173365714Y-101377857D01*
X173365714Y-101377857D02*
X173413333Y-101473095D01*
X173413333Y-101473095D02*
X173413333Y-101615952D01*
X173413333Y-101615952D02*
X173365714Y-101711190D01*
X173365714Y-101711190D02*
X173318095Y-101758809D01*
X173318095Y-101758809D02*
X173222857Y-101806428D01*
X173222857Y-101806428D02*
X172841905Y-101806428D01*
X173794286Y-101377857D02*
X173841905Y-101330238D01*
X173841905Y-101330238D02*
X173937143Y-101282619D01*
X173937143Y-101282619D02*
X174175238Y-101282619D01*
X174175238Y-101282619D02*
X174270476Y-101330238D01*
X174270476Y-101330238D02*
X174318095Y-101377857D01*
X174318095Y-101377857D02*
X174365714Y-101473095D01*
X174365714Y-101473095D02*
X174365714Y-101568333D01*
X174365714Y-101568333D02*
X174318095Y-101711190D01*
X174318095Y-101711190D02*
X173746667Y-102282619D01*
X173746667Y-102282619D02*
X174365714Y-102282619D01*
%TO.C,D2*%
X173500095Y-111910475D02*
X172700095Y-111910475D01*
X172700095Y-111910475D02*
X172700095Y-111719999D01*
X172700095Y-111719999D02*
X172738190Y-111605713D01*
X172738190Y-111605713D02*
X172814380Y-111529523D01*
X172814380Y-111529523D02*
X172890571Y-111491428D01*
X172890571Y-111491428D02*
X173042952Y-111453332D01*
X173042952Y-111453332D02*
X173157238Y-111453332D01*
X173157238Y-111453332D02*
X173309619Y-111491428D01*
X173309619Y-111491428D02*
X173385809Y-111529523D01*
X173385809Y-111529523D02*
X173462000Y-111605713D01*
X173462000Y-111605713D02*
X173500095Y-111719999D01*
X173500095Y-111719999D02*
X173500095Y-111910475D01*
X172776285Y-111148571D02*
X172738190Y-111110475D01*
X172738190Y-111110475D02*
X172700095Y-111034285D01*
X172700095Y-111034285D02*
X172700095Y-110843809D01*
X172700095Y-110843809D02*
X172738190Y-110767618D01*
X172738190Y-110767618D02*
X172776285Y-110729523D01*
X172776285Y-110729523D02*
X172852476Y-110691428D01*
X172852476Y-110691428D02*
X172928666Y-110691428D01*
X172928666Y-110691428D02*
X173042952Y-110729523D01*
X173042952Y-110729523D02*
X173500095Y-111186666D01*
X173500095Y-111186666D02*
X173500095Y-110691428D01*
%TO.C,J2*%
X179212619Y-110953333D02*
X179926904Y-110953333D01*
X179926904Y-110953333D02*
X180069761Y-111000952D01*
X180069761Y-111000952D02*
X180165000Y-111096190D01*
X180165000Y-111096190D02*
X180212619Y-111239047D01*
X180212619Y-111239047D02*
X180212619Y-111334285D01*
X179307857Y-110524761D02*
X179260238Y-110477142D01*
X179260238Y-110477142D02*
X179212619Y-110381904D01*
X179212619Y-110381904D02*
X179212619Y-110143809D01*
X179212619Y-110143809D02*
X179260238Y-110048571D01*
X179260238Y-110048571D02*
X179307857Y-110000952D01*
X179307857Y-110000952D02*
X179403095Y-109953333D01*
X179403095Y-109953333D02*
X179498333Y-109953333D01*
X179498333Y-109953333D02*
X179641190Y-110000952D01*
X179641190Y-110000952D02*
X180212619Y-110572380D01*
X180212619Y-110572380D02*
X180212619Y-109953333D01*
%TO.C,D3*%
X192492619Y-103708094D02*
X191492619Y-103708094D01*
X191492619Y-103708094D02*
X191492619Y-103469999D01*
X191492619Y-103469999D02*
X191540238Y-103327142D01*
X191540238Y-103327142D02*
X191635476Y-103231904D01*
X191635476Y-103231904D02*
X191730714Y-103184285D01*
X191730714Y-103184285D02*
X191921190Y-103136666D01*
X191921190Y-103136666D02*
X192064047Y-103136666D01*
X192064047Y-103136666D02*
X192254523Y-103184285D01*
X192254523Y-103184285D02*
X192349761Y-103231904D01*
X192349761Y-103231904D02*
X192445000Y-103327142D01*
X192445000Y-103327142D02*
X192492619Y-103469999D01*
X192492619Y-103469999D02*
X192492619Y-103708094D01*
X191492619Y-102803332D02*
X191492619Y-102184285D01*
X191492619Y-102184285D02*
X191873571Y-102517618D01*
X191873571Y-102517618D02*
X191873571Y-102374761D01*
X191873571Y-102374761D02*
X191921190Y-102279523D01*
X191921190Y-102279523D02*
X191968809Y-102231904D01*
X191968809Y-102231904D02*
X192064047Y-102184285D01*
X192064047Y-102184285D02*
X192302142Y-102184285D01*
X192302142Y-102184285D02*
X192397380Y-102231904D01*
X192397380Y-102231904D02*
X192445000Y-102279523D01*
X192445000Y-102279523D02*
X192492619Y-102374761D01*
X192492619Y-102374761D02*
X192492619Y-102660475D01*
X192492619Y-102660475D02*
X192445000Y-102755713D01*
X192445000Y-102755713D02*
X192397380Y-102803332D01*
%TO.C,R4*%
X172042619Y-101736666D02*
X171566428Y-102069999D01*
X172042619Y-102308094D02*
X171042619Y-102308094D01*
X171042619Y-102308094D02*
X171042619Y-101927142D01*
X171042619Y-101927142D02*
X171090238Y-101831904D01*
X171090238Y-101831904D02*
X171137857Y-101784285D01*
X171137857Y-101784285D02*
X171233095Y-101736666D01*
X171233095Y-101736666D02*
X171375952Y-101736666D01*
X171375952Y-101736666D02*
X171471190Y-101784285D01*
X171471190Y-101784285D02*
X171518809Y-101831904D01*
X171518809Y-101831904D02*
X171566428Y-101927142D01*
X171566428Y-101927142D02*
X171566428Y-102308094D01*
X171375952Y-100879523D02*
X172042619Y-100879523D01*
X170995000Y-101117618D02*
X171709285Y-101355713D01*
X171709285Y-101355713D02*
X171709285Y-100736666D01*
%TO.C,J2*%
X179332619Y-125183333D02*
X180046904Y-125183333D01*
X180046904Y-125183333D02*
X180189761Y-125230952D01*
X180189761Y-125230952D02*
X180285000Y-125326190D01*
X180285000Y-125326190D02*
X180332619Y-125469047D01*
X180332619Y-125469047D02*
X180332619Y-125564285D01*
X179427857Y-124754761D02*
X179380238Y-124707142D01*
X179380238Y-124707142D02*
X179332619Y-124611904D01*
X179332619Y-124611904D02*
X179332619Y-124373809D01*
X179332619Y-124373809D02*
X179380238Y-124278571D01*
X179380238Y-124278571D02*
X179427857Y-124230952D01*
X179427857Y-124230952D02*
X179523095Y-124183333D01*
X179523095Y-124183333D02*
X179618333Y-124183333D01*
X179618333Y-124183333D02*
X179761190Y-124230952D01*
X179761190Y-124230952D02*
X180332619Y-124802380D01*
X180332619Y-124802380D02*
X180332619Y-124183333D01*
%TO.C,R1*%
X178862619Y-123466666D02*
X178386428Y-123799999D01*
X178862619Y-124038094D02*
X177862619Y-124038094D01*
X177862619Y-124038094D02*
X177862619Y-123657142D01*
X177862619Y-123657142D02*
X177910238Y-123561904D01*
X177910238Y-123561904D02*
X177957857Y-123514285D01*
X177957857Y-123514285D02*
X178053095Y-123466666D01*
X178053095Y-123466666D02*
X178195952Y-123466666D01*
X178195952Y-123466666D02*
X178291190Y-123514285D01*
X178291190Y-123514285D02*
X178338809Y-123561904D01*
X178338809Y-123561904D02*
X178386428Y-123657142D01*
X178386428Y-123657142D02*
X178386428Y-124038094D01*
X178862619Y-122514285D02*
X178862619Y-123085713D01*
X178862619Y-122799999D02*
X177862619Y-122799999D01*
X177862619Y-122799999D02*
X178005476Y-122895237D01*
X178005476Y-122895237D02*
X178100714Y-122990475D01*
X178100714Y-122990475D02*
X178148333Y-123085713D01*
%TO.C,R2*%
X173533333Y-116512619D02*
X173200000Y-116036428D01*
X172961905Y-116512619D02*
X172961905Y-115512619D01*
X172961905Y-115512619D02*
X173342857Y-115512619D01*
X173342857Y-115512619D02*
X173438095Y-115560238D01*
X173438095Y-115560238D02*
X173485714Y-115607857D01*
X173485714Y-115607857D02*
X173533333Y-115703095D01*
X173533333Y-115703095D02*
X173533333Y-115845952D01*
X173533333Y-115845952D02*
X173485714Y-115941190D01*
X173485714Y-115941190D02*
X173438095Y-115988809D01*
X173438095Y-115988809D02*
X173342857Y-116036428D01*
X173342857Y-116036428D02*
X172961905Y-116036428D01*
X173914286Y-115607857D02*
X173961905Y-115560238D01*
X173961905Y-115560238D02*
X174057143Y-115512619D01*
X174057143Y-115512619D02*
X174295238Y-115512619D01*
X174295238Y-115512619D02*
X174390476Y-115560238D01*
X174390476Y-115560238D02*
X174438095Y-115607857D01*
X174438095Y-115607857D02*
X174485714Y-115703095D01*
X174485714Y-115703095D02*
X174485714Y-115798333D01*
X174485714Y-115798333D02*
X174438095Y-115941190D01*
X174438095Y-115941190D02*
X173866667Y-116512619D01*
X173866667Y-116512619D02*
X174485714Y-116512619D01*
%TO.C,D1*%
X170262619Y-126338094D02*
X169262619Y-126338094D01*
X169262619Y-126338094D02*
X169262619Y-126099999D01*
X169262619Y-126099999D02*
X169310238Y-125957142D01*
X169310238Y-125957142D02*
X169405476Y-125861904D01*
X169405476Y-125861904D02*
X169500714Y-125814285D01*
X169500714Y-125814285D02*
X169691190Y-125766666D01*
X169691190Y-125766666D02*
X169834047Y-125766666D01*
X169834047Y-125766666D02*
X170024523Y-125814285D01*
X170024523Y-125814285D02*
X170119761Y-125861904D01*
X170119761Y-125861904D02*
X170215000Y-125957142D01*
X170215000Y-125957142D02*
X170262619Y-126099999D01*
X170262619Y-126099999D02*
X170262619Y-126338094D01*
X170262619Y-124814285D02*
X170262619Y-125385713D01*
X170262619Y-125099999D02*
X169262619Y-125099999D01*
X169262619Y-125099999D02*
X169405476Y-125195237D01*
X169405476Y-125195237D02*
X169500714Y-125290475D01*
X169500714Y-125290475D02*
X169548333Y-125385713D01*
%TO.C,D3*%
X192612619Y-117938094D02*
X191612619Y-117938094D01*
X191612619Y-117938094D02*
X191612619Y-117699999D01*
X191612619Y-117699999D02*
X191660238Y-117557142D01*
X191660238Y-117557142D02*
X191755476Y-117461904D01*
X191755476Y-117461904D02*
X191850714Y-117414285D01*
X191850714Y-117414285D02*
X192041190Y-117366666D01*
X192041190Y-117366666D02*
X192184047Y-117366666D01*
X192184047Y-117366666D02*
X192374523Y-117414285D01*
X192374523Y-117414285D02*
X192469761Y-117461904D01*
X192469761Y-117461904D02*
X192565000Y-117557142D01*
X192565000Y-117557142D02*
X192612619Y-117699999D01*
X192612619Y-117699999D02*
X192612619Y-117938094D01*
X191612619Y-117033332D02*
X191612619Y-116414285D01*
X191612619Y-116414285D02*
X191993571Y-116747618D01*
X191993571Y-116747618D02*
X191993571Y-116604761D01*
X191993571Y-116604761D02*
X192041190Y-116509523D01*
X192041190Y-116509523D02*
X192088809Y-116461904D01*
X192088809Y-116461904D02*
X192184047Y-116414285D01*
X192184047Y-116414285D02*
X192422142Y-116414285D01*
X192422142Y-116414285D02*
X192517380Y-116461904D01*
X192517380Y-116461904D02*
X192565000Y-116509523D01*
X192565000Y-116509523D02*
X192612619Y-116604761D01*
X192612619Y-116604761D02*
X192612619Y-116890475D01*
X192612619Y-116890475D02*
X192565000Y-116985713D01*
X192565000Y-116985713D02*
X192517380Y-117033332D01*
%TO.C,U1*%
X181162619Y-121211904D02*
X181972142Y-121211904D01*
X181972142Y-121211904D02*
X182067380Y-121164285D01*
X182067380Y-121164285D02*
X182115000Y-121116666D01*
X182115000Y-121116666D02*
X182162619Y-121021428D01*
X182162619Y-121021428D02*
X182162619Y-120830952D01*
X182162619Y-120830952D02*
X182115000Y-120735714D01*
X182115000Y-120735714D02*
X182067380Y-120688095D01*
X182067380Y-120688095D02*
X181972142Y-120640476D01*
X181972142Y-120640476D02*
X181162619Y-120640476D01*
X182162619Y-119640476D02*
X182162619Y-120211904D01*
X182162619Y-119926190D02*
X181162619Y-119926190D01*
X181162619Y-119926190D02*
X181305476Y-120021428D01*
X181305476Y-120021428D02*
X181400714Y-120116666D01*
X181400714Y-120116666D02*
X181448333Y-120211904D01*
D11*
%TO.C,R3*%
X189666667Y-122870095D02*
X189400000Y-122489142D01*
X189209524Y-122870095D02*
X189209524Y-122070095D01*
X189209524Y-122070095D02*
X189514286Y-122070095D01*
X189514286Y-122070095D02*
X189590476Y-122108190D01*
X189590476Y-122108190D02*
X189628571Y-122146285D01*
X189628571Y-122146285D02*
X189666667Y-122222476D01*
X189666667Y-122222476D02*
X189666667Y-122336761D01*
X189666667Y-122336761D02*
X189628571Y-122412952D01*
X189628571Y-122412952D02*
X189590476Y-122451047D01*
X189590476Y-122451047D02*
X189514286Y-122489142D01*
X189514286Y-122489142D02*
X189209524Y-122489142D01*
X189933333Y-122070095D02*
X190428571Y-122070095D01*
X190428571Y-122070095D02*
X190161905Y-122374857D01*
X190161905Y-122374857D02*
X190276190Y-122374857D01*
X190276190Y-122374857D02*
X190352381Y-122412952D01*
X190352381Y-122412952D02*
X190390476Y-122451047D01*
X190390476Y-122451047D02*
X190428571Y-122527238D01*
X190428571Y-122527238D02*
X190428571Y-122717714D01*
X190428571Y-122717714D02*
X190390476Y-122793904D01*
X190390476Y-122793904D02*
X190352381Y-122832000D01*
X190352381Y-122832000D02*
X190276190Y-122870095D01*
X190276190Y-122870095D02*
X190047619Y-122870095D01*
X190047619Y-122870095D02*
X189971428Y-122832000D01*
X189971428Y-122832000D02*
X189933333Y-122793904D01*
D10*
%TO.C,D2*%
X173620095Y-126140475D02*
X172820095Y-126140475D01*
X172820095Y-126140475D02*
X172820095Y-125949999D01*
X172820095Y-125949999D02*
X172858190Y-125835713D01*
X172858190Y-125835713D02*
X172934380Y-125759523D01*
X172934380Y-125759523D02*
X173010571Y-125721428D01*
X173010571Y-125721428D02*
X173162952Y-125683332D01*
X173162952Y-125683332D02*
X173277238Y-125683332D01*
X173277238Y-125683332D02*
X173429619Y-125721428D01*
X173429619Y-125721428D02*
X173505809Y-125759523D01*
X173505809Y-125759523D02*
X173582000Y-125835713D01*
X173582000Y-125835713D02*
X173620095Y-125949999D01*
X173620095Y-125949999D02*
X173620095Y-126140475D01*
X172896285Y-125378571D02*
X172858190Y-125340475D01*
X172858190Y-125340475D02*
X172820095Y-125264285D01*
X172820095Y-125264285D02*
X172820095Y-125073809D01*
X172820095Y-125073809D02*
X172858190Y-124997618D01*
X172858190Y-124997618D02*
X172896285Y-124959523D01*
X172896285Y-124959523D02*
X172972476Y-124921428D01*
X172972476Y-124921428D02*
X173048666Y-124921428D01*
X173048666Y-124921428D02*
X173162952Y-124959523D01*
X173162952Y-124959523D02*
X173620095Y-125416666D01*
X173620095Y-125416666D02*
X173620095Y-124921428D01*
%TO.C,J1*%
X190242619Y-116333333D02*
X190956904Y-116333333D01*
X190956904Y-116333333D02*
X191099761Y-116380952D01*
X191099761Y-116380952D02*
X191195000Y-116476190D01*
X191195000Y-116476190D02*
X191242619Y-116619047D01*
X191242619Y-116619047D02*
X191242619Y-116714285D01*
X191242619Y-115333333D02*
X191242619Y-115904761D01*
X191242619Y-115619047D02*
X190242619Y-115619047D01*
X190242619Y-115619047D02*
X190385476Y-115714285D01*
X190385476Y-115714285D02*
X190480714Y-115809523D01*
X190480714Y-115809523D02*
X190528333Y-115904761D01*
%TO.C,R4*%
X172162619Y-115966666D02*
X171686428Y-116299999D01*
X172162619Y-116538094D02*
X171162619Y-116538094D01*
X171162619Y-116538094D02*
X171162619Y-116157142D01*
X171162619Y-116157142D02*
X171210238Y-116061904D01*
X171210238Y-116061904D02*
X171257857Y-116014285D01*
X171257857Y-116014285D02*
X171353095Y-115966666D01*
X171353095Y-115966666D02*
X171495952Y-115966666D01*
X171495952Y-115966666D02*
X171591190Y-116014285D01*
X171591190Y-116014285D02*
X171638809Y-116061904D01*
X171638809Y-116061904D02*
X171686428Y-116157142D01*
X171686428Y-116157142D02*
X171686428Y-116538094D01*
X171495952Y-115109523D02*
X172162619Y-115109523D01*
X171115000Y-115347618D02*
X171829285Y-115585713D01*
X171829285Y-115585713D02*
X171829285Y-114966666D01*
%TO.C,C1*%
X176017380Y-117254166D02*
X176065000Y-117301785D01*
X176065000Y-117301785D02*
X176112619Y-117444642D01*
X176112619Y-117444642D02*
X176112619Y-117539880D01*
X176112619Y-117539880D02*
X176065000Y-117682737D01*
X176065000Y-117682737D02*
X175969761Y-117777975D01*
X175969761Y-117777975D02*
X175874523Y-117825594D01*
X175874523Y-117825594D02*
X175684047Y-117873213D01*
X175684047Y-117873213D02*
X175541190Y-117873213D01*
X175541190Y-117873213D02*
X175350714Y-117825594D01*
X175350714Y-117825594D02*
X175255476Y-117777975D01*
X175255476Y-117777975D02*
X175160238Y-117682737D01*
X175160238Y-117682737D02*
X175112619Y-117539880D01*
X175112619Y-117539880D02*
X175112619Y-117444642D01*
X175112619Y-117444642D02*
X175160238Y-117301785D01*
X175160238Y-117301785D02*
X175207857Y-117254166D01*
X176112619Y-116301785D02*
X176112619Y-116873213D01*
X176112619Y-116587499D02*
X175112619Y-116587499D01*
X175112619Y-116587499D02*
X175255476Y-116682737D01*
X175255476Y-116682737D02*
X175350714Y-116777975D01*
X175350714Y-116777975D02*
X175398333Y-116873213D01*
X135567380Y-117204166D02*
X135615000Y-117251785D01*
X135615000Y-117251785D02*
X135662619Y-117394642D01*
X135662619Y-117394642D02*
X135662619Y-117489880D01*
X135662619Y-117489880D02*
X135615000Y-117632737D01*
X135615000Y-117632737D02*
X135519761Y-117727975D01*
X135519761Y-117727975D02*
X135424523Y-117775594D01*
X135424523Y-117775594D02*
X135234047Y-117823213D01*
X135234047Y-117823213D02*
X135091190Y-117823213D01*
X135091190Y-117823213D02*
X134900714Y-117775594D01*
X134900714Y-117775594D02*
X134805476Y-117727975D01*
X134805476Y-117727975D02*
X134710238Y-117632737D01*
X134710238Y-117632737D02*
X134662619Y-117489880D01*
X134662619Y-117489880D02*
X134662619Y-117394642D01*
X134662619Y-117394642D02*
X134710238Y-117251785D01*
X134710238Y-117251785D02*
X134757857Y-117204166D01*
X135662619Y-116251785D02*
X135662619Y-116823213D01*
X135662619Y-116537499D02*
X134662619Y-116537499D01*
X134662619Y-116537499D02*
X134805476Y-116632737D01*
X134805476Y-116632737D02*
X134900714Y-116727975D01*
X134900714Y-116727975D02*
X134948333Y-116823213D01*
%TO.C,R4*%
X131712619Y-115916666D02*
X131236428Y-116249999D01*
X131712619Y-116488094D02*
X130712619Y-116488094D01*
X130712619Y-116488094D02*
X130712619Y-116107142D01*
X130712619Y-116107142D02*
X130760238Y-116011904D01*
X130760238Y-116011904D02*
X130807857Y-115964285D01*
X130807857Y-115964285D02*
X130903095Y-115916666D01*
X130903095Y-115916666D02*
X131045952Y-115916666D01*
X131045952Y-115916666D02*
X131141190Y-115964285D01*
X131141190Y-115964285D02*
X131188809Y-116011904D01*
X131188809Y-116011904D02*
X131236428Y-116107142D01*
X131236428Y-116107142D02*
X131236428Y-116488094D01*
X131045952Y-115059523D02*
X131712619Y-115059523D01*
X130665000Y-115297618D02*
X131379285Y-115535713D01*
X131379285Y-115535713D02*
X131379285Y-114916666D01*
%TO.C,J1*%
X149792619Y-116283333D02*
X150506904Y-116283333D01*
X150506904Y-116283333D02*
X150649761Y-116330952D01*
X150649761Y-116330952D02*
X150745000Y-116426190D01*
X150745000Y-116426190D02*
X150792619Y-116569047D01*
X150792619Y-116569047D02*
X150792619Y-116664285D01*
X150792619Y-115283333D02*
X150792619Y-115854761D01*
X150792619Y-115569047D02*
X149792619Y-115569047D01*
X149792619Y-115569047D02*
X149935476Y-115664285D01*
X149935476Y-115664285D02*
X150030714Y-115759523D01*
X150030714Y-115759523D02*
X150078333Y-115854761D01*
%TO.C,D2*%
X133170095Y-126090475D02*
X132370095Y-126090475D01*
X132370095Y-126090475D02*
X132370095Y-125899999D01*
X132370095Y-125899999D02*
X132408190Y-125785713D01*
X132408190Y-125785713D02*
X132484380Y-125709523D01*
X132484380Y-125709523D02*
X132560571Y-125671428D01*
X132560571Y-125671428D02*
X132712952Y-125633332D01*
X132712952Y-125633332D02*
X132827238Y-125633332D01*
X132827238Y-125633332D02*
X132979619Y-125671428D01*
X132979619Y-125671428D02*
X133055809Y-125709523D01*
X133055809Y-125709523D02*
X133132000Y-125785713D01*
X133132000Y-125785713D02*
X133170095Y-125899999D01*
X133170095Y-125899999D02*
X133170095Y-126090475D01*
X132446285Y-125328571D02*
X132408190Y-125290475D01*
X132408190Y-125290475D02*
X132370095Y-125214285D01*
X132370095Y-125214285D02*
X132370095Y-125023809D01*
X132370095Y-125023809D02*
X132408190Y-124947618D01*
X132408190Y-124947618D02*
X132446285Y-124909523D01*
X132446285Y-124909523D02*
X132522476Y-124871428D01*
X132522476Y-124871428D02*
X132598666Y-124871428D01*
X132598666Y-124871428D02*
X132712952Y-124909523D01*
X132712952Y-124909523D02*
X133170095Y-125366666D01*
X133170095Y-125366666D02*
X133170095Y-124871428D01*
D11*
%TO.C,R3*%
X149216667Y-122820095D02*
X148950000Y-122439142D01*
X148759524Y-122820095D02*
X148759524Y-122020095D01*
X148759524Y-122020095D02*
X149064286Y-122020095D01*
X149064286Y-122020095D02*
X149140476Y-122058190D01*
X149140476Y-122058190D02*
X149178571Y-122096285D01*
X149178571Y-122096285D02*
X149216667Y-122172476D01*
X149216667Y-122172476D02*
X149216667Y-122286761D01*
X149216667Y-122286761D02*
X149178571Y-122362952D01*
X149178571Y-122362952D02*
X149140476Y-122401047D01*
X149140476Y-122401047D02*
X149064286Y-122439142D01*
X149064286Y-122439142D02*
X148759524Y-122439142D01*
X149483333Y-122020095D02*
X149978571Y-122020095D01*
X149978571Y-122020095D02*
X149711905Y-122324857D01*
X149711905Y-122324857D02*
X149826190Y-122324857D01*
X149826190Y-122324857D02*
X149902381Y-122362952D01*
X149902381Y-122362952D02*
X149940476Y-122401047D01*
X149940476Y-122401047D02*
X149978571Y-122477238D01*
X149978571Y-122477238D02*
X149978571Y-122667714D01*
X149978571Y-122667714D02*
X149940476Y-122743904D01*
X149940476Y-122743904D02*
X149902381Y-122782000D01*
X149902381Y-122782000D02*
X149826190Y-122820095D01*
X149826190Y-122820095D02*
X149597619Y-122820095D01*
X149597619Y-122820095D02*
X149521428Y-122782000D01*
X149521428Y-122782000D02*
X149483333Y-122743904D01*
D10*
%TO.C,U1*%
X140712619Y-121161904D02*
X141522142Y-121161904D01*
X141522142Y-121161904D02*
X141617380Y-121114285D01*
X141617380Y-121114285D02*
X141665000Y-121066666D01*
X141665000Y-121066666D02*
X141712619Y-120971428D01*
X141712619Y-120971428D02*
X141712619Y-120780952D01*
X141712619Y-120780952D02*
X141665000Y-120685714D01*
X141665000Y-120685714D02*
X141617380Y-120638095D01*
X141617380Y-120638095D02*
X141522142Y-120590476D01*
X141522142Y-120590476D02*
X140712619Y-120590476D01*
X141712619Y-119590476D02*
X141712619Y-120161904D01*
X141712619Y-119876190D02*
X140712619Y-119876190D01*
X140712619Y-119876190D02*
X140855476Y-119971428D01*
X140855476Y-119971428D02*
X140950714Y-120066666D01*
X140950714Y-120066666D02*
X140998333Y-120161904D01*
%TO.C,D3*%
X152162619Y-117888094D02*
X151162619Y-117888094D01*
X151162619Y-117888094D02*
X151162619Y-117649999D01*
X151162619Y-117649999D02*
X151210238Y-117507142D01*
X151210238Y-117507142D02*
X151305476Y-117411904D01*
X151305476Y-117411904D02*
X151400714Y-117364285D01*
X151400714Y-117364285D02*
X151591190Y-117316666D01*
X151591190Y-117316666D02*
X151734047Y-117316666D01*
X151734047Y-117316666D02*
X151924523Y-117364285D01*
X151924523Y-117364285D02*
X152019761Y-117411904D01*
X152019761Y-117411904D02*
X152115000Y-117507142D01*
X152115000Y-117507142D02*
X152162619Y-117649999D01*
X152162619Y-117649999D02*
X152162619Y-117888094D01*
X151162619Y-116983332D02*
X151162619Y-116364285D01*
X151162619Y-116364285D02*
X151543571Y-116697618D01*
X151543571Y-116697618D02*
X151543571Y-116554761D01*
X151543571Y-116554761D02*
X151591190Y-116459523D01*
X151591190Y-116459523D02*
X151638809Y-116411904D01*
X151638809Y-116411904D02*
X151734047Y-116364285D01*
X151734047Y-116364285D02*
X151972142Y-116364285D01*
X151972142Y-116364285D02*
X152067380Y-116411904D01*
X152067380Y-116411904D02*
X152115000Y-116459523D01*
X152115000Y-116459523D02*
X152162619Y-116554761D01*
X152162619Y-116554761D02*
X152162619Y-116840475D01*
X152162619Y-116840475D02*
X152115000Y-116935713D01*
X152115000Y-116935713D02*
X152067380Y-116983332D01*
%TO.C,D1*%
X129812619Y-126288094D02*
X128812619Y-126288094D01*
X128812619Y-126288094D02*
X128812619Y-126049999D01*
X128812619Y-126049999D02*
X128860238Y-125907142D01*
X128860238Y-125907142D02*
X128955476Y-125811904D01*
X128955476Y-125811904D02*
X129050714Y-125764285D01*
X129050714Y-125764285D02*
X129241190Y-125716666D01*
X129241190Y-125716666D02*
X129384047Y-125716666D01*
X129384047Y-125716666D02*
X129574523Y-125764285D01*
X129574523Y-125764285D02*
X129669761Y-125811904D01*
X129669761Y-125811904D02*
X129765000Y-125907142D01*
X129765000Y-125907142D02*
X129812619Y-126049999D01*
X129812619Y-126049999D02*
X129812619Y-126288094D01*
X129812619Y-124764285D02*
X129812619Y-125335713D01*
X129812619Y-125049999D02*
X128812619Y-125049999D01*
X128812619Y-125049999D02*
X128955476Y-125145237D01*
X128955476Y-125145237D02*
X129050714Y-125240475D01*
X129050714Y-125240475D02*
X129098333Y-125335713D01*
%TO.C,R2*%
X133083333Y-116462619D02*
X132750000Y-115986428D01*
X132511905Y-116462619D02*
X132511905Y-115462619D01*
X132511905Y-115462619D02*
X132892857Y-115462619D01*
X132892857Y-115462619D02*
X132988095Y-115510238D01*
X132988095Y-115510238D02*
X133035714Y-115557857D01*
X133035714Y-115557857D02*
X133083333Y-115653095D01*
X133083333Y-115653095D02*
X133083333Y-115795952D01*
X133083333Y-115795952D02*
X133035714Y-115891190D01*
X133035714Y-115891190D02*
X132988095Y-115938809D01*
X132988095Y-115938809D02*
X132892857Y-115986428D01*
X132892857Y-115986428D02*
X132511905Y-115986428D01*
X133464286Y-115557857D02*
X133511905Y-115510238D01*
X133511905Y-115510238D02*
X133607143Y-115462619D01*
X133607143Y-115462619D02*
X133845238Y-115462619D01*
X133845238Y-115462619D02*
X133940476Y-115510238D01*
X133940476Y-115510238D02*
X133988095Y-115557857D01*
X133988095Y-115557857D02*
X134035714Y-115653095D01*
X134035714Y-115653095D02*
X134035714Y-115748333D01*
X134035714Y-115748333D02*
X133988095Y-115891190D01*
X133988095Y-115891190D02*
X133416667Y-116462619D01*
X133416667Y-116462619D02*
X134035714Y-116462619D01*
%TO.C,R1*%
X138412619Y-123416666D02*
X137936428Y-123749999D01*
X138412619Y-123988094D02*
X137412619Y-123988094D01*
X137412619Y-123988094D02*
X137412619Y-123607142D01*
X137412619Y-123607142D02*
X137460238Y-123511904D01*
X137460238Y-123511904D02*
X137507857Y-123464285D01*
X137507857Y-123464285D02*
X137603095Y-123416666D01*
X137603095Y-123416666D02*
X137745952Y-123416666D01*
X137745952Y-123416666D02*
X137841190Y-123464285D01*
X137841190Y-123464285D02*
X137888809Y-123511904D01*
X137888809Y-123511904D02*
X137936428Y-123607142D01*
X137936428Y-123607142D02*
X137936428Y-123988094D01*
X138412619Y-122464285D02*
X138412619Y-123035713D01*
X138412619Y-122749999D02*
X137412619Y-122749999D01*
X137412619Y-122749999D02*
X137555476Y-122845237D01*
X137555476Y-122845237D02*
X137650714Y-122940475D01*
X137650714Y-122940475D02*
X137698333Y-123035713D01*
%TO.C,J2*%
X138882619Y-125133333D02*
X139596904Y-125133333D01*
X139596904Y-125133333D02*
X139739761Y-125180952D01*
X139739761Y-125180952D02*
X139835000Y-125276190D01*
X139835000Y-125276190D02*
X139882619Y-125419047D01*
X139882619Y-125419047D02*
X139882619Y-125514285D01*
X138977857Y-124704761D02*
X138930238Y-124657142D01*
X138930238Y-124657142D02*
X138882619Y-124561904D01*
X138882619Y-124561904D02*
X138882619Y-124323809D01*
X138882619Y-124323809D02*
X138930238Y-124228571D01*
X138930238Y-124228571D02*
X138977857Y-124180952D01*
X138977857Y-124180952D02*
X139073095Y-124133333D01*
X139073095Y-124133333D02*
X139168333Y-124133333D01*
X139168333Y-124133333D02*
X139311190Y-124180952D01*
X139311190Y-124180952D02*
X139882619Y-124752380D01*
X139882619Y-124752380D02*
X139882619Y-124133333D01*
D12*
%TO.C,R2*%
X132487064Y-47175000D02*
X132032936Y-47175000D01*
X132487064Y-45705000D02*
X132032936Y-45705000D01*
%TO.C,D1*%
X130010000Y-48630000D02*
X128010000Y-48630000D01*
X130010000Y-48630000D02*
X130010000Y-52640000D01*
X128010000Y-48630000D02*
X128010000Y-52640000D01*
%TO.C,J1*%
X148840000Y-43310000D02*
X148840000Y-44640000D01*
X147510000Y-43310000D02*
X148840000Y-43310000D01*
X146240000Y-43310000D02*
X138560000Y-43310000D01*
X146240000Y-43310000D02*
X146240000Y-45970000D01*
X138560000Y-43310000D02*
X138560000Y-45970000D01*
X146240000Y-45970000D02*
X138560000Y-45970000D01*
%TO.C,R4*%
X129595000Y-44862936D02*
X129595000Y-45317064D01*
X128125000Y-44862936D02*
X128125000Y-45317064D01*
%TO.C,R3*%
X190015000Y-62792936D02*
X190015000Y-63247064D01*
X188545000Y-62792936D02*
X188545000Y-63247064D01*
%TO.C,J2*%
X139930000Y-54820000D02*
X139930000Y-53490000D01*
X141260000Y-54820000D02*
X139930000Y-54820000D01*
X142530000Y-54820000D02*
X150210000Y-54820000D01*
X142530000Y-54820000D02*
X142530000Y-52160000D01*
X150210000Y-54820000D02*
X150210000Y-52160000D01*
X142530000Y-52160000D02*
X150210000Y-52160000D01*
%TO.C,R1*%
X134725000Y-52217064D02*
X134725000Y-51762936D01*
X136195000Y-52217064D02*
X136195000Y-51762936D01*
%TO.C,U1*%
X186740000Y-65480000D02*
X186015000Y-65480000D01*
X182520000Y-64755000D02*
X182520000Y-65480000D01*
X186740000Y-64755000D02*
X186740000Y-65480000D01*
X182520000Y-61985000D02*
X182520000Y-61260000D01*
X186740000Y-61985000D02*
X186740000Y-61260000D01*
X182520000Y-61260000D02*
X183245000Y-61260000D01*
X186740000Y-61260000D02*
X186015000Y-61260000D01*
%TO.C,D3*%
X152270000Y-47117500D02*
X150350000Y-47117500D01*
X150350000Y-47117500D02*
X150350000Y-49802500D01*
X152270000Y-49802500D02*
X152270000Y-47117500D01*
%TO.C,R1*%
X175295000Y-66497064D02*
X175295000Y-66042936D01*
X176765000Y-66497064D02*
X176765000Y-66042936D01*
%TO.C,R4*%
X170045000Y-44912936D02*
X170045000Y-45367064D01*
X168575000Y-44912936D02*
X168575000Y-45367064D01*
%TO.C,D1*%
X170580000Y-62910000D02*
X168580000Y-62910000D01*
X170580000Y-62910000D02*
X170580000Y-66920000D01*
X168580000Y-62910000D02*
X168580000Y-66920000D01*
%TO.C,R3*%
X189895000Y-48562936D02*
X189895000Y-49017064D01*
X188425000Y-48562936D02*
X188425000Y-49017064D01*
%TO.C,D2*%
X133160000Y-48680000D02*
X131160000Y-48680000D01*
X133160000Y-48680000D02*
X133160000Y-52690000D01*
X131160000Y-48680000D02*
X131160000Y-52690000D01*
%TO.C,J2*%
X140050000Y-69050000D02*
X140050000Y-67720000D01*
X141380000Y-69050000D02*
X140050000Y-69050000D01*
X142650000Y-69050000D02*
X150330000Y-69050000D01*
X142650000Y-69050000D02*
X142650000Y-66390000D01*
X150330000Y-69050000D02*
X150330000Y-66390000D01*
X142650000Y-66390000D02*
X150330000Y-66390000D01*
%TO.C,R1*%
X134845000Y-66447064D02*
X134845000Y-65992936D01*
X136315000Y-66447064D02*
X136315000Y-65992936D01*
%TO.C,R2*%
X132607064Y-61405000D02*
X132152936Y-61405000D01*
X132607064Y-59935000D02*
X132152936Y-59935000D01*
%TO.C,D1*%
X130130000Y-62860000D02*
X128130000Y-62860000D01*
X130130000Y-62860000D02*
X130130000Y-66870000D01*
X128130000Y-62860000D02*
X128130000Y-66870000D01*
%TO.C,D3*%
X152390000Y-61347500D02*
X150470000Y-61347500D01*
X150470000Y-61347500D02*
X150470000Y-64032500D01*
X152390000Y-64032500D02*
X152390000Y-61347500D01*
%TO.C,U1*%
X146290000Y-65430000D02*
X145565000Y-65430000D01*
X142070000Y-64705000D02*
X142070000Y-65430000D01*
X146290000Y-64705000D02*
X146290000Y-65430000D01*
X142070000Y-61935000D02*
X142070000Y-61210000D01*
X146290000Y-61935000D02*
X146290000Y-61210000D01*
X142070000Y-61210000D02*
X142795000Y-61210000D01*
X146290000Y-61210000D02*
X145565000Y-61210000D01*
%TO.C,R3*%
X149565000Y-62742936D02*
X149565000Y-63197064D01*
X148095000Y-62742936D02*
X148095000Y-63197064D01*
%TO.C,D2*%
X133280000Y-62910000D02*
X131280000Y-62910000D01*
X133280000Y-62910000D02*
X133280000Y-66920000D01*
X131280000Y-62910000D02*
X131280000Y-66920000D01*
%TO.C,J1*%
X148960000Y-57540000D02*
X148960000Y-58870000D01*
X147630000Y-57540000D02*
X148960000Y-57540000D01*
X146360000Y-57540000D02*
X138680000Y-57540000D01*
X146360000Y-57540000D02*
X146360000Y-60200000D01*
X138680000Y-57540000D02*
X138680000Y-60200000D01*
X146360000Y-60200000D02*
X138680000Y-60200000D01*
%TO.C,R4*%
X129715000Y-59092936D02*
X129715000Y-59547064D01*
X128245000Y-59092936D02*
X128245000Y-59547064D01*
%TO.C,C1*%
X137590000Y-59246248D02*
X137590000Y-60668752D01*
X135770000Y-59246248D02*
X135770000Y-60668752D01*
X178040000Y-59296248D02*
X178040000Y-60718752D01*
X176220000Y-59296248D02*
X176220000Y-60718752D01*
%TO.C,J1*%
X189410000Y-57590000D02*
X189410000Y-58920000D01*
X188080000Y-57590000D02*
X189410000Y-57590000D01*
X186810000Y-57590000D02*
X179130000Y-57590000D01*
X186810000Y-57590000D02*
X186810000Y-60250000D01*
X179130000Y-57590000D02*
X179130000Y-60250000D01*
X186810000Y-60250000D02*
X179130000Y-60250000D01*
%TO.C,D3*%
X192720000Y-47167500D02*
X190800000Y-47167500D01*
X190800000Y-47167500D02*
X190800000Y-49852500D01*
X192720000Y-49852500D02*
X192720000Y-47167500D01*
%TO.C,J2*%
X180380000Y-54870000D02*
X180380000Y-53540000D01*
X181710000Y-54870000D02*
X180380000Y-54870000D01*
X182980000Y-54870000D02*
X190660000Y-54870000D01*
X182980000Y-54870000D02*
X182980000Y-52210000D01*
X190660000Y-54870000D02*
X190660000Y-52210000D01*
X182980000Y-52210000D02*
X190660000Y-52210000D01*
%TO.C,D1*%
X170460000Y-48680000D02*
X168460000Y-48680000D01*
X170460000Y-48680000D02*
X170460000Y-52690000D01*
X168460000Y-48680000D02*
X168460000Y-52690000D01*
%TO.C,U1*%
X186620000Y-51250000D02*
X185895000Y-51250000D01*
X182400000Y-50525000D02*
X182400000Y-51250000D01*
X186620000Y-50525000D02*
X186620000Y-51250000D01*
X182400000Y-47755000D02*
X182400000Y-47030000D01*
X186620000Y-47755000D02*
X186620000Y-47030000D01*
X182400000Y-47030000D02*
X183125000Y-47030000D01*
X186620000Y-47030000D02*
X185895000Y-47030000D01*
%TO.C,R2*%
X173057064Y-61455000D02*
X172602936Y-61455000D01*
X173057064Y-59985000D02*
X172602936Y-59985000D01*
%TO.C,D2*%
X173730000Y-62960000D02*
X171730000Y-62960000D01*
X173730000Y-62960000D02*
X173730000Y-66970000D01*
X171730000Y-62960000D02*
X171730000Y-66970000D01*
%TO.C,J1*%
X189290000Y-43360000D02*
X189290000Y-44690000D01*
X187960000Y-43360000D02*
X189290000Y-43360000D01*
X186690000Y-43360000D02*
X179010000Y-43360000D01*
X186690000Y-43360000D02*
X186690000Y-46020000D01*
X179010000Y-43360000D02*
X179010000Y-46020000D01*
X186690000Y-46020000D02*
X179010000Y-46020000D01*
%TO.C,D2*%
X173610000Y-48730000D02*
X171610000Y-48730000D01*
X173610000Y-48730000D02*
X173610000Y-52740000D01*
X171610000Y-48730000D02*
X171610000Y-52740000D01*
%TO.C,R2*%
X172937064Y-47225000D02*
X172482936Y-47225000D01*
X172937064Y-45755000D02*
X172482936Y-45755000D01*
%TO.C,R1*%
X175175000Y-52267064D02*
X175175000Y-51812936D01*
X176645000Y-52267064D02*
X176645000Y-51812936D01*
%TO.C,C1*%
X137470000Y-45016248D02*
X137470000Y-46438752D01*
X135650000Y-45016248D02*
X135650000Y-46438752D01*
%TO.C,J2*%
X180500000Y-69100000D02*
X180500000Y-67770000D01*
X181830000Y-69100000D02*
X180500000Y-69100000D01*
X183100000Y-69100000D02*
X190780000Y-69100000D01*
X183100000Y-69100000D02*
X183100000Y-66440000D01*
X190780000Y-69100000D02*
X190780000Y-66440000D01*
X183100000Y-66440000D02*
X190780000Y-66440000D01*
%TO.C,D3*%
X192840000Y-61397500D02*
X190920000Y-61397500D01*
X190920000Y-61397500D02*
X190920000Y-64082500D01*
X192840000Y-64082500D02*
X192840000Y-61397500D01*
%TO.C,R4*%
X170165000Y-59142936D02*
X170165000Y-59597064D01*
X168695000Y-59142936D02*
X168695000Y-59597064D01*
%TO.C,C1*%
X177920000Y-45066248D02*
X177920000Y-46488752D01*
X176100000Y-45066248D02*
X176100000Y-46488752D01*
%TO.C,U1*%
X146170000Y-51200000D02*
X145445000Y-51200000D01*
X141950000Y-50475000D02*
X141950000Y-51200000D01*
X146170000Y-50475000D02*
X146170000Y-51200000D01*
X141950000Y-47705000D02*
X141950000Y-46980000D01*
X146170000Y-47705000D02*
X146170000Y-46980000D01*
X141950000Y-46980000D02*
X142675000Y-46980000D01*
X146170000Y-46980000D02*
X145445000Y-46980000D01*
%TO.C,R3*%
X149445000Y-48512936D02*
X149445000Y-48967064D01*
X147975000Y-48512936D02*
X147975000Y-48967064D01*
%TO.C,R2*%
X132737064Y-75675000D02*
X132282936Y-75675000D01*
X132737064Y-74205000D02*
X132282936Y-74205000D01*
%TO.C,D1*%
X130260000Y-77130000D02*
X128260000Y-77130000D01*
X130260000Y-77130000D02*
X130260000Y-81140000D01*
X128260000Y-77130000D02*
X128260000Y-81140000D01*
%TO.C,J1*%
X149090000Y-71810000D02*
X149090000Y-73140000D01*
X147760000Y-71810000D02*
X149090000Y-71810000D01*
X146490000Y-71810000D02*
X138810000Y-71810000D01*
X146490000Y-71810000D02*
X146490000Y-74470000D01*
X138810000Y-71810000D02*
X138810000Y-74470000D01*
X146490000Y-74470000D02*
X138810000Y-74470000D01*
%TO.C,R4*%
X129845000Y-73362936D02*
X129845000Y-73817064D01*
X128375000Y-73362936D02*
X128375000Y-73817064D01*
%TO.C,R3*%
X190265000Y-91292936D02*
X190265000Y-91747064D01*
X188795000Y-91292936D02*
X188795000Y-91747064D01*
%TO.C,J2*%
X140180000Y-83320000D02*
X140180000Y-81990000D01*
X141510000Y-83320000D02*
X140180000Y-83320000D01*
X142780000Y-83320000D02*
X150460000Y-83320000D01*
X142780000Y-83320000D02*
X142780000Y-80660000D01*
X150460000Y-83320000D02*
X150460000Y-80660000D01*
X142780000Y-80660000D02*
X150460000Y-80660000D01*
%TO.C,R1*%
X134975000Y-80717064D02*
X134975000Y-80262936D01*
X136445000Y-80717064D02*
X136445000Y-80262936D01*
%TO.C,U1*%
X186990000Y-93980000D02*
X186265000Y-93980000D01*
X182770000Y-93255000D02*
X182770000Y-93980000D01*
X186990000Y-93255000D02*
X186990000Y-93980000D01*
X182770000Y-90485000D02*
X182770000Y-89760000D01*
X186990000Y-90485000D02*
X186990000Y-89760000D01*
X182770000Y-89760000D02*
X183495000Y-89760000D01*
X186990000Y-89760000D02*
X186265000Y-89760000D01*
%TO.C,D3*%
X152520000Y-75617500D02*
X150600000Y-75617500D01*
X150600000Y-75617500D02*
X150600000Y-78302500D01*
X152520000Y-78302500D02*
X152520000Y-75617500D01*
%TO.C,R1*%
X175545000Y-94997064D02*
X175545000Y-94542936D01*
X177015000Y-94997064D02*
X177015000Y-94542936D01*
%TO.C,R4*%
X170295000Y-73412936D02*
X170295000Y-73867064D01*
X168825000Y-73412936D02*
X168825000Y-73867064D01*
%TO.C,D1*%
X170830000Y-91410000D02*
X168830000Y-91410000D01*
X170830000Y-91410000D02*
X170830000Y-95420000D01*
X168830000Y-91410000D02*
X168830000Y-95420000D01*
%TO.C,R3*%
X190145000Y-77062936D02*
X190145000Y-77517064D01*
X188675000Y-77062936D02*
X188675000Y-77517064D01*
%TO.C,D2*%
X133410000Y-77180000D02*
X131410000Y-77180000D01*
X133410000Y-77180000D02*
X133410000Y-81190000D01*
X131410000Y-77180000D02*
X131410000Y-81190000D01*
%TO.C,J2*%
X140300000Y-97550000D02*
X140300000Y-96220000D01*
X141630000Y-97550000D02*
X140300000Y-97550000D01*
X142900000Y-97550000D02*
X150580000Y-97550000D01*
X142900000Y-97550000D02*
X142900000Y-94890000D01*
X150580000Y-97550000D02*
X150580000Y-94890000D01*
X142900000Y-94890000D02*
X150580000Y-94890000D01*
%TO.C,R1*%
X135095000Y-94947064D02*
X135095000Y-94492936D01*
X136565000Y-94947064D02*
X136565000Y-94492936D01*
%TO.C,R2*%
X132857064Y-89905000D02*
X132402936Y-89905000D01*
X132857064Y-88435000D02*
X132402936Y-88435000D01*
%TO.C,D1*%
X130380000Y-91360000D02*
X128380000Y-91360000D01*
X130380000Y-91360000D02*
X130380000Y-95370000D01*
X128380000Y-91360000D02*
X128380000Y-95370000D01*
%TO.C,D3*%
X152640000Y-89847500D02*
X150720000Y-89847500D01*
X150720000Y-89847500D02*
X150720000Y-92532500D01*
X152640000Y-92532500D02*
X152640000Y-89847500D01*
%TO.C,U1*%
X146540000Y-93930000D02*
X145815000Y-93930000D01*
X142320000Y-93205000D02*
X142320000Y-93930000D01*
X146540000Y-93205000D02*
X146540000Y-93930000D01*
X142320000Y-90435000D02*
X142320000Y-89710000D01*
X146540000Y-90435000D02*
X146540000Y-89710000D01*
X142320000Y-89710000D02*
X143045000Y-89710000D01*
X146540000Y-89710000D02*
X145815000Y-89710000D01*
%TO.C,R3*%
X149815000Y-91242936D02*
X149815000Y-91697064D01*
X148345000Y-91242936D02*
X148345000Y-91697064D01*
%TO.C,D2*%
X133530000Y-91410000D02*
X131530000Y-91410000D01*
X133530000Y-91410000D02*
X133530000Y-95420000D01*
X131530000Y-91410000D02*
X131530000Y-95420000D01*
%TO.C,J1*%
X149210000Y-86040000D02*
X149210000Y-87370000D01*
X147880000Y-86040000D02*
X149210000Y-86040000D01*
X146610000Y-86040000D02*
X138930000Y-86040000D01*
X146610000Y-86040000D02*
X146610000Y-88700000D01*
X138930000Y-86040000D02*
X138930000Y-88700000D01*
X146610000Y-88700000D02*
X138930000Y-88700000D01*
%TO.C,R4*%
X129965000Y-87592936D02*
X129965000Y-88047064D01*
X128495000Y-87592936D02*
X128495000Y-88047064D01*
%TO.C,C1*%
X137840000Y-87746248D02*
X137840000Y-89168752D01*
X136020000Y-87746248D02*
X136020000Y-89168752D01*
X178290000Y-87796248D02*
X178290000Y-89218752D01*
X176470000Y-87796248D02*
X176470000Y-89218752D01*
%TO.C,J1*%
X189660000Y-86090000D02*
X189660000Y-87420000D01*
X188330000Y-86090000D02*
X189660000Y-86090000D01*
X187060000Y-86090000D02*
X179380000Y-86090000D01*
X187060000Y-86090000D02*
X187060000Y-88750000D01*
X179380000Y-86090000D02*
X179380000Y-88750000D01*
X187060000Y-88750000D02*
X179380000Y-88750000D01*
%TO.C,D3*%
X192970000Y-75667500D02*
X191050000Y-75667500D01*
X191050000Y-75667500D02*
X191050000Y-78352500D01*
X192970000Y-78352500D02*
X192970000Y-75667500D01*
%TO.C,J2*%
X180630000Y-83370000D02*
X180630000Y-82040000D01*
X181960000Y-83370000D02*
X180630000Y-83370000D01*
X183230000Y-83370000D02*
X190910000Y-83370000D01*
X183230000Y-83370000D02*
X183230000Y-80710000D01*
X190910000Y-83370000D02*
X190910000Y-80710000D01*
X183230000Y-80710000D02*
X190910000Y-80710000D01*
%TO.C,D1*%
X170710000Y-77180000D02*
X168710000Y-77180000D01*
X170710000Y-77180000D02*
X170710000Y-81190000D01*
X168710000Y-77180000D02*
X168710000Y-81190000D01*
%TO.C,U1*%
X186870000Y-79750000D02*
X186145000Y-79750000D01*
X182650000Y-79025000D02*
X182650000Y-79750000D01*
X186870000Y-79025000D02*
X186870000Y-79750000D01*
X182650000Y-76255000D02*
X182650000Y-75530000D01*
X186870000Y-76255000D02*
X186870000Y-75530000D01*
X182650000Y-75530000D02*
X183375000Y-75530000D01*
X186870000Y-75530000D02*
X186145000Y-75530000D01*
%TO.C,R2*%
X173307064Y-89955000D02*
X172852936Y-89955000D01*
X173307064Y-88485000D02*
X172852936Y-88485000D01*
%TO.C,D2*%
X173980000Y-91460000D02*
X171980000Y-91460000D01*
X173980000Y-91460000D02*
X173980000Y-95470000D01*
X171980000Y-91460000D02*
X171980000Y-95470000D01*
%TO.C,J1*%
X189540000Y-71860000D02*
X189540000Y-73190000D01*
X188210000Y-71860000D02*
X189540000Y-71860000D01*
X186940000Y-71860000D02*
X179260000Y-71860000D01*
X186940000Y-71860000D02*
X186940000Y-74520000D01*
X179260000Y-71860000D02*
X179260000Y-74520000D01*
X186940000Y-74520000D02*
X179260000Y-74520000D01*
%TO.C,D2*%
X173860000Y-77230000D02*
X171860000Y-77230000D01*
X173860000Y-77230000D02*
X173860000Y-81240000D01*
X171860000Y-77230000D02*
X171860000Y-81240000D01*
%TO.C,R2*%
X173187064Y-75725000D02*
X172732936Y-75725000D01*
X173187064Y-74255000D02*
X172732936Y-74255000D01*
%TO.C,R1*%
X175425000Y-80767064D02*
X175425000Y-80312936D01*
X176895000Y-80767064D02*
X176895000Y-80312936D01*
%TO.C,C1*%
X137720000Y-73516248D02*
X137720000Y-74938752D01*
X135900000Y-73516248D02*
X135900000Y-74938752D01*
%TO.C,J2*%
X180750000Y-97600000D02*
X180750000Y-96270000D01*
X182080000Y-97600000D02*
X180750000Y-97600000D01*
X183350000Y-97600000D02*
X191030000Y-97600000D01*
X183350000Y-97600000D02*
X183350000Y-94940000D01*
X191030000Y-97600000D02*
X191030000Y-94940000D01*
X183350000Y-94940000D02*
X191030000Y-94940000D01*
%TO.C,D3*%
X193090000Y-89897500D02*
X191170000Y-89897500D01*
X191170000Y-89897500D02*
X191170000Y-92582500D01*
X193090000Y-92582500D02*
X193090000Y-89897500D01*
%TO.C,R4*%
X170415000Y-87642936D02*
X170415000Y-88097064D01*
X168945000Y-87642936D02*
X168945000Y-88097064D01*
%TO.C,C1*%
X178170000Y-73566248D02*
X178170000Y-74988752D01*
X176350000Y-73566248D02*
X176350000Y-74988752D01*
%TO.C,U1*%
X146420000Y-79700000D02*
X145695000Y-79700000D01*
X142200000Y-78975000D02*
X142200000Y-79700000D01*
X146420000Y-78975000D02*
X146420000Y-79700000D01*
X142200000Y-76205000D02*
X142200000Y-75480000D01*
X146420000Y-76205000D02*
X146420000Y-75480000D01*
X142200000Y-75480000D02*
X142925000Y-75480000D01*
X146420000Y-75480000D02*
X145695000Y-75480000D01*
%TO.C,R3*%
X149695000Y-77012936D02*
X149695000Y-77467064D01*
X148225000Y-77012936D02*
X148225000Y-77467064D01*
X190265000Y-105642936D02*
X190265000Y-106097064D01*
X188795000Y-105642936D02*
X188795000Y-106097064D01*
%TO.C,U1*%
X186990000Y-108330000D02*
X186265000Y-108330000D01*
X182770000Y-107605000D02*
X182770000Y-108330000D01*
X186990000Y-107605000D02*
X186990000Y-108330000D01*
X182770000Y-104835000D02*
X182770000Y-104110000D01*
X186990000Y-104835000D02*
X186990000Y-104110000D01*
X182770000Y-104110000D02*
X183495000Y-104110000D01*
X186990000Y-104110000D02*
X186265000Y-104110000D01*
%TO.C,R1*%
X175545000Y-109347064D02*
X175545000Y-108892936D01*
X177015000Y-109347064D02*
X177015000Y-108892936D01*
%TO.C,D1*%
X170830000Y-105760000D02*
X168830000Y-105760000D01*
X170830000Y-105760000D02*
X170830000Y-109770000D01*
X168830000Y-105760000D02*
X168830000Y-109770000D01*
%TO.C,J2*%
X140300000Y-111900000D02*
X140300000Y-110570000D01*
X141630000Y-111900000D02*
X140300000Y-111900000D01*
X142900000Y-111900000D02*
X150580000Y-111900000D01*
X142900000Y-111900000D02*
X142900000Y-109240000D01*
X150580000Y-111900000D02*
X150580000Y-109240000D01*
X142900000Y-109240000D02*
X150580000Y-109240000D01*
%TO.C,R1*%
X135095000Y-109297064D02*
X135095000Y-108842936D01*
X136565000Y-109297064D02*
X136565000Y-108842936D01*
%TO.C,R2*%
X132857064Y-104255000D02*
X132402936Y-104255000D01*
X132857064Y-102785000D02*
X132402936Y-102785000D01*
%TO.C,D1*%
X130380000Y-105710000D02*
X128380000Y-105710000D01*
X130380000Y-105710000D02*
X130380000Y-109720000D01*
X128380000Y-105710000D02*
X128380000Y-109720000D01*
%TO.C,D3*%
X152640000Y-104197500D02*
X150720000Y-104197500D01*
X150720000Y-104197500D02*
X150720000Y-106882500D01*
X152640000Y-106882500D02*
X152640000Y-104197500D01*
%TO.C,U1*%
X146540000Y-108280000D02*
X145815000Y-108280000D01*
X142320000Y-107555000D02*
X142320000Y-108280000D01*
X146540000Y-107555000D02*
X146540000Y-108280000D01*
X142320000Y-104785000D02*
X142320000Y-104060000D01*
X146540000Y-104785000D02*
X146540000Y-104060000D01*
X142320000Y-104060000D02*
X143045000Y-104060000D01*
X146540000Y-104060000D02*
X145815000Y-104060000D01*
%TO.C,R3*%
X149815000Y-105592936D02*
X149815000Y-106047064D01*
X148345000Y-105592936D02*
X148345000Y-106047064D01*
%TO.C,D2*%
X133530000Y-105760000D02*
X131530000Y-105760000D01*
X133530000Y-105760000D02*
X133530000Y-109770000D01*
X131530000Y-105760000D02*
X131530000Y-109770000D01*
%TO.C,J1*%
X149210000Y-100390000D02*
X149210000Y-101720000D01*
X147880000Y-100390000D02*
X149210000Y-100390000D01*
X146610000Y-100390000D02*
X138930000Y-100390000D01*
X146610000Y-100390000D02*
X146610000Y-103050000D01*
X138930000Y-100390000D02*
X138930000Y-103050000D01*
X146610000Y-103050000D02*
X138930000Y-103050000D01*
%TO.C,R4*%
X129965000Y-101942936D02*
X129965000Y-102397064D01*
X128495000Y-101942936D02*
X128495000Y-102397064D01*
%TO.C,C1*%
X137840000Y-102096248D02*
X137840000Y-103518752D01*
X136020000Y-102096248D02*
X136020000Y-103518752D01*
X178290000Y-102146248D02*
X178290000Y-103568752D01*
X176470000Y-102146248D02*
X176470000Y-103568752D01*
%TO.C,J1*%
X189660000Y-100440000D02*
X189660000Y-101770000D01*
X188330000Y-100440000D02*
X189660000Y-100440000D01*
X187060000Y-100440000D02*
X179380000Y-100440000D01*
X187060000Y-100440000D02*
X187060000Y-103100000D01*
X179380000Y-100440000D02*
X179380000Y-103100000D01*
X187060000Y-103100000D02*
X179380000Y-103100000D01*
%TO.C,R2*%
X173307064Y-104305000D02*
X172852936Y-104305000D01*
X173307064Y-102835000D02*
X172852936Y-102835000D01*
%TO.C,D2*%
X173980000Y-105810000D02*
X171980000Y-105810000D01*
X173980000Y-105810000D02*
X173980000Y-109820000D01*
X171980000Y-105810000D02*
X171980000Y-109820000D01*
%TO.C,J2*%
X180750000Y-111950000D02*
X180750000Y-110620000D01*
X182080000Y-111950000D02*
X180750000Y-111950000D01*
X183350000Y-111950000D02*
X191030000Y-111950000D01*
X183350000Y-111950000D02*
X183350000Y-109290000D01*
X191030000Y-111950000D02*
X191030000Y-109290000D01*
X183350000Y-109290000D02*
X191030000Y-109290000D01*
%TO.C,D3*%
X193090000Y-104247500D02*
X191170000Y-104247500D01*
X191170000Y-104247500D02*
X191170000Y-106932500D01*
X193090000Y-106932500D02*
X193090000Y-104247500D01*
%TO.C,R4*%
X170415000Y-101992936D02*
X170415000Y-102447064D01*
X168945000Y-101992936D02*
X168945000Y-102447064D01*
%TO.C,J2*%
X180870000Y-126180000D02*
X180870000Y-124850000D01*
X182200000Y-126180000D02*
X180870000Y-126180000D01*
X183470000Y-126180000D02*
X191150000Y-126180000D01*
X183470000Y-126180000D02*
X183470000Y-123520000D01*
X191150000Y-126180000D02*
X191150000Y-123520000D01*
X183470000Y-123520000D02*
X191150000Y-123520000D01*
%TO.C,R1*%
X175665000Y-123577064D02*
X175665000Y-123122936D01*
X177135000Y-123577064D02*
X177135000Y-123122936D01*
%TO.C,R2*%
X173427064Y-118535000D02*
X172972936Y-118535000D01*
X173427064Y-117065000D02*
X172972936Y-117065000D01*
%TO.C,D1*%
X170950000Y-119990000D02*
X168950000Y-119990000D01*
X170950000Y-119990000D02*
X170950000Y-124000000D01*
X168950000Y-119990000D02*
X168950000Y-124000000D01*
%TO.C,D3*%
X193210000Y-118477500D02*
X191290000Y-118477500D01*
X191290000Y-118477500D02*
X191290000Y-121162500D01*
X193210000Y-121162500D02*
X193210000Y-118477500D01*
%TO.C,U1*%
X187110000Y-122560000D02*
X186385000Y-122560000D01*
X182890000Y-121835000D02*
X182890000Y-122560000D01*
X187110000Y-121835000D02*
X187110000Y-122560000D01*
X182890000Y-119065000D02*
X182890000Y-118340000D01*
X187110000Y-119065000D02*
X187110000Y-118340000D01*
X182890000Y-118340000D02*
X183615000Y-118340000D01*
X187110000Y-118340000D02*
X186385000Y-118340000D01*
%TO.C,R3*%
X190385000Y-119872936D02*
X190385000Y-120327064D01*
X188915000Y-119872936D02*
X188915000Y-120327064D01*
%TO.C,D2*%
X174100000Y-120040000D02*
X172100000Y-120040000D01*
X174100000Y-120040000D02*
X174100000Y-124050000D01*
X172100000Y-120040000D02*
X172100000Y-124050000D01*
%TO.C,J1*%
X189780000Y-114670000D02*
X189780000Y-116000000D01*
X188450000Y-114670000D02*
X189780000Y-114670000D01*
X187180000Y-114670000D02*
X179500000Y-114670000D01*
X187180000Y-114670000D02*
X187180000Y-117330000D01*
X179500000Y-114670000D02*
X179500000Y-117330000D01*
X187180000Y-117330000D02*
X179500000Y-117330000D01*
%TO.C,R4*%
X170535000Y-116222936D02*
X170535000Y-116677064D01*
X169065000Y-116222936D02*
X169065000Y-116677064D01*
%TO.C,C1*%
X178410000Y-116376248D02*
X178410000Y-117798752D01*
X176590000Y-116376248D02*
X176590000Y-117798752D01*
X137960000Y-116326248D02*
X137960000Y-117748752D01*
X136140000Y-116326248D02*
X136140000Y-117748752D01*
%TO.C,R4*%
X130085000Y-116172936D02*
X130085000Y-116627064D01*
X128615000Y-116172936D02*
X128615000Y-116627064D01*
%TO.C,J1*%
X149330000Y-114620000D02*
X149330000Y-115950000D01*
X148000000Y-114620000D02*
X149330000Y-114620000D01*
X146730000Y-114620000D02*
X139050000Y-114620000D01*
X146730000Y-114620000D02*
X146730000Y-117280000D01*
X139050000Y-114620000D02*
X139050000Y-117280000D01*
X146730000Y-117280000D02*
X139050000Y-117280000D01*
%TO.C,D2*%
X133650000Y-119990000D02*
X131650000Y-119990000D01*
X133650000Y-119990000D02*
X133650000Y-124000000D01*
X131650000Y-119990000D02*
X131650000Y-124000000D01*
%TO.C,R3*%
X149935000Y-119822936D02*
X149935000Y-120277064D01*
X148465000Y-119822936D02*
X148465000Y-120277064D01*
%TO.C,U1*%
X146660000Y-122510000D02*
X145935000Y-122510000D01*
X142440000Y-121785000D02*
X142440000Y-122510000D01*
X146660000Y-121785000D02*
X146660000Y-122510000D01*
X142440000Y-119015000D02*
X142440000Y-118290000D01*
X146660000Y-119015000D02*
X146660000Y-118290000D01*
X142440000Y-118290000D02*
X143165000Y-118290000D01*
X146660000Y-118290000D02*
X145935000Y-118290000D01*
%TO.C,D3*%
X152760000Y-118427500D02*
X150840000Y-118427500D01*
X150840000Y-118427500D02*
X150840000Y-121112500D01*
X152760000Y-121112500D02*
X152760000Y-118427500D01*
%TO.C,D1*%
X130500000Y-119940000D02*
X128500000Y-119940000D01*
X130500000Y-119940000D02*
X130500000Y-123950000D01*
X128500000Y-119940000D02*
X128500000Y-123950000D01*
%TO.C,R2*%
X132977064Y-118485000D02*
X132522936Y-118485000D01*
X132977064Y-117015000D02*
X132522936Y-117015000D01*
%TO.C,R1*%
X135215000Y-123527064D02*
X135215000Y-123072936D01*
X136685000Y-123527064D02*
X136685000Y-123072936D01*
%TO.C,J2*%
X140420000Y-126130000D02*
X140420000Y-124800000D01*
X141750000Y-126130000D02*
X140420000Y-126130000D01*
X143020000Y-126130000D02*
X150700000Y-126130000D01*
X143020000Y-126130000D02*
X143020000Y-123470000D01*
X150700000Y-126130000D02*
X150700000Y-123470000D01*
X143020000Y-123470000D02*
X150700000Y-123470000D01*
%TD*%
M02*
