%TF.GenerationSoftware,KiCad,Pcbnew,7.0.1*%
%TF.CreationDate,2023-04-10T19:00:45+03:00*%
%TF.ProjectId,Attiny_USB_panel,41747469-6e79-45f5-9553-425f70616e65,rev?*%
%TF.SameCoordinates,Original*%
%TF.FileFunction,Soldermask,Bot*%
%TF.FilePolarity,Negative*%
%FSLAX46Y46*%
G04 Gerber Fmt 4.6, Leading zero omitted, Abs format (unit mm)*
G04 Created by KiCad (PCBNEW 7.0.1) date 2023-04-10 19:00:45*
%MOMM*%
%LPD*%
G01*
G04 APERTURE LIST*
%ADD10R,1.700000X1.700000*%
%ADD11O,1.700000X1.700000*%
G04 APERTURE END LIST*
D10*
%TO.C,J1*%
X147510000Y-44640000D03*
D11*
X144970000Y-44640000D03*
X142430000Y-44640000D03*
X139890000Y-44640000D03*
%TD*%
D10*
%TO.C,J2*%
X141260000Y-53490000D03*
D11*
X143800000Y-53490000D03*
X146340000Y-53490000D03*
X148880000Y-53490000D03*
%TD*%
D10*
%TO.C,J2*%
X141380000Y-67720000D03*
D11*
X143920000Y-67720000D03*
X146460000Y-67720000D03*
X149000000Y-67720000D03*
%TD*%
D10*
%TO.C,J1*%
X147630000Y-58870000D03*
D11*
X145090000Y-58870000D03*
X142550000Y-58870000D03*
X140010000Y-58870000D03*
%TD*%
D10*
%TO.C,J1*%
X188080000Y-58920000D03*
D11*
X185540000Y-58920000D03*
X183000000Y-58920000D03*
X180460000Y-58920000D03*
%TD*%
D10*
%TO.C,J2*%
X181710000Y-53540000D03*
D11*
X184250000Y-53540000D03*
X186790000Y-53540000D03*
X189330000Y-53540000D03*
%TD*%
D10*
%TO.C,J1*%
X187960000Y-44690000D03*
D11*
X185420000Y-44690000D03*
X182880000Y-44690000D03*
X180340000Y-44690000D03*
%TD*%
D10*
%TO.C,J2*%
X181830000Y-67770000D03*
D11*
X184370000Y-67770000D03*
X186910000Y-67770000D03*
X189450000Y-67770000D03*
%TD*%
D10*
%TO.C,J1*%
X147760000Y-73140000D03*
D11*
X145220000Y-73140000D03*
X142680000Y-73140000D03*
X140140000Y-73140000D03*
%TD*%
D10*
%TO.C,J2*%
X141510000Y-81990000D03*
D11*
X144050000Y-81990000D03*
X146590000Y-81990000D03*
X149130000Y-81990000D03*
%TD*%
D10*
%TO.C,J2*%
X141630000Y-96220000D03*
D11*
X144170000Y-96220000D03*
X146710000Y-96220000D03*
X149250000Y-96220000D03*
%TD*%
D10*
%TO.C,J1*%
X147880000Y-87370000D03*
D11*
X145340000Y-87370000D03*
X142800000Y-87370000D03*
X140260000Y-87370000D03*
%TD*%
D10*
%TO.C,J1*%
X188330000Y-87420000D03*
D11*
X185790000Y-87420000D03*
X183250000Y-87420000D03*
X180710000Y-87420000D03*
%TD*%
D10*
%TO.C,J2*%
X181960000Y-82040000D03*
D11*
X184500000Y-82040000D03*
X187040000Y-82040000D03*
X189580000Y-82040000D03*
%TD*%
D10*
%TO.C,J1*%
X188210000Y-73190000D03*
D11*
X185670000Y-73190000D03*
X183130000Y-73190000D03*
X180590000Y-73190000D03*
%TD*%
D10*
%TO.C,J2*%
X182080000Y-96270000D03*
D11*
X184620000Y-96270000D03*
X187160000Y-96270000D03*
X189700000Y-96270000D03*
%TD*%
D10*
%TO.C,J2*%
X141630000Y-110570000D03*
D11*
X144170000Y-110570000D03*
X146710000Y-110570000D03*
X149250000Y-110570000D03*
%TD*%
D10*
%TO.C,J1*%
X147880000Y-101720000D03*
D11*
X145340000Y-101720000D03*
X142800000Y-101720000D03*
X140260000Y-101720000D03*
%TD*%
D10*
%TO.C,J1*%
X188330000Y-101770000D03*
D11*
X185790000Y-101770000D03*
X183250000Y-101770000D03*
X180710000Y-101770000D03*
%TD*%
D10*
%TO.C,J2*%
X182080000Y-110620000D03*
D11*
X184620000Y-110620000D03*
X187160000Y-110620000D03*
X189700000Y-110620000D03*
%TD*%
D10*
%TO.C,J2*%
X182200000Y-124850000D03*
D11*
X184740000Y-124850000D03*
X187280000Y-124850000D03*
X189820000Y-124850000D03*
%TD*%
D10*
%TO.C,J1*%
X188450000Y-116000000D03*
D11*
X185910000Y-116000000D03*
X183370000Y-116000000D03*
X180830000Y-116000000D03*
%TD*%
D10*
%TO.C,J1*%
X148000000Y-115950000D03*
D11*
X145460000Y-115950000D03*
X142920000Y-115950000D03*
X140380000Y-115950000D03*
%TD*%
D10*
%TO.C,J2*%
X141750000Y-124800000D03*
D11*
X144290000Y-124800000D03*
X146830000Y-124800000D03*
X149370000Y-124800000D03*
%TD*%
M02*
